<svg width="192" height="60" viewBox="0 0 192 60" fill="none" xmlns="http://www.w3.org/2000/svg">
<path d="M63.4928 34.3847C63.495 38.2138 62.6249 41.9945 60.9469 45.448C59.2689 48.9014 56.8257 51.9394 53.7976 54.3377C56.115 51.4985 56.2342 46.5722 56.2342 46.5722C57.1447 46.3291 58.4855 44.9486 58.4855 44.9486C56.9642 43.8064 56.168 41.1662 55.8088 37.1472C55.4496 33.1282 58.5451 27.7238 58.7884 25.3284C59.0317 22.933 57.7522 23.2871 57.0834 24.6382C56.4362 25.9305 52.8143 33.4121 52.3293 34.3096C52.6703 33.4839 53.488 30.1617 51.6837 28.1791C49.3663 25.6287 45.9894 26.4086 44.6023 27.9653C44.3622 27.3045 42.937 25.9191 41.3744 26.5849C38.1481 27.9653 40.5252 34.0257 35.1073 34.0257C36.7179 35.3947 40.0998 35.3474 40.8894 32.9471C41.679 30.5468 42.4702 28.8824 43.7945 29.3148C40.0948 32.3433 43.0165 37.3887 46.3023 36.6577C45.7097 38.5032 39.9094 44.1164 39.0586 45.071C38.2077 46.0256 38.1432 47.4142 39.8498 46.7534C41.5565 46.0925 46.2427 40.9949 46.9131 40.9949C47.5835 40.9949 47.6431 44.8948 45.0277 49.2255C45.0277 49.2255 47.1796 49.214 47.8533 49.0378C47.8533 49.0378 47.7507 54.7734 42.106 59.605C40.5871 59.8713 39.047 60.0035 37.5042 59.9999C36.4113 59.9992 35.3195 59.9322 34.235 59.7992C25.9914 54.8305 26.9515 46.3748 28.0987 45.6552C29.2458 44.9356 31.7636 46.5526 33.4983 47.2249C35.935 48.1746 36.5392 46.4172 35.397 45.6552C34.2548 44.8932 29.3683 42.3688 27.8057 38.9993C34.0727 37.7722 34.5279 30.1258 30.7273 27.298C27.1353 24.6317 24.4371 25.7527 23.0532 21.9589C22.9986 24.6317 24.8741 26.9977 25.2432 27.298C20.8798 27.2751 18.7974 34.3798 23.0532 37.3838C20.9212 36.1502 18.5988 33.9376 15.2053 28.7975C14.2651 27.3812 12.7687 27.7826 13.4987 29.819C14.2287 31.8554 18.6716 38.6403 18.7957 40.4988C18.9265 42.5989 16.0595 46.2573 18.1667 51.4871C15.3505 48.3952 13.3395 44.6744 12.3071 40.6457C11.2747 36.6169 11.252 32.4011 12.2408 28.3617C13.2297 24.3223 15.2005 20.5807 17.9832 17.4595C20.7659 14.3383 24.2771 11.9312 28.2139 10.4458C32.1507 8.96033 36.395 8.44117 40.5807 8.93306C44.7663 9.42495 48.7678 10.9131 52.2401 13.2692C55.7123 15.6253 58.551 18.7787 60.5114 22.4573C62.4718 26.1359 63.495 30.2293 63.4928 34.3847Z" fill="white"/>
<path d="M63.2372 43.0861C65.9268 43.0861 68.1071 40.2048 68.1071 36.6505C68.1071 33.0962 65.9268 30.2148 63.2372 30.2148C60.5475 30.2148 58.3672 33.0962 58.3672 36.6505C58.3672 40.2048 60.5475 43.0861 63.2372 43.0861Z" fill="#506900"/>
<path d="M41.7784 15.7223C45.4627 15.7223 48.4493 13.1434 48.4493 9.96224C48.4493 6.78103 45.4627 4.20215 41.7784 4.20215C38.0941 4.20215 35.1074 6.78103 35.1074 9.96224C35.1074 13.1434 38.0941 15.7223 41.7784 15.7223Z" fill="#EC008C"/>
<path d="M15.8116 25.8036C18.9382 25.8036 21.4728 23.5469 21.4728 20.7631C21.4728 17.9794 18.9382 15.7227 15.8116 15.7227C12.685 15.7227 10.1504 17.9794 10.1504 20.7631C10.1504 23.5469 12.685 25.8036 15.8116 25.8036Z" fill="#EF4136"/>
<path d="M29.2708 58.6841C26.6158 57.8062 24.1214 56.5131 21.883 54.8544C21.883 54.8544 21.8715 54.8364 21.8599 54.8299C19.8354 52.6058 20.7458 49.4614 21.595 49.2362C23.2537 48.8006 25.1093 56.1989 29.2708 58.6841Z" fill="white"/>
<path d="M50.987 56.2824C49.539 57.1495 48.0096 57.8768 46.4199 58.4543C50.9936 53.0075 51.131 48.1367 52.2914 48.1367C52.6986 48.1367 53.7348 50.5843 50.987 56.2824Z" fill="white"/>
<path d="M68.1059 36.6511C68.1059 40.2083 65.9274 43.0884 63.2326 43.0884C62.8191 43.0878 62.4086 43.02 62.0176 42.8877C63.4688 38.8255 63.856 34.4678 63.1432 30.2188H63.2326C65.9274 30.2188 68.1059 33.0988 68.1059 36.6511Z" fill="#8DC63F"/>
<path d="M48.4529 9.95408C48.4544 10.3354 48.41 10.7155 48.3205 11.0865C44.9262 9.55687 41.2367 8.76815 37.5046 8.77432C36.7382 8.77432 35.9767 8.81022 35.2285 8.87549C35.8162 6.2141 38.5276 4.20215 41.7786 4.20215C45.465 4.20215 48.4529 6.78032 48.4529 9.95408Z" fill="#F763A7"/>
<path d="M18.88 16.5286C16.4087 19.0234 14.4835 21.992 13.2237 25.2503C11.4029 24.4116 10.1465 22.7178 10.1465 20.7646C10.1465 17.9808 12.6841 15.7208 15.8094 15.7208C16.8879 15.7134 17.9486 15.9924 18.88 16.5286Z" fill="#FBB040"/>
<path d="M10.3702 44.8471C10.3702 45.0085 10.3216 45.1662 10.2307 45.3004C10.1397 45.4346 10.0105 45.5391 9.85923 45.6009C9.708 45.6627 9.54159 45.6788 9.38104 45.6473C9.22048 45.6158 9.07301 45.5381 8.95726 45.424C8.84151 45.3099 8.76268 45.1646 8.73075 45.0063C8.69881 44.848 8.7152 44.684 8.77785 44.5349C8.84049 44.3858 8.94657 44.2584 9.08267 44.1687C9.21878 44.0791 9.37881 44.0312 9.54251 44.0312C9.76202 44.0312 9.97253 44.1172 10.1278 44.2702C10.283 44.4232 10.3702 44.6307 10.3702 44.8471Z" fill="#EC008C"/>
<path d="M59.5614 57.4493C59.5614 57.6552 59.4995 57.8564 59.3834 58.0276C59.2674 58.1988 59.1024 58.3323 58.9095 58.4111C58.7165 58.4899 58.5041 58.5105 58.2993 58.4703C58.0944 58.4301 57.9062 58.331 57.7585 58.1854C57.6108 58.0398 57.5103 57.8543 57.4695 57.6524C57.4288 57.4504 57.4497 57.2411 57.5296 57.0509C57.6095 56.8606 57.7449 56.698 57.9186 56.5836C58.0922 56.4693 58.2964 56.4082 58.5053 56.4082C58.7854 56.4082 59.054 56.5179 59.2521 56.7131C59.4501 56.9084 59.5614 57.1732 59.5614 57.4493Z" fill="#EF4136"/>
<path d="M63.2956 14.6849C63.2959 14.89 63.2345 15.0906 63.1192 15.2612C63.0038 15.4318 62.8396 15.5649 62.6475 15.6435C62.4554 15.7222 62.2439 15.7428 62.0398 15.7029C61.8358 15.663 61.6483 15.5642 61.5012 15.4192C61.3541 15.2742 61.254 15.0894 61.2135 14.8883C61.173 14.6872 61.1939 14.4787 61.2737 14.2893C61.3534 14.0999 61.4884 13.9381 61.6615 13.8243C61.8347 13.7106 62.0381 13.6501 62.2461 13.6504C62.5245 13.6504 62.7914 13.7594 62.9882 13.9534C63.185 14.1474 63.2956 14.4105 63.2956 14.6849Z" fill="#2BB673"/>
<path d="M2.10227 36.6527C2.10259 36.8578 2.04118 37.0583 1.92581 37.229C1.81044 37.3996 1.64628 37.5327 1.45415 37.6113C1.26201 37.6899 1.05053 37.7106 0.846475 37.6707C0.642422 37.6307 0.454971 37.532 0.307868 37.387C0.160765 37.242 0.0606217 37.0572 0.0201163 36.8561C-0.020389 36.6549 0.000569273 36.4465 0.080332 36.2571C0.160095 36.0677 0.295077 35.9058 0.468188 35.7921C0.641299 35.6784 0.84475 35.6178 1.05278 35.6182C1.33112 35.6182 1.59807 35.7272 1.79488 35.9212C1.9917 36.1152 2.10227 36.3783 2.10227 36.6527Z" fill="#2BB673"/>
<path d="M29.938 2.4001C29.938 2.55436 29.8916 2.70516 29.8046 2.83343C29.7177 2.9617 29.5941 3.06167 29.4495 3.1207C29.3049 3.17974 29.1458 3.19518 28.9924 3.16509C28.8389 3.13499 28.6979 3.06071 28.5872 2.95162C28.4766 2.84254 28.4012 2.70356 28.3707 2.55226C28.3401 2.40096 28.3558 2.24413 28.4157 2.10161C28.4756 1.95909 28.577 1.83727 28.7071 1.75157C28.8372 1.66586 28.9902 1.62012 29.1467 1.62012C29.3566 1.62012 29.5578 1.70229 29.7062 1.84857C29.8546 1.99484 29.938 2.19323 29.938 2.4001Z" fill="#EF4136"/>
<path d="M51.7887 1.98095C51.7887 2.37281 51.6708 2.75588 51.4499 3.08168C51.229 3.40748 50.915 3.66138 50.5477 3.81126C50.1804 3.96115 49.7763 4.00028 49.3864 3.92371C48.9966 3.84715 48.6385 3.65832 48.3575 3.38111C48.0766 3.10391 47.8853 2.75079 47.8079 2.36641C47.7306 1.98204 47.7706 1.58368 47.923 1.22174C48.0753 0.859799 48.3332 0.55053 48.6638 0.333057C48.9945 0.115583 49.3832 -0.000322115 49.7807 6.7237e-07C50.0446 5.83995e-07 50.3058 0.0512518 50.5495 0.150824C50.7932 0.250396 51.0147 0.396338 51.2011 0.580307C51.3876 0.764277 51.5355 0.982667 51.6363 1.223C51.7371 1.46333 51.7889 1.72088 51.7887 1.98095Z" fill="#FBB040"/>
<path d="M15.1407 7.91985C15.141 8.19295 15.0591 8.46001 14.9054 8.68724C14.7518 8.91447 14.5332 9.09166 14.2773 9.1964C14.0214 9.30113 13.7398 9.3287 13.4681 9.27562C13.1963 9.22254 12.9466 9.09119 12.7506 8.8982C12.5546 8.7052 12.421 8.45922 12.3669 8.19139C12.3127 7.92357 12.3403 7.64592 12.4463 7.39358C12.5522 7.14124 12.7317 6.92554 12.962 6.77378C13.1924 6.62202 13.4632 6.54102 13.7402 6.54102C13.9241 6.5408 14.1061 6.57631 14.276 6.64551C14.4459 6.7147 14.6003 6.81623 14.7304 6.94429C14.8604 7.07235 14.9636 7.22442 15.034 7.39182C15.1044 7.55921 15.1407 7.73864 15.1407 7.91985Z" fill="#8DC63F"/>
<path d="M9.53815 27.604C9.53815 28.0193 9.4132 28.4254 9.17911 28.7707C8.94502 29.1161 8.6123 29.3852 8.22302 29.5442C7.83374 29.7031 7.40539 29.7447 6.99213 29.6637C6.57887 29.5827 6.19927 29.3826 5.90133 29.0889C5.60339 28.7952 5.40048 28.4211 5.31828 28.0137C5.23608 27.6063 5.27827 27.1841 5.43952 26.8003C5.60076 26.4166 5.87382 26.0886 6.22416 25.8578C6.5745 25.6271 6.9864 25.5039 7.40775 25.5039C7.97277 25.5039 8.51465 25.7252 8.91417 26.119C9.3137 26.5128 9.53815 27.047 9.53815 27.604Z" fill="#0899D0"/>
<path d="M69.729 49.2182C69.7293 49.634 69.6045 50.0405 69.3705 50.3863C69.1364 50.7321 68.8035 51.0018 68.414 51.1611C68.0244 51.3204 67.5957 51.3623 67.182 51.2814C66.7683 51.2005 66.3882 51.0004 66.0899 50.7066C65.7916 50.4127 65.5883 50.0382 65.5059 49.6305C65.4235 49.2227 65.4657 48.8001 65.627 48.416C65.7883 48.0318 66.0616 47.7035 66.4122 47.4725C66.7629 47.2415 67.1751 47.1182 67.5969 47.1182C68.1621 47.1182 68.7041 47.3394 69.1039 47.7332C69.5037 48.127 69.7285 48.6611 69.729 49.2182Z" fill="#0899D0"/>
<path d="M35.5327 20.9428C35.5327 21.2278 35.4469 21.5065 35.2862 21.7434C35.1256 21.9804 34.8972 22.1651 34.63 22.2741C34.3628 22.3831 34.0688 22.4116 33.7853 22.3558C33.5017 22.3001 33.2412 22.1627 33.0369 21.961C32.8325 21.7594 32.6935 21.5025 32.6373 21.2229C32.581 20.9433 32.6102 20.6535 32.7211 20.3903C32.832 20.127 33.0196 19.9021 33.2602 19.744C33.5008 19.5859 33.7835 19.5016 34.0727 19.502C34.2646 19.502 34.4545 19.5392 34.6318 19.6117C34.809 19.6841 34.97 19.7902 35.1056 19.9241C35.2412 20.0579 35.3487 20.2167 35.422 20.3915C35.4953 20.5663 35.5329 20.7537 35.5327 20.9428Z" fill="#F763A7"/>
<path d="M43.5362 20.2216C43.5362 20.3639 43.4934 20.503 43.4131 20.6213C43.3329 20.7397 43.2189 20.8319 43.0855 20.8864C42.9521 20.9408 42.8054 20.9551 42.6638 20.9273C42.5222 20.8996 42.3921 20.831 42.29 20.7304C42.1879 20.6298 42.1184 20.5015 42.0902 20.3619C42.062 20.2224 42.0765 20.0777 42.1317 19.9462C42.187 19.8147 42.2806 19.7023 42.4006 19.6232C42.5207 19.5442 42.6618 19.502 42.8062 19.502C42.9998 19.502 43.1855 19.5778 43.3224 19.7127C43.4593 19.8477 43.5362 20.0307 43.5362 20.2216Z" fill="#FBB040"/>
<path d="M49.324 16.262C49.324 16.4579 49.2651 16.6494 49.1547 16.8122C49.0443 16.9751 48.8873 17.1021 48.7037 17.177C48.5201 17.252 48.3181 17.2716 48.1232 17.2334C47.9283 17.1952 47.7493 17.1009 47.6087 16.9623C47.4682 16.8238 47.3725 16.6473 47.3338 16.4552C47.295 16.2631 47.3149 16.0639 47.3909 15.8829C47.467 15.7019 47.5958 15.5472 47.761 15.4384C47.9262 15.3296 48.1205 15.2715 48.3192 15.2715C48.5857 15.2715 48.8413 15.3758 49.0297 15.5616C49.2182 15.7473 49.324 15.9993 49.324 16.262Z" fill="#8DC63F"/>
<path d="M35.9559 24.7598L36.6859 26.2186L38.3197 26.4519L37.1378 27.586L37.4176 29.1883L35.9559 28.4328L34.4976 29.1883L34.7757 27.586L33.5938 26.4519L35.2276 26.2186L35.9559 24.7598Z" fill="#FC800A"/>
<path d="M51.1815 20.2236L51.7542 21.3691L53.0371 21.5519L52.1101 22.4444L52.3286 23.7042L51.1815 23.1102L50.0327 23.7042L50.2529 22.4444L49.3242 21.5519L50.6071 21.3691L51.1815 20.2236Z" fill="#FC800A"/>
<path d="M29.8943 12.5039L30.4488 13.6119L31.6886 13.7881L30.7915 14.6497L31.0033 15.8669L29.8943 15.2926L28.7869 15.8669L28.9987 14.6497L28.1016 13.7881L29.3414 13.6119L29.8943 12.5039Z" fill="#FC800A"/>
<path d="M177.304 47.5739C176.05 47.5739 175.151 47.4068 174.609 47.0726C174.1 46.705 173.778 46.2204 173.643 45.6188C173.541 45.0173 173.49 44.399 173.49 43.764V26.2683C173.49 25.5999 173.558 24.9816 173.694 24.4134C173.829 23.8453 174.151 23.3941 174.66 23.0599C175.202 22.6923 176.101 22.5085 177.355 22.5085C178.542 22.5085 179.389 22.6756 179.898 23.0098C180.44 23.3106 180.779 23.6782 180.915 24.1127C181.051 24.5137 181.118 24.8646 181.118 25.1654L180.508 25.4662C180.576 25.3325 180.746 25.0986 181.017 24.7644C181.322 24.3967 181.729 24.0291 182.237 23.6615C182.746 23.2604 183.356 22.9262 184.068 22.6589C184.814 22.3915 185.662 22.2578 186.611 22.2578C186.984 22.2578 187.391 22.2912 187.831 22.3581C188.306 22.3915 188.781 22.4918 189.255 22.6589C189.764 22.7925 190.222 22.9931 190.628 23.2604C191.035 23.4944 191.357 23.7952 191.595 24.1628C191.866 24.5304 192.001 24.9816 192.001 25.5163C192.001 26.8866 191.679 28.0563 191.035 29.0255C190.391 29.9613 189.577 30.4292 188.594 30.4292C188.018 30.4292 187.611 30.379 187.374 30.2788C187.136 30.1785 186.933 30.0782 186.763 29.978C186.628 29.8777 186.458 29.7942 186.255 29.7273C186.051 29.6271 185.679 29.5769 185.136 29.5769C184.627 29.5769 184.136 29.6438 183.661 29.7775C183.221 29.9111 182.797 30.1284 182.39 30.4292C182.017 30.6965 181.712 31.0474 181.474 31.4819C181.271 31.883 181.169 32.3341 181.169 32.8354V43.8642C181.169 44.4992 181.102 45.1175 180.966 45.7191C180.864 46.2872 180.542 46.7384 180 47.0726C179.457 47.4068 178.559 47.5739 177.304 47.5739Z" fill="#FE5A86"/>
<path d="M164.059 47.5251C162.804 47.5251 161.872 47.3079 161.262 46.8734C160.685 46.4389 160.397 45.9042 160.397 45.2692L160.906 44.417C160.702 44.7512 160.312 45.169 159.736 45.6703C159.16 46.1381 158.414 46.5726 157.498 46.9737C156.583 47.3413 155.447 47.5251 154.091 47.5251C152.532 47.5251 151.04 47.1909 149.616 46.5225C148.226 45.8541 146.988 44.935 145.904 43.7653C144.819 42.5621 143.954 41.2086 143.31 39.7047C142.7 38.2008 142.395 36.6133 142.395 34.9422C142.395 33.3046 142.7 31.7506 143.31 30.2801C143.954 28.7761 144.819 27.456 145.904 26.3197C147.022 25.15 148.277 24.2309 149.667 23.5625C151.057 22.8941 152.532 22.5599 154.091 22.5599C155.346 22.5599 156.414 22.7437 157.295 23.1113C158.177 23.4455 158.905 23.8466 159.482 24.3145C160.092 24.7824 160.55 25.2335 160.855 25.668L160.448 24.9662C160.414 24.1641 160.685 23.5625 161.262 23.1615C161.872 22.727 162.821 22.5098 164.11 22.5098C165.33 22.5098 166.195 22.6936 166.703 23.0612C167.246 23.4288 167.568 23.9134 167.67 24.515C167.805 25.1166 167.873 25.7516 167.873 26.42V43.7152C167.873 44.3501 167.805 44.9684 167.67 45.57C167.568 46.1716 167.246 46.6562 166.703 47.0238C166.195 47.358 165.313 47.5251 164.059 47.5251ZM155.21 40.0556C156.092 40.0556 156.888 39.8384 157.6 39.4039C158.346 38.936 158.922 38.3177 159.329 37.549C159.77 36.7804 159.99 35.9281 159.99 34.9924C159.99 34.0232 159.77 33.1709 159.329 32.4357C158.889 31.667 158.295 31.0654 157.549 30.631C156.803 30.1631 155.99 29.9291 155.108 29.9291C154.125 29.9291 153.244 30.1631 152.464 30.631C151.718 31.0989 151.108 31.7171 150.633 32.4858C150.192 33.2545 149.972 34.1234 149.972 35.0926C149.972 35.995 150.192 36.8305 150.633 37.5992C151.108 38.3344 151.735 38.936 152.515 39.4039C153.328 39.8384 154.227 40.0556 155.21 40.0556Z" fill="#7DBE48"/>
<path d="M133.945 47.5741C132.216 47.5741 130.724 47.3902 129.469 47.0226C128.249 46.655 127.232 46.0868 126.418 45.3182C125.604 44.5495 124.994 43.5803 124.587 42.4106C124.214 41.2074 124.028 39.7871 124.028 38.1494V17.7963C124.028 17.1279 124.079 16.5263 124.18 15.9916C124.316 15.4568 124.655 15.0224 125.198 14.6882C125.74 14.3205 126.622 14.1367 127.842 14.1367C129.063 14.1367 129.944 14.3205 130.487 14.6882C131.029 15.0558 131.351 15.5237 131.453 16.0918C131.588 16.66 131.656 17.2783 131.656 17.9467V37.8487C131.656 38.3834 131.69 38.8346 131.758 39.2022C131.86 39.5364 131.995 39.7871 132.165 39.9542C132.334 40.1213 132.572 40.2382 132.877 40.3051C133.182 40.3719 133.555 40.4053 133.996 40.4053C134.741 40.4053 135.403 40.4722 135.979 40.6059C136.555 40.7395 136.996 41.0403 137.301 41.5082C137.64 41.9761 137.81 42.7615 137.81 43.8644C137.81 45.0675 137.623 45.9364 137.25 46.4712C136.877 47.0059 136.386 47.3234 135.775 47.4237C135.199 47.5239 134.589 47.5741 133.945 47.5741ZM122.451 22.9096H128.045L135.063 22.7091C135.708 22.7091 136.318 22.776 136.894 22.9096C137.471 23.0099 137.945 23.3274 138.318 23.8621C138.691 24.3969 138.878 25.2825 138.878 26.5191C138.878 27.6554 138.691 28.4909 138.318 29.0256C137.979 29.5603 137.521 29.9113 136.945 30.0784C136.369 30.212 135.742 30.2789 135.063 30.2789L128.401 30.1285H122.248C121.265 30.0951 120.57 29.811 120.163 29.2763C119.79 28.7081 119.604 27.7723 119.604 26.4689C119.604 25.2658 119.841 24.3801 120.315 23.812C120.79 23.2104 121.502 22.9096 122.451 22.9096Z" fill="#16C4E3"/>
<path d="M111.449 47.5741C110.195 47.5741 109.296 47.407 108.754 47.0728C108.245 46.7052 107.923 46.2373 107.787 45.6691C107.686 45.0676 107.635 44.4493 107.635 43.8143V26.3186C107.635 25.6502 107.686 25.0319 107.787 24.4637C107.923 23.8956 108.262 23.4444 108.805 23.1102C109.347 22.7426 110.245 22.5588 111.5 22.5588C112.72 22.5588 113.585 22.7426 114.094 23.1102C114.636 23.4778 114.958 23.9457 115.06 24.5139C115.195 25.082 115.263 25.717 115.263 26.4188V43.8644C115.263 44.4994 115.195 45.1177 115.06 45.7193C114.958 46.2874 114.636 46.7386 114.094 47.0728C113.585 47.407 112.703 47.5741 111.449 47.5741ZM111.449 18.8992C110.161 18.8992 109.245 18.7154 108.703 18.3478C108.16 17.9801 107.821 17.4955 107.686 16.894C107.584 16.2924 107.533 15.6574 107.533 14.989C107.533 14.2872 107.601 13.6522 107.737 13.084C107.872 12.4824 108.211 12.0146 108.754 11.6803C109.296 11.3127 110.212 11.1289 111.5 11.1289C112.754 11.1289 113.653 11.3127 114.195 11.6803C114.738 12.048 115.06 12.5326 115.161 13.1341C115.297 13.7357 115.365 14.3707 115.365 15.0391C115.365 15.7075 115.297 16.3425 115.161 16.9441C115.06 17.5457 114.738 18.0303 114.195 18.3979C113.653 18.7321 112.737 18.8992 111.449 18.8992Z" fill="#FE5A86"/>
<path d="M81.1735 47.5745C79.953 47.5745 79.0715 47.4074 78.529 47.0732C77.9866 46.7055 77.6476 46.2209 77.5119 45.6194C77.4102 45.0178 77.3594 44.3995 77.3594 43.7645V16.2928C77.3594 15.6578 77.4102 15.0562 77.5119 14.488C77.6476 13.8865 77.9866 13.4186 78.529 13.0844C79.0715 12.7167 79.9699 12.5329 81.2244 12.5329C82.5127 12.5329 83.4111 12.7167 83.9197 13.0844C84.4621 13.452 84.7842 13.9199 84.8859 14.488C85.0215 15.0562 85.0893 15.6745 85.0893 16.3429V25.0155L95.9723 13.7862C96.6504 13.1178 97.2607 12.6499 97.8031 12.3825C98.3795 12.1152 98.9558 12.065 99.5322 12.2321C100.142 12.3993 100.787 12.817 101.465 13.4854C102.617 14.5215 103.194 15.4405 103.194 16.2426C103.228 17.0113 102.753 17.8802 101.77 18.8494L90.0731 30.0788L101.872 41.2078C102.923 42.2439 103.414 43.1796 103.346 44.0152C103.312 44.8173 102.719 45.6862 101.566 46.622C100.753 47.2904 100.041 47.7081 99.4305 47.8752C98.8541 48.0758 98.3117 48.0256 97.8031 47.7249C97.2946 47.4575 96.7182 46.9729 96.0741 46.2711L85.0893 34.9916V43.8146C85.0893 44.4496 85.0215 45.0679 84.8859 45.6695C84.7842 46.2376 84.4621 46.7055 83.9197 47.0732C83.3772 47.4074 82.4618 47.5745 81.1735 47.5745Z" fill="#FE5A86"/>
</svg>
