<?xml version="1.0" encoding="UTF-8"?>
<svg id="Layer_2" data-name="Layer 2" xmlns="http://www.w3.org/2000/svg" viewBox="0 0 69.73 60">
  <defs>
    <style>
      .cls-1 {
        fill: #2bb673;
      }

      .cls-1, .cls-2, .cls-3, .cls-4, .cls-5, .cls-6, .cls-7, .cls-8, .cls-9, .cls-10 {
        stroke-width: 0px;
      }

      .cls-2 {
        fill: #0899d0;
      }

      .cls-3 {
        fill: #8dc63f;
      }

      .cls-4 {
        fill: #ef4136;
      }

      .cls-5 {
        fill: #fc800a;
      }

      .cls-6 {
        fill: #506900;
      }

      .cls-7 {
        fill: #ec008c;
      }

      .cls-8 {
        fill: #f763a7;
      }

      .cls-9 {
        fill: #3a3d72;
      }

      .cls-10 {
        fill: #fbb040;
      }
    </style>
  </defs>
  <g id="Layer_1-2" data-name="Layer 1">
    <g>
      <path class="cls-9" d="m63.49,34.38c0,3.83-.87,7.61-2.55,11.06-1.68,3.45-4.12,6.49-7.15,8.89,2.32-2.84,2.44-7.77,2.44-7.77.91-.24,2.25-1.62,2.25-1.62-1.52-1.14-2.32-3.78-2.68-7.8-.36-4.02,2.74-9.42,2.98-11.82.24-2.4-1.04-2.04-1.7-.69-.65,1.29-4.27,8.77-4.75,9.67.34-.83,1.16-4.15-.65-6.13-2.32-2.55-5.69-1.77-7.08-.21-.24-.66-1.67-2.05-3.23-1.38-3.23,1.38-.85,7.44-6.27,7.44,1.61,1.37,4.99,1.32,5.78-1.08.79-2.4,1.58-4.06,2.91-3.63-3.7,3.03-.78,8.07,2.51,7.34-.59,1.85-6.39,7.46-7.24,8.41-.85.95-.92,2.34.79,1.68,1.71-.66,6.39-5.76,7.06-5.76s.73,3.9-1.89,8.23c0,0,2.15-.01,2.83-.19,0,0-.1,5.74-5.75,10.57-1.52.27-3.06.4-4.6.39-1.09,0-2.18-.07-3.27-.2-8.24-4.97-7.28-13.42-6.14-14.14,1.15-.72,3.66.9,5.4,1.57,2.44.95,3.04-.81,1.9-1.57-1.14-.76-6.03-3.29-7.59-6.66,6.27-1.23,6.72-8.87,2.92-11.7-3.59-2.67-6.29-1.55-7.67-5.34-.05,2.67,1.82,5.04,2.19,5.34-4.36-.02-6.45,7.08-2.19,10.09-2.13-1.23-4.45-3.45-7.85-8.59-.94-1.42-2.44-1.01-1.71,1.02.73,2.04,5.17,8.82,5.3,10.68.13,2.1-2.74,5.76-.63,10.99-2.82-3.09-4.83-6.81-5.86-10.84-1.03-4.03-1.06-8.24-.07-12.28.99-4.04,2.96-7.78,5.74-10.9,2.78-3.12,6.29-5.53,10.23-7.01,3.94-1.49,8.18-2,12.37-1.51,4.19.49,8.19,1.98,11.66,4.34,3.47,2.36,6.31,5.51,8.27,9.19,1.96,3.68,2.98,7.77,2.98,11.93Z"/>
      <path class="cls-6" d="m63.24,43.09c2.69,0,4.87-2.88,4.87-6.44s-2.18-6.44-4.87-6.44-4.87,2.88-4.87,6.44,2.18,6.44,4.87,6.44Z"/>
      <path class="cls-7" d="m41.78,15.72c3.68,0,6.67-2.58,6.67-5.76s-2.99-5.76-6.67-5.76-6.67,2.58-6.67,5.76,2.99,5.76,6.67,5.76Z"/>
      <path class="cls-4" d="m15.81,25.8c3.13,0,5.66-2.26,5.66-5.04s-2.53-5.04-5.66-5.04-5.66,2.26-5.66,5.04,2.53,5.04,5.66,5.04Z"/>
      <path class="cls-9" d="m29.27,58.68c-2.65-.88-5.15-2.17-7.39-3.83,0,0-.01-.02-.02-.02-2.02-2.22-1.11-5.37-.26-5.59,1.66-.44,3.51,6.96,7.68,9.45Z"/>
      <path class="cls-9" d="m50.99,56.28c-1.45.87-2.98,1.59-4.57,2.17,4.57-5.45,4.71-10.32,5.87-10.32.41,0,1.44,2.45-1.3,8.15Z"/>
      <path class="cls-3" d="m68.11,36.43c0,3.56-2.18,6.44-4.87,6.44-.41,0-.82-.07-1.22-.2,1.45-4.06,1.84-8.42,1.13-12.67h.09c2.69,0,4.87,2.88,4.87,6.43Z"/>
      <path class="cls-8" d="m48.45,9.95c0,.38-.04.76-.13,1.13-3.39-1.53-7.08-2.32-10.82-2.31-.77,0-1.53.04-2.28.1.59-2.66,3.3-4.67,6.55-4.67,3.69,0,6.67,2.58,6.67,5.75Z"/>
      <path class="cls-10" d="m18.88,16.53c-2.47,2.49-4.4,5.46-5.66,8.72-1.82-.84-3.08-2.53-3.08-4.49,0-2.78,2.54-5.04,5.66-5.04,1.08,0,2.14.27,3.07.81Z"/>
      <path class="cls-7" d="m10.37,44.85c0,.16-.05.32-.14.45-.09.13-.22.24-.37.3-.15.06-.32.08-.48.05-.16-.03-.31-.11-.42-.22s-.19-.26-.23-.42c-.03-.16-.02-.32.05-.47.06-.15.17-.28.3-.37.14-.09.3-.14.46-.14.22,0,.43.09.59.24.16.15.24.36.24.58Z"/>
      <path class="cls-4" d="m59.56,57.45c0,.21-.06.41-.18.58-.12.17-.28.3-.47.38-.19.08-.41.1-.61.06-.2-.04-.39-.14-.54-.28-.15-.15-.25-.33-.29-.53-.04-.2-.02-.41.06-.6.08-.19.22-.35.39-.47.17-.11.38-.18.59-.18.28,0,.55.11.75.3.2.2.31.46.31.74Z"/>
      <path class="cls-1" d="m63.3,14.69c0,.21-.06.41-.18.58-.12.17-.28.3-.47.38s-.4.1-.61.06c-.2-.04-.39-.14-.54-.28-.15-.14-.25-.33-.29-.53-.04-.2-.02-.41.06-.6.08-.19.21-.35.39-.47.17-.11.38-.17.58-.17.28,0,.55.11.74.3.2.19.31.46.31.73Z"/>
      <path class="cls-1" d="m2.1,36.65c0,.21-.06.41-.18.58-.12.17-.28.3-.47.38-.19.08-.4.1-.61.06-.2-.04-.39-.14-.54-.28-.15-.15-.25-.33-.29-.53-.04-.2-.02-.41.06-.6.08-.19.21-.35.39-.47.17-.11.38-.17.58-.17.28,0,.55.11.74.3.2.19.31.46.31.73Z"/>
      <path class="cls-4" d="m29.94,2.4c0,.15-.05.31-.13.43-.09.13-.21.23-.36.29-.14.06-.3.07-.46.04-.15-.03-.29-.1-.41-.21-.11-.11-.19-.25-.22-.4-.03-.15-.01-.31.05-.45.06-.14.16-.26.29-.35.13-.09.28-.13.44-.13.21,0,.41.08.56.23.15.15.23.34.23.55Z"/>
      <path class="cls-10" d="m51.79,1.98c0,.39-.12.77-.34,1.1-.22.33-.53.58-.9.73-.37.15-.77.19-1.16.11-.39-.08-.75-.27-1.03-.54-.28-.28-.47-.63-.55-1.01-.08-.38-.04-.78.12-1.14.15-.36.41-.67.74-.89C48.99.12,49.38,0,49.78,0c.26,0,.53.05.77.15.24.1.47.25.65.43.19.18.33.4.44.64.1.24.15.5.15.76Z"/>
      <path class="cls-3" d="m15.14,7.92c0,.27-.08.54-.24.77-.15.23-.37.4-.63.51-.26.1-.54.13-.81.08-.27-.05-.52-.18-.72-.38-.2-.19-.33-.44-.38-.71-.05-.27-.03-.55.08-.8.11-.25.29-.47.52-.62.23-.15.5-.23.78-.23.18,0,.37.04.54.1.17.07.32.17.45.3.13.13.23.28.3.45.07.17.11.35.11.53Z"/>
      <path class="cls-2" d="m9.54,27.6c0,.42-.12.82-.36,1.17-.23.35-.57.61-.96.77-.39.16-.82.2-1.23.12-.41-.08-.79-.28-1.09-.57-.3-.29-.5-.67-.58-1.08-.08-.41-.04-.83.12-1.21.16-.38.43-.71.78-.94.35-.23.76-.35,1.18-.35.57,0,1.11.22,1.51.62.4.39.62.93.62,1.49Z"/>
      <path class="cls-2" d="m69.73,49.22c0,.42-.12.82-.36,1.17-.23.35-.57.62-.96.77-.39.16-.82.2-1.23.12-.41-.08-.79-.28-1.09-.57-.3-.29-.5-.67-.58-1.08-.08-.41-.04-.83.12-1.21.16-.38.43-.71.79-.94.35-.23.76-.35,1.18-.35.57,0,1.11.22,1.51.62.4.39.62.93.63,1.49Z"/>
      <path class="cls-8" d="m35.53,20.94c0,.28-.09.56-.25.8-.16.24-.39.42-.66.53-.27.11-.56.14-.84.08-.28-.06-.54-.19-.75-.39-.2-.2-.34-.46-.4-.74-.06-.28-.03-.57.08-.83.11-.26.3-.49.54-.65s.52-.24.81-.24c.19,0,.38.04.56.11.18.07.34.18.47.31.14.13.24.29.32.47.07.17.11.36.11.55Z"/>
      <path class="cls-10" d="m43.54,20.22c0,.14-.04.28-.12.4-.08.12-.19.21-.33.27-.13.05-.28.07-.42.04-.14-.03-.27-.1-.37-.2-.1-.1-.17-.23-.2-.37-.03-.14-.01-.28.04-.42.06-.13.15-.24.27-.32.12-.08.26-.12.41-.12.19,0,.38.08.52.21.14.14.21.32.21.51Z"/>
      <path class="cls-3" d="m49.32,16.26c0,.2-.06.39-.17.55-.11.16-.27.29-.45.36-.18.07-.39.09-.58.06-.19-.04-.37-.13-.51-.27-.14-.14-.24-.32-.27-.51-.04-.19-.02-.39.06-.57.08-.18.2-.34.37-.44.17-.11.36-.17.56-.17.27,0,.52.1.71.29.19.19.29.44.29.7Z"/>
      <path class="cls-5" d="m35.96,24.76l.73,1.46,1.63.23-1.18,1.13.28,1.6-1.46-.76-1.46.76.28-1.6-1.18-1.13,1.63-.23.73-1.46Z"/>
      <path class="cls-5" d="m51.18,20.22l.57,1.15,1.28.18-.93.89.22,1.26-1.15-.59-1.15.59.22-1.26-.93-.89,1.28-.18.57-1.15Z"/>
      <path class="cls-5" d="m29.89,12.5l.55,1.11,1.24.18-.9.86.21,1.22-1.11-.57-1.11.57.21-1.22-.9-.86,1.24-.18.55-1.11Z"/>
    </g>
  </g>
</svg>