<svg width="1290" height="808" viewBox="0 0 1290 808" fill="none" xmlns="http://www.w3.org/2000/svg">
<path d="M843.437 799.993C838.844 799.993 835.594 799.083 833.687 797.264C831.867 795.444 830.957 792.282 830.957 787.777C830.957 784.572 831.347 782.059 832.127 780.24C832.994 778.421 834.337 777.121 836.157 776.342C837.977 775.475 840.447 775.042 843.567 775.042C848.16 775.042 851.367 775.995 853.187 777.901C855.007 779.72 855.917 782.969 855.917 787.647C855.917 790.679 855.527 793.105 854.747 794.924C853.967 796.744 852.667 798.043 850.847 798.823C849.027 799.603 846.557 799.993 843.437 799.993Z" fill="#FE5A86"/>
<path d="M814.875 799.993C810.281 799.993 807.031 799.083 805.125 797.264C803.305 795.444 802.395 792.282 802.395 787.777C802.395 784.572 802.785 782.059 803.565 780.24C804.431 778.421 805.775 777.121 807.595 776.342C809.415 775.475 811.885 775.042 815.005 775.042C819.598 775.042 822.805 775.995 824.625 777.901C826.445 779.72 827.355 782.969 827.355 787.647C827.355 790.679 826.965 793.105 826.185 794.924C825.405 796.744 824.105 798.043 822.285 798.823C820.465 799.603 817.995 799.993 814.875 799.993Z" fill="#FE5A86"/>
<path d="M773.011 799.863C769.111 799.863 766.337 799.299 764.691 798.173C763.044 796.96 762.047 795.444 761.701 793.625C761.441 791.719 761.311 789.813 761.311 787.907V745.543C761.311 743.551 761.484 741.688 761.831 739.956C762.177 738.136 763.174 736.664 764.821 735.537C766.467 734.411 769.241 733.848 773.141 733.848C776.954 733.848 779.641 734.368 781.201 735.407C782.847 736.447 783.844 737.616 784.191 738.916C784.537 740.129 784.711 741.082 784.711 741.775L782.631 740.995C782.631 740.995 782.977 740.605 783.671 739.826C784.364 739.046 785.361 738.136 786.661 737.097C788.047 736.057 789.651 735.147 791.471 734.368C793.377 733.588 795.501 733.198 797.841 733.198C798.621 733.198 799.574 733.285 800.701 733.458C801.914 733.545 803.171 733.761 804.471 734.108C805.857 734.454 807.114 734.974 808.241 735.667C809.454 736.36 810.407 737.27 811.101 738.396C811.881 739.522 812.271 740.909 812.271 742.555C812.271 746.886 811.317 750.568 809.411 753.6C807.591 756.633 805.164 758.149 802.131 758.149C800.484 758.149 799.314 758.062 798.621 757.889C797.927 757.629 797.407 757.412 797.061 757.239C796.801 756.979 796.454 756.762 796.021 756.589C795.674 756.329 794.981 756.199 793.941 756.199C792.641 756.199 791.427 756.373 790.301 756.719C789.261 756.979 788.307 757.412 787.441 758.019C786.661 758.625 786.054 759.361 785.621 760.228C785.187 761.007 784.971 761.874 784.971 762.827V788.167C784.971 790.073 784.797 791.936 784.451 793.755C784.104 795.574 783.107 797.047 781.461 798.173C779.814 799.299 776.997 799.863 773.011 799.863Z" fill="#FE5A86"/>
<path d="M721.32 801.032C717.334 801.032 713.304 800.252 709.23 798.693C705.157 797.047 701.387 794.751 697.92 791.806C694.54 788.774 691.81 785.178 689.73 781.02C687.737 776.775 686.74 772.053 686.74 766.855C686.74 762.09 687.65 757.629 689.47 753.47C691.29 749.312 693.76 745.673 696.88 742.555C700.087 739.349 703.727 736.837 707.8 735.018C711.96 733.198 716.38 732.289 721.06 732.289C727.474 732.289 733.28 733.848 738.48 736.967C743.68 739.999 747.84 744.114 750.96 749.312C754.08 754.51 755.64 760.314 755.64 766.725C755.64 772.183 754.6 777.035 752.52 781.28C750.44 785.525 747.71 789.12 744.33 792.066C740.95 795.011 737.224 797.22 733.15 798.693C729.164 800.252 725.22 801.032 721.32 801.032ZM721.06 777.251C722.36 777.251 723.834 776.948 725.48 776.342C727.214 775.649 728.687 774.522 729.9 772.963C731.2 771.404 731.85 769.281 731.85 766.595C731.85 764.43 731.374 762.567 730.42 761.008C729.554 759.448 728.297 758.235 726.65 757.369C725.004 756.503 723.097 756.069 720.93 756.069C719.024 756.069 717.29 756.546 715.73 757.499C714.17 758.365 712.914 759.621 711.96 761.267C711.007 762.827 710.53 764.646 710.53 766.725C710.53 769.324 711.137 771.404 712.35 772.963C713.564 774.522 714.994 775.649 716.64 776.342C718.287 776.948 719.76 777.251 721.06 777.251Z" fill="#FE5A86"/>
<path d="M648.343 799.863C644.443 799.863 641.669 799.299 640.023 798.173C638.376 796.96 637.379 795.444 637.033 793.625C636.773 791.719 636.643 789.813 636.643 787.907V745.543C636.643 743.551 636.816 741.688 637.163 739.956C637.509 738.136 638.506 736.664 640.153 735.537C641.799 734.411 644.573 733.848 648.473 733.848C652.286 733.848 654.973 734.368 656.533 735.407C658.179 736.447 659.176 737.616 659.523 738.916C659.869 740.129 660.043 741.082 660.043 741.775L657.963 740.995C657.963 740.995 658.309 740.605 659.003 739.826C659.696 739.046 660.693 738.136 661.993 737.097C663.379 736.057 664.983 735.147 666.803 734.368C668.709 733.588 670.833 733.198 673.173 733.198C673.953 733.198 674.906 733.285 676.033 733.458C677.246 733.545 678.503 733.761 679.803 734.108C681.189 734.454 682.446 734.974 683.573 735.667C684.786 736.36 685.739 737.27 686.433 738.396C687.213 739.522 687.603 740.909 687.603 742.555C687.603 746.886 686.649 750.568 684.743 753.6C682.923 756.633 680.496 758.149 677.463 758.149C675.816 758.149 674.646 758.062 673.953 757.889C673.259 757.629 672.739 757.412 672.393 757.239C672.133 756.979 671.786 756.762 671.353 756.589C671.006 756.329 670.313 756.199 669.273 756.199C667.973 756.199 666.759 756.373 665.633 756.719C664.593 756.979 663.639 757.412 662.773 758.019C661.993 758.625 661.386 759.361 660.953 760.228C660.519 761.007 660.303 761.874 660.303 762.827V788.167C660.303 790.073 660.129 791.936 659.783 793.755C659.436 795.574 658.439 797.047 656.793 798.173C655.146 799.299 652.329 799.863 648.343 799.863Z" fill="#FE5A86"/>
<path d="M592.229 799.863C588.329 799.863 585.556 799.299 583.909 798.173C582.263 796.96 581.266 795.444 580.919 793.625C580.659 791.719 580.529 789.813 580.529 787.907V745.543C580.529 743.551 580.703 741.688 581.049 739.956C581.396 738.136 582.393 736.664 584.039 735.537C585.686 734.411 588.459 733.848 592.359 733.848C596.173 733.848 598.859 734.368 600.419 735.407C602.066 736.447 603.063 737.616 603.409 738.916C603.756 740.129 603.929 741.082 603.929 741.775L601.849 740.995C601.849 740.995 602.196 740.605 602.889 739.826C603.583 739.046 604.579 738.136 605.879 737.097C607.266 736.057 608.869 735.147 610.689 734.368C612.596 733.588 614.719 733.198 617.059 733.198C617.839 733.198 618.793 733.285 619.919 733.458C621.133 733.545 622.389 733.761 623.689 734.108C625.076 734.454 626.333 734.974 627.459 735.667C628.673 736.36 629.626 737.27 630.319 738.396C631.099 739.522 631.489 740.909 631.489 742.555C631.489 746.886 630.536 750.568 628.629 753.6C626.809 756.633 624.383 758.149 621.349 758.149C619.703 758.149 618.533 758.062 617.839 757.889C617.146 757.629 616.626 757.412 616.279 757.239C616.019 756.979 615.673 756.762 615.239 756.589C614.893 756.329 614.199 756.199 613.159 756.199C611.859 756.199 610.646 756.373 609.519 756.719C608.479 756.979 607.526 757.412 606.659 758.019C605.879 758.625 605.273 759.361 604.839 760.228C604.406 761.007 604.189 761.874 604.189 762.827V788.167C604.189 790.073 604.016 791.936 603.669 793.755C603.323 795.574 602.326 797.047 600.679 798.173C599.033 799.299 596.216 799.863 592.229 799.863Z" fill="#FE5A86"/>
<path d="M515.068 799.863C511.168 799.863 508.395 799.299 506.748 798.173C505.102 796.96 504.105 795.444 503.758 793.625C503.412 791.719 503.238 789.813 503.238 787.907V720.723C503.238 716.218 504.105 713.143 505.838 711.497C507.658 709.764 510.865 708.898 515.458 708.898H563.038C565.032 708.898 566.895 709.071 568.628 709.417C570.448 709.764 571.922 710.76 573.048 712.406C574.262 714.052 574.868 716.868 574.868 720.853C574.868 724.751 574.262 727.524 573.048 729.17C571.922 730.816 570.448 731.812 568.628 732.159C566.808 732.505 564.902 732.678 562.908 732.678H527.028V744.244H551.078C553.072 744.244 554.848 744.417 556.408 744.764C557.968 745.024 559.225 745.847 560.178 747.233C561.132 748.619 561.608 751.045 561.608 754.51C561.608 757.802 561.132 760.184 560.178 761.657C559.225 763.043 557.925 763.866 556.278 764.126C554.632 764.386 552.812 764.516 550.818 764.516H527.028V776.082H563.038C565.032 776.082 566.895 776.255 568.628 776.602C570.448 776.948 571.922 777.944 573.048 779.59C574.262 781.236 574.868 784.052 574.868 788.037C574.868 791.936 574.262 794.708 573.048 796.354C571.922 798 570.448 798.996 568.628 799.343C566.808 799.689 564.902 799.863 562.908 799.863H515.068Z" fill="#FE5A86"/>
<path fill-rule="evenodd" clip-rule="evenodd" d="M696.231 656.196C820.252 656.196 921.403 555.084 921.403 431.11C921.403 307.139 820.252 206.02 696.231 206.02C572.211 206.02 471.059 307.139 471.059 431.11C471.058 555.084 572.211 656.196 696.231 656.196Z" fill="#EBECF1"/>
<path fill-rule="evenodd" clip-rule="evenodd" d="M673.424 630.717C797.443 630.717 898.596 529.604 898.596 405.631C898.596 281.658 797.443 180.545 673.424 180.545C549.402 180.545 448.246 281.658 448.246 405.631C448.246 529.604 549.402 630.717 673.424 630.717Z" fill="#FE5A86"/>
<path fill-rule="evenodd" clip-rule="evenodd" d="M378.56 633.584H291.957C289.909 633.584 263.709 611.71 264.57 609.966L288.888 560.6H122.844C120.93 560.6 93.5433 537.513 94.5794 535.723L119.902 491.904L287.099 219.714C288.114 218.05 290.08 218.016 291.957 217.321L353.95 194.258C355.239 193.781 380.728 218.119 380.733 219.713L381.502 489.312L411.348 466.569C413.157 465.189 439.196 490.308 439.196 492.502V557.611C439.196 559.604 438.171 560.6 436.255 560.6H381.502V630.692C381.502 632.587 380.479 633.584 378.56 633.584ZM210.6 489.313H288.888V358.996L210.6 489.313Z" fill="#EBECF1"/>
<path fill-rule="evenodd" clip-rule="evenodd" d="M357.425 610.385H270.822C268.774 610.385 267.753 609.383 267.753 607.492V537.4H101.71C99.7934 537.4 98.7676 536.403 98.7676 534.406V468.703L265.964 196.513C267.116 194.913 268.774 194.116 270.822 194.116H357.425C358.835 194.116 359.602 194.913 359.602 196.513L360.367 466.112H414.351C416.781 466.112 418.061 467.11 418.061 469.301V534.406C418.061 536.403 417.034 537.4 415.119 537.4H360.367V607.492C360.367 609.383 359.344 610.385 357.425 610.385ZM189.465 466.112H267.753V335.798L189.465 466.112Z" fill="#0098B4"/>
<path fill-rule="evenodd" clip-rule="evenodd" d="M353.046 610.385H266.443C264.397 610.385 263.371 609.383 263.371 607.492V537.4H97.3326C95.4114 537.4 94.3906 536.403 94.3906 534.406V468.703L261.582 196.513C262.734 194.913 264.397 194.116 266.443 194.116H353.046C354.453 194.116 355.219 194.913 355.219 196.513L355.988 466.112H409.968C412.404 466.112 413.682 467.11 413.682 469.301V534.406C413.682 536.403 412.656 537.4 410.74 537.4H355.988V607.492C355.988 609.383 354.962 610.385 353.046 610.385ZM185.083 466.112H263.371V335.798L185.083 466.112Z" fill="#FE5A86"/>
<path fill-rule="evenodd" clip-rule="evenodd" d="M673.423 558.335C757.566 558.335 826.192 489.736 826.192 405.626C826.192 321.515 757.566 252.911 673.423 252.911C589.281 252.911 520.65 321.515 520.65 405.626C520.65 489.736 589.281 558.335 673.423 558.335Z" fill="#FE5A86"/>
<path fill-rule="evenodd" clip-rule="evenodd" d="M673.423 554.631C755.523 554.631 822.486 487.694 822.486 405.626C822.486 323.552 755.523 256.615 673.423 256.615C591.324 256.615 524.355 323.552 524.355 405.626C524.355 487.694 591.324 554.631 673.423 554.631Z" fill="white"/>
<path d="M397.35 115.416C396.788 115.418 396.238 115.253 395.769 114.942C395.301 114.631 394.936 114.189 394.719 113.67C394.503 113.151 394.445 112.58 394.553 112.029C394.662 111.478 394.932 110.971 395.328 110.573C395.725 110.175 396.231 109.903 396.782 109.793C397.333 109.683 397.905 109.738 398.425 109.953C398.944 110.168 399.388 110.531 399.701 110.998C400.013 111.466 400.18 112.015 400.18 112.577C400.18 113.328 399.882 114.048 399.352 114.581C398.821 115.113 398.101 115.413 397.35 115.416ZM397.35 110.797C396.998 110.797 396.654 110.902 396.361 111.097C396.068 111.293 395.84 111.571 395.706 111.896C395.571 112.221 395.536 112.579 395.604 112.924C395.673 113.269 395.842 113.586 396.091 113.835C396.34 114.084 396.657 114.253 397.003 114.322C397.348 114.39 397.706 114.355 398.031 114.221C398.356 114.086 398.634 113.858 398.83 113.565C399.026 113.273 399.13 112.929 399.13 112.577C399.13 112.105 398.942 111.652 398.609 111.319C398.275 110.985 397.822 110.797 397.35 110.797Z" fill="#103741"/>
<path d="M456.789 13.4547C457.597 12.9888 458.526 12.773 459.457 12.8345C460.389 12.8961 461.281 13.2323 462.021 13.8006C462.761 14.3689 463.316 15.1438 463.616 16.0274C463.916 16.911 463.947 17.8636 463.705 18.7647C463.463 19.6659 462.959 20.4751 462.258 21.0902C461.556 21.7053 460.687 22.0985 459.762 22.2203C458.837 22.342 457.896 22.1868 457.059 21.7742C456.222 21.3616 455.526 20.7102 455.059 19.9023C454.435 18.8175 454.267 17.5297 454.591 16.3212C454.915 15.1127 455.706 14.0819 456.789 13.4547Z" fill="#FE5A86"/>
<path d="M459.169 23.131C458.315 23.1312 457.472 22.9355 456.705 22.5592C455.938 22.1829 455.268 21.6359 454.745 20.9602C454.223 20.2846 453.862 19.4982 453.691 18.6615C453.52 17.8248 453.543 16.9601 453.759 16.1337C454.026 15.13 454.568 14.2208 455.324 13.5089C456.081 12.7971 457.022 12.3109 458.04 12.1055C459.059 11.9 460.114 11.9833 461.088 12.3461C462.061 12.7089 462.914 13.3367 463.549 14.1584C464.185 14.9802 464.577 15.9632 464.683 16.9964C464.789 18.0296 464.604 19.0718 464.148 20.0052C463.692 20.9386 462.984 21.7259 462.105 22.2783C461.225 22.8307 460.208 23.1261 459.169 23.131ZM459.169 13.6747C458.318 13.6766 457.492 13.9586 456.817 14.4772C456.143 14.9958 455.659 15.722 455.439 16.5436C455.306 17.0339 455.271 17.5456 455.336 18.0495C455.402 18.5533 455.566 19.0392 455.819 19.4795C456.073 19.9197 456.411 20.3055 456.814 20.6148C457.218 20.9241 457.678 21.1508 458.169 21.2818C459.162 21.5448 460.219 21.4044 461.109 20.8912C461.999 20.3781 462.649 19.5338 462.919 18.5428C463.072 17.9688 463.092 17.3671 462.975 16.7844C462.859 16.2018 462.609 15.6538 462.247 15.183C461.884 14.7122 461.418 14.3312 460.884 14.0696C460.35 13.8081 459.763 13.6729 459.169 13.6747Z" fill="#103741"/>
<path d="M414.47 111.367H415.53C418.65 111.367 427.23 111.067 432.3 108.008L432.84 97.9423C427.46 100.941 418.35 101.281 415.03 101.281H413.9L414.47 111.367Z" fill="#FE5A86"/>
<path d="M423.01 118.404C422.107 118.5 421.201 118.26 420.463 117.732C419.726 117.203 419.208 116.421 419.01 115.536C418.972 115.43 418.956 115.318 418.962 115.206C418.968 115.094 418.996 114.984 419.044 114.883C419.092 114.782 419.16 114.691 419.244 114.616C419.327 114.541 419.424 114.483 419.53 114.446C419.636 114.409 419.748 114.392 419.86 114.398C419.972 114.404 420.081 114.432 420.183 114.48C420.284 114.528 420.375 114.596 420.45 114.68C420.525 114.763 420.582 114.86 420.62 114.966C420.787 115.467 421.108 115.903 421.537 116.211C421.966 116.52 422.481 116.686 423.01 116.686C423.538 116.686 424.054 116.52 424.482 116.211C424.911 115.903 425.232 115.467 425.4 114.966C425.44 114.86 425.5 114.763 425.578 114.681C425.655 114.599 425.748 114.532 425.851 114.486C425.954 114.44 426.066 114.414 426.179 114.411C426.292 114.407 426.404 114.426 426.51 114.466C426.616 114.506 426.712 114.566 426.795 114.644C426.877 114.721 426.943 114.814 426.99 114.917C427.036 115.02 427.062 115.131 427.065 115.244C427.069 115.357 427.05 115.47 427.01 115.576C426.803 116.454 426.282 117.226 425.545 117.747C424.809 118.268 423.907 118.502 423.01 118.404Z" fill="#103741"/>
<path d="M415.009 102.151H413.859C413.648 102.128 413.453 102.028 413.312 101.87C413.17 101.713 413.092 101.508 413.092 101.296C413.092 101.084 413.17 100.88 413.312 100.722C413.453 100.564 413.648 100.464 413.859 100.441H415.009C417.749 100.441 427.109 100.211 432.399 97.2126C432.599 97.104 432.833 97.0777 433.051 97.1394C433.27 97.201 433.456 97.3457 433.569 97.5425C433.624 97.6402 433.659 97.7478 433.672 97.8591C433.685 97.9703 433.676 98.0831 433.646 98.1909C433.615 98.2987 433.563 98.3993 433.493 98.487C433.424 98.5748 433.337 98.6478 433.239 98.702C427.759 101.821 418.679 102.151 415.009 102.151Z" fill="#103741"/>
<path d="M415.37 107.199H414.27C414.158 107.198 414.046 107.174 413.943 107.128C413.839 107.083 413.746 107.017 413.668 106.935C413.591 106.853 413.531 106.756 413.492 106.65C413.452 106.545 413.435 106.432 413.44 106.319C413.446 106.097 413.537 105.886 413.696 105.731C413.855 105.576 414.068 105.489 414.29 105.489H415.37C418 105.489 426.96 105.26 432.03 102.251C432.226 102.152 432.451 102.131 432.661 102.192C432.872 102.253 433.05 102.393 433.161 102.581C433.272 102.77 433.307 102.994 433.259 103.207C433.21 103.421 433.082 103.608 432.9 103.73C427.61 106.859 418.88 107.199 415.37 107.199Z" fill="#103741"/>
<path d="M415.53 112.237H414.44C414.213 112.229 413.999 112.132 413.844 111.968C413.688 111.803 413.604 111.583 413.61 111.357C413.611 111.244 413.635 111.133 413.68 111.029C413.725 110.926 413.791 110.833 413.873 110.755C413.955 110.678 414.052 110.618 414.158 110.579C414.264 110.539 414.377 110.522 414.49 110.527H415.49C418.07 110.527 426.85 110.298 431.82 107.299C432.013 107.182 432.245 107.147 432.465 107.201C432.684 107.256 432.873 107.395 432.99 107.589C433.106 107.782 433.141 108.014 433.087 108.233C433.033 108.453 432.893 108.641 432.7 108.758C427.54 111.897 419.01 112.237 415.53 112.237Z" fill="#103741"/>
<path d="M424.92 96.8827H426.4C428.855 96.9915 431.307 96.6039 433.61 95.7431C436.21 94.6035 436.96 90.9749 437.77 87.1364C438.088 85.369 438.539 83.628 439.12 81.9284C439.926 80.0688 440.893 78.2827 442.01 76.5905C445.13 71.4824 449.41 64.4851 449.32 56.2883C449.2 43.4632 439.14 34.5066 424.86 34.5066C410.58 34.5066 400.53 43.5032 400.4 56.2883C400.32 64.4851 404.6 71.4824 407.72 76.5905C408.852 78.2941 409.832 80.0936 410.65 81.9684C411.23 83.668 411.681 85.409 412 87.1764C412.8 91.0149 413.56 94.6435 416.16 95.7831C418.472 96.6455 420.934 97.0331 423.4 96.9226L424.92 96.8827Z" fill="#FDBF84"/>
<path d="M424.5 96.123H421.55C418.964 96.2356 416.383 95.8241 413.96 94.9135C410.96 93.594 410.15 89.7554 409.31 85.697C409 83.9654 408.565 82.2583 408.01 80.589C407.21 78.7804 406.26 77.0417 405.17 75.391C401.97 70.163 397.63 63.0457 397.71 54.5989C397.84 41.2841 408.25 31.9776 423.02 31.9776C437.79 31.9776 448.2 41.2841 448.34 54.5989C448.42 63.0557 444.07 70.163 440.9 75.361C439.79 77.0184 438.823 78.7674 438.01 80.589C437.448 82.2475 437.007 83.9447 436.69 85.667C435.85 89.7454 435.04 93.574 432.04 94.8935C429.636 95.8078 427.071 96.226 424.5 96.123ZM423.01 94.4136H424.49C426.825 94.512 429.156 94.1485 431.35 93.344C433.55 92.3444 434.26 88.9557 435.02 85.3471C435.352 83.5362 435.817 81.7521 436.41 80.0092C437.246 78.0854 438.25 76.239 439.41 74.4913C442.48 69.4932 446.68 62.5959 446.6 54.6389C446.48 42.3137 436.77 33.707 422.99 33.707C409.21 33.707 399.51 42.3137 399.39 54.6389C399.31 62.6358 403.51 69.4632 406.58 74.4813C407.732 76.2376 408.735 78.0866 409.58 80.0092C410.167 81.75 410.628 83.5305 410.96 85.3371C411.71 88.9657 412.43 92.3844 414.62 93.3341C416.831 94.1402 419.179 94.5036 421.53 94.4037L423.01 94.4136Z" fill="#103741"/>
<path d="M440.899 54.3791C440.679 54.3902 440.463 54.315 440.296 54.1695C440.13 54.0239 440.027 53.8194 440.009 53.5994C439.269 46.692 434.169 42.2837 429.659 40.4644C429.546 40.4294 429.441 40.3711 429.351 40.2934C429.26 40.2156 429.188 40.12 429.136 40.0126C429.085 39.9052 429.057 39.7884 429.053 39.6695C429.049 39.5506 429.071 39.4322 429.115 39.3219C429.159 39.2115 429.226 39.1116 429.311 39.0284C429.396 38.9452 429.498 38.8805 429.609 38.8385C429.72 38.7965 429.839 38.7781 429.958 38.7844C430.077 38.7907 430.193 38.8215 430.299 38.875C435.299 40.8742 440.879 45.7524 441.709 53.4094C441.735 53.6346 441.67 53.8606 441.53 54.0385C441.389 54.2163 441.184 54.3315 440.959 54.3591L440.899 54.3791Z" fill="#103741"/>
<path d="M423.85 88.0861H423.76C423.648 88.0749 423.539 88.0416 423.44 87.9882C423.342 87.9348 423.254 87.8623 423.184 87.7749C423.113 87.6875 423.06 87.5869 423.029 87.4791C422.997 87.3712 422.987 87.2581 423 87.1465L426.34 57.068L416.19 63.0657C416.053 63.154 415.893 63.2009 415.73 63.2009C415.567 63.2009 415.407 63.154 415.27 63.0657C415.136 62.9701 415.032 62.8386 414.97 62.6865C414.908 62.5343 414.891 62.3678 414.92 62.206L418.7 41.604C418.72 41.4937 418.762 41.3885 418.823 41.2944C418.884 41.2003 418.963 41.1192 419.055 41.0556C419.148 40.992 419.252 40.9472 419.361 40.9239C419.471 40.9005 419.584 40.8989 419.695 40.9192C419.805 40.9396 419.91 40.9814 420.004 41.0424C420.099 41.1034 420.18 41.1824 420.243 41.2747C420.307 41.3671 420.352 41.4711 420.375 41.5807C420.399 41.6904 420.4 41.8036 420.38 41.9138L416.94 60.5967L426.94 54.7089C427.076 54.628 427.231 54.5852 427.39 54.5852C427.548 54.5852 427.704 54.628 427.84 54.7089C427.972 54.7952 428.078 54.9167 428.145 55.0597C428.212 55.2028 428.238 55.3617 428.22 55.5186L424.7 87.2964C424.682 87.5104 424.585 87.71 424.428 87.8562C424.271 88.0023 424.064 88.0843 423.85 88.0861Z" fill="#103741"/>
<path d="M423.85 88.0861C423.663 88.0858 423.482 88.024 423.333 87.9102C423.185 87.7963 423.079 87.6368 423.03 87.4563L419.1 72.8919C419.068 72.7836 419.059 72.67 419.072 72.558C419.085 72.4459 419.121 72.3377 419.177 72.2397C419.233 72.1417 419.308 72.056 419.398 71.9878C419.488 71.9195 419.591 71.87 419.7 71.8423C419.919 71.784 420.152 71.8143 420.348 71.9266C420.545 72.0388 420.689 72.2241 420.75 72.4421L424.68 87.0065C424.738 87.2252 424.708 87.458 424.596 87.6545C424.484 87.851 424.298 87.9953 424.08 88.0561C424.005 88.0758 423.928 88.0859 423.85 88.0861Z" fill="#103741"/>
<path d="M423.85 88.0861C423.714 88.0875 423.579 88.053 423.46 87.9861C423.259 87.8799 423.108 87.6981 423.041 87.4807C422.973 87.2634 422.995 87.0281 423.1 86.8266L430.1 73.4917C430.152 73.3926 430.223 73.3047 430.309 73.233C430.395 73.1612 430.494 73.1071 430.601 73.0737C430.708 73.0403 430.82 73.0282 430.931 73.0382C431.043 73.0482 431.151 73.08 431.25 73.1318C431.35 73.1837 431.438 73.2546 431.509 73.3404C431.581 73.4262 431.635 73.5253 431.669 73.6321C431.702 73.7388 431.714 73.8511 431.704 73.9625C431.694 74.0739 431.662 74.1823 431.61 74.2814L424.61 87.6263C424.538 87.7648 424.428 87.8809 424.294 87.9619C424.16 88.0429 424.007 88.0859 423.85 88.0861Z" fill="#103741"/>
<path d="M423.01 28.1591C422.785 28.1591 422.569 28.0696 422.409 27.9102C422.25 27.7509 422.16 27.5348 422.16 27.3094V17.6132C422.183 17.4024 422.283 17.2075 422.441 17.066C422.599 16.9244 422.803 16.8461 423.015 16.8461C423.227 16.8461 423.432 16.9244 423.59 17.066C423.747 17.2075 423.847 17.4024 423.87 17.6132V27.3494C423.86 27.5695 423.764 27.777 423.604 27.928C423.443 28.0791 423.231 28.1619 423.01 28.1591Z" fill="#103741"/>
<path d="M401.5 37.0657C401.387 37.0667 401.275 37.0452 401.17 37.0023C401.065 36.9594 400.97 36.896 400.89 36.8158L394.01 29.9284C393.929 29.851 393.865 29.7579 393.821 29.6548C393.777 29.5517 393.754 29.4408 393.754 29.3287C393.754 29.2166 393.777 29.1056 393.821 29.0025C393.865 28.8995 393.929 28.8064 394.01 28.7289C394.089 28.6488 394.184 28.5852 394.288 28.5418C394.391 28.4984 394.503 28.4761 394.615 28.4761C394.728 28.4761 394.839 28.4984 394.943 28.5418C395.047 28.5852 395.141 28.6488 395.22 28.7289L402.1 35.6063C402.181 35.6853 402.244 35.7795 402.288 35.8833C402.331 35.9871 402.353 36.0985 402.353 36.211C402.353 36.3236 402.331 36.435 402.288 36.5388C402.244 36.6426 402.181 36.7368 402.1 36.8158C402.022 36.8957 401.929 36.959 401.826 37.0019C401.723 37.0448 401.612 37.0665 401.5 37.0657Z" fill="#103741"/>
<path d="M392.59 58.5981H382.85C382.624 58.5954 382.407 58.5036 382.248 58.3427C382.089 58.1817 382 57.9644 382 57.7381C382 57.5126 382.09 57.2964 382.249 57.137C382.408 56.9776 382.625 56.888 382.85 56.888H392.59C392.815 56.888 393.032 56.9776 393.191 57.137C393.35 57.2964 393.44 57.5126 393.44 57.7381C393.44 57.9644 393.351 58.1817 393.192 58.3427C393.033 58.5036 392.816 58.5954 392.59 58.5981Z" fill="#103741"/>
<path d="M394.609 86.9465C394.497 86.9473 394.386 86.9256 394.283 86.8827C394.18 86.8397 394.087 86.7765 394.009 86.6966C393.929 86.6175 393.865 86.5234 393.822 86.4196C393.778 86.3157 393.756 86.2043 393.756 86.0918C393.756 85.9793 393.778 85.8679 393.822 85.7641C393.865 85.6602 393.929 85.5661 394.009 85.487L400.889 78.6097C400.968 78.5296 401.062 78.466 401.166 78.4226C401.27 78.3792 401.381 78.3568 401.494 78.3568C401.606 78.3568 401.718 78.3792 401.822 78.4226C401.926 78.466 402.02 78.5296 402.099 78.6097C402.18 78.6872 402.244 78.7802 402.288 78.8833C402.333 78.9864 402.355 79.0973 402.355 79.2095C402.355 79.3216 402.333 79.4325 402.288 79.5356C402.244 79.6387 402.18 79.7318 402.099 79.8092L395.219 86.6966C395.139 86.7767 395.044 86.8401 394.939 86.8831C394.834 86.926 394.722 86.9475 394.609 86.9465Z" fill="#103741"/>
<path d="M444.509 37.0657C444.397 37.0671 444.287 37.0457 444.183 37.0027C444.08 36.9597 443.987 36.8961 443.909 36.8158C443.829 36.7367 443.765 36.6426 443.722 36.5388C443.679 36.4349 443.656 36.3235 443.656 36.211C443.656 36.0985 443.679 35.9871 443.722 35.8833C443.765 35.7794 443.829 35.6853 443.909 35.6062L450.789 28.7289C450.948 28.5685 451.165 28.4779 451.391 28.4769C451.617 28.476 451.834 28.5648 451.994 28.7239C452.155 28.883 452.245 29.0992 452.246 29.3251C452.247 29.551 452.158 29.768 451.999 29.9284L445.119 36.8158C445.039 36.8959 444.944 36.9593 444.839 37.0023C444.735 37.0452 444.622 37.0667 444.509 37.0657Z" fill="#103741"/>
<path d="M463.16 58.5981H453.42C453.194 58.5954 452.978 58.5036 452.819 58.3427C452.66 58.1817 452.57 57.9644 452.57 57.7381C452.57 57.6264 452.592 57.5159 452.635 57.4128C452.678 57.3096 452.74 57.2159 452.819 57.137C452.898 57.0581 452.992 56.9955 453.095 56.9528C453.198 56.91 453.309 56.888 453.42 56.888H463.16C463.386 56.888 463.602 56.9776 463.761 57.137C463.921 57.2964 464.01 57.5126 464.01 57.7381C464.01 57.9644 463.921 58.1817 463.762 58.3427C463.603 58.5036 463.387 58.5954 463.16 58.5981Z" fill="#103741"/>
<path d="M451.399 86.9465C451.286 86.9475 451.173 86.926 451.069 86.8831C450.964 86.8401 450.869 86.7767 450.789 86.6966L443.909 79.8092C443.828 79.7318 443.763 79.6387 443.719 79.5356C443.675 79.4325 443.652 79.3216 443.652 79.2095C443.652 79.0973 443.675 78.9864 443.719 78.8833C443.763 78.7802 443.828 78.6872 443.909 78.6097C443.988 78.5296 444.082 78.466 444.186 78.4226C444.29 78.3792 444.401 78.3568 444.514 78.3568C444.626 78.3568 444.738 78.3792 444.842 78.4226C444.946 78.466 445.04 78.5296 445.119 78.6097L452.009 85.487C452.168 85.648 452.258 85.8653 452.258 86.0918C452.258 86.3183 452.168 86.5356 452.009 86.6966C451.93 86.7777 451.835 86.8417 451.73 86.8847C451.625 86.9277 451.512 86.9487 451.399 86.9465Z" fill="#103741"/>
<path fill-rule="evenodd" clip-rule="evenodd" d="M1229.36 633.584H1142.76C1140.71 633.584 1114.51 611.71 1115.38 609.966L1139.69 560.6H973.651C971.735 560.6 944.348 537.513 945.384 535.723L970.709 491.904L1137.9 219.714C1138.92 218.05 1140.88 218.016 1142.76 217.321L1204.75 194.258C1206.04 193.781 1231.53 218.119 1231.54 219.713L1232.31 489.312L1262.15 466.569C1263.96 465.189 1290 490.308 1290 492.502V557.611C1290 559.604 1288.97 560.6 1287.06 560.6H1232.31V630.692C1232.31 632.587 1231.29 633.584 1229.36 633.584ZM1061.41 489.313H1139.69V358.996L1061.41 489.313Z" fill="#EBECF1"/>
<path fill-rule="evenodd" clip-rule="evenodd" d="M1208.22 610.385H1121.62C1119.57 610.385 1118.55 609.383 1118.55 607.492V537.4H952.508C950.592 537.4 949.566 536.403 949.566 534.406V468.703L1116.76 196.513C1117.92 194.913 1119.57 194.116 1121.62 194.116H1208.22C1209.63 194.116 1210.4 194.913 1210.4 196.513L1211.17 466.112H1265.15C1267.58 466.112 1268.86 467.11 1268.86 469.301V534.406C1268.86 536.403 1267.84 537.4 1265.92 537.4H1211.17V607.492C1211.17 609.383 1210.14 610.385 1208.22 610.385ZM1040.26 466.112H1118.55V335.798L1040.26 466.112Z" fill="#0098B4"/>
<path fill-rule="evenodd" clip-rule="evenodd" d="M1203.85 610.385H1117.25C1115.2 610.385 1114.18 609.383 1114.18 607.492V537.4H948.137C946.216 537.4 945.195 536.403 945.195 534.406V468.703L1112.39 196.513C1113.54 194.913 1115.2 194.116 1117.25 194.116H1203.85C1205.26 194.116 1206.03 194.913 1206.03 196.513L1206.79 466.112H1260.77C1263.21 466.112 1264.49 467.11 1264.49 469.301V534.406C1264.49 536.403 1263.46 537.4 1261.55 537.4H1206.79V607.492C1206.79 609.383 1205.77 610.385 1203.85 610.385ZM1035.89 466.112H1114.18V335.798L1035.89 466.112Z" fill="#FE5A86"/>
<path fill-rule="evenodd" clip-rule="evenodd" d="M1022.71 71.1746C1027.79 70.8489 1032.84 71.1539 1037.74 72.049L1046.92 59.0271L1070.23 70.5279L1067.12 86.1012C1071.08 89.5135 1074.63 93.4507 1077.66 97.8491L1092 95.3611L1100.34 119.966L1088.35 127.971C1088.81 133.616 1088.47 139.22 1087.42 144.643L1099.28 152.994L1087.78 176.293L1073.41 173.429C1069.77 177.624 1065.55 181.362 1060.8 184.493L1061.75 199.089L1037.14 207.429L1030.44 194.637C1024.77 194.987 1019.14 194.54 1013.72 193.368L1004.25 204.154L980.94 192.658L985.262 178.849C981.353 175.334 977.861 171.296 974.915 166.795L959.164 167.82L950.82 143.215L964.868 135.871C964.621 130.757 965.019 125.697 966.005 120.783L954.093 110.336L965.597 87.0394L980.526 91.7103C983.866 87.9584 987.688 84.589 991.943 81.7114L989.265 66.3027L1013.88 57.9621L1022.71 71.1746ZM1017.98 107.265C1003.82 112.068 996.227 127.432 1001.03 141.591C1005.83 155.747 1021.21 163.334 1035.37 158.531C1049.53 153.733 1057.12 138.364 1052.32 124.209C1047.51 110.05 1032.14 102.467 1017.98 107.265Z" fill="#EBECF1"/>
<path fill-rule="evenodd" clip-rule="evenodd" d="M1074.5 685.759C1162.76 746.65 1164.17 729.121 1067.29 775.091C970.407 821.058 984.883 831.041 993.5 724.188C1002.12 617.329 986.225 624.874 1074.5 685.759ZM1043.42 743.539C1043.38 744.943 1043.9 746.771 1044.97 749.026C1046.51 752.269 1048.11 754.184 1049.77 754.778C1051.44 755.369 1054.02 754.836 1057.52 753.173C1061.02 751.516 1062.84 749.625 1062.97 747.505C1062.99 746.363 1062.89 745.434 1062.66 744.729C1062.43 744.019 1061.98 742.975 1061.33 741.584L1060.67 740.199C1059.54 737.827 1058.15 736.359 1056.5 735.795C1054.85 735.231 1052.77 735.543 1050.25 736.739C1047.73 737.936 1045.98 739.014 1044.98 739.987C1043.99 740.953 1043.47 742.138 1043.42 743.539ZM1050.26 727.911C1051.22 727.1 1051.76 726.22 1051.88 725.277C1052 724.333 1051.97 723.557 1051.78 722.934C1051.59 722.317 1051.21 721.398 1050.64 720.182L1037.57 692.67C1036.99 691.456 1036.52 690.566 1036.14 690.002C1035.76 689.433 1035.18 688.865 1034.37 688.286C1033.57 687.713 1032.54 687.528 1031.29 687.732C1030.04 687.936 1028.49 688.476 1026.63 689.356C1024.78 690.23 1023.38 691.091 1022.43 691.931C1021.48 692.773 1020.96 693.677 1020.85 694.649C1020.74 695.621 1020.79 696.432 1020.99 697.079C1021.2 697.73 1021.58 698.66 1022.16 699.874L1035.23 727.385C1035.8 728.601 1036.27 729.476 1036.63 730.016C1036.99 730.551 1037.57 731.094 1038.36 731.64C1039.15 732.188 1040.17 732.344 1041.4 732.111C1042.64 731.878 1044.19 731.323 1046.04 730.443C1047.89 729.564 1049.3 728.718 1050.26 727.911Z" fill="#EBECF1"/>
<path d="M940.555 633.212C940.522 633.212 940.489 633.226 940.465 633.25C940.441 633.274 940.428 633.306 940.428 633.34C940.428 633.373 940.441 633.406 940.465 633.43C940.489 633.453 940.522 633.467 940.555 633.467C940.589 633.467 940.621 633.453 940.645 633.43C940.669 633.406 940.683 633.373 940.683 633.34C940.683 633.306 940.669 633.274 940.645 633.25C940.621 633.226 940.589 633.212 940.555 633.212ZM956.828 605.874C955.62 605.178 954.617 604.176 953.919 602.97C953.221 601.764 952.852 600.395 952.849 599.002V583.682C952.846 582.204 953.266 580.755 954.059 579.507L954.528 578.759H938.51L938.98 579.507C939.775 580.754 940.197 582.203 940.197 583.682V598.986C940.199 600.367 939.837 601.725 939.149 602.923C938.46 604.121 937.469 605.116 936.274 605.811C932.36 608.062 929.298 611.541 927.563 615.709C925.828 619.877 925.517 624.5 926.678 628.863C927.838 633.225 930.406 637.083 933.983 639.839C937.56 642.594 941.946 644.093 946.462 644.104C950.978 644.114 955.371 642.636 958.961 639.897C962.551 637.158 965.136 633.312 966.317 628.955C967.498 624.598 967.208 619.973 965.492 615.797C963.777 611.621 960.731 608.128 956.828 605.858V605.874ZM947.573 602.088C948.117 602.087 948.649 602.246 949.102 602.547C949.554 602.848 949.907 603.277 950.116 603.778C950.325 604.28 950.38 604.833 950.274 605.366C950.169 605.899 949.907 606.388 949.523 606.773C949.138 607.157 948.648 607.418 948.115 607.524C947.582 607.63 947.029 607.575 946.527 607.366C946.025 607.157 945.597 606.804 945.296 606.352C944.995 605.899 944.835 605.368 944.836 604.824C944.836 604.099 945.125 603.403 945.638 602.89C946.151 602.376 946.847 602.088 947.573 602.088ZM938.932 608.451C939.23 608.45 939.521 608.537 939.77 608.701C940.018 608.865 940.212 609.099 940.327 609.374C940.442 609.648 940.473 609.951 940.416 610.243C940.359 610.535 940.216 610.804 940.006 611.015C939.796 611.226 939.528 611.37 939.236 611.429C938.944 611.487 938.642 611.458 938.366 611.344C938.091 611.231 937.856 611.038 937.69 610.791C937.524 610.543 937.436 610.252 937.436 609.955C937.434 609.754 937.472 609.555 937.548 609.369C937.624 609.183 937.737 609.014 937.879 608.873C938.022 608.731 938.191 608.62 938.377 608.544C938.564 608.469 938.763 608.432 938.964 608.435L938.932 608.451ZM959.541 636.672C957.833 638.395 955.8 639.761 953.56 640.69C951.32 641.62 948.917 642.096 946.491 642.089C946.067 642.089 945.645 642.073 945.226 642.041C940.761 641.741 936.556 639.83 933.393 636.664C930.231 633.499 928.325 629.293 928.031 624.829C927.888 622.665 928.123 620.493 928.723 618.41L928.994 617.487H930.155C930.441 617.119 930.807 616.821 931.226 616.616C931.644 616.411 932.104 616.304 932.57 616.304C933.036 616.304 933.496 616.411 933.915 616.616C934.334 616.821 934.7 617.119 934.985 617.487H936.02C936.411 616.312 937.163 615.289 938.169 614.564C939.174 613.84 940.382 613.45 941.622 613.45C942.861 613.45 944.069 613.84 945.075 614.564C946.08 615.289 946.832 616.312 947.223 617.487H948.815C949.167 616.767 949.714 616.159 950.394 615.735C951.074 615.31 951.86 615.085 952.662 615.085C953.464 615.085 954.25 615.31 954.93 615.735C955.61 616.159 956.158 616.767 956.509 617.487H958.594C958.881 617.12 959.247 616.823 959.665 616.619C960.084 616.415 960.543 616.309 961.009 616.309C961.475 616.309 961.934 616.415 962.353 616.619C962.771 616.823 963.138 617.12 963.424 617.487H963.933L964.204 618.41C965.167 621.593 965.244 624.978 964.427 628.201C963.609 631.425 961.928 634.364 959.565 636.704L959.541 636.672ZM956.859 625.664C956.74 625.662 956.622 625.696 956.521 625.762C956.421 625.827 956.342 625.921 956.295 626.032C956.248 626.142 956.235 626.264 956.257 626.381C956.28 626.499 956.337 626.608 956.421 626.693C956.505 626.778 956.613 626.837 956.731 626.861C956.848 626.885 956.97 626.873 957.081 626.828C957.192 626.782 957.287 626.705 957.354 626.605C957.421 626.506 957.456 626.388 957.456 626.268C957.461 626.112 957.404 625.96 957.299 625.844C957.194 625.729 957.047 625.658 956.891 625.648L956.859 625.664Z" fill="#D4FBFF"/>
<path d="M945.188 643.489C944.71 643.489 944.225 643.489 943.74 643.441C939.202 643.135 934.882 641.377 931.42 638.429C927.957 635.481 925.535 631.498 924.51 627.068C923.485 622.638 923.913 617.996 925.729 613.827C927.545 609.659 930.654 606.185 934.597 603.918C935.688 603.282 936.593 602.372 937.221 601.278C937.849 600.184 938.179 598.943 938.178 597.682V582.378C938.179 581.029 937.796 579.707 937.072 578.568L936.602 577.82C936.54 577.716 936.507 577.596 936.507 577.474C936.507 577.352 936.54 577.233 936.602 577.128C936.662 577.022 936.748 576.934 936.853 576.872C936.958 576.811 937.077 576.778 937.199 576.778H953.145C953.267 576.778 953.386 576.811 953.491 576.872C953.596 576.934 953.682 577.022 953.742 577.128C953.804 577.233 953.837 577.352 953.837 577.474C953.837 577.596 953.804 577.716 953.742 577.82L953.272 578.568C952.548 579.707 952.165 581.029 952.166 582.378V597.682C952.18 598.959 952.526 600.211 953.171 601.314C953.815 602.417 954.736 603.334 955.842 603.973C958.7 605.634 961.129 607.94 962.935 610.707C964.742 613.473 965.877 616.624 966.249 619.906C966.621 623.189 966.219 626.514 965.077 629.614C963.935 632.714 962.083 635.505 959.67 637.762C955.756 641.457 950.571 643.507 945.188 643.489ZM938.4 578.138C939.148 579.426 939.541 580.889 939.538 582.378V597.682C939.539 599.182 939.146 600.657 938.397 601.958C937.649 603.259 936.572 604.341 935.273 605.095C931.49 607.273 928.531 610.638 926.854 614.668C925.178 618.698 924.878 623.168 926.001 627.386C927.124 631.604 929.607 635.334 933.065 637.998C936.524 640.662 940.765 642.111 945.131 642.122C949.497 642.132 953.745 640.703 957.216 638.056C960.687 635.408 963.188 631.69 964.331 627.478C965.474 623.266 965.196 618.794 963.539 614.756C961.882 610.718 958.939 607.339 955.166 605.143C953.843 604.393 952.739 603.309 951.966 602C951.192 600.691 950.776 599.202 950.758 597.682V582.378C950.756 580.889 951.148 579.426 951.896 578.138H938.4Z" fill="#103741"/>
<path d="M946.339 606.94C945.663 606.937 945.003 606.734 944.442 606.355C943.881 605.977 943.445 605.442 943.189 604.816C942.932 604.19 942.867 603.503 943.002 602.84C943.136 602.177 943.464 601.569 943.944 601.093C944.424 600.617 945.035 600.293 945.698 600.163C946.362 600.033 947.05 600.103 947.674 600.364C948.298 600.624 948.831 601.064 949.205 601.627C949.579 602.19 949.778 602.852 949.777 603.528C949.772 604.436 949.408 605.305 948.764 605.944C948.119 606.584 947.247 606.942 946.339 606.94ZM946.339 601.468C945.932 601.471 945.535 601.594 945.199 601.823C944.862 602.051 944.6 602.374 944.447 602.75C944.293 603.127 944.255 603.541 944.336 603.939C944.417 604.338 944.615 604.704 944.904 604.99C945.192 605.277 945.56 605.471 945.959 605.549C946.358 605.628 946.772 605.586 947.147 605.43C947.523 605.273 947.844 605.009 948.07 604.671C948.296 604.332 948.416 603.935 948.416 603.528C948.415 603.256 948.36 602.988 948.256 602.737C948.151 602.487 947.997 602.259 947.804 602.068C947.612 601.877 947.383 601.725 947.132 601.622C946.88 601.519 946.611 601.467 946.339 601.468Z" fill="#103741"/>
<path d="M937.622 610.814C937.191 610.812 936.77 610.683 936.412 610.443C936.055 610.202 935.777 609.861 935.613 609.463C935.449 609.064 935.407 608.627 935.492 608.204C935.577 607.782 935.785 607.394 936.091 607.09C936.396 606.786 936.784 606.58 937.207 606.496C937.63 606.413 938.068 606.456 938.466 606.622C938.864 606.787 939.204 607.066 939.443 607.424C939.682 607.783 939.81 608.204 939.81 608.634C939.808 609.213 939.576 609.767 939.166 610.176C938.756 610.584 938.2 610.814 937.622 610.814ZM937.622 607.815C937.466 607.823 937.316 607.876 937.191 607.968C937.065 608.06 936.97 608.187 936.915 608.333C936.861 608.478 936.851 608.637 936.886 608.789C936.921 608.94 937 609.078 937.113 609.185C937.225 609.293 937.367 609.365 937.52 609.392C937.673 609.42 937.831 609.402 937.974 609.341C938.117 609.28 938.239 609.178 938.325 609.048C938.411 608.918 938.457 608.766 938.457 608.61C938.457 608.503 938.435 608.396 938.393 608.297C938.35 608.197 938.288 608.108 938.21 608.033C938.132 607.959 938.039 607.901 937.938 607.864C937.837 607.826 937.729 607.81 937.622 607.815Z" fill="#103741"/>
<path d="M962.979 618.752H962.693C962.568 618.408 962.34 618.111 962.04 617.902C961.741 617.692 961.384 617.579 961.018 617.579C960.652 617.579 960.295 617.692 959.996 617.902C959.696 618.111 959.468 618.408 959.343 618.752H955.611C955.474 618.074 955.106 617.464 954.57 617.026C954.034 616.588 953.363 616.348 952.671 616.348C951.979 616.348 951.308 616.588 950.772 617.026C950.236 617.464 949.868 618.074 949.731 618.752H946.238C946.091 617.641 945.545 616.621 944.702 615.882C943.859 615.143 942.776 614.736 941.654 614.736C940.533 614.736 939.45 615.143 938.607 615.882C937.764 616.621 937.218 617.641 937.071 618.752H934.278C934.153 618.408 933.925 618.111 933.625 617.902C933.326 617.692 932.969 617.579 932.603 617.579C932.237 617.579 931.88 617.692 931.581 617.902C931.281 618.111 931.053 618.408 930.928 618.752H929.997C929.3 621.118 929.121 623.605 929.471 626.047C929.821 628.488 930.692 630.825 932.025 632.9C933.358 634.976 935.122 636.74 937.197 638.073C939.272 639.407 941.61 640.279 944.052 640.63C946.494 640.981 948.983 640.803 951.35 640.107C953.717 639.412 955.907 638.216 957.771 636.6C959.635 634.985 961.129 632.987 962.153 630.744C963.176 628.5 963.705 626.062 963.703 623.596C963.697 621.955 963.453 620.323 962.979 618.752ZM934.843 626.253C934.841 625.731 934.995 625.222 935.283 624.788C935.571 624.354 935.982 624.015 936.463 623.814C936.944 623.614 937.474 623.561 937.986 623.661C938.497 623.762 938.967 624.012 939.336 624.38C939.705 624.748 939.957 625.217 940.059 625.728C940.162 626.239 940.11 626.769 939.911 627.25C939.712 627.732 939.374 628.143 938.941 628.433C938.508 628.723 937.998 628.877 937.477 628.877C936.78 628.877 936.111 628.601 935.617 628.109C935.124 627.617 934.845 626.949 934.843 626.253ZM940.564 634.747C940.286 634.747 940.013 634.665 939.782 634.51C939.55 634.356 939.37 634.136 939.263 633.878C939.156 633.621 939.128 633.338 939.183 633.065C939.237 632.792 939.371 632.541 939.568 632.344C939.765 632.147 940.016 632.013 940.289 631.959C940.563 631.904 940.846 631.932 941.103 632.039C941.36 632.145 941.58 632.326 941.735 632.557C941.89 632.789 941.973 633.061 941.973 633.34C941.973 633.525 941.936 633.709 941.865 633.88C941.793 634.052 941.689 634.207 941.557 634.338C941.426 634.469 941.269 634.572 941.098 634.643C940.926 634.713 940.742 634.749 940.556 634.747H940.564ZM943.214 624.033C943.212 623.523 943.362 623.024 943.645 622.599C943.928 622.174 944.33 621.842 944.802 621.646C945.273 621.45 945.792 621.398 946.293 621.497C946.794 621.597 947.254 621.842 947.615 622.203C947.976 622.564 948.222 623.024 948.321 623.525C948.42 624.025 948.368 624.544 948.172 625.015C947.976 625.487 947.645 625.889 947.219 626.172C946.794 626.454 946.295 626.604 945.784 626.603C945.446 626.604 945.111 626.538 944.798 626.409C944.485 626.281 944.201 626.092 943.962 625.853C943.722 625.614 943.532 625.331 943.402 625.018C943.273 624.706 943.206 624.371 943.206 624.033H943.214ZM949.07 637.197C948.241 637.197 947.43 636.952 946.741 636.491C946.051 636.03 945.514 635.376 945.196 634.61C944.879 633.844 944.796 633.001 944.958 632.188C945.119 631.375 945.519 630.628 946.105 630.042C946.692 629.455 947.439 629.056 948.252 628.894C949.066 628.733 949.909 628.816 950.675 629.133C951.441 629.45 952.096 629.987 952.557 630.677C953.018 631.366 953.264 632.176 953.264 633.006C953.264 633.557 953.155 634.102 952.944 634.612C952.733 635.121 952.423 635.583 952.033 635.972C951.642 636.362 951.179 636.67 950.67 636.881C950.16 637.091 949.614 637.198 949.062 637.197H949.07ZM956.9 628.13C956.526 628.131 956.161 628.022 955.849 627.815C955.538 627.609 955.295 627.314 955.151 626.97C955.008 626.625 954.97 626.245 955.042 625.879C955.115 625.512 955.294 625.176 955.559 624.912C955.823 624.648 956.16 624.468 956.526 624.395C956.893 624.323 957.273 624.361 957.618 624.505C957.962 624.648 958.257 624.891 958.464 625.202C958.67 625.513 958.78 625.879 958.778 626.253C958.779 626.501 958.731 626.747 958.637 626.976C958.542 627.206 958.404 627.415 958.228 627.591C958.053 627.767 957.845 627.906 957.616 628.001C957.386 628.097 957.14 628.146 956.892 628.146L956.9 628.13Z" fill="#FE5A86"/>
<path d="M945.193 640.164C944.779 640.164 944.398 640.164 943.952 640.125C941.281 639.946 938.685 639.17 936.355 637.854C934.024 636.538 932.019 634.715 930.488 632.521C928.956 630.327 927.938 627.817 927.507 625.176C927.076 622.535 927.244 619.832 927.998 617.265C928.037 617.122 928.122 616.996 928.24 616.907C928.358 616.817 928.502 616.77 928.65 616.771H929.16C929.378 616.409 929.685 616.109 930.054 615.901C930.422 615.693 930.837 615.583 931.26 615.583C931.683 615.583 932.099 615.693 932.467 615.901C932.835 616.109 933.143 616.409 933.361 616.771H935.159C935.441 615.619 936.101 614.594 937.035 613.861C937.968 613.129 939.121 612.73 940.308 612.73C941.494 612.73 942.647 613.129 943.58 613.861C944.514 614.594 945.174 615.619 945.456 616.771H947.843C948.106 616.07 948.578 615.465 949.194 615.038C949.81 614.611 950.543 614.382 951.292 614.382C952.042 614.382 952.774 614.611 953.391 615.038C954.007 615.465 954.478 616.07 954.742 616.771H957.543C957.761 616.409 958.069 616.109 958.437 615.901C958.805 615.693 959.22 615.583 959.643 615.583C960.066 615.583 960.482 615.693 960.85 615.901C961.218 616.109 961.526 616.409 961.744 616.771C961.863 616.798 961.972 616.855 962.062 616.938C962.151 617.02 962.217 617.125 962.253 617.241C963.045 619.899 963.206 622.706 962.723 625.437C962.24 628.169 961.126 630.75 959.469 632.975C957.813 635.201 955.66 637.01 953.182 638.258C950.704 639.506 947.968 640.159 945.193 640.164ZM929.168 618.132C928.557 620.482 928.473 622.938 928.92 625.324C929.367 627.711 930.336 629.97 931.756 631.94C933.175 633.91 935.012 635.543 937.136 636.722C939.259 637.902 941.616 638.599 944.039 638.764C946.298 638.918 948.564 638.606 950.697 637.848C952.83 637.09 954.784 635.901 956.438 634.357C958.092 632.812 959.411 630.944 960.313 628.868C961.215 626.793 961.68 624.554 961.68 622.292C961.676 620.873 961.483 619.46 961.107 618.092C961.015 618.057 960.931 618.002 960.861 617.932C960.791 617.863 960.737 617.779 960.702 617.686C960.628 617.472 960.489 617.286 960.304 617.154C960.119 617.023 959.898 616.952 959.671 616.952C959.444 616.952 959.223 617.023 959.039 617.154C958.854 617.286 958.715 617.472 958.641 617.686C958.592 617.817 958.504 617.931 958.389 618.01C958.273 618.09 958.136 618.132 957.996 618.132H954.264C954.107 618.133 953.955 618.08 953.833 617.981C953.711 617.882 953.627 617.744 953.596 617.591C953.492 617.065 953.209 616.591 952.795 616.251C952.38 615.91 951.861 615.724 951.324 615.724C950.788 615.724 950.268 615.91 949.854 616.251C949.439 616.591 949.156 617.065 949.052 617.591C949.02 617.744 948.936 617.881 948.814 617.979C948.692 618.078 948.541 618.131 948.384 618.132H944.891C944.727 618.131 944.569 618.071 944.446 617.963C944.323 617.855 944.244 617.705 944.222 617.543C944.056 616.626 943.573 615.796 942.858 615.199C942.142 614.602 941.24 614.275 940.308 614.275C939.375 614.275 938.473 614.602 937.757 615.199C937.042 615.796 936.559 616.626 936.393 617.543C936.373 617.706 936.294 617.856 936.171 617.965C936.048 618.073 935.889 618.133 935.724 618.132H932.931C932.792 618.133 932.656 618.091 932.542 618.011C932.428 617.931 932.341 617.817 932.295 617.686C932.223 617.469 932.084 617.28 931.898 617.146C931.712 617.012 931.489 616.94 931.26 616.94C931.031 616.94 930.808 617.012 930.623 617.146C930.437 617.28 930.298 617.469 930.226 617.686C930.178 617.818 930.09 617.932 929.975 618.012C929.859 618.091 929.722 618.133 929.581 618.132H929.168Z" fill="#103741"/>
<path d="M936.103 628.257C935.448 628.257 934.808 628.063 934.264 627.699C933.72 627.336 933.295 626.819 933.045 626.214C932.794 625.61 932.729 624.945 932.857 624.303C932.984 623.661 933.3 623.071 933.763 622.608C934.225 622.146 934.815 621.831 935.457 621.703C936.099 621.575 936.765 621.641 937.37 621.891C937.975 622.142 938.492 622.566 938.855 623.11C939.219 623.654 939.413 624.294 939.413 624.948C939.411 625.825 939.062 626.666 938.441 627.286C937.821 627.906 936.98 628.255 936.103 628.257ZM936.103 622.999C935.717 622.993 935.338 623.102 935.013 623.311C934.689 623.521 934.434 623.822 934.281 624.177C934.128 624.531 934.084 624.923 934.154 625.303C934.225 625.682 934.406 626.033 934.676 626.309C934.946 626.585 935.292 626.775 935.669 626.855C936.047 626.934 936.44 626.9 936.799 626.756C937.157 626.612 937.465 626.365 937.682 626.046C937.9 625.727 938.018 625.35 938.021 624.964C938.025 624.45 937.826 623.955 937.467 623.587C937.108 623.219 936.617 623.008 936.103 622.999Z" fill="#103741"/>
<path d="M939.198 634.127C938.784 634.127 938.38 634.004 938.036 633.775C937.691 633.545 937.423 633.218 937.265 632.836C937.106 632.454 937.065 632.033 937.146 631.627C937.226 631.221 937.426 630.849 937.718 630.556C938.011 630.263 938.384 630.064 938.79 629.983C939.196 629.903 939.617 629.944 939.999 630.103C940.381 630.261 940.708 630.529 940.938 630.873C941.168 631.217 941.291 631.621 941.291 632.035C941.291 632.59 941.07 633.122 940.678 633.514C940.286 633.907 939.753 634.127 939.198 634.127ZM939.198 631.311C939.053 631.311 938.911 631.355 938.791 631.435C938.67 631.516 938.576 631.631 938.521 631.765C938.466 631.899 938.452 632.047 938.481 632.189C938.51 632.331 938.58 632.461 938.683 632.563C938.787 632.665 938.918 632.735 939.06 632.762C939.203 632.789 939.35 632.774 939.484 632.717C939.618 632.66 939.731 632.565 939.811 632.444C939.89 632.323 939.932 632.18 939.93 632.035C939.926 631.845 939.847 631.663 939.71 631.531C939.573 631.398 939.389 631.325 939.198 631.327V631.311Z" fill="#103741"/>
<path d="M944.391 625.982C943.748 625.982 943.118 625.791 942.583 625.434C942.048 625.076 941.631 624.568 941.384 623.974C941.138 623.379 941.074 622.725 941.199 622.094C941.325 621.463 941.635 620.884 942.09 620.429C942.545 619.974 943.125 619.664 943.756 619.538C944.388 619.413 945.042 619.477 945.637 619.723C946.231 619.97 946.74 620.387 947.097 620.922C947.455 621.457 947.646 622.085 947.646 622.729C947.646 623.156 947.561 623.579 947.398 623.974C947.234 624.369 946.995 624.727 946.692 625.029C946.39 625.331 946.031 625.571 945.637 625.735C945.242 625.898 944.819 625.982 944.391 625.982ZM944.391 620.836C944.017 620.836 943.65 620.947 943.339 621.155C943.028 621.363 942.785 621.659 942.642 622.004C942.498 622.35 942.461 622.731 942.534 623.098C942.607 623.465 942.787 623.803 943.052 624.068C943.317 624.332 943.654 624.513 944.022 624.586C944.389 624.659 944.77 624.621 945.116 624.478C945.462 624.335 945.758 624.092 945.966 623.781C946.174 623.469 946.285 623.103 946.285 622.729C946.285 622.227 946.085 621.745 945.73 621.39C945.375 621.035 944.893 620.836 944.391 620.836Z" fill="#103741"/>
<path d="M947.706 636.569C946.743 636.567 945.802 636.281 945.002 635.745C944.202 635.209 943.58 634.448 943.212 633.558C942.845 632.669 942.749 631.69 942.938 630.747C943.127 629.803 943.592 628.936 944.273 628.256C944.954 627.576 945.822 627.113 946.766 626.926C947.711 626.739 948.69 626.836 949.579 627.205C950.468 627.573 951.228 628.197 951.763 628.998C952.298 629.798 952.583 630.739 952.583 631.701C952.581 632.993 952.066 634.231 951.152 635.144C950.237 636.056 948.998 636.569 947.706 636.569ZM947.706 628.185C947.01 628.185 946.33 628.392 945.752 628.778C945.173 629.164 944.722 629.713 944.456 630.356C944.19 630.998 944.12 631.705 944.256 632.387C944.392 633.069 944.727 633.695 945.219 634.187C945.71 634.679 946.337 635.014 947.019 635.149C947.702 635.285 948.409 635.215 949.051 634.949C949.694 634.683 950.243 634.232 950.63 633.654C951.016 633.076 951.223 632.396 951.223 631.701C951.22 630.769 950.849 629.876 950.19 629.217C949.531 628.559 948.638 628.188 947.706 628.185Z" fill="#103741"/>
<path d="M955.531 627.509C955.024 627.509 954.529 627.359 954.107 627.078C953.686 626.796 953.358 626.396 953.164 625.928C952.97 625.46 952.919 624.945 953.018 624.448C953.117 623.952 953.361 623.495 953.719 623.137C954.078 622.779 954.534 622.535 955.031 622.436C955.528 622.337 956.043 622.388 956.511 622.582C956.98 622.776 957.38 623.104 957.661 623.525C957.943 623.946 958.093 624.442 958.093 624.948C958.091 625.627 957.82 626.277 957.34 626.757C956.86 627.237 956.21 627.507 955.531 627.509ZM955.531 623.739C955.291 623.738 955.057 623.807 954.857 623.939C954.657 624.071 954.501 624.259 954.408 624.48C954.315 624.701 954.29 624.944 954.336 625.179C954.382 625.414 954.496 625.63 954.665 625.8C954.834 625.97 955.049 626.086 955.284 626.133C955.519 626.181 955.763 626.157 955.984 626.066C956.205 625.975 956.395 625.82 956.528 625.621C956.661 625.422 956.732 625.188 956.732 624.948C956.732 624.629 956.606 624.323 956.381 624.096C956.156 623.87 955.85 623.741 955.531 623.739Z" fill="#103741"/>
<path d="M944.828 583.094H938.821C938.725 583.105 938.628 583.095 938.537 583.065C938.445 583.036 938.361 582.987 938.29 582.923C938.218 582.859 938.161 582.781 938.122 582.693C938.083 582.605 938.062 582.51 938.062 582.414C938.062 582.318 938.083 582.223 938.122 582.135C938.161 582.047 938.218 581.969 938.29 581.905C938.361 581.841 938.445 581.792 938.537 581.763C938.628 581.733 938.725 581.723 938.821 581.734H944.812C944.992 581.736 945.164 581.809 945.291 581.937C945.418 582.065 945.489 582.238 945.489 582.418C945.489 582.595 945.42 582.764 945.296 582.891C945.173 583.017 945.005 583.09 944.828 583.094Z" fill="#103741"/>
<path d="M944.828 595.224H938.821C938.725 595.235 938.628 595.225 938.537 595.195C938.445 595.166 938.361 595.117 938.29 595.053C938.218 594.989 938.161 594.911 938.122 594.823C938.083 594.735 938.062 594.64 938.062 594.544C938.062 594.448 938.083 594.353 938.122 594.265C938.161 594.177 938.218 594.099 938.29 594.035C938.361 593.971 938.445 593.922 938.537 593.893C938.628 593.863 938.725 593.853 938.821 593.864H944.812C944.98 593.882 945.135 593.961 945.248 594.087C945.361 594.212 945.423 594.375 945.423 594.544C945.423 594.713 945.361 594.875 945.248 595.001C945.135 595.127 944.98 595.206 944.812 595.224H944.828Z" fill="#103741"/>
<path d="M944.828 589.171H938.821C938.725 589.182 938.628 589.172 938.537 589.142C938.445 589.113 938.361 589.064 938.29 589C938.218 588.936 938.161 588.858 938.122 588.77C938.083 588.682 938.062 588.587 938.062 588.491C938.062 588.395 938.083 588.3 938.122 588.212C938.161 588.124 938.218 588.046 938.29 587.982C938.361 587.918 938.445 587.869 938.537 587.84C938.628 587.81 938.725 587.8 938.821 587.811H944.812C944.992 587.811 945.164 587.882 945.29 588.009C945.417 588.136 945.489 588.308 945.489 588.487C945.489 588.664 945.42 588.835 945.297 588.963C945.173 589.09 945.005 589.165 944.828 589.171Z" fill="#103741"/>
<path fill-rule="evenodd" clip-rule="evenodd" d="M279.966 703.549L308.049 684.092L352.871 804.224L284.294 743.169L262.7 756.604L225.711 633.885L279.966 703.549Z" fill="#EBECF1"/>
<path fill-rule="evenodd" clip-rule="evenodd" d="M171.063 2.18642C202.334 -6.55382 234.767 11.6931 243.515 42.953C251.441 71.2707 237.194 100.538 211.193 112.296L213.216 119.519C213.941 119.5 214.681 119.495 215.424 119.514L230.931 174.921C232.423 180.249 228.816 185.961 222.917 187.609C217.019 189.256 210.976 186.247 209.481 180.914L193.976 125.507C194.597 125.104 195.23 124.72 195.866 124.36L193.843 117.137C165.539 120.539 138.201 102.91 130.284 74.6114C121.537 43.3562 139.796 10.9299 171.063 2.18642ZM176.009 19.8587C154.506 25.8725 141.951 48.1728 147.965 69.6671C153.981 91.1667 176.285 103.717 197.793 97.7033C219.295 91.6914 231.85 69.3893 225.835 47.8965C219.82 26.4022 197.51 13.8468 176.009 19.8587Z" fill="#EBECF1"/>
<path fill-rule="evenodd" clip-rule="evenodd" d="M88.1557 260.107L91.5111 264.64L118.387 244.765C120.57 243.151 123.677 243.617 125.296 245.8C126.91 247.983 126.444 251.089 124.26 252.702L97.3846 272.578L113.491 294.34L140.366 274.469C142.548 272.856 145.656 273.317 147.271 275.5C148.89 277.683 148.423 280.788 146.24 282.402L119.364 302.278L123.22 307.492C124.557 309.301 124.173 311.871 122.364 313.209L95.1476 333.337L96.2574 334.839C98.5183 337.896 97.8666 342.242 94.8129 344.502C91.7545 346.764 87.4073 346.112 85.1449 343.06L82.4756 339.457L67.4451 341.192L58.5472 347.424L34.4146 357.019C30.1107 358.948 27.3042 359.269 26.0022 357.981L20.8715 351.498C7.98542 360.732 7.74679 367.668 12.0321 374.259C14.5314 378.101 18.3776 382.07 22.3932 386.222C35.8044 400.075 50.9172 415.683 36.4322 440.394L28.6715 435.831C39.6947 417.02 27.0951 404.007 15.9123 392.458C11.5741 387.978 7.42093 383.689 4.48934 379.184C-2.55073 368.359 -2.92627 357.499 15.2742 344.419L12.3476 340.715C10.8106 337.917 10.9856 335.252 12.7421 332.706L30.4315 311.206L40.5561 303.197L46.3027 290.567L42.9921 286.092C40.7311 283.038 41.3778 278.688 44.4366 276.427C47.4953 274.167 51.8421 274.819 54.103 277.871L55.2164 279.379L82.433 259.251C84.2412 257.913 86.8195 258.297 88.1557 260.107Z" fill="#EBECF1"/>
<path fill-rule="evenodd" clip-rule="evenodd" d="M1153.89 31.9238C1156.85 31.7298 1159.79 31.9084 1162.65 32.4348L1167.99 24.8471L1181.57 31.5448L1179.76 40.614C1182.07 42.603 1184.13 44.8974 1185.9 47.4578L1194.25 46.0106L1199.11 60.3443L1192.13 65.0051C1192.39 68.2923 1192.2 71.5589 1191.58 74.7175L1198.49 79.5788L1191.79 93.1492L1183.42 91.4824C1181.3 93.9275 1178.84 96.1054 1176.08 97.9283L1176.64 106.428L1162.29 111.289L1158.4 103.834C1155.09 104.037 1151.82 103.779 1148.66 103.1L1143.14 109.379L1129.56 102.681L1132.08 94.6408C1129.8 92.595 1127.77 90.2424 1126.05 87.617L1116.88 88.2156L1112.02 73.8854L1120.2 69.6036C1120.06 66.6285 1120.29 63.6791 1120.86 60.8204L1113.93 54.7349L1120.63 41.1641L1129.32 43.8856C1131.27 41.6977 1133.49 39.7394 1135.97 38.0622L1134.41 29.0837L1148.75 24.2243L1153.89 31.9238ZM1151.14 52.9466C1142.89 55.7417 1138.47 64.6891 1141.27 72.939C1144.06 81.1817 1153.02 85.6008 1161.27 82.8057C1169.52 80.0106 1173.94 71.0578 1171.14 62.8133C1168.34 54.5655 1159.39 50.1465 1151.14 52.9466Z" fill="#EBECF1"/>
<path fill-rule="evenodd" clip-rule="evenodd" d="M162.995 657.203L139.912 660.348L172.72 741.38L179.067 679.114L196.119 675.926L158.176 597.202L162.995 657.203Z" fill="#EBECF1"/>
<path d="M84.5375 632.459L102.128 625.012L52.1575 605L2.1875 625.012L19.7775 632.459H84.5375Z" fill="#FE5A86"/>
<path d="M83.1281 631.709C82.9809 631.708 82.8373 631.664 82.7148 631.582C82.5923 631.5 82.4962 631.385 82.4381 631.25C82.3941 631.158 82.3696 631.059 82.3661 630.958C82.3626 630.857 82.3803 630.756 82.4179 630.662C82.4555 630.568 82.5123 630.483 82.5847 630.412C82.657 630.341 82.7433 630.286 82.8381 630.25L98.7481 623.513L50.7481 604.29L2.74808 623.513L18.6581 630.25C18.7519 630.287 18.8372 630.343 18.9088 630.414C18.9803 630.485 19.0365 630.57 19.0739 630.663C19.1114 630.757 19.1293 630.857 19.1266 630.958C19.1239 631.059 19.1005 631.158 19.0581 631.25C19.0199 631.343 18.9636 631.427 18.8922 631.497C18.8209 631.568 18.736 631.624 18.6428 631.661C18.5495 631.698 18.4497 631.717 18.3492 631.715C18.2488 631.713 18.1498 631.69 18.0581 631.649L0.468079 624.202C0.329751 624.146 0.211318 624.05 0.12793 623.926C0.0445415 623.803 0 623.657 0 623.508C0 623.358 0.0445415 623.213 0.12793 623.089C0.211318 622.965 0.329751 622.869 0.468079 622.813L50.4681 602.821C50.6448 602.751 50.8414 602.751 51.0181 602.821L101.018 622.813C101.156 622.869 101.275 622.965 101.358 623.089C101.442 623.213 101.486 623.358 101.486 623.508C101.486 623.657 101.442 623.803 101.358 623.926C101.275 624.05 101.156 624.146 101.018 624.202L83.4281 631.649C83.3333 631.69 83.2311 631.71 83.1281 631.709Z" fill="#103741"/>
<path d="M82.6582 652.581C82.6582 656.66 68.9982 659.969 52.1582 659.969C35.3182 659.969 21.6582 656.66 21.6582 652.581V650.382C21.7082 646.384 37.1582 642.905 49.6582 647.114C51.2984 647.673 53.078 647.673 54.7182 647.114C67.1982 642.905 82.6382 646.404 82.7182 650.382L82.6582 652.581Z" fill="#FE5A86"/>
<path d="M37.2775 644.355C41.5642 644.34 45.8255 645.015 49.8975 646.354C51.3638 646.847 52.9512 646.847 54.4175 646.354C58.4898 645.016 62.7508 644.341 67.0375 644.355C73.4275 644.355 80.2575 645.864 82.6275 648.423L82.4375 633.779L82.3775 628.731C82.3275 624.512 68.8275 621.253 52.1575 621.413C35.4875 621.253 21.9975 624.512 21.9375 628.731L21.8775 633.779L21.6875 648.423C24.0575 645.864 30.8875 644.355 37.2775 644.355Z" fill="#F9F6EF"/>
<path d="M20.2481 649.633C20.1488 649.633 20.0504 649.613 19.9588 649.575C19.8671 649.536 19.784 649.48 19.7142 649.409C19.6445 649.339 19.5894 649.255 19.5523 649.163C19.5152 649.071 19.4968 648.972 19.4981 648.873L19.7781 627.221C19.8481 621.793 35.8281 618.994 50.7781 619.164C65.7281 619.014 81.6681 621.793 81.7781 627.221L82.0581 648.863C82.0581 649.062 81.9791 649.252 81.8384 649.393C81.6978 649.534 81.507 649.613 81.3081 649.613C81.1092 649.613 80.9185 649.534 80.7778 649.393C80.6372 649.252 80.5581 649.062 80.5581 648.863C80.5581 648.413 80.1581 647.863 79.4381 647.383C75.6081 644.674 63.6381 642.905 53.5881 646.294C51.7868 646.894 49.8395 646.894 48.0381 646.294C38.0381 642.905 26.0381 644.674 22.1881 647.383C21.4681 647.893 21.0681 648.383 21.0681 648.853C21.0713 648.96 21.0519 649.066 21.0113 649.164C20.9706 649.263 20.9096 649.352 20.8323 649.426C20.7549 649.499 20.6629 649.556 20.5622 649.591C20.4616 649.627 20.3546 649.641 20.2481 649.633ZM65.5781 642.955C72.0181 642.955 77.6681 644.375 80.2381 646.194L80.4581 646.354L80.2081 627.241C80.2081 623.992 68.0581 620.494 50.7481 620.664C33.4481 620.484 21.3181 623.992 21.2781 627.241L21.0081 646.354L21.2281 646.194C25.4081 643.195 37.7781 641.316 48.4281 644.904C49.9173 645.404 51.529 645.404 53.0181 644.904C57.0723 643.582 61.3137 642.924 65.5781 642.955Z" fill="#103741"/>
<path d="M50.7381 659.229C35.5981 659.229 19.498 656.38 19.498 651.092C19.498 650.893 19.5771 650.703 19.7177 650.562C19.8584 650.421 20.0491 650.342 20.248 650.342C20.447 650.342 20.6377 650.421 20.7784 650.562C20.919 650.703 20.998 650.893 20.998 651.092C20.998 654.231 33.2081 657.729 50.7381 657.729C68.2681 657.729 80.4881 654.231 80.4881 651.092C80.4881 650.893 80.5671 650.703 80.7077 650.562C80.8484 650.421 81.0392 650.342 81.2381 650.342C81.437 650.342 81.6277 650.421 81.7684 650.562C81.909 650.703 81.9881 650.893 81.9881 651.092C82.0081 656.38 65.8881 659.229 50.7381 659.229Z" fill="#103741"/>
<path d="M8.19862 652.232L6.63862 661.868C6.59669 662.126 6.61127 662.39 6.68134 662.642C6.75141 662.894 6.87531 663.128 7.0445 663.328C7.21369 663.527 7.42416 663.688 7.66138 663.798C7.89861 663.908 8.15695 663.966 8.41862 663.967H11.4186C11.6807 663.969 11.94 663.914 12.1784 663.805C12.4169 663.697 12.6288 663.537 12.7993 663.338C12.9697 663.139 13.0947 662.906 13.1654 662.653C13.2361 662.401 13.2509 662.136 13.2086 661.878L11.6786 652.222L8.19862 652.232Z" fill="#16C4E3"/>
<path d="M10.0073 663.847H7.00728C6.63346 663.849 6.26388 663.768 5.92473 663.611C5.58558 663.454 5.28514 663.224 5.0447 662.938C4.80426 662.651 4.6297 662.316 4.53337 661.955C4.43705 661.594 4.42132 661.216 4.48729 660.848L6.04729 651.222C6.0604 651.122 6.09335 651.027 6.14418 650.94C6.19502 650.854 6.26271 650.778 6.34325 650.718C6.42379 650.658 6.51551 650.615 6.61303 650.592C6.71054 650.568 6.81183 650.564 6.91091 650.58C7.00999 650.596 7.10485 650.632 7.18984 650.685C7.27483 650.738 7.34824 650.808 7.40572 650.891C7.4632 650.973 7.50358 651.066 7.52446 651.164C7.54535 651.262 7.54628 651.363 7.52727 651.462L5.96727 661.088C5.94299 661.24 5.95188 661.396 5.99331 661.544C6.03473 661.693 6.10772 661.83 6.20729 661.948C6.30351 662.066 6.42564 662.162 6.56432 662.226C6.703 662.29 6.85453 662.321 7.00728 662.318H10.0073C10.1569 662.311 10.3035 662.273 10.4373 662.206C10.5711 662.139 10.6892 662.044 10.7836 661.928C10.8781 661.811 10.9469 661.676 10.9855 661.532C11.024 661.387 11.0314 661.236 11.0073 661.088L9.47728 651.432C9.45182 651.239 9.50269 651.043 9.6191 650.887C9.7355 650.73 9.90829 650.625 10.1008 650.594C10.2933 650.563 10.4905 650.608 10.6503 650.719C10.8102 650.831 10.9203 651.001 10.9573 651.192L12.4873 660.858C12.5514 661.226 12.5344 661.603 12.4374 661.963C12.3403 662.324 12.1657 662.658 11.9256 662.944C11.6855 663.23 11.3858 663.46 11.0475 663.617C10.7093 663.775 10.3405 663.857 9.96727 663.857L10.0073 663.847Z" fill="#103741"/>
<path d="M11.0487 640.716L11.0587 630.67L8.89868 629.81L8.88867 640.696L11.0487 640.716Z" fill="#16C4E3"/>
<path d="M7.38867 640.586C7.18976 640.586 6.99899 640.507 6.85834 640.366C6.71769 640.226 6.63867 640.035 6.63867 639.836V628.941C6.63867 628.742 6.71769 628.551 6.85834 628.41C6.99899 628.27 7.18976 628.191 7.38867 628.191C7.58758 628.191 7.77835 628.27 7.91901 628.41C8.05966 628.551 8.13867 628.742 8.13867 628.941V639.836C8.13608 640.034 8.05623 640.224 7.91614 640.364C7.77604 640.504 7.58678 640.583 7.38867 640.586Z" fill="#103741"/>
<path d="M9.54688 640.586C9.34877 640.583 9.1595 640.504 9.01941 640.364C8.87931 640.224 8.79946 640.034 8.79688 639.836V629.8C8.79687 629.601 8.87589 629.411 9.01654 629.27C9.15719 629.129 9.34796 629.05 9.54688 629.05C9.74579 629.05 9.93656 629.129 10.0772 629.27C10.2179 629.411 10.2969 629.601 10.2969 629.8V639.846C10.2942 640.043 10.2141 640.232 10.0737 640.37C9.93333 640.508 9.74407 640.586 9.54688 640.586Z" fill="#103741"/>
<path d="M12.7674 646.634C12.7674 648.843 11.4974 650.632 9.93741 650.632C8.37741 650.632 7.10742 648.833 7.10742 646.634C7.10742 644.435 8.37741 642.635 9.93741 642.635C11.4974 642.635 12.7674 644.415 12.7674 646.634Z" fill="#16C4E3"/>
<path d="M8.43741 650.512C6.43741 650.512 4.85742 648.423 4.85742 645.754C4.85742 643.085 6.42741 640.996 8.43741 640.996C10.4474 640.996 12.0174 643.085 12.0174 645.754C12.0174 648.423 10.4474 650.512 8.43741 650.512ZM8.43741 642.515C7.30741 642.515 6.35742 644.005 6.35742 645.774C6.35742 647.543 7.30741 649.033 8.43741 649.033C9.56741 649.033 10.5174 647.543 10.5174 645.774C10.5174 644.005 9.56741 642.495 8.43741 642.495V642.515Z" fill="#103741"/>
<path fill-rule="evenodd" clip-rule="evenodd" d="M543.076 477.958L543.373 470.692C543.368 469.88 543.484 469.598 543.505 468.928L543.63 465.131C544.194 454.695 545.366 432.049 544.526 423.13C544.189 419.596 541.798 410.842 540.844 407.21C540.582 406.2 540.256 405.106 539.988 404.145C532.909 378.955 523.073 360.591 511.411 338.368C503.369 322.4 491.257 305.33 481.331 289.775C467.983 267.893 452.526 247.4 439.202 225.657C435.638 219.844 431.967 213.896 430.172 207.241C429.237 203.794 428.066 200.159 429.404 196.659C429.881 195.4 430.57 195.366 429.841 194.171C427.39 190.145 425.086 185.956 423.101 181.677C419.682 174.304 413.43 161.224 413.557 153.37C413.732 142.097 425.733 138.597 434.485 135.092C435.092 134.85 435.643 134.655 436.221 134.427L443.141 131.73C470.809 120.939 496.444 118.634 525.935 116.957C542.473 116.019 559.574 115.577 576.108 114.332C582.201 113.876 582.532 114.741 585.652 109.535L593.89 93.8643C596.166 88.5366 597.741 81.6982 601.101 77.1727C603.163 74.3862 606.383 72.6133 608.201 69.9775C610.155 67.1499 611.795 64.1112 613.948 61.4329C615.792 59.1489 619.993 56.3967 623.076 56.3967C629.232 56.3967 634.531 61.8411 638.417 66.0216C640.46 68.316 640.027 67.8839 642.609 67.2856C646.893 66.2945 650.632 66.7695 654.863 67.6217C655.888 67.8256 656.749 68.0331 657.64 68.2578L660.148 69.0396C660.693 68.676 661.491 67.7621 662.01 67.2409C662.652 66.5995 663.221 66.0509 663.921 65.4816C666.975 63.0123 668.949 61.3643 672.631 59.5125C675.236 58.1956 678.422 57.4857 681.539 57.4188C682.345 57.2764 685.793 54.8073 690.169 52.9262C694.017 51.2783 696.996 50.2579 699.739 50.4826C703.225 50.7637 706.304 52.8884 709.927 56.3677C716.194 62.3865 723.493 71.7046 727.213 76.3601C731.181 81.4735 739.194 92.4549 744.383 96.6304C751.02 101.972 753.972 101.301 761.889 103.289L766.26 104.232C774.778 106.055 783.259 106.76 791.871 107.97C804.206 109.71 815.96 111.737 827.975 114.745C833.718 116.184 839.377 117.444 845.053 119.047C850.665 120.637 856.202 122.226 861.707 123.771C868.11 125.57 875.945 127.729 882.139 130.159C889.176 133.065 903.316 137.815 909.74 142.661C915.648 147.123 918.959 156.134 918.123 163.406C917.607 167.921 917.89 173.585 917.204 177.658C916.446 182.164 914.53 186.422 912.541 190.446L903.22 209.336C897.826 219.417 893.148 229.96 887.752 240.104C879.902 254.861 871.224 269.157 862.314 283.525C860.021 286.966 857.554 290.3 855.065 293.606C844.547 308.432 838.677 315.683 831.516 330.897C831.291 331.447 831.049 331.932 830.811 332.467C828.267 338.124 825.51 343.56 824.683 349.659C822.884 362.901 827.469 373.443 820.731 390.805C818.693 396.05 815.473 402.02 812.07 406.558C808.676 410.725 803.045 416.878 800.405 421.705C800.098 422.274 799.825 422.692 799.563 423.27C797.471 427.936 799.679 446.095 800.06 451.097C800.768 460.439 802.014 469.33 803.599 478.254C778.099 523.823 729.363 554.636 673.423 554.636C617.357 554.636 568.528 523.694 543.076 477.958ZM732.509 127.218C737.129 135.937 740.62 143.069 742.73 152.917C746.581 170.882 738.081 190.642 738.081 209.545C738.081 221.147 742.131 230.115 747.354 238.97C748.428 240.79 750.389 243.05 751.609 245.085C751.852 245.495 752.027 245.795 752.245 246.219C752.674 247.05 753.851 248.916 754.02 249.631L768.569 239.642C773.321 236.501 779.505 233.79 784.68 231.34C785.034 231.175 785.214 231.125 785.55 230.945C790.554 228.287 792.828 226.552 796.939 222.853C798.431 221.481 798.762 220.919 799.913 219.756C801.188 218.479 804.042 214.216 805.009 212.587L813.427 198.992C820.151 188.901 827.32 182.484 835.829 173.964C839.73 170.066 838.591 168.437 835.221 165.933C833.703 164.805 827.941 161.573 826.051 160.557L819.637 157.227C811.37 153.062 800.668 149.115 791.768 146.01C785.857 143.943 779.125 140.92 773.49 139.744L765.769 137.727C764.495 137.357 763.331 137.031 762.035 136.657C753.962 134.324 751.126 133.269 743.896 130.378C740.371 128.963 739.88 129.03 736.331 128.2L732.509 127.218ZM603.397 220.856C607.462 196.396 591.308 176.433 601.584 145.694L603.723 140.367C600.144 142.261 593.929 143.22 589.553 144.288C584.753 145.465 579.808 146.511 574.804 147.507C569.728 148.508 564.759 149.587 559.789 150.578C538.228 154.891 524.695 159.692 505.026 167.921C503.908 168.326 502.887 168.822 501.769 169.214L493.692 172.398C493.142 172.632 492.714 172.86 492.136 172.997C492.315 173.673 496.693 177.994 497.29 178.596C497.61 178.916 497.713 178.951 498.044 179.234C502.566 183.292 506.923 187.204 511.649 191.05C521.623 199.176 531.299 206.939 541.569 214.638C555.174 224.846 582.41 237.815 599.798 236.736C599.906 231.875 602.57 225.803 603.397 220.856Z" fill="#103741"/>
<path fill-rule="evenodd" clip-rule="evenodd" d="M687.499 56.4224C690.16 54.7009 696.203 52.0962 699.49 52.0962C706.025 52.0962 719.577 69.5267 724.976 76.7012C729.834 82.9807 736.442 92.2214 742.476 97.5287C748.393 102.74 752.254 102.949 759.437 104.727C768.122 106.905 776.514 108.038 785.621 109.156C812.915 112.5 834.019 117.55 861.001 125.62C866.214 127.178 871.515 128.574 876.689 130.299L882.382 132.196C887.095 133.91 906.774 142.242 909.978 145.461L911.247 146.845C914.943 151.079 916.207 156.864 916.207 162.37C916.207 163.805 916.046 166.313 915.759 168.573C915.443 171.028 915.457 173.278 913.09 174.435C906.326 177.736 897.866 175.145 891.081 173.448L870.638 168.466C865.989 167.309 861.618 165.968 856.736 165.419C850.979 164.773 846.471 164.028 840.831 165.56C838.239 166.264 839.503 166.599 836.702 164.577C834.432 162.935 829.477 160.15 826.847 158.749C824.234 157.355 821.677 155.911 818.954 154.75C817.091 153.953 815.376 153.14 813.497 152.363C806.943 149.597 800.383 146.967 793.664 144.619L785.032 141.485C781.162 140.046 777.146 138.645 773.07 137.635C768.806 136.58 764.888 135.442 760.769 134.257C756.587 133.052 752.779 131.807 748.885 130.323C743.783 128.384 742.694 127.456 737.16 126.362C728.452 124.637 724.445 119.805 720.555 112.028C716.125 103.161 713.072 91.9675 707.965 84.7208C707.456 83.9919 706.847 83.2083 706.224 82.5432L699.519 75.4612C697.798 73.7312 696.558 71.9751 694.127 70.989C691.607 69.9686 685.699 71.344 685.699 67.1446C685.699 62.8816 695.741 59.3425 698.93 61.2526C700.87 62.4151 702.184 63.9756 703.764 65.5309L705.408 67.2989C706.041 67.9899 706.487 68.9142 707.586 68.9142C708.18 68.9142 708.808 68.0192 707.241 66.4827C706.764 66.0163 706.526 65.6323 706.041 65.152C705.193 64.3202 704.485 63.3327 703.603 62.5266C701.668 60.733 699.661 58.6718 696.709 58.6718C695.834 58.6718 695.201 58.905 694.443 59.0611C692.445 59.4743 690.791 60.354 689.288 60.7673C686.741 61.4672 681.499 60.3014 687.499 56.4224ZM682.418 195.954C684.936 193.173 684.168 193.373 680.989 190.732C678.61 188.76 674.045 183.141 670.952 182.582C669.794 182.368 669.333 183.252 667.573 183.112C664.626 182.882 664.549 179.753 657.327 184.585C654.756 186.305 652.932 188.615 650.457 190.374C648.851 191.511 648.692 191.418 650.112 193.888C659.233 207.458 674.011 205.214 682.418 195.954ZM685.827 145.679C685.827 150.074 692.313 151.489 694.006 147.274C694.7 145.528 694.404 143.808 693.139 142.544C690.33 139.739 685.827 141.903 685.827 145.679ZM675.143 173.05C673.349 173.05 672.961 172.417 670.587 172.417C669.134 172.417 668.345 173.691 667.276 174.046C665.996 174.475 664.806 173.302 663.123 173.302C661.334 173.302 660.07 175.675 657.551 173.945C657.045 173.594 657.025 173.201 656.616 172.909C656.568 172.875 656.52 172.846 656.471 172.822C655.625 172.379 654.488 173.153 655.1 174.459C655.251 174.775 655.498 175.121 655.877 175.49C656.529 176.121 658.352 176.973 659.583 176.973C660.867 176.973 662.238 175.98 662.959 175.787C664.051 175.495 666.11 177.623 668.954 175.972C669.474 175.67 670.043 175.082 670.568 174.917C671.342 174.679 673.786 175.583 675.018 175.583C676.102 175.583 678.056 174.751 678.562 173.609C679.174 172.223 677.618 171.436 676.67 172.205C676.262 172.544 675.935 173.05 675.143 173.05ZM642.686 152.003C644.125 152.003 645.307 151.513 646.192 150.7C649.275 147.896 647.125 142.389 642.938 142.389C639.107 142.389 636.253 146.962 639.378 150.501C639.987 151.182 641.416 152.003 642.686 152.003ZM681.782 126.203C681.782 127.184 682.482 127.971 683.425 127.971C684.689 127.971 689.877 123.758 700.162 128.19C701.397 128.725 702.686 129.454 703.701 130.212C705.252 131.364 705.949 132.652 707.208 132.652C707.957 132.652 708.851 131.87 708.851 130.883C708.851 128.797 702.612 125.236 699.948 124.356C695.368 122.839 689.668 121.969 684.957 123.689C683.809 124.107 681.782 124.685 681.782 126.203ZM622.063 128.355C622.063 129.478 622.715 130.125 623.838 130.125C624.801 130.125 624.845 129.732 625.41 129.29C628.389 126.966 626.523 128.172 629.961 126.256C630.899 125.732 632.436 125.274 633.65 125.011C636.549 124.38 639.039 124.205 641.981 124.884C643.401 125.216 644.748 125.721 645.935 126.373C646.945 126.921 648.172 127.952 648.88 128.866C649.97 130.257 652.047 129.595 652.047 127.719C652.047 126.261 648.292 123.554 647.028 123.003C642.818 121.18 641.66 121.021 636.998 121.021C633.749 121.021 630.428 122.245 628.098 123.257C627.676 123.443 627.602 123.549 627.208 123.758C626.834 123.962 626.675 124.034 626.309 124.254C625.137 124.958 622.063 127.062 622.063 128.355ZM617.639 157.694C617.639 154.03 618.008 152.159 619.492 149.179C619.866 148.431 620.756 146.866 621.305 146.432C622.025 145.869 622.53 145.213 623.82 144.27C625.127 143.308 628.53 141.806 630.16 141.377C635.888 139.88 641.111 139.92 646.916 141.072C649.164 141.519 651.088 142.282 653.009 143.075C660.332 146.117 659.466 157.827 656.909 163.947C655.898 166.371 654.618 168.345 652.903 170.056C645.856 177.075 635.514 178.466 626.619 174.007C626.022 173.707 625.54 173.448 624.981 173.119C622.015 171.36 620.849 168.928 619.389 166.061C618.503 163.864 617.639 160.791 617.639 157.694ZM672.927 151.624C672.927 154.681 673.777 158.137 674.658 160.388C676.574 165.287 679.087 169.735 683.887 172.155C687.197 173.818 691.263 174.571 695.241 174.367C701.509 174.046 707.237 171.466 710.777 166.191C712.625 163.441 714.04 157.84 714.04 154.279C714.04 149.704 712.877 146.063 710.481 143.297C708.827 141.387 706.58 139.89 703.722 138.796C698.62 136.843 690.155 136.263 683.667 137.951C679.903 138.928 675.702 141.173 674.011 144.902C673.136 146.831 672.927 149.004 672.927 151.624ZM666.727 144.415C670.131 144.415 675.834 138.767 680.113 137.061C692.313 132.196 702.768 137.1 714.677 139.103C715.63 139.262 717.341 139.813 717.964 139.861C714.37 128.998 710.203 116.247 703.225 107.026C682.432 79.5545 636.442 79.6949 623.566 110.881C622.302 113.939 620.915 117.166 619.866 120.34C619.574 121.214 619.341 121.929 619.108 122.862L616.884 137.085C616.749 138.057 616.627 139 616.491 139.982C616.375 140.843 616.121 141.994 616.121 142.899C617.143 142.875 621.222 142.195 622.142 141.961C623.916 141.519 625.643 140.984 627.324 140.314C635.013 137.246 643.804 137.76 651.623 140.415C652.561 140.73 653.398 141.106 654.199 141.504L657.74 143.53C659.463 144.698 664.485 144.415 666.727 144.415ZM718.366 181.828C718.601 183.56 722.612 184.565 724.509 182.956C726.887 180.934 723.044 171.572 720.871 169.073C719.924 173.153 719.106 177.711 718.366 181.828ZM610.676 160.855C610.904 160.349 611.575 158.749 611.944 158.327C611.944 169.487 612.733 170.756 614.843 180.972C615.028 181.853 615.466 183.126 615.485 183.997C614.702 184.18 613.865 184.959 611.856 183.957C605.38 180.736 608.395 165.963 610.676 160.855ZM703.94 212.145C703.152 225.707 707.518 244.979 711.258 258.507C711.507 259.415 709.459 261.874 708.896 262.576C706.537 265.477 705.175 267.008 702.151 269.361C698.003 272.588 694.401 275.057 689.196 276.777C685.954 277.847 681.557 278.979 678.109 279.354C671.954 280.025 665.885 280.243 659.783 278.454C647.947 274.98 638.933 263.702 635.111 252.275C634.459 250.33 634.069 247.964 633.852 245.353C633.102 236.371 634.43 224.53 634.589 217.385C641.753 222.591 647.568 227.164 659.914 228.491C663.124 228.836 665.546 228.735 668.628 228.642C676.286 228.417 681.004 226.878 687.855 223.455C693.432 220.379 697.664 218.016 702.432 213.623C702.919 213.131 703.405 212.51 703.94 212.145ZM719.102 143.025C715.27 143.793 716.222 149.165 716.111 153.908C716.073 155.585 715.814 157.676 715.13 160.426C714.2 163.319 713.67 165.584 711.764 168.067C709.095 171.548 706.376 173.54 702.199 174.941C699.787 175.747 697.39 176.243 695.008 176.375C691.57 176.564 688.157 176.01 684.743 174.586C677.216 171.447 674.902 166.055 671.316 159.551L669.426 155.119C666.794 149.631 662.964 152.08 660.868 157.024C659.996 159.075 660.06 163.475 656.934 168.141C655.816 169.812 654.497 171.232 653.028 172.589C651.292 174.197 649.182 175.84 646.94 176.613C642.789 178.052 641.295 178.436 636.614 178.436C631.91 178.436 626.791 176.743 623.328 174.26C619.413 171.45 617.24 167.173 616.243 162.55C615.475 158.984 616.121 152.927 614.854 150.106C614.854 150.744 614.673 151.571 614.56 152.217C613.287 159.858 614.099 167.966 615.601 175.413C616.325 178.984 617.128 182.616 618.087 186.188C621.738 199.764 625.146 207.458 636.617 216.373C640.78 219.557 646.455 222.8 651.496 224.515C670.894 231.106 691.934 222.984 704.902 208.125C706.731 206.03 708.404 203.828 709.779 201.364C710.723 199.668 711.589 197.97 712.342 196.089C714.216 191.408 715.358 185.891 716.543 180.812C718.422 172.792 719.861 165.477 719.861 156.936C719.86 153.121 719.943 146.641 719.102 143.025ZM636.738 67.5238C635.275 66.7505 633.584 65.9188 631.92 65.3891C627.889 64.1065 624.496 65.5741 621.461 68.0588C620.936 68.491 618.421 70.4114 618.286 71.1007C618.265 71.1832 618.262 71.3493 618.265 71.4318C618.286 71.6068 618.548 72.6611 619.574 72.2532C620.234 71.9907 620.941 71.0768 621.461 70.5917C621.758 70.3192 622.142 70.036 622.447 69.8028C626.065 66.9752 628.36 65.9823 632.853 67.7381C634.308 68.3056 636.622 69.3124 637.377 70.4353C626.123 76.3805 620.891 82.3339 615.67 94.7679C615.421 95.3561 615.217 95.8329 614.984 96.3626C609.421 108.956 608.988 128.885 605.789 135.73C605.113 137.172 605.142 137.246 603.746 138.115C602.725 138.753 601.976 139.087 600.761 139.554C596.974 141.023 561.986 148.148 557.387 149.062C529.222 154.663 508.81 164.092 482.226 175.358C481.609 175.655 479.61 176.462 479.279 176.841C478.715 177.493 478.948 179.112 481.087 178.007C483.378 176.831 487.536 175.18 490.239 173.881C491.114 175.188 495.248 179.029 495.428 179.699C494.814 179.859 491.912 182.426 491.236 182.971C479.561 192.264 467.419 196.881 453.099 200.999C449.918 201.913 444.127 203.867 441.025 203.852C437.917 203.867 437.281 202.214 434.879 198.617C431.275 192.867 427.765 186.85 424.808 180.735C420.914 172.671 415.534 160.446 415.632 153.251C415.714 146.871 419.557 143.93 424.871 141.294C431.031 138.242 442.78 133.907 449.014 131.66C452.759 130.304 456.473 129.027 460.353 127.946C483.29 121.818 502.06 120.817 525.604 119.299C542.421 118.215 559.24 117.195 576.068 116.267C583.426 115.407 584.165 116.52 587.948 109.427C589.033 107.4 590.155 105.384 591.241 103.357C592.782 100.247 594.085 97.9076 595.583 94.545C597.328 90.6216 598.71 86.4651 600.362 82.4989C600.571 81.9946 600.741 81.7067 600.956 81.1974L602.326 78.7762C604.268 76.0208 607.438 73.9543 609.699 71.2228C610.632 70.091 611.857 68.0145 612.649 66.7112C613.564 65.2005 614.586 63.5422 615.835 62.3078C617.717 60.4474 620.118 58.4102 623.203 58.4152C624.592 58.4203 627.136 59.4114 629.641 61.0885C632.893 63.2608 636.097 66.3477 636.738 67.5238Z" fill="white"/>
<path fill-rule="evenodd" clip-rule="evenodd" d="M839.67 167.937C843.437 165.414 856.421 167.245 859.814 167.907C864.634 168.835 868.937 170.095 873.601 171.198L896.697 176.817C898.186 177.167 899.873 177.448 901.526 177.681L905.338 178.033C907.065 178.081 910.036 177.546 911.582 177.098C913.007 176.685 914.743 175.495 915.574 175.27C915.186 179.975 913.371 183.655 911.616 187.754L909.04 193.397C908.781 193.911 908.656 194.277 908.407 194.791C905.743 200.347 902.839 205.752 900.103 211.275L895.293 221.01C892.234 227.071 889.215 233.138 886.077 239.16C881.245 248.439 876.13 257.558 870.736 266.521C869.167 269.136 867.702 271.679 866.034 274.215L861.176 281.755C857.437 287.438 851.475 295.282 847.274 300.868C839.222 311.585 830.863 325.078 826.434 337.702C825.636 339.962 823.389 345.187 823.346 347.137L822.703 341.586C822.557 339.822 822.275 337.946 822.056 336.156C820.821 326.017 818.804 315.255 816.261 305.656C814.616 299.438 812.721 293.207 810.678 287.083C809.312 282.976 806.89 275.013 805.13 271.388C804.77 270.649 804.513 269.613 803.614 269.613C803.283 269.613 802.854 270.177 802.854 270.371C802.854 270.834 803.588 272.705 803.794 273.229C804.799 275.86 806.599 280.531 807.309 283.122L808.748 287.496C809.413 289.479 809.954 291.346 810.619 293.344L815.657 311.45C816.163 313.458 816.606 315.649 817.033 317.787C818.435 324.792 821.133 341.226 821.191 348.279C821.848 358.384 823.447 376.602 820.992 384.112C819.562 388.492 818.08 392.506 815.925 396.498C813.645 400.735 812.142 403.204 809.161 407.191C805.766 411.722 799.455 417.696 797.592 423.313C795.731 428.938 797.481 444.794 798.001 450.52C798.443 455.424 798.891 459.973 798.984 460.644C799.869 467.658 800.889 474.25 802.09 480.885C787.237 506.213 765.111 526.765 738.58 539.675C737.642 528.791 736.364 518.059 735.352 508.07C734.904 505.018 734.54 501.995 734.069 499.113L732.901 492.561C732.755 491.822 732.702 490.942 732.113 490.674C731.485 490.393 730.864 490.942 730.897 491.652C730.926 492.182 731.146 493.241 731.247 493.833C731.501 495.335 731.715 496.771 731.952 498.315C732.41 501.304 732.892 504.313 733.245 507.265L734.355 516.402C734.787 519.566 734.978 522.589 735.312 525.813C735.813 530.649 736.295 535.582 736.698 540.57C717.491 549.592 696.046 554.636 673.422 554.636C618.688 554.636 570.855 525.146 544.932 481.2C545.107 477.298 545.277 473.384 545.393 469.423L545.599 464.819C546.283 460.28 546.692 440.487 546.663 434.149C546.633 426.556 547.168 419.45 547.168 412.14C547.168 406.175 546.916 400.619 546.916 394.689C546.916 382.343 547.801 370.664 547.801 358.268C547.801 352.853 547.582 347.594 547.422 342.209C547.179 337.756 547.129 332.653 547.168 328.165C547.187 326.183 545.146 324.861 545.146 329.055C545.151 333.707 545.52 338.466 545.53 343.089C545.535 348.77 545.777 354.516 545.777 360.29C545.777 364.621 545.506 369.016 545.525 373.322L545.36 377.579C544.775 381.877 544.873 389.065 544.892 394.379C544.922 401.577 545.146 408.713 545.146 415.935C544.708 415.236 542.392 405.573 541.965 403.935C541.591 402.651 541.207 401.305 540.842 400.002C540.118 397.402 539.33 394.806 538.483 392.241C532.283 373.38 522.802 355.848 513.603 338.325C504.377 319.814 488.292 296.969 476.611 278.679C465.463 259.819 451.837 242.812 440.902 224.764C439.184 221.935 437.517 219.071 437.35 218.776C434.848 214.153 432.635 209.633 431.41 204.358C434.93 206.2 435.821 206.584 440.745 205.982C448.103 205.077 461.596 200.562 467.679 198.127C479.33 193.461 485.729 190.383 495.201 182.13C495.747 181.648 496.224 181.237 496.816 180.837C499.558 182.675 505 188.123 508.063 190.616C519.898 200.246 531.04 209.215 543.264 218.377C554.856 227.077 582.125 238.758 597.142 238.758C605.417 238.758 609.769 237.183 617.433 235.267C618.176 235.084 619.281 234.713 620.039 234.713L619.912 240.022C619.912 244.552 620.643 249.091 621.911 253.428C630.874 284.196 665.281 303.129 695.963 292.012C697.71 291.381 699.907 290.52 701.492 289.572C710.556 284.172 716.493 279.268 721.717 269.574C724.633 264.156 725.63 258.614 726.059 257.725C727.05 257.749 728.68 258.152 729.778 258.308C741.206 259.888 745.863 257.641 754.217 251.857L761.211 246.958C764.949 244.197 768.834 241.543 772.948 239.347C775.945 237.757 778.876 236.289 781.935 234.792C791.148 230.373 797.821 226.63 803.912 217.818C805.582 215.412 807.045 212.943 808.553 210.439C810.779 206.735 813.035 203.076 815.428 199.479L817.922 195.902C824.856 186.729 828.892 183.987 836.979 175.565C838.656 173.819 840.047 171.904 840.047 170.091C840.049 169.293 839.981 168.636 839.67 167.937ZM621.938 240.273C621.938 244.674 622.735 248.532 623.634 252.114C629.367 274.936 648.583 288.794 670.825 292.827C673.69 293.227 675.722 293.261 678.615 293.261C694.146 293.261 703.2 287.38 713.873 277.545C718.249 272.321 720.69 268.257 723.006 261.379C724.634 256.543 724.085 257.203 722.977 256.888C721.172 256.372 719.184 255.571 717.536 254.734C716.627 254.273 716.407 254.04 715.688 253.553C713.777 258.623 711.983 262.73 707.971 266.712L703.191 271.033C697.886 275.397 693.271 277.657 686.6 279.622C685.482 279.951 684.071 280.272 682.821 280.526C673.136 282.446 663.931 282.712 654.827 278.727C654.185 278.441 653.641 278.221 653.019 277.877C645.982 273.945 639.759 266.691 636.189 259.668C635.853 259.008 635.64 258.517 635.348 257.855C633.408 253.495 632.372 251.245 631.331 245.805C630.204 239.895 630.032 239.288 630.032 233.192C628.073 233.192 623.502 233.576 622.189 234.204C621.879 235.544 621.938 238.665 621.938 240.273Z" fill="#16C4E3"/>
<path fill-rule="evenodd" clip-rule="evenodd" d="M658.826 192.025C663.135 189.611 668.421 188.997 673.581 192.187C671.489 193.84 660.583 193.281 658.826 192.025Z" fill="white"/>
<path d="M773.886 376.729H773.754V377.233H773.886V376.729Z" fill="#F37D80"/>
</svg>
