<svg width="40" height="40" viewBox="0 0 40 40" fill="none" xmlns="http://www.w3.org/2000/svg">
<g clip-path="url(#clip0_69_762)">
<path d="M39.877 18.6573L38.5765 15.4515C38.9283 15.0365 39.1413 14.4988 39.1413 13.9118C39.1413 12.8055 38.3865 11.8735 37.3684 11.6104C37.3682 11.4563 37.3685 7.5951 37.3684 7.43134C37.3684 6.89907 37.0434 6.44265 36.5404 6.26851L20.0669 0.565677C19.3873 0.330282 18.6388 0.33036 17.9591 0.565677L13.8575 1.98555C13.5517 2.09133 13.3896 2.42508 13.4955 2.73087C13.6013 3.03681 13.935 3.19869 14.2409 3.09291L18.3424 1.67304C18.7747 1.52327 19.251 1.52327 19.6835 1.67304L36.157 7.3758C36.1745 7.38189 36.1964 7.38955 36.1964 7.43127C36.1964 7.47298 36.1745 7.48064 36.157 7.48674L30.486 9.44997V9.2745C30.486 8.56457 29.9788 7.95831 29.28 7.83307C22.4673 6.61117 15.5586 6.61117 8.74586 7.83307C8.04709 7.95838 7.53982 8.56457 7.53982 9.2745V9.44997L1.86894 7.48674C1.85136 7.48064 1.82949 7.47298 1.82949 7.43127C1.82949 7.38955 1.85136 7.38189 1.86894 7.3758L11.6094 4.00386C11.9152 3.89808 12.0773 3.56432 11.9715 3.25854C11.8656 2.95267 11.5318 2.79072 11.2261 2.8965L1.48557 6.26851C0.982595 6.44265 0.65759 6.89899 0.65759 7.43134C0.65759 7.9637 0.982595 8.42003 1.48557 8.59418L7.5399 10.6901V16.4891C4.4707 16.7946 2.06582 19.3915 2.06582 22.5397C2.06582 24.6435 3.14005 26.5008 4.76844 27.593C2.04441 28.1949 0 30.6274 0 33.5298C0 36.8828 2.72794 39.6107 6.08097 39.6107H36.2005C37.2071 39.6107 38.0259 38.7919 38.0259 37.7853C38.0259 36.7912 37.227 35.9807 36.2375 35.9608C35.6253 34.3875 35.6206 32.6746 36.2234 31.0991C37.2194 31.0868 38.0259 30.2731 38.0259 29.2742C38.0259 28.2676 37.2071 27.4488 36.2005 27.4488H35.8387C35.9168 27.2458 35.9601 27.0255 35.9601 26.7953C35.9601 25.7887 35.1412 24.9699 34.1347 24.9699H34.1189C33.5512 23.498 33.5143 21.9053 34.0083 20.4177C34.3184 20.7534 34.7547 20.9485 35.2181 20.9485H38.3466C38.8956 20.9485 39.4072 20.6756 39.715 20.2184C40.0259 19.7569 40.0864 19.1733 39.877 18.6573ZM37.9694 13.9118C37.9694 14.5755 37.4369 15.1154 36.7824 15.1154C36.128 15.1154 35.5955 14.5755 35.5955 13.9118C35.5955 13.2481 36.128 12.7081 36.7824 12.7081C37.4369 12.7081 37.9694 13.248 37.9694 13.9118ZM36.1965 8.71316V11.6104C35.1784 11.8735 34.4236 12.8055 34.4236 13.9118C34.4236 14.4989 34.6366 15.0365 34.9883 15.4515L34.5797 16.4586H30.4861V10.6901L36.1965 8.71316ZM8.95273 8.98653C15.6282 7.78947 22.3977 7.78947 29.0732 8.98653C29.2128 9.01161 29.3141 9.1327 29.3141 9.27458V13.2682H25.7036C25.38 13.2682 25.1176 13.5304 25.1176 13.8541C25.1176 14.1778 25.38 14.4401 25.7036 14.4401H29.3141V16.4587H8.71179V14.4401H22.9692C23.2928 14.4401 23.5551 14.1778 23.5551 13.8541C23.5551 13.5304 23.2928 13.2682 22.9692 13.2682H8.71179V9.27458C8.71179 9.1327 8.81312 9.01161 8.95273 8.98653ZM36.8541 29.2741C36.8541 29.6345 36.561 29.9277 36.2006 29.9277H6.08097C4.09484 29.9277 2.47895 31.5436 2.47895 33.5297C2.47895 35.5158 4.09484 37.1316 6.08097 37.1316H29.2193C29.5429 37.1316 29.8052 36.8694 29.8052 36.5457C29.8052 36.222 29.5429 35.9597 29.2193 35.9597H6.08097C4.74102 35.9597 3.65085 34.8696 3.65085 33.5297C3.65085 32.1897 4.74102 31.0996 6.08097 31.0996H24.5606V34.3842C24.5606 34.5778 24.6563 34.759 24.8163 34.8681C24.9762 34.9773 25.1798 35.0005 25.3602 34.9297L26.9422 34.3102L28.5242 34.9297C28.5932 34.9568 28.6657 34.9701 28.7378 34.9701C28.854 34.9701 28.9693 34.9356 29.0681 34.8681C29.2281 34.759 29.3238 34.5778 29.3238 34.3842V31.0996H34.9799C34.4707 32.6872 34.4744 34.3738 34.9915 35.9598H31.9537C31.6301 35.9598 31.3677 36.2221 31.3677 36.5458C31.3677 36.8694 31.6301 37.1317 31.9537 37.1317H36.2005C36.5609 37.1317 36.854 37.4249 36.854 37.7852C36.854 38.1455 36.5609 38.4388 36.2005 38.4388H6.08097C3.37412 38.4388 1.1719 36.2366 1.1719 33.5297C1.1719 30.8228 3.37412 28.6206 6.08097 28.6206H36.2005C36.5609 28.6206 36.8541 28.9138 36.8541 29.2741ZM25.7325 31.0996H28.1519V33.5255L27.1559 33.1355C27.0184 33.0817 26.8659 33.0817 26.7285 33.1355L25.7325 33.5255V31.0996ZM15.7034 26.1417H34.1347C34.4951 26.1417 34.7883 26.4349 34.7883 26.7952C34.7883 27.1555 34.4951 27.4487 34.1347 27.4487H8.14678C5.43994 27.4487 3.23771 25.2465 3.23771 22.5396C3.23771 19.8327 5.43994 17.6305 8.14678 17.6305H34.1043C33.9595 18.0191 33.692 18.57 33.602 18.9376H8.14678C6.16066 18.9376 4.54477 20.5534 4.54477 22.5396C4.54477 24.5257 6.16066 26.1415 8.14678 26.1415H12.969C13.2926 26.1415 13.5549 25.8792 13.5549 25.5556C13.5549 25.2319 13.2926 24.9696 12.969 24.9696H8.14678C6.80684 24.9696 5.71666 23.8795 5.71666 22.5396C5.71666 21.1996 6.80684 20.1095 8.14678 20.1095H10.2891V23.3659C10.2891 23.5596 10.3848 23.7408 10.5448 23.8499C10.7047 23.9591 10.9084 23.9822 11.0887 23.9115L12.6707 23.292L14.2527 23.9115C14.3217 23.9386 14.3942 23.9519 14.4663 23.9519C14.5825 23.9519 14.6978 23.9173 14.7966 23.8499C14.9566 23.7408 15.0523 23.5596 15.0523 23.3659V20.1095H32.8743C32.3612 21.6963 32.3612 23.3829 32.8743 24.9697H15.7034C15.3798 24.9697 15.1175 25.232 15.1175 25.5556C15.1175 25.8793 15.3798 26.1417 15.7034 26.1417ZM11.461 20.1095H13.8804V22.5072L12.8844 22.1172C12.7469 22.0634 12.5944 22.0634 12.457 22.1172L11.461 22.5072V20.1095ZM38.743 19.5637C38.7 19.6276 38.5751 19.7765 38.3466 19.7765H35.2181C34.9897 19.7765 34.8648 19.6276 34.8217 19.5637C34.7276 19.4241 34.7101 19.2542 34.7736 19.0978L35.9723 16.1429C36.2251 16.2363 36.4979 16.2872 36.7824 16.2872C37.0668 16.2872 37.3396 16.2363 37.5924 16.1429L38.7911 19.0978C38.8546 19.2543 38.8371 19.4241 38.743 19.5637Z" fill="white"/>
</g>
<defs>
<clipPath id="clip0_69_762">
<rect width="40" height="40" fill="white"/>
</clipPath>
</defs>
</svg>
