<svg width="47" height="40" viewBox="0 0 47 40" fill="none" xmlns="http://www.w3.org/2000/svg">
<path d="M45.6875 6.40625C45.7396 6.5625 45.8438 7.26562 46 8.51562C46.1042 9.76562 45.974 11.3281 45.6094 13.2031C45.2448 15.1302 44.3594 17.1354 42.9531 19.2188C40.0365 23.5938 35.1667 26.6406 28.3438 28.3594C26.7812 28.8802 25.9479 29.974 25.8438 31.6406C25.8958 32.5781 26.2344 33.3594 26.8594 33.9844C27.4844 34.6615 28.2917 35 29.2812 35H29.5938C30.6875 35.0521 31.5729 35.4167 32.25 36.0938C32.9792 36.8229 33.3438 37.7083 33.3438 38.75C33.2917 39.5312 32.901 39.9479 32.1719 40H14.6719C13.9948 39.9479 13.6042 39.5312 13.5 38.75C13.5521 37.7083 13.9167 36.8229 14.5938 36.0938C15.3229 35.4167 16.2083 35.0521 17.25 35H17.6406C18.5781 35 19.3594 34.6615 19.9844 33.9844C20.6615 33.3594 21 32.5781 21 31.6406C20.8958 29.974 20.0885 28.8802 18.5781 28.3594C11.7552 26.6406 6.85938 23.5938 3.89062 19.2188C2.58854 17.1354 1.75521 15.1302 1.39062 13.2031C1.02604 11.3281 0.895833 9.76562 1 8.51562C1.15625 7.26562 1.26042 6.5625 1.3125 6.40625C1.57292 5.52083 2.17188 5.05208 3.10938 5H11C11 4.79167 11 4.60938 11 4.45312C10.9479 3.67188 10.9479 2.99479 11 2.42188C11.0521 1.74479 11.3125 1.17188 11.7812 0.703125C12.25 0.234375 12.8229 0 13.5 0H33.5C34.1771 0 34.75 0.234375 35.2188 0.703125C35.6875 1.17188 35.9479 1.74479 36 2.42188C36 3.15104 36 4.01042 36 5H43.8906C44.8281 5.05208 45.4271 5.52083 45.6875 6.40625ZM7.01562 17.1875C8.89062 19.8958 11.7292 22.0052 15.5312 23.5156C14.125 21.224 13.0833 18.776 12.4062 16.1719C11.6771 13.5677 11.2344 11.0938 11.0781 8.75H4.75C4.69792 9.6875 4.80208 10.9115 5.0625 12.4219C5.32292 13.9323 5.97396 15.5208 7.01562 17.1875ZM29.9062 11.4062C30.1667 11.0417 30.0625 10.7552 29.5938 10.5469L25.6875 10L23.9688 6.48438C23.6562 6.11979 23.3438 6.11979 23.0312 6.48438L21.3125 10L17.4062 10.5469C16.9375 10.7552 16.8333 11.0417 17.0938 11.4062L19.9844 14.2188L19.2812 18.125C19.2812 18.5938 19.5156 18.75 19.9844 18.5938L23.5 16.7969L27.0156 18.5938C27.4844 18.75 27.7188 18.5938 27.7188 18.125L27.0938 14.2188L29.9062 11.4062ZM39.9844 17.1875C41.026 15.5208 41.6771 13.9323 41.9375 12.4219C42.1979 10.9115 42.3021 9.6875 42.25 8.75H35.9219C35.7656 11.0938 35.3229 13.5677 34.5938 16.1719C33.9167 18.776 32.875 21.224 31.4688 23.5156C35.2708 22.0052 38.1094 19.8958 39.9844 17.1875Z" fill="#7DBE48"/>
</svg>
