<svg width="40" height="40" viewBox="0 0 40 40" fill="none" xmlns="http://www.w3.org/2000/svg">
<path d="M9.33332 34.1665C9.15651 34.1665 8.98694 34.2543 8.86192 34.4106C8.73689 34.5669 8.66666 34.7788 8.66666 34.9998V39.1665C8.66666 39.3875 8.73689 39.5995 8.86192 39.7558C8.98694 39.912 9.15651 39.9998 9.33332 39.9998C9.51013 39.9998 9.6797 39.912 9.80473 39.7558C9.92975 39.5995 9.99999 39.3875 9.99999 39.1665V34.9998C9.99999 34.7788 9.92975 34.5669 9.80473 34.4106C9.6797 34.2543 9.51013 34.1665 9.33332 34.1665Z" fill="white"/>
<path d="M3.99999 10.8169V10.8336C3.82318 10.8336 3.65361 10.9214 3.52859 11.0776C3.40356 11.2339 3.33332 11.4459 3.33332 11.6669C3.33332 11.8879 3.40356 12.0999 3.52859 12.2562C3.65361 12.4124 3.82318 12.5002 3.99999 12.5002V13.3336C3.99999 13.9966 4.2107 14.6325 4.58578 15.1013C4.96085 15.5702 5.46956 15.8336 5.99999 15.8336C6.53042 15.8336 7.03913 15.5702 7.4142 15.1013C7.78928 14.6325 7.99999 13.9966 7.99999 13.3336V12.5002C8.1768 12.5002 8.34637 12.4124 8.47139 12.2562C8.59642 12.0999 8.66666 11.8879 8.66666 11.6669C8.66666 11.4459 8.59642 11.2339 8.47139 11.0776C8.34637 10.9214 8.1768 10.8336 7.99999 10.8336V10.8169C8.55968 10.2922 8.9731 9.56066 9.1817 8.72593C9.3903 7.8912 9.3835 6.99558 9.16227 6.16595C8.94103 5.33631 8.51658 4.61472 7.94902 4.10339C7.38147 3.59205 6.6996 3.31689 5.99999 3.31689C5.30038 3.31689 4.61851 3.59205 4.05096 4.10339C3.4834 4.61472 3.05895 5.33631 2.83771 6.16595C2.61648 6.99558 2.60968 7.8912 2.81828 8.72593C3.02688 9.56066 3.4403 10.2922 3.99999 10.8169ZM6.66666 13.3336C6.66666 13.5546 6.59642 13.7665 6.47139 13.9228C6.34637 14.0791 6.1768 14.1669 5.99999 14.1669C5.82318 14.1669 5.65361 14.0791 5.52859 13.9228C5.40356 13.7665 5.33332 13.5546 5.33332 13.3336V12.5002H6.66666V13.3336ZM5.99999 5.00023C6.53042 5.00023 7.03913 5.26362 7.4142 5.73246C7.78928 6.2013 7.99999 6.83719 7.99999 7.50023C8.00016 7.9372 7.90772 8.36643 7.73206 8.74424C7.55641 9.12204 7.30381 9.43493 6.99999 9.65106C6.89884 9.72406 6.81481 9.82899 6.75631 9.95535C6.69781 10.0817 6.66689 10.2251 6.66666 10.3711V10.8336H5.33332V10.3711C5.33309 10.2251 5.30217 10.0817 5.24367 9.95535C5.18517 9.82899 5.10114 9.72406 4.99999 9.65106C4.69617 9.43493 4.44357 9.12204 4.26792 8.74424C4.09226 8.36643 3.99982 7.9372 3.99999 7.50023C3.99999 6.83719 4.2107 6.2013 4.58578 5.73246C4.96085 5.26362 5.46956 5.00023 5.99999 5.00023Z" fill="white"/>
<path d="M11.3333 8.33329C11.7015 8.33329 12 7.9602 12 7.49996C12 7.03972 11.7015 6.66663 11.3333 6.66663C10.9651 6.66663 10.6667 7.03972 10.6667 7.49996C10.6667 7.9602 10.9651 8.33329 11.3333 8.33329Z" fill="white"/>
<path d="M0.666667 8.33329C1.03486 8.33329 1.33333 7.9602 1.33333 7.49996C1.33333 7.03972 1.03486 6.66663 0.666667 6.66663C0.298477 6.66663 0 7.03972 0 7.49996C0 7.9602 0.298477 8.33329 0.666667 8.33329Z" fill="white"/>
<path d="M6.00001 1.66667C6.3682 1.66667 6.66668 1.29357 6.66668 0.833333C6.66668 0.373096 6.3682 0 6.00001 0C5.63182 0 5.33334 0.373096 5.33334 0.833333C5.33334 1.29357 5.63182 1.66667 6.00001 1.66667Z" fill="white"/>
<path d="M9.77131 13.0475C10.1395 13.0475 10.438 12.6744 10.438 12.2142C10.438 11.754 10.1395 11.3809 9.77131 11.3809C9.40312 11.3809 9.10464 11.754 9.10464 12.2142C9.10464 12.6744 9.40312 13.0475 9.77131 13.0475Z" fill="white"/>
<path d="M2.22869 3.61906C2.59688 3.61906 2.89536 3.24596 2.89536 2.78573C2.89536 2.32549 2.59688 1.95239 2.22869 1.95239C1.8605 1.95239 1.56203 2.32549 1.56203 2.78573C1.56203 3.24596 1.8605 3.61906 2.22869 3.61906Z" fill="white"/>
<path d="M9.77131 3.61906C10.1395 3.61906 10.438 3.24596 10.438 2.78573C10.438 2.32549 10.1395 1.95239 9.77131 1.95239C9.40312 1.95239 9.10464 2.32549 9.10464 2.78573C9.10464 3.24596 9.40312 3.61906 9.77131 3.61906Z" fill="white"/>
<path d="M2.22869 13.0475C2.59688 13.0475 2.89536 12.6744 2.89536 12.2142C2.89536 11.754 2.59688 11.3809 2.22869 11.3809C1.8605 11.3809 1.56203 11.754 1.56203 12.2142C1.56203 12.6744 1.8605 13.0475 2.22869 13.0475Z" fill="white"/>
<path d="M5.33336 19.1666C5.33336 18.6722 5.21606 18.1888 4.9963 17.7777C4.77654 17.3666 4.46418 17.0461 4.09873 16.8569C3.73327 16.6677 3.33114 16.6182 2.94318 16.7147C2.55522 16.8111 2.19885 17.0492 1.91915 17.3989C1.63944 17.7485 1.44896 18.1939 1.37179 18.6789C1.29462 19.1639 1.33423 19.6665 1.4856 20.1233C1.63698 20.5801 1.89332 20.9706 2.22222 21.2453C2.55112 21.52 2.9378 21.6666 3.33336 21.6666C3.86379 21.6666 4.3725 21.4032 4.74757 20.9344C5.12265 20.4656 5.33336 19.8297 5.33336 19.1666ZM3.33336 20C3.20151 20 3.07261 19.9511 2.96298 19.8595C2.85335 19.768 2.7679 19.6378 2.71744 19.4855C2.66698 19.3333 2.65378 19.1657 2.6795 19.0041C2.70523 18.8424 2.76872 18.6939 2.86196 18.5774C2.95519 18.4608 3.07398 18.3815 3.2033 18.3493C3.33262 18.3172 3.46666 18.3337 3.58848 18.3967C3.7103 18.4598 3.81442 18.5666 3.88767 18.7037C3.96093 18.8407 4.00003 19.0018 4.00003 19.1666C4.00003 19.3876 3.92979 19.5996 3.80476 19.7559C3.67974 19.9122 3.51017 20 3.33336 20Z" fill="white"/>
<path d="M3.33332 25C3.70151 25 3.99999 24.6269 3.99999 24.1667C3.99999 23.7065 3.70151 23.3334 3.33332 23.3334C2.96513 23.3334 2.66666 23.7065 2.66666 24.1667C2.66666 24.6269 2.96513 25 3.33332 25Z" fill="white"/>
<path d="M3.33332 28.3333C3.70151 28.3333 3.99999 27.9602 3.99999 27.5C3.99999 27.0397 3.70151 26.6666 3.33332 26.6666C2.96513 26.6666 2.66666 27.0397 2.66666 27.5C2.66666 27.9602 2.96513 28.3333 3.33332 28.3333Z" fill="white"/>
<path d="M6.00001 28.3333C6.3682 28.3333 6.66668 27.9602 6.66668 27.5C6.66668 27.0397 6.3682 26.6666 6.00001 26.6666C5.63182 26.6666 5.33334 27.0397 5.33334 27.5C5.33334 27.9602 5.63182 28.3333 6.00001 28.3333Z" fill="white"/>
<path d="M39.3333 18.3333C39.5101 18.3333 39.6797 18.2455 39.8047 18.0892C39.9298 17.933 40 17.721 40 17.5V14.1667C40 13.9456 39.9298 13.7337 39.8047 13.5774C39.6797 13.4211 39.5101 13.3333 39.3333 13.3333H35.3333V12.5C35.3333 11.6159 35.0524 10.7681 34.5523 10.143C34.0522 9.51785 33.3739 9.16666 32.6667 9.16666H32.2753C32.0257 8.39808 31.664 7.69418 31.2087 7.09082C31.0865 6.93412 30.9199 6.84378 30.7448 6.83932C30.5698 6.83486 30.4004 6.91664 30.2732 7.067C30.146 7.21735 30.0712 7.42421 30.065 7.6429C30.0588 7.8616 30.1217 8.07457 30.24 8.23582C30.9002 9.10851 31.287 10.2491 31.3297 11.4489C31.3724 12.6488 31.0681 13.8278 30.4726 14.7703C29.877 15.7128 29.0299 16.3559 28.0862 16.5819C27.1425 16.8078 26.1653 16.6017 25.3333 16.001C24.5012 15.4004 23.8699 14.4454 23.5548 13.3108C23.2397 12.1761 23.2619 10.9376 23.6173 9.82174C23.9727 8.70587 24.6376 7.78719 25.4903 7.23371C26.3431 6.68023 27.3267 6.52893 28.2613 6.80749C28.3465 6.83277 28.4349 6.83683 28.5213 6.81944C28.6077 6.80204 28.6906 6.76354 28.7651 6.70612C28.8397 6.6487 28.9044 6.5735 28.9557 6.4848C29.007 6.3961 29.0438 6.29564 29.064 6.18916C29.0842 6.08268 29.0875 5.97226 29.0736 5.86421C29.0596 5.75616 29.0288 5.6526 28.9829 5.55943C28.937 5.46626 28.8768 5.38532 28.8058 5.32121C28.7349 5.25711 28.6545 5.2111 28.5693 5.18582C27.33 4.81471 26.0253 5.01252 24.8929 5.74322C23.7605 6.47391 22.8758 7.68886 22.4 9.16666H15.3333C14.6261 9.16666 13.9478 9.51785 13.4477 10.143C12.9476 10.7681 12.6667 11.6159 12.6667 12.5V13.3858C11.4918 13.5495 10.3817 14.1429 9.47533 15.0917C9.3399 15.2339 9.2552 15.4375 9.23989 15.6578C9.22457 15.8781 9.27989 16.0969 9.39367 16.2662C9.50744 16.4355 9.67037 16.5414 9.84659 16.5605C10.0228 16.5797 10.1979 16.5105 10.3333 16.3683C11.0136 15.6546 11.8427 15.1984 12.7233 15.0533C13.6038 14.9082 14.4991 15.0801 15.3042 15.549C16.1092 16.0178 16.7905 16.7641 17.2681 17.7002C17.7456 18.6362 17.9995 19.7232 18 20.8333C17.9988 21.3938 17.8469 21.9374 17.5689 22.377C17.2908 22.8166 16.9026 23.1267 16.4667 23.2575L16.4447 23.2667C16.2989 23.3097 16.1498 23.3321 16 23.3333H10.6667C10.5169 23.3318 10.3677 23.3091 10.222 23.2658C10.214 23.2658 10.2073 23.2592 10.2 23.2575C9.76403 23.1267 9.37586 22.8166 9.09779 22.377C8.81972 21.9374 8.66789 21.3938 8.66667 20.8333C8.66774 20.119 8.77419 19.4111 8.98067 18.745C9.04414 18.5387 9.03945 18.3093 8.96762 18.1073C8.8958 17.9053 8.76272 17.7473 8.59767 17.6679C8.43261 17.5886 8.24911 17.5944 8.08751 17.6842C7.92592 17.774 7.79948 17.9403 7.736 18.1467C7.47065 19.0036 7.33414 19.9144 7.33333 20.8333C7.33529 21.6831 7.5453 22.5117 7.93513 23.2079C8.32496 23.904 8.87594 24.4343 9.514 24.7275C9.71852 25.6174 10.1177 26.4183 10.6667 27.04V28.3333H9.33333C8.4496 28.3346 7.60237 28.7741 6.97748 29.5552C6.35259 30.3363 6.00106 31.3953 6 32.5V36.6667H0.666667C0.489856 36.6667 0.320286 36.7545 0.195262 36.9107C0.0702379 37.067 0 37.279 0 37.5C0 37.721 0.0702379 37.933 0.195262 38.0892C0.320286 38.2455 0.489856 38.3333 0.666667 38.3333H6V39.1667C6 39.3877 6.07024 39.5996 6.19526 39.7559C6.32029 39.9122 6.48986 40 6.66667 40C6.84348 40 7.01305 39.9122 7.13807 39.7559C7.2631 39.5996 7.33333 39.3877 7.33333 39.1667V32.5C7.33333 31.8369 7.54405 31.2011 7.91912 30.7322C8.29419 30.2634 8.8029 30 9.33333 30H11.0373C11.2683 30.5063 11.6023 30.9272 12.0055 31.22C12.4087 31.5128 12.8667 31.667 13.333 31.667C13.7993 31.667 14.2573 31.5128 14.6605 31.22C15.0637 30.9272 15.3977 30.5063 15.6287 30H17.526C17.9264 29.9983 18.3179 30.1477 18.6494 30.4285C18.9809 30.7094 19.2369 31.1086 19.384 31.5742L20.7227 35.7708C20.7857 35.9685 20.9069 36.1286 21.0614 36.2181C21.2158 36.3077 21.3919 36.32 21.5533 36.2525L24.4553 35.0425C24.544 35.0054 24.638 34.9921 24.7311 35.0033C24.8242 35.0146 24.9144 35.0502 24.9958 35.1079C25.0771 35.1656 25.1479 35.2441 25.2034 35.3382C25.2589 35.4323 25.298 35.5399 25.318 35.6542C25.3426 35.8703 25.3041 36.0903 25.2096 36.2739C25.1151 36.4575 24.9709 36.5925 24.8033 36.6542L20.878 38.2908C20.7257 38.3529 20.5607 38.345 20.4126 38.2686C20.2645 38.1923 20.143 38.0524 20.07 37.8742L18.596 34.1892C18.5288 34.0215 18.4183 33.8871 18.2824 33.8077C18.1465 33.7282 17.9932 33.7084 17.8472 33.7514C17.7012 33.7944 17.571 33.8977 17.4778 34.0445C17.3845 34.1914 17.3336 34.3733 17.3333 34.5608V39.1667C17.3333 39.3877 17.4036 39.5996 17.5286 39.7559C17.6536 39.9122 17.8232 40 18 40C18.1768 40 18.3464 39.9122 18.4714 39.7559C18.5964 39.5996 18.6667 39.3877 18.6667 39.1667V38.09L18.8773 38.6183C19.0931 39.1561 19.4569 39.5786 19.9018 39.8082C20.3467 40.0378 20.8429 40.0591 21.2993 39.8683L24.9907 38.3333H39.3333C39.5101 38.3333 39.6797 38.2455 39.8047 38.0892C39.9298 37.933 40 37.721 40 37.5C40 37.279 39.9298 37.067 39.8047 36.9107C39.6797 36.7545 39.5101 36.6667 39.3333 36.6667H29.3333V31.6667H32.6667C33.3739 31.6667 34.0522 31.3155 34.5523 30.6903C35.0524 30.0652 35.3333 29.2174 35.3333 28.3333H39.3333C39.5101 28.3333 39.6797 28.2455 39.8047 28.0892C39.9298 27.933 40 27.721 40 27.5V21.1367C40 20.9156 39.9298 20.7037 39.8047 20.5474C39.6797 20.3911 39.5101 20.3033 39.3333 20.3033C39.1565 20.3033 38.987 20.3911 38.8619 20.5474C38.7369 20.7037 38.6667 20.9156 38.6667 21.1367V26.6667H30.6667V16.8625C31.1808 16.3453 31.6141 15.7139 31.9447 15H38.6667V17.5C38.6667 17.721 38.7369 17.933 38.8619 18.0892C38.987 18.2455 39.1565 18.3333 39.3333 18.3333ZM13.3333 26.6667C12.8661 26.6667 12.4072 26.5126 12.0029 26.22C11.5986 25.9273 11.2632 25.5065 11.0307 25H15.6353C15.403 25.5066 15.0678 25.9275 14.6636 26.2201C14.2593 26.5128 13.8005 26.6668 13.3333 26.6667ZM13.3333 30C12.9797 30 12.6406 29.8244 12.3905 29.5118C12.1405 29.1993 12 28.7754 12 28.3333V28.0425C12.8618 28.4303 13.8048 28.4303 14.6667 28.0425V28.3333C14.6667 28.7754 14.5262 29.1993 14.2761 29.5118C14.0261 29.8244 13.687 30 13.3333 30ZM28 36.6667H26.5333C26.6691 36.2266 26.6978 35.7462 26.616 35.2858C26.5953 35.1888 26.5701 35.0934 26.5407 35H27.3333C27.5101 35 27.6797 35.0878 27.8047 35.2441C27.9298 35.4003 28 35.6123 28 35.8333V36.6667ZM32.6667 30H22.5007C22.3239 30 22.1543 30.0878 22.0293 30.2441C21.9042 30.4003 21.834 30.6123 21.834 30.8333C21.834 31.0543 21.9042 31.2663 22.0293 31.4226C22.1543 31.5789 22.3239 31.6667 22.5007 31.6667H28V33.4867C27.7865 33.388 27.561 33.3361 27.3333 33.3333H26C25.7767 33.3398 25.556 33.3939 25.3473 33.4933C24.9249 33.2982 24.4621 33.2871 24.034 33.4617L21.728 34.4225L20.622 30.9567C20.377 30.1808 19.9505 29.5153 19.3981 29.0473C18.8458 28.5793 18.1933 28.3304 17.526 28.3333H16V27.04C16.5489 26.4183 16.9482 25.6174 17.1527 24.7275C17.7907 24.4343 18.3417 23.904 18.7315 23.2079C19.1214 22.5117 19.3314 21.6831 19.3333 20.8333C19.3312 18.9895 18.7864 17.2112 17.8029 15.8371C16.8193 14.4631 15.4657 13.5894 14 13.3825V12.5C14 12.058 14.1405 11.634 14.3905 11.3215C14.6406 11.0089 14.9797 10.8333 15.3333 10.8333H22.0447C22.0156 11.1096 22.0007 11.388 22 11.6667C22.0016 12.2293 22.0605 12.7893 22.1753 13.3333H20.6667C20.4899 13.3333 20.3203 13.4211 20.1953 13.5774C20.0702 13.7337 20 13.9456 20 14.1667V27.5C20 27.721 20.0702 27.933 20.1953 28.0892C20.3203 28.2455 20.4899 28.3333 20.6667 28.3333H34C34 28.7754 33.8595 29.1993 33.6095 29.5118C33.3594 29.8244 33.0203 30 32.6667 30ZM29.3333 26.6667H21.3333V15H22.7213C23.3618 16.3936 24.3847 17.4496 25.6006 17.9723C26.8164 18.495 28.1426 18.4489 29.3333 17.8425V26.6667ZM32.62 10.8333H32.6667C33.0203 10.8333 33.3594 11.0089 33.6095 11.3215C33.8595 11.634 34 12.058 34 12.5V13.3333H32.4913C32.6058 12.7892 32.6647 12.2292 32.6667 11.6667C32.6649 11.3879 32.6493 11.1096 32.62 10.8333Z" fill="white"/>
<path d="M36.6667 16.6666H32.6667C32.4899 16.6666 32.3203 16.7544 32.1953 16.9107C32.0702 17.067 32 17.2789 32 17.5C32 17.721 32.0702 17.9329 32.1953 18.0892C32.3203 18.2455 32.4899 18.3333 32.6667 18.3333H36.6667C36.8435 18.3333 37.013 18.2455 37.1381 18.0892C37.2631 17.9329 37.3333 17.721 37.3333 17.5C37.3333 17.2789 37.2631 17.067 37.1381 16.9107C37.013 16.7544 36.8435 16.6666 36.6667 16.6666Z" fill="white"/>
<path d="M36.6667 20H32.6667C32.4899 20 32.3203 20.0878 32.1953 20.2441C32.0702 20.4004 32 20.6123 32 20.8333C32 21.0543 32.0702 21.2663 32.1953 21.4226C32.3203 21.5789 32.4899 21.6667 32.6667 21.6667H36.6667C36.8435 21.6667 37.013 21.5789 37.1381 21.4226C37.2631 21.2663 37.3333 21.0543 37.3333 20.8333C37.3333 20.6123 37.2631 20.4004 37.1381 20.2441C37.013 20.0878 36.8435 20 36.6667 20Z" fill="white"/>
<path d="M36.6667 23.3334H32.6667C32.4899 23.3334 32.3203 23.4212 32.1953 23.5775C32.0702 23.7337 32 23.9457 32 24.1667C32 24.3877 32.0702 24.5997 32.1953 24.756C32.3203 24.9122 32.4899 25 32.6667 25H36.6667C36.8435 25 37.013 24.9122 37.1381 24.756C37.2631 24.5997 37.3333 24.3877 37.3333 24.1667C37.3333 23.9457 37.2631 23.7337 37.1381 23.5775C37.013 23.4212 36.8435 23.3334 36.6667 23.3334Z" fill="white"/>
<path d="M23.3333 20C23.1565 20 22.9869 20.0878 22.8619 20.2441C22.7369 20.4004 22.6667 20.6123 22.6667 20.8333C22.6667 21.0543 22.7369 21.2663 22.8619 21.4226C22.9869 21.5789 23.1565 21.6667 23.3333 21.6667H27.3333C27.5101 21.6667 27.6797 21.5789 27.8047 21.4226C27.9298 21.2663 28 21.0543 28 20.8333C28 20.6123 27.9298 20.4004 27.8047 20.2441C27.6797 20.0878 27.5101 20 27.3333 20H23.3333Z" fill="white"/>
<path d="M27.3333 23.3334H23.3333C23.1565 23.3334 22.9869 23.4212 22.8619 23.5775C22.7369 23.7337 22.6667 23.9457 22.6667 24.1667C22.6667 24.3877 22.7369 24.5997 22.8619 24.756C22.9869 24.9122 23.1565 25 23.3333 25H27.3333C27.5101 25 27.6797 24.9122 27.8047 24.756C27.9298 24.5997 28 24.3877 28 24.1667C28 23.9457 27.9298 23.7337 27.8047 23.5775C27.6797 23.4212 27.5101 23.3334 27.3333 23.3334Z" fill="white"/>
<path d="M25.6493 8.45758C25.5527 8.53231 25.4729 8.6367 25.4176 8.76082C25.3623 8.88494 25.3333 9.02467 25.3333 9.16675V14.1667C25.3333 14.3088 25.3623 14.4485 25.4176 14.5726C25.4729 14.6968 25.5527 14.8011 25.6493 14.8759C25.746 14.9506 25.8563 14.9932 25.9698 14.9996C26.0834 15.006 26.1963 14.9761 26.298 14.9126L30.298 12.4126C30.4089 12.3435 30.5023 12.2371 30.5675 12.1053C30.6327 11.9736 30.6673 11.8217 30.6673 11.6667C30.6673 11.5118 30.6327 11.3599 30.5675 11.2282C30.5023 11.0964 30.4089 10.99 30.298 10.9209L26.298 8.42091C26.1964 8.35741 26.0834 8.32744 25.9699 8.33386C25.8563 8.34028 25.746 8.38287 25.6493 8.45758ZM26.6667 10.5151L28.5093 11.6667L26.6667 12.8184V10.5151Z" fill="white"/>
</svg>
