<svg width="40" height="40" viewBox="0 0 40 40" fill="none" xmlns="http://www.w3.org/2000/svg">
<g clip-path="url(#clip0_69_848)">
<path d="M6.13708 7.29523H20.8583C21.182 7.29523 21.4443 7.03296 21.4443 6.70929C21.4443 6.38562 21.182 6.12335 20.8583 6.12335H6.13708C5.81341 6.12335 5.55115 6.38562 5.55115 6.70929C5.55115 7.03296 5.81341 7.29523 6.13708 7.29523Z" fill="white"/>
<path d="M6.13708 11.3628H20.8583C21.182 11.3628 21.4443 11.1005 21.4443 10.7769C21.4443 10.4532 21.182 10.1909 20.8583 10.1909H6.13708C5.81341 10.1909 5.55115 10.4532 5.55115 10.7769C5.55115 11.1005 5.81341 11.3628 6.13708 11.3628Z" fill="white"/>
<path d="M14.0545 14.8445C14.0545 14.5209 13.7922 14.2586 13.4686 14.2586H6.13708C5.81341 14.2586 5.55115 14.5209 5.55115 14.8445C5.55115 15.1682 5.81341 15.4305 6.13708 15.4305H13.4686C13.7922 15.4305 14.0545 15.1681 14.0545 14.8445Z" fill="white"/>
<path d="M39.9984 30.7624L39.7504 21.8921C39.7502 21.8843 39.7498 21.8767 39.7492 21.8689C39.6373 20.2155 38.426 18.8253 36.8037 18.4883L36.5302 18.4314V16.6323C36.5302 16.3086 36.2679 16.0464 35.9442 16.0464C35.6205 16.0464 35.3583 16.3086 35.3583 16.6323V18.1879L33.0992 17.7185C32.9283 17.683 32.8043 17.5305 32.8043 17.3559V16.7596C33.2931 16.3099 34.4075 15.4246 34.4477 13.5442C34.4478 13.5402 34.4479 13.5362 34.4479 13.5323L34.4497 11.8719C34.7846 12.043 35.1043 12.1482 35.3583 12.2126V14.2914C35.3583 14.6151 35.6205 14.8774 35.9442 14.8774C36.2679 14.8774 36.5302 14.6151 36.5302 14.2914C36.5302 13.6401 36.5302 11.6859 36.5302 10.745C36.5302 8.64534 35.4265 6.79963 33.7697 5.75417V3.84292H34.3993C35.1891 3.84292 35.8316 3.20034 35.8316 2.41057V1.52377C35.8316 0.734009 35.1891 0.0914307 34.3993 0.0914307H1.43234C0.642578 0.0914307 0 0.733931 0 1.52377V2.41065C0 3.20042 0.642578 3.84299 1.43234 3.84299H2.06195V24.4154H1.43234C0.642578 24.4154 0 25.0579 0 25.8477V26.7346C0 27.5243 0.642578 28.1669 1.43234 28.1669H23.6624V32.1986C23.6624 32.6857 23.7968 33.1419 24.0298 33.5328C23.7105 33.9331 23.5088 34.4155 23.4504 34.934L23.0236 38.7267C22.9528 39.3555 23.4452 39.9086 24.0799 39.9086H36.2337C36.8675 39.9086 37.3609 39.3564 37.2901 38.7267C36.833 34.7362 36.833 34.7362 36.833 34.7362C37.6092 34.5831 38.3198 34.1999 38.8848 33.6189C39.6329 32.8496 40.0284 31.8351 39.9984 30.7624ZM32.8609 18.8658L34.7607 19.2605C34.3982 21.1317 32.4785 22.5352 30.1568 22.5352C27.8351 22.5352 25.9155 21.1317 25.553 19.2606L27.4527 18.8659C28.0668 18.7383 28.5348 18.2479 28.652 17.649C29.0869 17.9195 29.5892 18.1203 30.1688 18.1268H30.1753C30.1753 18.1268 30.1797 18.1268 30.1819 18.1268C30.7471 18.1205 31.2388 17.9291 31.6663 17.6688C31.7898 18.2587 32.2537 18.7397 32.8609 18.8658ZM24.9553 18.1879V12.5688C25.2595 12.6575 25.5734 12.7225 25.8961 12.7642L25.9027 13.5441C25.9351 15.0542 26.632 15.9191 27.5093 16.7256V17.3558C27.5093 17.5303 27.3852 17.6829 27.2143 17.7185L24.9553 18.1879ZM33.2761 13.5248C33.2451 14.8557 32.4984 15.4488 32.0038 15.9036C31.5002 16.3671 30.8737 16.9436 30.1753 16.9549C29.4769 16.9435 28.8504 16.3671 28.3467 15.9035C27.8577 15.4536 27.1032 14.865 27.0745 13.5267L27.0685 12.815C29.1539 12.732 31.3141 11.7693 33.0327 10.5994C33.1099 10.7214 33.1927 10.8339 33.279 10.9393L33.2761 13.5248ZM35.3584 10.745V10.9909C34.8348 10.8046 34.1257 10.3964 33.7978 9.51503C33.6588 9.14135 33.1941 9.01237 32.8824 9.26198C32.8382 9.29745 28.5449 12.684 24.9552 11.3374V10.7449C24.9552 8.13878 27.0756 6.01838 29.6818 6.01838H30.6317C33.238 6.01846 35.3584 8.13885 35.3584 10.745ZM1.43234 2.67104C1.28875 2.67104 1.17188 2.55417 1.17188 2.41057V1.52377C1.17188 1.38018 1.28875 1.26331 1.43234 1.26331H34.3994C34.543 1.26331 34.6598 1.38018 34.6598 1.52377V2.41065C34.6598 2.55424 34.543 2.67112 34.3994 2.67112L1.43234 2.67104ZM1.43234 26.995C1.28875 26.995 1.17188 26.8782 1.17188 26.7346V25.8477C1.17188 25.7041 1.28875 25.5872 1.43234 25.5872H4.66758C4.99125 25.5872 5.25352 25.3249 5.25352 25.0013C5.25352 24.6776 4.99125 24.4153 4.66758 24.4153H3.23383V3.84292H32.5979V5.18479C31.9825 4.96651 31.321 4.84659 30.6318 4.84659H29.6819C26.4295 4.84659 23.7834 7.4926 23.7834 10.745V18.4314L23.51 18.4883C21.8875 18.8253 20.6763 20.2154 20.5644 21.8689L20.4733 23.2135C20.4692 23.2789 20.3962 23.3171 20.3384 23.2777L16.9547 20.9555C16.7973 20.8477 16.6273 20.765 16.4472 20.7072C16.2173 20.423 15.9937 20.3305 15.7202 20.1348C14.9639 19.631 13.9927 19.6953 13.3117 20.2251L9.495 17.5964C9.22852 17.4129 8.86367 17.4802 8.68008 17.7467C8.49648 18.0132 8.56383 18.378 8.83031 18.5616L12.6297 21.1783C12.511 21.5207 12.4848 21.8899 12.558 22.2546C12.6662 22.7942 12.978 23.2593 13.4359 23.5644C13.8416 23.8326 13.7766 23.7947 13.8762 23.8538C13.9908 24.0683 14.1427 24.2579 14.327 24.4154H6.98891C6.66523 24.4154 6.40297 24.6777 6.40297 25.0014C6.40297 25.325 6.66523 25.5873 6.98891 25.5873H16.118L18.313 26.9951L1.43234 26.995ZM15.5615 21.976L15.0738 22.7082C14.9367 22.9141 14.6576 22.9699 14.4519 22.8328L14.0857 22.589C13.8882 22.4574 13.7537 22.2569 13.7071 22.0242C13.6604 21.7915 13.7072 21.5546 13.8387 21.3572C14.0097 21.1005 14.2921 20.9615 14.5796 20.9615C14.7488 20.9615 14.9197 21.0096 15.0706 21.1102L15.4367 21.354C15.4963 21.3936 15.5428 21.4453 15.5763 21.5035C15.5781 21.507 15.5802 21.5103 15.5823 21.5136C15.6586 21.655 15.6566 21.8331 15.5615 21.976ZM24.2016 38.7367L24.6148 35.0651C24.6423 34.8215 24.7257 34.5921 24.8555 34.3907C25.2648 34.6567 25.7523 34.8119 26.2756 34.8119H35.6478C35.6478 34.8119 35.6673 34.8605 36.112 38.7367H24.2016ZM38.0447 32.8019C37.6595 33.1981 37.1778 33.4631 36.6512 33.5767V25.8396C36.6512 25.516 36.389 25.2537 36.0653 25.2537C35.7416 25.2537 35.4794 25.516 35.4794 25.8396V33.64H26.2756C25.4809 33.64 24.8343 32.9935 24.8343 32.1987C24.8343 31.2937 24.8343 26.6454 24.8343 25.8396C24.8343 25.516 24.572 25.2537 24.2484 25.2537C23.9247 25.2537 23.6624 25.516 23.6624 25.8396V26.995H20.9554C20.66 26.995 20.3706 26.914 20.1182 26.7606L15.556 23.8346C15.7501 23.7139 15.9187 23.5535 16.0491 23.3577L16.5368 22.6255C16.6219 22.4977 16.6849 22.3617 16.7297 22.2223L19.6745 24.2432C20.4766 24.796 21.5767 24.2661 21.6424 23.2924L21.7334 21.9479C21.81 20.8169 22.6385 19.8661 23.7484 19.6355L24.4042 19.4992C24.8799 21.9067 27.2723 23.707 30.1568 23.707C33.0413 23.707 35.4338 21.9067 35.9095 19.4992L36.5654 19.6355C37.6716 19.8653 38.4983 20.8107 38.5794 21.9369L38.827 30.7952C38.848 31.5488 38.5702 32.2614 38.0447 32.8019Z" fill="white"/>
</g>
<defs>
<clipPath id="clip0_69_848">
<rect width="40" height="40" fill="white"/>
</clipPath>
</defs>
</svg>
