<svg width="63" height="63" viewBox="0 0 63 63" fill="none" xmlns="http://www.w3.org/2000/svg">
<path d="M52.664 42.3282C50.8922 40.95 48.5297 39.9657 45.9703 39.6704L38.3906 34.9454C38.3906 34.2563 38.3906 33.6657 38.2922 33.2719C40.2609 31.5985 41.639 29.1375 42.0328 26.3813C42.0328 26.2829 42.1312 26.1844 42.3281 26.1844C43.5094 26.1844 44.4937 25.2 44.4937 24.0188V16.2422H44.5922C45.0844 16.2422 45.5765 15.8485 45.5765 15.2579V10.8282L51.975 8.85942C52.3687 8.76099 52.664 8.36724 52.664 7.97349C52.664 7.57974 52.3687 7.18599 51.975 7.08755L31.7953 0.0984863C31.5984 4.88292e-05 31.4015 4.88292e-05 31.2047 0.0984863L11.1234 6.98911C11.1234 6.98911 11.1234 6.98911 11.025 6.98911C10.9265 6.98911 10.8281 7.08755 10.8281 7.18599C10.7297 7.28442 10.7297 7.38286 10.6312 7.4813C10.6312 7.57974 10.5328 7.67817 10.5328 7.87505V20.1797C10.0406 20.2782 9.54842 20.5735 9.15467 20.8688C8.66248 21.361 8.36717 22.2469 8.36717 23.1329C8.36717 24.1172 8.66248 24.9047 9.15467 25.3969C9.44998 25.6922 9.94217 25.9875 10.5328 26.086V27.661C10.5328 28.1532 10.9265 28.6454 11.5172 28.6454C12.0094 28.6454 12.5015 28.2516 12.5015 27.661V26.086C12.9937 25.9875 13.4859 25.7907 13.8797 25.3969C14.3719 24.9047 14.6672 24.0188 14.6672 23.1329C14.6672 22.1485 14.3719 21.361 13.8797 20.8688C13.5844 20.5735 13.0922 20.2782 12.5015 20.1797V9.25317L17.6203 10.8282V15.2579C17.6203 15.75 18.014 16.2422 18.6047 16.2422H18.7031V24.0188C18.7031 25.2 19.6875 26.1844 20.8687 26.1844C20.9672 26.1844 21.164 26.2829 21.164 26.4797C21.4594 29.236 22.8375 31.6969 24.9047 33.3704C24.9047 33.7641 24.8062 34.3547 24.8062 35.0438L17.2265 39.6704C14.6672 40.0641 12.3047 40.95 10.5328 42.3282C6.00467 45.7735 6.49686 52.5657 6.89061 58.0782L6.79217 59.0625C6.98904 61.2282 8.85936 63 11.025 63H51.975C54.239 63 56.1094 61.2282 56.2078 59.0625L56.3062 57.9797C56.7 52.4672 57.1922 45.7735 52.664 42.3282ZM12.6 23.2313C12.6 23.7235 12.4031 24.0188 12.4031 24.1172C12.1078 24.4125 10.8281 24.4125 10.5328 24.1172C10.4344 24.0188 10.3359 23.7235 10.3359 23.2313C10.3359 22.7391 10.5328 22.4438 10.5328 22.3454C10.7297 22.1485 11.1234 22.1485 11.5172 22.1485C11.9109 22.1485 12.3047 22.2469 12.5015 22.3454C12.5015 22.4438 12.6 22.7391 12.6 23.2313ZM43.8047 40.4579L35.5359 45.3797C37.3078 42.4266 37.9969 39.4735 38.1937 37.111L43.8047 40.4579ZM27.1687 39.5719C26.6765 37.5047 26.5781 35.7329 26.5781 34.5516C28.0547 35.3391 29.7281 35.7329 31.5 35.7329C33.2719 35.7329 34.9453 35.2407 36.4219 34.5516C36.4219 35.7329 36.3234 37.6032 35.8312 39.5719C32.2875 40.5563 28.5469 39.9657 27.1687 39.5719ZM35.1422 41.7375C34.4531 43.7063 33.2719 45.7735 31.5 47.6438C29.7281 45.7735 28.5469 43.7063 27.7594 41.7375C28.7437 41.9344 30.2203 42.1313 31.7953 42.1313C32.8781 42.0329 34.0594 41.9344 35.1422 41.7375ZM42.525 19.3922H41.2453C40.5562 19.3922 40.064 18.8016 40.064 18.211V16.2422H42.6234V19.3922H42.525ZM18.3094 9.0563L14.4703 7.87505L31.5 1.9688L48.5297 7.87505L44.4937 9.15474C37.9969 7.67817 31.3031 7.38286 24.5109 8.17036H24.2156C20.7703 8.56411 19.0969 8.76099 18.3094 9.0563ZM19.3922 14.3719V10.8282C19.9828 10.7297 21.2625 10.4344 24.314 10.1391H24.6094C31.0078 9.35161 37.4062 9.64692 43.5094 11.025V14.4704H43.4109H19.3922V14.3719ZM22.9359 16.2422V18.211C22.9359 18.9 22.3453 19.3922 21.7547 19.3922H20.475V16.2422H22.9359ZM22.9359 26.1844C22.8375 25.1016 21.8531 24.2157 20.7703 24.2157C20.5734 24.2157 20.475 24.1172 20.475 23.9204V21.2626H21.7547C23.4281 21.2626 24.9047 19.8844 24.9047 18.1125V16.1438H38.1937V18.1125C38.1937 19.786 39.5719 21.2626 41.3437 21.2626H42.6234V23.9204C42.6234 24.1172 42.525 24.2157 42.3281 24.2157C41.2453 24.2157 40.2609 25.0032 40.1625 26.1844C39.6703 30.5157 35.9297 33.8625 31.5984 33.8625C27.0703 33.8625 23.4281 30.6141 22.9359 26.1844ZM24.8062 37.111C25.0031 39.4735 25.7906 42.4266 27.464 45.3797L19.1953 40.4579L24.8062 37.111ZM54.4359 57.7829L54.3375 58.8657C54.239 60.0469 53.2547 61.0313 51.975 61.0313H48.4312V56.3063C48.4312 55.8141 48.0375 55.3219 47.4469 55.3219C46.8562 55.3219 46.4625 55.7157 46.4625 56.3063V61.0313H16.5375V56.3063C16.5375 55.8141 16.1437 55.3219 15.5531 55.3219C15.0609 55.3219 14.5687 55.7157 14.5687 56.3063V61.0313H11.025C9.84373 61.0313 8.76092 60.0469 8.66248 58.8657L8.56404 57.7829C8.17029 52.5657 7.67811 46.561 11.4187 43.7063C12.8953 42.525 14.9625 41.7375 17.1281 41.4422L30.9094 49.711H31.0078H31.1062H31.2047H31.4015H31.5984H31.6969H31.7953H31.8937L45.675 41.4422C47.8406 41.7375 49.9078 42.6235 51.3844 43.7063C55.2234 46.6594 54.8297 52.5657 54.4359 57.7829Z" fill="white"/>
</svg>
