<svg width="63" height="63" viewBox="0 0 63 63" fill="none" xmlns="http://www.w3.org/2000/svg">
<path d="M27.825 15.75C27.5135 15.75 27.209 15.8424 26.95 16.0154C26.691 16.1885 26.4891 16.4345 26.3699 16.7223C26.2507 17.0101 26.2195 17.3267 26.2803 17.6323C26.341 17.9378 26.491 18.2184 26.7113 18.4387C26.9316 18.659 27.2122 18.809 27.5177 18.8697C27.8233 18.9305 28.1399 18.8993 28.4277 18.7801C28.7155 18.6609 28.9615 18.459 29.1346 18.2C29.3076 17.941 29.4 17.6365 29.4 17.325C29.3995 16.9074 29.2335 16.5071 28.9382 16.2118C28.6429 15.9165 28.2426 15.7505 27.825 15.75Z" fill="white"/>
<path d="M37.2749 15.75C36.9634 15.75 36.6589 15.8424 36.3999 16.0154C36.1409 16.1885 35.939 16.4345 35.8198 16.7223C35.7006 17.0101 35.6694 17.3267 35.7302 17.6323C35.791 17.9378 35.941 18.2184 36.1613 18.4387C36.3815 18.659 36.6622 18.809 36.9677 18.8697C37.2732 18.9305 37.5899 18.8993 37.8777 18.7801C38.1655 18.6609 38.4114 18.459 38.5845 18.2C38.7576 17.941 38.8499 17.6365 38.8499 17.325C38.8495 16.9074 38.6834 16.5071 38.3881 16.2118C38.0929 15.9165 37.6925 15.7505 37.2749 15.75Z" fill="white"/>
<path d="M32.55 22.05C32.2716 22.0497 32.0047 21.939 31.8079 21.7421C31.6111 21.5453 31.5003 21.2784 31.5 21H29.4C29.4 21.8354 29.7319 22.6366 30.3226 23.2274C30.9134 23.8181 31.7146 24.15 32.55 24.15C33.3855 24.15 34.1867 23.8181 34.7774 23.2274C35.3681 22.6366 35.7 21.8354 35.7 21H33.6C33.5997 21.2784 33.489 21.5453 33.2921 21.7421C33.0953 21.939 32.8284 22.0497 32.55 22.05Z" fill="white"/>
<path d="M62.6287 38.0493C62.5123 37.9508 62.3758 37.8788 62.2288 37.8383C62.0818 37.7978 61.9278 37.7897 61.7774 37.8147L52.2845 39.3969C51.6598 39.5003 51.062 39.7269 50.5257 40.0634L49.8021 38.2364C49.5166 37.5028 49.1092 36.8227 48.5973 36.2247L48.8712 33.7418C48.9414 33.1091 48.9784 32.4731 48.9819 31.8365C48.9803 29.5099 48.505 27.2079 47.5848 25.071C46.6821 22.9551 46.2726 20.6616 46.3871 18.3641L46.5658 14.7296C46.5767 14.5006 46.588 14.2637 46.588 14.0286C46.5825 10.3081 45.1015 6.74156 42.4698 4.11159C39.8381 1.48161 36.2706 0.00295052 32.55 0C30.6485 0.00035617 28.7669 0.387065 27.0194 1.13666C25.2719 1.88625 23.6949 2.9831 22.3842 4.36064C21.0735 5.73817 20.0563 7.36767 19.3944 9.15024C18.7325 10.9328 18.4397 12.8313 18.5338 14.7304L18.7118 18.3529C18.7223 18.6234 18.732 18.8789 18.732 19.1316C18.7356 21.1736 18.3214 23.1947 17.5149 25.0706C16.3414 27.8029 15.8982 30.7933 16.2287 33.7485L16.5018 36.1971C16.1841 36.5684 15.9055 36.9714 15.6702 37.3997L14.2368 33.8165C14.0821 33.4292 13.8506 33.0772 13.5563 32.7817C13.2621 32.4861 12.911 32.2532 12.5244 32.0968C12.1377 31.9404 11.7235 31.8639 11.3065 31.8718C10.8895 31.8796 10.4784 31.9718 10.0979 32.1426C9.71745 32.3135 9.37547 32.5595 9.09256 32.866C8.80964 33.1724 8.59163 33.5329 8.45164 33.9258C8.31166 34.3187 8.25258 34.7358 8.27797 35.1521C8.30336 35.5684 8.41268 35.9753 8.59938 36.3482L8.80111 36.75H6.73721C5.9223 36.749 5.1187 36.5593 4.38941 36.1957L3.34308 35.6725C2.9909 35.4964 2.59955 35.4133 2.20619 35.431C1.81283 35.4487 1.43052 35.5666 1.09558 35.7737C0.760627 35.9807 0.484153 36.2699 0.292409 36.6138C0.100666 36.9577 1.59257e-05 37.3449 1.82032e-05 37.7387V40.702C-0.00197713 41.2874 0.160103 41.8617 0.467878 42.3597C0.775653 42.8577 1.21681 43.2594 1.74131 43.5194L3.45031 44.374C4.47133 44.883 5.59636 45.1486 6.73721 45.15H7.35001V48.2594L6.59572 58.0649C6.54735 58.6946 6.62961 59.3275 6.83736 59.9239C7.04511 60.5203 7.37386 61.0674 7.80299 61.5307C8.23211 61.9941 8.75236 62.3638 9.33109 62.6166C9.90982 62.8694 10.5346 62.9999 11.1661 62.9999C11.2438 62.9999 11.3211 62.998 11.3979 62.994C11.4648 62.9972 11.5316 62.9998 11.5982 62.9998C12.4647 62.9999 13.3104 62.7337 14.0206 62.2371C14.7308 61.7406 15.2711 61.0377 15.5685 60.2237L20.3616 51.3119C20.6471 52.6403 21.2237 53.8888 22.05 54.9674V62.9999H24.15V54.5999C24.15 54.3543 24.0639 54.1165 23.9067 53.9278C22.6946 52.47 22.1103 50.591 22.282 48.7029C22.4536 46.8148 23.3672 45.072 24.8223 43.8566L23.4777 42.2433C22.9992 42.6422 22.5621 43.0883 22.1732 43.575C22.1337 43.6158 22.0974 43.6597 22.0647 43.7062L22.0623 43.7049L22.0437 43.7376C22.039 43.7449 22.0352 43.7531 22.0306 43.7605C21.4437 44.5338 20.983 45.3951 20.6656 46.3124L15.75 55.4531V42.6965L17.2421 38.9812C17.4919 38.3473 17.8678 37.7708 18.347 37.2865C18.839 36.7866 19.4251 36.3891 20.0714 36.1168C20.7178 35.8445 21.4116 35.7028 22.113 35.7H25.6267L31.6282 46.7028C31.7185 46.8684 31.8518 47.0066 32.014 47.1028C32.1762 47.1991 32.3614 47.2499 32.55 47.2499C32.7386 47.2499 32.9238 47.1991 33.086 47.1028C33.2482 47.0066 33.3814 46.8684 33.4718 46.7028L35.7 42.6178V56.6999C35.7 56.9427 35.7841 57.1779 35.938 57.3657C36.0918 57.5534 36.306 57.682 36.5441 57.7296L40.95 58.6108V62.9999H43.05V59.0307L47.0673 59.833C47.0935 59.8376 47.2152 59.8499 47.25 59.8499H49.2364L49.438 60.2256C49.7399 61.0395 50.2837 61.7416 50.9962 62.2375C51.7087 62.7334 52.5559 62.9995 53.424 62.9999C53.6559 63.0012 53.8875 62.9821 54.116 62.9427C54.8572 62.8168 55.5518 62.4967 56.1291 62.0151C56.7064 61.5335 57.1459 60.9076 57.4027 60.201L60.1952 59.7356C60.6676 59.658 61.0991 59.4207 61.4175 59.0633C61.736 58.7058 61.9223 58.2499 61.9451 57.7717L62.1551 57.7296C62.3933 57.6822 62.6076 57.5536 62.7617 57.3659C62.9157 57.1781 62.9999 56.9428 63 56.6999V38.85C62.9999 38.6976 62.9666 38.547 62.9025 38.4087C62.8384 38.2705 62.7449 38.1478 62.6287 38.0493ZM27.8999 35.4827C28.3459 35.2851 28.7249 34.9623 28.9912 34.5536C29.2574 34.1449 29.3994 33.6678 29.4 33.18V29.9666C31.4505 30.6111 33.6494 30.6111 35.7 29.9666V33.18C35.7006 33.6676 35.8427 34.1447 36.1089 34.5533C36.3751 34.9619 36.7541 35.2846 37.1999 35.4822L35.9362 37.8H29.1637L27.8999 35.4827ZM32.55 28.35C30.3229 28.3475 28.1878 27.4617 26.6131 25.8869C25.0383 24.3121 24.1525 22.177 24.15 19.95V15.2491C26.0406 13.8831 27.5948 12.1039 28.6944 10.0468C32.2505 12.8933 36.4646 14.8011 40.95 15.5951V19.95C40.9475 22.177 40.0617 24.3121 38.4869 25.8869C36.9122 27.4617 34.777 28.3475 32.55 28.35ZM46.7401 37.3045L46.7595 37.3244C47.2353 37.8033 47.6063 38.3758 47.8489 39.0058L48.3 40.1446C47.7326 39.7633 47.09 39.5081 46.4156 39.3965L38.2037 38.0278L39.4733 35.7H42.9765C43.6797 35.6992 44.3758 35.8409 45.0226 36.1167C45.6695 36.3925 46.2538 36.7966 46.7401 37.3045ZM47.3539 43.05L42.5764 42.0946L37.7989 41.1391V40.0891L46.0693 41.4672C46.5117 41.5396 46.9287 41.7226 47.2814 41.9994C47.6341 42.2761 47.9112 42.6375 48.0868 43.05H47.3539ZM52.6302 41.4679L60.9 40.0894V41.1394L55.9614 42.1271L51.346 43.05H50.6131C50.7888 42.6377 51.0657 42.2765 51.4183 41.9999C51.7708 41.7234 52.1876 41.5403 52.6298 41.4679H52.6302ZM4.38941 42.4957L2.6804 41.6413C2.50558 41.5545 2.35855 41.4206 2.25597 41.2546C2.15339 41.0886 2.09936 40.8972 2.10002 40.702V37.7387C2.09915 37.7027 2.10793 37.6672 2.12545 37.6358C2.14297 37.6043 2.16859 37.5782 2.19963 37.56C2.22971 37.5403 2.26455 37.529 2.30049 37.5274C2.33642 37.5258 2.37213 37.5339 2.40386 37.5508L3.45031 38.074C4.47133 38.583 5.59636 38.8486 6.73721 38.85H10.5C10.679 38.85 10.855 38.8042 11.0113 38.717C11.1676 38.6299 11.2991 38.5042 11.3932 38.3519C11.4873 38.1997 11.5409 38.0259 11.5489 37.8471C11.5569 37.6683 11.5191 37.4904 11.4391 37.3304L10.478 35.4078C10.4115 35.2749 10.3757 35.1287 10.3732 34.9801C10.3708 34.8315 10.4018 34.6843 10.4639 34.5493C10.526 34.4142 10.6176 34.2949 10.732 34.2C10.8464 34.1052 10.9807 34.0372 11.1249 34.0012C11.3577 33.9438 11.6034 33.9722 11.8169 34.0814C12.0304 34.1905 12.1973 34.373 12.2871 34.5954L13.65 38.0022V43.05H6.73721C5.9223 43.049 5.1187 42.8593 4.38941 42.4957ZM13.65 45.15V47.25H9.45001V45.15H13.65ZM8.68968 58.2256L9.37231 49.35H13.65V58.416C13.649 59.0431 13.411 59.6467 12.9837 60.1057C12.5564 60.5647 11.9714 60.8451 11.3459 60.8909C11.3065 60.8907 11.267 60.8927 11.2278 60.8968C11.2071 60.8968 11.187 60.8999 11.1661 60.8999C10.8239 60.9 10.4853 60.8293 10.1717 60.6923C9.85806 60.5553 9.57613 60.3549 9.3436 60.1038C9.11107 59.8527 8.93295 59.5562 8.82042 59.233C8.70789 58.9098 8.66338 58.5668 8.68968 58.2256ZM22.0668 43.7075C22.0877 43.6794 22.11 43.6523 22.1336 43.6264C22.1121 43.6538 22.0912 43.6817 22.0699 43.7092L22.0668 43.7075ZM18.4362 34.592L18.3158 33.513C18.0257 30.9196 18.4147 28.2954 19.4446 25.8977C20.3637 23.7604 20.8359 21.4576 20.832 19.131C20.832 18.8376 20.821 18.5499 20.8097 18.2604L20.6312 14.6269C20.5522 13.0367 20.7921 11.4469 21.3369 9.95085C21.8816 8.45484 22.7201 7.08293 23.8031 5.91587C24.886 4.74882 26.1915 3.81021 27.6427 3.15531C29.0938 2.5004 30.6613 2.14244 32.2529 2.10248C33.8445 2.06253 35.4281 2.34139 36.9103 2.92266C38.3925 3.50393 39.7434 4.37585 40.8835 5.4871C42.0237 6.59835 42.93 7.92646 43.5491 9.39326C44.1682 10.8601 44.4876 12.4359 44.4885 14.028C44.4885 14.213 44.4789 14.415 44.4688 14.6274L44.2904 18.258C44.1601 20.8744 44.6265 23.4861 45.6544 25.8956C46.4627 27.7718 46.8806 29.793 46.8825 31.836C46.8789 32.3973 46.846 32.9581 46.7838 33.516L46.6645 34.598C45.5447 33.9458 44.2723 33.6014 42.9765 33.6H38.22C38.1091 33.5985 38.0031 33.5538 37.9246 33.4753C37.8462 33.3969 37.8014 33.2909 37.8 33.18V29.0373C39.3951 28.116 40.7198 26.7914 41.6413 25.1964C42.5628 23.6013 43.0486 21.792 43.05 19.95V14.7C43.05 14.4472 42.9588 14.2029 42.7932 14.012C42.6276 13.821 42.3987 13.6962 42.1484 13.6605C37.5358 13.0025 33.1973 11.0739 29.6185 8.09037L29.0223 7.59333C28.9006 7.49196 28.7576 7.41942 28.604 7.38112C28.4504 7.34283 28.2901 7.33978 28.1351 7.3722C27.9801 7.40461 27.8344 7.47166 27.709 7.56832C27.5836 7.66499 27.4817 7.78876 27.4109 7.93038L27.004 8.74413C25.9754 10.7991 24.4292 12.5507 22.5176 13.8263C22.3738 13.9221 22.2558 14.0521 22.1743 14.2045C22.0927 14.3569 22.05 14.5271 22.05 14.7V19.95C22.0514 21.792 22.5372 23.6013 23.4587 25.1964C24.3801 26.7914 25.7049 28.116 27.3 29.0373V33.18C27.2985 33.2909 27.2538 33.3969 27.1754 33.4753C27.0969 33.5538 26.9909 33.5985 26.88 33.6H22.113C20.8218 33.6041 19.5542 33.9461 18.4362 34.592ZM32.55 44.0072L30.3097 39.9H34.7903L32.55 44.0072ZM37.8 43.2808L46.2 44.9608V57.5191L37.8 55.8391V43.2808ZM48.3 45.15H50.4V57.7499H48.3V45.15ZM53.7558 60.8737C53.6462 60.8922 53.5351 60.901 53.424 60.8999C53.0502 60.8996 52.6829 60.8018 52.3584 60.6163C52.0339 60.4308 51.7633 60.1639 51.5733 59.8419C51.5932 59.8397 51.6127 59.8364 51.6323 59.833C51.64 59.8316 51.6478 59.831 51.6555 59.8296H51.6572L51.6644 59.8282L53.8228 59.3965C54.0576 59.8169 54.4315 60.1424 54.8802 60.3172C54.5677 60.6084 54.1768 60.8019 53.7558 60.8737ZM59.85 57.6641L55.65 58.3642V54.4615C55.6498 54.3864 55.6764 54.3138 55.7249 54.2565C55.7734 54.1993 55.8407 54.1612 55.9147 54.149L59.4812 53.5545C59.4989 53.5516 59.5169 53.5501 59.535 53.5499C59.6187 53.5505 59.6988 53.5842 59.7578 53.6436C59.8168 53.703 59.85 53.7833 59.85 53.867L59.8508 57.6638L59.85 57.6641ZM59.1357 51.4832L55.5694 52.0775C55.0044 52.1701 54.4909 52.4609 54.1209 52.8978C53.7508 53.3346 53.5484 53.889 53.55 54.4615V57.3096L52.5 57.5196V44.9608L60.9 43.2808V51.8749C60.385 51.5205 59.7523 51.38 59.1357 51.4832Z" fill="white"/>
</svg>
