<svg width="64" height="63" viewBox="0 0 64 63" fill="none" xmlns="http://www.w3.org/2000/svg">
<path d="M59.7678 50.3628C59.3664 50.3628 59.051 50.0225 59.051 49.5894V37.7412C59.051 35.5912 57.431 33.8588 55.4526 33.8588H7.91361C5.92087 33.8588 4.31522 35.6066 4.31522 37.7412V49.5894C4.31522 50.0225 3.99982 50.3628 3.5984 50.3628C3.19699 50.3628 2.88159 50.0225 2.88159 49.5894V37.7412C2.88159 34.7404 5.14672 32.312 7.91361 32.312H55.4382C58.2195 32.312 60.4702 34.7559 60.4702 37.7412V49.5894C60.4846 50.0225 60.1549 50.3628 59.7678 50.3628Z" fill="white"/>
<path d="M60.1118 55.823H3.23999C1.44796 55.823 0 54.2452 0 52.3272C0 50.3938 1.4623 48.8315 3.23999 48.8315H60.1118C61.9039 48.8315 63.3518 50.4093 63.3518 52.3272C63.3662 54.2452 61.9039 55.823 60.1118 55.823ZM3.23999 50.3629C2.23645 50.3629 1.43362 51.2445 1.43362 52.3118C1.43362 53.3945 2.25079 54.2607 3.23999 54.2607H60.1118C61.1154 54.2607 61.9182 53.379 61.9182 52.3118C61.9182 51.229 61.101 50.3629 60.1118 50.3629H3.23999Z" fill="white"/>
<path d="M54.9651 63.0002H51.8111C49.9331 63.0002 48.4135 61.3606 48.4135 59.3343V55.0498C48.4135 54.6167 48.7288 54.2764 49.1303 54.2764C49.5317 54.2764 49.8471 54.6167 49.8471 55.0498V59.3343C49.8471 60.4944 50.7216 61.4534 51.8111 61.4534H54.9651C56.0403 61.4534 56.9292 60.5099 56.9292 59.3343V55.0498C56.9292 54.6167 57.2446 54.2764 57.646 54.2764C58.0474 54.2764 58.3628 54.6167 58.3628 55.0498V59.3343C58.3485 61.3606 56.8288 63.0002 54.9651 63.0002Z" fill="white"/>
<path d="M11.5407 63.0002H8.3867C6.50865 63.0002 4.98901 61.3606 4.98901 59.3343V55.0498C4.98901 54.6167 5.30441 54.2764 5.70583 54.2764C6.10724 54.2764 6.42264 54.6167 6.42264 55.0498V59.3343C6.42264 60.4944 7.29715 61.4534 8.3867 61.4534H11.5407C12.6159 61.4534 13.5047 60.5099 13.5047 59.3343V55.0498C13.5047 54.6167 13.8201 54.2764 14.2216 54.2764C14.623 54.2764 14.9384 54.6167 14.9384 55.0498V59.3343C14.9384 61.3606 13.4187 63.0002 11.5407 63.0002Z" fill="white"/>
<path d="M50.4492 45.8308C48.1411 45.8308 46.2773 43.8045 46.2773 41.3297C46.2773 38.8549 48.1554 36.8286 50.4492 36.8286C52.743 36.8286 54.621 38.8549 54.621 41.3297C54.621 43.82 52.743 45.8308 50.4492 45.8308ZM50.4492 38.3754C48.9439 38.3754 47.711 39.7056 47.711 41.3297C47.711 42.9538 48.9439 44.284 50.4492 44.284C51.9545 44.284 53.1874 42.9538 53.1874 41.3297C53.1874 39.7056 51.9545 38.3754 50.4492 38.3754Z" fill="white"/>
<path d="M12.917 45.8308C10.6088 45.8308 8.74512 43.8045 8.74512 41.3297C8.74512 38.8549 10.6232 36.8286 12.917 36.8286C15.2108 36.8286 17.0888 38.8549 17.0888 41.3297C17.0888 43.82 15.2108 45.8308 12.917 45.8308ZM12.917 38.3754C11.4117 38.3754 10.1787 39.7056 10.1787 41.3297C10.1787 42.9538 11.4117 44.284 12.917 44.284C14.4223 44.284 15.6552 42.9538 15.6552 41.3297C15.6552 39.7056 14.4223 38.3754 12.917 38.3754Z" fill="white"/>
<path d="M42.6647 45.8307H20.6873C20.2859 45.8307 19.9705 45.4904 19.9705 45.0573C19.9705 44.6242 20.2859 44.2839 20.6873 44.2839H42.6647C43.0661 44.2839 43.3815 44.6242 43.3815 45.0573C43.3815 45.4904 43.0661 45.8307 42.6647 45.8307Z" fill="white"/>
<path d="M42.6647 38.3754H20.6873C20.2859 38.3754 19.9705 38.0351 19.9705 37.602C19.9705 37.1689 20.2859 36.8286 20.6873 36.8286H42.6647C43.0661 36.8286 43.3815 37.1689 43.3815 37.602C43.3815 38.0351 43.0661 38.3754 42.6647 38.3754Z" fill="white"/>
<path d="M42.6647 42.1032H20.6873C20.2859 42.1032 19.9705 41.7629 19.9705 41.3298C19.9705 40.8967 20.2859 40.5564 20.6873 40.5564H42.6647C43.0661 40.5564 43.3815 40.8967 43.3815 41.3298C43.3815 41.7629 43.0661 42.1032 42.6647 42.1032Z" fill="white"/>
<path d="M55.4382 33.8433C55.0368 33.8433 54.7214 33.5031 54.7214 33.07V9.89933C54.7214 5.28996 51.252 1.54677 46.9798 1.54677H16.372C12.0998 1.54677 8.6304 5.28996 8.6304 9.89933V33.0854C8.6304 33.5185 8.315 33.8588 7.91359 33.8588C7.51217 33.8588 7.19678 33.5185 7.19678 33.0854V9.89933C7.19678 4.43923 11.3113 0 16.372 0H46.9942C52.0549 0 56.1694 4.43923 56.1694 9.89933V33.0854C56.155 33.5031 55.8396 33.8433 55.4382 33.8433Z" fill="white"/>
<path d="M55.4382 10.6727H7.91359C7.51217 10.6727 7.19678 10.3325 7.19678 9.89936C7.19678 9.46627 7.51217 9.12598 7.91359 9.12598H55.4382C55.8396 9.12598 56.155 9.46627 56.155 9.89936C56.155 10.3325 55.8396 10.6727 55.4382 10.6727Z" fill="white"/>
<path d="M11.7843 33.8434C11.3829 33.8434 11.0675 33.5031 11.0675 33.07V9.89936C11.0675 9.46627 11.3829 9.12598 11.7843 9.12598C12.1857 9.12598 12.5011 9.46627 12.5011 9.89936V33.0855C12.5011 33.5031 12.1714 33.8434 11.7843 33.8434Z" fill="white"/>
<path d="M51.5675 33.8434C51.1661 33.8434 50.8507 33.5031 50.8507 33.07V9.89936C50.8507 9.46627 51.1661 9.12598 51.5675 9.12598C51.9689 9.12598 52.2843 9.46627 52.2843 9.89936V33.0855C52.2843 33.5031 51.9689 33.8434 51.5675 33.8434Z" fill="white"/>
<path d="M31.6831 33.8434C31.2817 33.8434 30.9663 33.5031 30.9663 33.07V9.89936C30.9663 9.46627 31.2817 9.12598 31.6831 9.12598C32.0845 9.12598 32.3999 9.46627 32.3999 9.89936V33.0855C32.3999 33.5031 32.0702 33.8434 31.6831 33.8434Z" fill="white"/>
<path d="M43.9119 6.10976H19.44C19.0385 6.10976 18.7231 5.76947 18.7231 5.33637C18.7231 4.90328 19.0385 4.56299 19.44 4.56299H43.9119C44.3133 4.56299 44.6287 4.90328 44.6287 5.33637C44.6287 5.76947 44.3133 6.10976 43.9119 6.10976Z" fill="white"/>
<path d="M3.84218 19.0096C3.44076 19.0096 3.12537 18.6693 3.12537 18.2362V17.9114C3.12537 16.7513 3.12537 16.7513 3.12537 16.7358C3.15404 15.2045 4.34395 13.9517 5.76323 13.9517H7.89933C8.30075 13.9517 8.61614 14.2919 8.61614 14.725C8.61614 15.1581 8.30075 15.4984 7.89933 15.4984H5.77757C5.13244 15.4984 4.58766 16.0707 4.57333 16.7668V17.9114V18.2362C4.55899 18.6693 4.24359 19.0096 3.84218 19.0096Z" fill="white"/>
<path d="M5.46212 25.8155H2.23647C1.83505 25.8155 1.51965 25.4752 1.51965 25.0421V18.2363C1.51965 17.8032 1.83505 17.4629 2.23647 17.4629H5.46212C5.86353 17.4629 6.17893 17.8032 6.17893 18.2363V25.0421C6.17893 25.4752 5.8492 25.8155 5.46212 25.8155ZM2.95328 24.2687H4.74531V19.0097H2.95328V24.2687Z" fill="white"/>
<path d="M59.5097 19.0096C59.1083 19.0096 58.7929 18.6693 58.7929 18.2362C58.7929 18.1589 58.7929 16.8287 58.7929 16.7668C58.7786 16.0707 58.2338 15.4984 57.5887 15.4984H55.4382C55.0368 15.4984 54.7214 15.1581 54.7214 14.725C54.7214 14.2919 55.0368 13.9517 55.4382 13.9517H57.5887C59.008 13.9517 60.1979 15.2045 60.2265 16.7358V18.2362C60.2265 18.6693 59.9112 19.0096 59.5097 19.0096Z" fill="white"/>
<path d="M61.1298 25.8155H57.9042C57.5028 25.8155 57.1874 25.4752 57.1874 25.0421V18.2363C57.1874 17.8032 57.5028 17.4629 57.9042 17.4629H61.1298C61.5313 17.4629 61.8467 17.8032 61.8467 18.2363V25.0421C61.8467 25.4752 61.5169 25.8155 61.1298 25.8155ZM58.6067 24.2687H60.3987V19.0097H58.6067V24.2687Z" fill="white"/>
<path d="M21.5043 26.9291C21.3179 26.9291 21.1315 26.8518 21.0025 26.6971C20.7158 26.3877 20.7158 25.9082 21.0025 25.5989L25.9485 20.2625C26.2352 19.9532 26.6797 19.9532 26.9664 20.2625C27.2531 20.5719 27.2531 21.0514 26.9664 21.3607L22.0204 26.6971C21.877 26.8518 21.6907 26.9291 21.5043 26.9291Z" fill="white"/>
<path d="M16.931 25.8464C16.7447 25.8464 16.5583 25.7691 16.4293 25.6144C16.1426 25.305 16.1426 24.8255 16.4293 24.5162L24.0848 16.2564C24.3716 15.9471 24.816 15.9471 25.1027 16.2564C25.3894 16.5658 25.3894 17.0453 25.1027 17.3546L17.4471 25.6144C17.2895 25.7691 17.1031 25.8464 16.931 25.8464Z" fill="white"/>
<path d="M41.4889 26.9291C41.3025 26.9291 41.1162 26.8518 40.9871 26.6971C40.7004 26.3877 40.7004 25.9082 40.9871 25.5989L45.9331 20.2625C46.2199 19.9532 46.6643 19.9532 46.951 20.2625C47.2377 20.5719 47.2377 21.0514 46.951 21.3607L42.005 26.6971C41.8473 26.8518 41.6609 26.9291 41.4889 26.9291Z" fill="white"/>
<path d="M36.9014 25.8464C36.715 25.8464 36.5286 25.7691 36.3996 25.6144C36.1129 25.305 36.1129 24.8255 36.3996 24.5162L44.0552 16.2564C44.3419 15.9471 44.7863 15.9471 45.073 16.2564C45.3598 16.5658 45.3598 17.0453 45.073 17.3546L37.4175 25.6144C37.2741 25.7691 37.0878 25.8464 36.9014 25.8464Z" fill="white"/>
</svg>
