<svg width="63" height="63" viewBox="0 0 63 63" fill="none" xmlns="http://www.w3.org/2000/svg">
<path d="M1.01613 31.5H61.9839C62.2534 31.5 62.5118 31.3929 62.7024 31.2024C62.8929 31.0118 63 30.7534 63 30.4839V1.01613C63 0.746635 62.8929 0.488178 62.7024 0.297617C62.5118 0.107056 62.2534 0 61.9839 0H1.01613C0.746635 0 0.488178 0.107056 0.297617 0.297617C0.107056 0.488178 0 0.746635 0 1.01613V30.4839C0 30.7534 0.107056 31.0118 0.297617 31.2024C0.488178 31.3929 0.746635 31.5 1.01613 31.5ZM37.5968 29.4677H29.4677V23.879C29.4674 23.6288 29.3748 23.3875 29.2076 23.2013L21.925 15.0722L22.4087 14.5896L28.8103 20.0767C28.993 20.2346 29.2262 20.3218 29.4677 20.3226H36.5806C36.8501 20.3226 37.1086 20.4296 37.2992 20.6202C37.4897 20.8108 37.5968 21.0692 37.5968 21.3387V29.4677ZM31.5 15.2419C31.5 14.84 31.6192 14.4471 31.8425 14.1129C32.0658 13.7787 32.3832 13.5182 32.7545 13.3644C33.1259 13.2106 33.5345 13.1703 33.9287 13.2487C34.323 13.3271 34.6851 13.5207 34.9693 13.8049C35.2535 14.0891 35.4471 14.4512 35.5255 14.8455C35.6039 15.2397 35.5636 15.6483 35.4098 16.0196C35.256 16.391 34.9955 16.7084 34.6613 16.9317C34.3271 17.155 33.9342 17.2742 33.5323 17.2742C32.9933 17.2742 32.4764 17.0601 32.0952 16.679C31.7141 16.2978 31.5 15.7809 31.5 15.2419ZM2.03226 2.03226H60.9677V29.4677H39.629V21.3387C39.629 20.5302 39.3079 19.7549 38.7362 19.1832C38.1645 18.6115 37.3891 18.2903 36.5806 18.2903H36.1925C36.8191 17.7479 37.2649 17.0269 37.4702 16.2239C37.6754 15.4209 37.6303 14.5744 37.3408 13.7978C37.0514 13.0212 36.5315 12.3517 35.8507 11.8789C35.17 11.4061 34.361 11.1528 33.5323 11.1528C32.7035 11.1528 31.8945 11.4061 31.2138 11.8789C30.5331 12.3517 30.0131 13.0212 29.7237 13.7978C29.4342 14.5744 29.3891 15.4209 29.5944 16.2239C29.7996 17.0269 30.2454 17.7479 30.872 18.2903H29.8437L23.0153 12.4384C22.821 12.2721 22.5711 12.1851 22.3155 12.1949C22.0599 12.2047 21.8174 12.3105 21.6364 12.4913L19.8074 14.3203C19.6239 14.5041 19.5177 14.7512 19.5107 15.0109C19.5037 15.2706 19.5964 15.523 19.7698 15.7165L27.4355 24.2682V29.4677H2.03226V2.03226Z" fill="white"/>
<path d="M40.6452 14.2257H43.6936C43.6936 14.7647 43.9077 15.2816 44.2888 15.6628C44.6699 16.0439 45.1868 16.258 45.7258 16.258H55.8871C56.4261 16.258 56.943 16.0439 57.3241 15.6628C57.7053 15.2816 57.9194 14.7647 57.9194 14.2257V6.09671C57.9194 5.55772 57.7053 5.04081 57.3241 4.65969C56.943 4.27857 56.4261 4.06445 55.8871 4.06445H45.7258C45.1868 4.06445 44.6699 4.27857 44.2888 4.65969C43.9077 5.04081 43.6936 5.55772 43.6936 6.09671V8.72442L39.9268 12.4912C39.7847 12.6333 39.688 12.8144 39.6488 13.0114C39.6096 13.2085 39.6297 13.4128 39.7066 13.5984C39.7835 13.7841 39.9137 13.9428 40.0808 14.0544C40.2478 14.1661 40.4442 14.2257 40.6452 14.2257ZM45.4281 9.8635C45.6187 9.67298 45.7258 9.41457 45.7258 9.1451V6.09671H55.8871V14.2257H45.7258V13.2096C45.7258 12.9401 45.6188 12.6817 45.4282 12.4911C45.2377 12.3005 44.9792 12.1935 44.7097 12.1935H43.0981L45.4281 9.8635Z" fill="white"/>
<path d="M47.7581 9.14526H49.7903V11.1775H47.7581V9.14526Z" fill="white"/>
<path d="M51.8226 9.14526H53.8548V11.1775H51.8226V9.14526Z" fill="white"/>
<path d="M5.08063 5.08057H18.2903V7.11282H5.08063V5.08057Z" fill="white"/>
<path d="M5.08063 10.1614H10.1613V12.1936H5.08063V10.1614Z" fill="white"/>
<path d="M5.08063 15.2419H14.2258V17.2742H5.08063V15.2419Z" fill="white"/>
<path d="M26.4193 61.9838V58.9354H58.9355C59.0899 58.9354 59.2424 58.9002 59.3812 58.8324C59.52 58.7647 59.6415 58.6662 59.7365 58.5444C59.8315 58.4226 59.8976 58.2808 59.9295 58.1297C59.9615 57.9786 59.9586 57.8222 59.9211 57.6724L54.8405 37.3498C54.7854 37.13 54.6585 36.935 54.48 36.7956C54.3014 36.6563 54.0813 36.5806 53.8548 36.5806H9.14515C8.91862 36.5806 8.6986 36.6563 8.52002 36.7956C8.34144 36.935 8.21455 37.13 8.1595 37.3498L3.07886 57.6724C3.04133 57.8222 3.03844 57.9786 3.07043 58.1297C3.10242 58.2808 3.16843 58.4226 3.26345 58.5444C3.35848 58.6662 3.48001 58.7647 3.61882 58.8324C3.75762 58.9002 3.91005 58.9354 4.0645 58.9354H14.2258V61.9838C14.2258 62.2533 14.3328 62.5117 14.5234 62.7023C14.714 62.8929 14.9724 62.9999 15.2419 62.9999H25.4032C25.6727 62.9999 25.9312 62.8929 26.1217 62.7023C26.3123 62.5117 26.4193 62.2533 26.4193 61.9838ZM14.2258 53.8548V56.9031H5.36616L9.93875 38.6128H53.0612L57.6338 56.9031H26.4193V53.8548C26.4193 53.0463 26.0982 52.2709 25.5265 51.6992C24.9548 51.1275 24.1794 50.8064 23.371 50.8064H22.9828C23.6094 50.2639 24.0552 49.5429 24.2605 48.7399C24.4657 47.937 24.4206 47.0904 24.1312 46.3139C23.8417 45.5373 23.3218 44.8677 22.6411 44.3949C21.9603 43.9222 21.1514 43.6688 20.3226 43.6688C19.4938 43.6688 18.6848 43.9222 18.0041 44.3949C17.3234 44.8677 16.8034 45.5373 16.514 46.3139C16.2245 47.0904 16.1794 47.937 16.3847 48.7399C16.5899 49.5429 17.0357 50.2639 17.6623 50.8064H17.2742C16.4657 50.8064 15.6903 51.1275 15.1186 51.6992C14.547 52.2709 14.2258 53.0463 14.2258 53.8548ZM22.3548 47.758C22.3548 48.1599 22.2356 48.5528 22.0123 48.887C21.789 49.2213 21.4716 49.4817 21.1003 49.6355C20.7289 49.7894 20.3203 49.8296 19.9261 49.7512C19.5319 49.6728 19.1698 49.4792 18.8855 49.195C18.6013 48.9108 18.4078 48.5487 18.3294 48.1545C18.2509 47.7602 18.2912 47.3516 18.445 46.9803C18.5988 46.6089 18.8593 46.2915 19.1935 46.0682C19.5277 45.8449 19.9206 45.7257 20.3226 45.7257C20.8616 45.7257 21.3785 45.9398 21.7596 46.321C22.1407 46.7021 22.3548 47.219 22.3548 47.758ZM24.3871 60.9677H16.2581V53.8548C16.2581 53.5853 16.3651 53.3268 16.5557 53.1362C16.7462 52.9457 17.0047 52.8386 17.2742 52.8386H23.371C23.6404 52.8386 23.8989 52.9457 24.0895 53.1362C24.28 53.3268 24.3871 53.5853 24.3871 53.8548V60.9677Z" fill="white"/>
<path d="M32.762 53.8244L33.6765 53.5968C35.474 53.1461 37.3735 53.3545 39.0305 54.1842L40.1909 54.7644C40.332 54.8348 40.4875 54.8715 40.6451 54.8715C40.8028 54.8715 40.9583 54.8348 41.0994 54.7644L42.2598 54.1842C43.9172 53.356 45.8162 53.1477 47.6138 53.5968L48.5283 53.8244C48.6867 53.8648 48.8526 53.8664 49.0117 53.829C49.1709 53.7916 49.3187 53.7164 49.4426 53.6097C49.5665 53.5029 49.6628 53.3679 49.7233 53.216C49.7838 53.0641 49.8068 52.8999 49.7903 52.7372L48.7742 42.5759C48.7537 42.3735 48.6729 42.1819 48.5423 42.0259C48.4117 41.8699 48.2372 41.7567 48.0415 41.701C45.5631 40.9971 42.9075 41.2934 40.6451 42.5261C38.3839 41.2955 35.7307 40.9993 33.2538 41.701C33.0582 41.7567 32.8837 41.8699 32.7531 42.0259C32.6225 42.1819 32.5417 42.3735 32.5212 42.5759L31.5051 52.7372C31.4888 52.8993 31.5118 53.063 31.5721 53.2144C31.6323 53.3658 31.7281 53.5004 31.8514 53.607C31.9746 53.7136 32.1217 53.789 32.2802 53.8269C32.4386 53.8647 32.6039 53.8639 32.762 53.8244ZM41.6613 44.2931C43.2383 43.4438 45.0595 43.1629 46.8191 43.4975L47.6209 51.5168C45.6088 51.1241 43.5241 51.3733 41.6613 52.2291V44.2931ZM34.4711 43.4975C36.2308 43.1646 38.0514 43.4455 39.629 44.2931V52.2291C37.7681 51.3666 35.6819 51.1155 33.6694 51.5117L34.4711 43.4975Z" fill="white"/>
</svg>
