<svg width="29" height="32" viewBox="0 0 29 32" fill="none" xmlns="http://www.w3.org/2000/svg">
<path d="M5.19286 13.3526C5.00731 13.9138 4.47703 14.3185 3.85305 14.3185C3.22902 14.3185 2.69874 13.9138 2.51318 13.3526" stroke="white" stroke-miterlimit="10" stroke-linecap="round" stroke-linejoin="round"/>
<path d="M5.19285 13.3526C5.24065 13.2121 5.26591 13.062 5.26591 12.9055C5.26591 12.1016 5.37083 11.3212 5.56853 10.5791C6.59821 6.69566 10.1436 3.82475 14.3467 3.82475C18.5498 3.82475 22.0952 6.69566 23.1249 10.5791C23.3224 11.3212 23.4275 12.1016 23.4275 12.9055C23.4275 13.062 23.4528 13.2121 23.5005 13.3526C23.686 13.9138 24.2163 14.3185 24.8403 14.3185C25.4644 14.3185 25.9937 13.9138 26.1801 13.3526C26.2279 13.2121 26.2532 13.062 26.2532 12.9055C26.2532 12.1102 26.1745 11.3315 26.0247 10.5791C24.9398 5.12434 20.1155 1 14.3467 1C8.57805 1 3.75374 5.1244 2.6687 10.5791C2.51886 11.3315 2.44019 12.1102 2.44019 12.9055C2.44019 13.062 2.46545 13.2121 2.51318 13.3526" stroke="white" stroke-miterlimit="10"/>
<path d="M3.85327 16.1381V14.3185" stroke="white" stroke-miterlimit="10" stroke-linecap="round" stroke-linejoin="round"/>
<path d="M24.8398 16.1455V14.3185" stroke="white" stroke-miterlimit="10" stroke-linecap="round" stroke-linejoin="round"/>
<path d="M4.84934 22.0454C4.84934 22.4613 4.51199 22.7988 4.09584 22.7988H3.60989C3.1938 22.7988 2.85645 22.4613 2.85645 22.0454V16.8913C2.85645 16.4754 3.1938 16.1379 3.60989 16.1379H4.09584C4.51186 16.1379 4.84934 16.4754 4.84934 16.8913V22.0454Z" stroke="white" stroke-miterlimit="10" stroke-linecap="round" stroke-linejoin="round"/>
<path d="M2.86349 22.1448C1.7761 21.7431 1 20.6957 1 19.4683C1 18.2406 1.77603 17.194 2.86349 16.7923" stroke="white" stroke-miterlimit="10" stroke-linecap="round" stroke-linejoin="round"/>
<path d="M23.8455 16.8992C23.8455 16.4834 24.1828 16.1458 24.5988 16.1458H25.0848C25.5007 16.1458 25.8383 16.4834 25.8383 16.8992V22.0532C25.8383 22.4694 25.5007 22.8066 25.0848 22.8066H24.5988C24.1828 22.8066 23.8455 22.4694 23.8455 22.0532V16.8992Z" stroke="white" stroke-miterlimit="10" stroke-linecap="round" stroke-linejoin="round"/>
<path d="M25.8313 16.7998C26.9189 17.2017 27.6948 18.2488 27.6948 19.4764C27.6948 20.704 26.919 21.7505 25.8313 22.1522" stroke="white" stroke-miterlimit="10" stroke-linecap="round" stroke-linejoin="round"/>
<path d="M25.0852 22.8066V26.1822" stroke="white" stroke-miterlimit="10" stroke-linecap="round" stroke-linejoin="round"/>
<path d="M25.0853 26.1823L19.3389 28.393" stroke="white" stroke-miterlimit="10" stroke-linecap="round" stroke-linejoin="round"/>
<path d="M17.7423 30.7184C18.6872 30.7184 19.4532 29.9525 19.4532 29.0076C19.4532 28.0627 18.6872 27.2968 17.7423 27.2968C16.7975 27.2968 16.0315 28.0627 16.0315 29.0076C16.0315 29.9525 16.7975 30.7184 17.7423 30.7184Z" stroke="white" stroke-miterlimit="10" stroke-linecap="round" stroke-linejoin="round"/>
<path d="M10.0498 18.6227H13.5794V15.0933H10.0498" stroke="white" stroke-miterlimit="10" stroke-linecap="round" stroke-linejoin="round"/>
<path d="M13.5794 18.6228H10.0498V22.1524H13.5794" stroke="white" stroke-miterlimit="10" stroke-linecap="round" stroke-linejoin="round"/>
<path d="M15.115 15.0934V18.6228H18.6448V15.0934" stroke="white" stroke-miterlimit="10" stroke-linecap="round" stroke-linejoin="round"/>
<path d="M18.645 18.6228V22.1523" stroke="white" stroke-miterlimit="10" stroke-linecap="round" stroke-linejoin="round"/>
<path d="M16.3674 12.696V7.93512" stroke="white" stroke-miterlimit="10" stroke-linecap="round" stroke-linejoin="round"/>
<path d="M18.0789 12.6959V9.22351" stroke="white" stroke-miterlimit="10" stroke-linecap="round" stroke-linejoin="round"/>
<path d="M14.5127 12.648V6.69836" stroke="white" stroke-miterlimit="10" stroke-linecap="round" stroke-linejoin="round"/>
<path d="M12.6575 12.696L12.6575 7.93518" stroke="white" stroke-miterlimit="10" stroke-linecap="round" stroke-linejoin="round"/>
<path d="M10.8218 12.6959L10.8218 9.22357" stroke="white" stroke-miterlimit="10" stroke-linecap="round" stroke-linejoin="round"/>
</svg>
