<svg width="50" height="50" viewBox="0 0 50 50" fill="none" xmlns="http://www.w3.org/2000/svg">
<g clip-path="url(#clip0_328_1459)">
<path d="M3.0127 43.3333H0L0.833333 36.6667L3.33333 35H8.33333L10.8333 36.6667L11.6667 43.3333H8.65397L9.16667 50H2.5L3.0127 43.3333Z" fill="#CE2F23"/>
<path d="M6.66667 35H3.33333L0.833333 36.6667L0 43.3333H3.0127L2.5 50H7.5L6.9873 43.3333H10L9.16667 36.6667L6.66667 35Z" fill="#DB4433"/>
<path d="M24.9993 34.1667V35.8333L28.3327 50H24.166L21.666 36.6667L19.166 50H14.9993L18.3327 35.8333V34.1667H14.166L15.8327 25.8333L17.4993 24.1667H25.8327L27.4993 25.8333L29.166 34.1667H24.9993Z" fill="#39808C"/>
<path d="M23.3327 34.1667H27.4993L25.8327 25.8333L24.166 24.1667H17.4993L15.8327 25.8333L14.166 34.1667H18.3327V35.8333L14.9993 50H17.4993L19.9993 36.6667L20.8327 41.1108L21.666 36.6667L24.166 50H26.666L23.3327 35.8333V34.1667Z" fill="#3E8A9D"/>
<path d="M36.666 28.3333L34.166 50H39.166L40.8327 30L42.4993 50H47.4993L44.9993 28.3333H49.9993L48.3327 14.1667L45.8327 11.6667H35.8327L33.3327 14.1667L31.666 28.3333H36.666Z" fill="#DB9D3D"/>
<path d="M44.166 11.6667H35.8327L33.3327 14.1667L31.666 28.3333H36.666L34.166 50H37.4993L39.166 30L39.9993 40L40.8327 30L42.4993 50H45.8327L43.3327 28.3333H48.3327L46.666 14.1667L44.166 11.6667Z" fill="#E8C14C"/>
<path d="M0 25L19.1667 5.83333L21.6667 8.33333V0H13.3333L15.8333 2.5L0 18.3333" fill="#90B244"/>
<path d="M0 21.6667L21.6667 0H13.3333L15.8333 2.5L0 18.3333" fill="#A5BF5B"/>
<path d="M8.33398 29.1667C8.33398 30.5473 7.2146 31.6667 5.83398 31.6667C4.45337 31.6667 3.33398 30.5473 3.33398 29.1667C3.33398 27.786 4.45337 26.6667 5.83398 26.6667C7.2146 26.6667 8.33398 27.786 8.33398 29.1667Z" fill="#E0C090"/>
<path d="M6.66732 29.1667C6.66732 27.8707 5.92106 26.8201 5.00065 26.8201C4.08024 26.8201 3.33398 27.8707 3.33398 29.1667C3.33398 30.4626 4.08024 31.5133 5.00065 31.5133C5.92106 31.5133 6.66732 30.4626 6.66732 29.1667Z" fill="#F1DCB9"/>
<path d="M25.0007 17.5C25.0007 19.3408 23.5081 20.8333 21.6673 20.8333C19.8265 20.8333 18.334 19.3408 18.334 17.5C18.334 15.6592 19.8265 14.1667 21.6673 14.1667C23.5081 14.1667 25.0007 15.6592 25.0007 17.5Z" fill="#E0C090"/>
<path d="M23.334 17.5C23.334 15.7239 22.2146 14.2843 20.834 14.2843C19.4534 14.2843 18.334 15.7239 18.334 17.5C18.334 19.2761 19.4534 20.7157 20.834 20.7157C22.2146 20.7157 23.334 19.2761 23.334 17.5Z" fill="#F1DCB9"/>
<path d="M44.9993 4.16667C44.9993 6.46769 43.1337 8.33333 40.8327 8.33333C38.5317 8.33333 36.666 6.46769 36.666 4.16667C36.666 1.86564 38.5317 0 40.8327 0C43.1337 0 44.9993 1.86564 44.9993 4.16667Z" fill="#E0C090"/>
<path d="M43.3327 4.16667C43.3327 1.91203 41.8402 0.0842285 39.9993 0.0842285C38.1585 0.0842285 36.666 1.91203 36.666 4.16667C36.666 6.42131 38.1585 8.24911 39.9993 8.24911C41.8402 8.24911 43.3327 6.42131 43.3327 4.16667Z" fill="#F1DCB9"/>
</g>
<defs>
<clipPath id="clip0_328_1459">
<rect width="50" height="50" fill="white"/>
</clipPath>
</defs>
</svg>
