<svg width="50" height="50" viewBox="0 0 50 50" fill="none" xmlns="http://www.w3.org/2000/svg">
<g clip-path="url(#clip0_327_1101)">
<path d="M36.8165 20.7467C36.8165 20.7467 32.3828 23.8615 32.3828 29.7566L39.8116 33.1601L46.9817 29.7566C46.9817 23.8615 42.548 20.7467 42.548 20.7467H36.8165Z" fill="#F98797"/>
<path d="M34.0469 12.1148L31.5078 9.52402C32.9404 6.37851 36.1094 4.17929 39.8125 4.17929C42.8535 4.17929 45.5342 5.66367 47.1885 7.93515V12.1148H34.0469Z" fill="#F9AC96"/>
<path d="M42.5483 20.7467H36.8167C36.8167 20.7467 35.2955 21.816 34.0352 23.8864C35.7374 24.8183 37.6515 25.3269 39.6422 25.3548C39.6985 25.3556 39.7539 25.3559 39.8101 25.3559C41.8177 25.3559 43.7173 24.8612 45.3896 23.9851C44.1182 21.8498 42.5483 20.7467 42.5483 20.7467Z" fill="#E35B70"/>
<path d="M40.6309 4.21581C40.3613 4.19189 40.0885 4.17929 39.8125 4.17929C36.1094 4.17929 32.9404 6.37851 31.5078 9.52402L34.0469 12.1148H35.6696C36.1482 8.83329 38.0034 5.99853 40.6309 4.21581Z" fill="#F98872"/>
<path d="M48.917 13.8492C48.6299 18.6939 44.5342 22.4928 39.6816 22.4254C34.7197 22.356 30.7158 18.3268 30.6885 13.3551C30.6875 13.3375 30.6875 13.3199 30.6875 13.3023C30.6875 11.9566 30.9795 10.6773 31.5059 9.52402L34.0449 12.1148C34.0449 12.1148 42.7734 12.5396 47.1865 7.93515C48.3867 9.58163 49.0479 11.6412 48.917 13.8492Z" fill="#F7D4C6"/>
<path d="M32.7736 9.50215C34.5741 9.50215 36.0336 8.04261 36.0336 6.24218C36.0336 4.44176 34.5741 2.98222 32.7736 2.98222C30.9732 2.98222 29.5137 4.44176 29.5137 6.24218C29.5137 8.04261 30.9732 9.50215 32.7736 9.50215Z" fill="#385ABC"/>
<path d="M19.3105 13.3551C19.3115 13.3375 19.3115 13.3199 19.3115 13.3023C19.3115 8.28671 15.249 4.17929 10.1885 4.17929C6.90137 4.17929 4.03613 5.91269 2.43164 8.50058V13.3551H19.3105Z" fill="#EED491"/>
<path d="M35.5452 13.7995C35.5452 13.2227 35.588 12.6559 35.6695 12.1016C34.67 12.1451 34.0449 12.1148 34.0449 12.1148L31.5059 9.52402C30.9795 10.6773 30.6875 11.9566 30.6875 13.3023C30.6875 13.3199 30.6875 13.3375 30.6885 13.3551C30.7153 18.2301 34.5656 22.1984 39.3934 22.4164C37.0314 20.2975 35.5452 17.2223 35.5452 13.7995Z" fill="#F7C2B5"/>
<path d="M15.9531 12.1148C16.5342 7.63827 20.3623 4.17929 24.999 4.17929C29.6357 4.17929 33.4639 7.63827 34.0449 12.1148L31.1185 14.6393H19.0026L15.9531 12.1148Z" fill="#5877C9"/>
<path d="M13.1828 20.7467C13.1828 20.7467 17.6165 23.8615 17.6165 29.7566L10.1877 33.1601L3.01758 29.7566C3.01758 23.8615 7.45127 20.7467 7.45127 20.7467H13.1828Z" fill="#71D5B4"/>
<path d="M3.90234 33.1602H46.097V47.0179H3.90234V33.1602Z" fill="#CF8D86"/>
<path d="M29.2537 21.3752C29.2537 21.3752 34.1236 24.0162 34.1236 29.7566L25.0003 33.1602L15.877 29.7566C15.877 24.0162 20.7469 21.3752 20.7469 21.3752H29.2537Z" fill="#5877C9"/>
<path d="M11.8798 33.1602H3.90234V47.0178H18.0195C14.4589 43.4149 12.1696 38.5534 11.8798 33.1602Z" fill="#C7807C"/>
<path d="M46.9817 29.7566H3.01826C1.75576 29.7566 0.732422 30.7801 0.732422 32.0425V34.2777C0.732422 35.5402 1.75586 36.5636 3.01826 36.5636H46.9816C48.2441 36.5636 49.2675 35.5401 49.2675 34.2777V32.0425C49.2676 30.7801 48.2441 29.7566 46.9817 29.7566Z" fill="#EED491"/>
<path d="M13.1843 20.7467H7.45264C7.45264 20.7467 5.88271 21.8497 4.61133 23.9852C6.28369 24.8612 8.1833 25.3559 10.1909 25.3559C10.2467 25.3559 10.3028 25.3556 10.359 25.3548C12.3496 25.3269 14.2637 24.8182 15.9659 23.8864C14.7055 21.816 13.1843 20.7467 13.1843 20.7467Z" fill="#31C695"/>
<path d="M9.26602 4.22539C6.36963 4.51572 3.88408 6.158 2.43164 8.50058V13.3551H5.39082C5.46387 9.79531 6.92969 6.57783 9.26602 4.22539Z" fill="#F9C772"/>
<path d="M19.3113 13.3551C19.2839 18.3268 15.28 22.356 10.3181 22.4254C5.46557 22.4928 1.36987 18.6939 1.08276 13.8492C0.966546 11.8873 1.47534 10.0426 2.43237 8.50058C6.70873 12.5484 12.5496 8.61191 15.9548 12.1148L19.3113 13.3551Z" fill="#D2957E"/>
<path d="M5.38803 13.6344C5.38803 12.4716 5.53696 11.3435 5.81625 10.2682C4.63324 10.0094 3.48539 9.49736 2.43237 8.50058C1.47534 10.0426 0.966546 11.8873 1.08276 13.8492C1.33451 18.0972 4.5144 21.5407 8.56518 22.2793C6.58412 19.9498 5.38803 16.9319 5.38803 13.6344Z" fill="#BF806A"/>
<path d="M29.2533 21.3752H20.7466C20.7466 21.3752 19.562 22.0181 18.3613 23.3579C20.2709 24.6215 22.5562 25.3559 25.002 25.3561H25.003C25.0589 25.3561 25.114 25.3557 25.17 25.3549C27.507 25.3225 29.7371 24.6271 31.6434 23.3631C30.4409 22.0198 29.2533 21.3752 29.2533 21.3752Z" fill="#385ABC"/>
<path d="M20.1824 13.765C20.1824 9.92343 21.9118 6.48623 24.6338 4.18779C20.1628 4.36406 16.5188 7.75654 15.9531 12.1148L19.0026 14.6394H20.2132C20.1934 14.3505 20.1824 14.0591 20.1824 13.765Z" fill="#385ABC"/>
<path d="M34.0459 12.1148C29.9394 12.1612 27.4325 10.7428 26.1298 9.67236C25.4752 9.13456 24.5248 9.13456 23.8702 9.67236C22.5675 10.7428 20.0605 12.1612 15.9541 12.1148C15.8804 12.6786 15.8582 13.2588 15.8931 13.8494C16.1804 18.6938 20.2767 22.4929 25.1293 22.4255C30.1088 22.3563 34.123 18.2982 34.123 13.3023C34.123 12.9 34.0967 12.5035 34.0459 12.1148Z" fill="#FED2A4"/>
<path d="M20.1833 13.765C20.1833 12.9945 20.2532 12.2405 20.3864 11.5085C19.1823 11.8847 17.7158 12.1348 15.9541 12.1148C15.8804 12.6785 15.8582 13.2588 15.8931 13.8494C16.1486 18.1574 19.4164 21.6385 23.5494 22.3092C21.4615 20.0709 20.1833 17.0675 20.1833 13.765Z" fill="#FFBD86"/>
<path d="M11.8481 31.9944C11.8481 31.2387 11.888 30.4922 11.9645 29.7566H3.01826C1.75586 29.7566 0.732422 30.7801 0.732422 32.0425V34.2777C0.732422 35.5401 1.75586 36.5636 3.01826 36.5636H12.3393C12.0187 35.0913 11.8481 33.5629 11.8481 31.9944Z" fill="#F9C772"/>
<path d="M20.1816 16.2525C20.5861 16.2525 20.9141 15.9246 20.9141 15.5201V14.5943C20.9141 14.1898 20.5861 13.8619 20.1816 13.8619C19.7771 13.8619 19.4492 14.1898 19.4492 14.5943V15.5201C19.4492 15.9246 19.7771 16.2525 20.1816 16.2525Z" fill="black"/>
<path d="M29.8184 16.2525C30.2229 16.2525 30.5508 15.9246 30.5508 15.5201V14.5943C30.5508 14.1898 30.2229 13.8619 29.8184 13.8619C29.4139 13.8619 29.0859 14.1898 29.0859 14.5943V15.5201C29.0859 15.9246 29.4139 16.2525 29.8184 16.2525Z" fill="black"/>
<path d="M25.0009 16.8036C25.6994 16.8036 26.3636 16.5011 26.8232 15.9737C27.0889 15.6687 27.0572 15.2061 26.7522 14.9403C26.4471 14.6745 25.9845 14.7063 25.7188 15.0113C25.5375 15.2194 25.2758 15.3389 25.0008 15.3389C24.7258 15.3389 24.464 15.2194 24.2827 15.0113C24.0169 14.7063 23.5543 14.6746 23.2493 14.9403C22.9443 15.2061 22.9126 15.6687 23.1783 15.9737C23.6381 16.5011 24.3023 16.8036 25.0009 16.8036Z" fill="black"/>
<path d="M4.06836 13.1783C3.66387 13.1783 3.33594 13.5062 3.33594 13.9107V14.769C3.33594 15.1736 3.66387 15.5015 4.06836 15.5015C4.47285 15.5015 4.80078 15.1736 4.80078 14.769V13.9107C4.80078 13.5061 4.47285 13.1783 4.06836 13.1783Z" fill="black"/>
<path d="M13.002 15.5014C13.4064 15.5014 13.7344 15.1735 13.7344 14.7689V13.9106C13.7344 13.5062 13.4064 13.1782 13.002 13.1782C12.5975 13.1782 12.2695 13.5062 12.2695 13.9106V14.7689C12.2695 15.1735 12.5975 15.5014 13.002 15.5014Z" fill="black"/>
<path d="M8.53521 16.0124C9.1982 16.0124 9.82867 15.7253 10.2649 15.2247C10.5307 14.9197 10.4989 14.4571 10.194 14.1913C9.88902 13.9255 9.42642 13.9572 9.1606 14.2622C9.00259 14.4434 8.77457 14.5475 8.53511 14.5475C8.29566 14.5475 8.06763 14.4434 7.90963 14.2622C7.64381 13.9572 7.18121 13.9255 6.87623 14.1913C6.57125 14.4571 6.53951 14.9197 6.80533 15.2247C7.24175 15.7252 7.87222 16.0124 8.53521 16.0124Z" fill="black"/>
<path d="M45.9316 13.1783C45.5271 13.1783 45.1992 13.5062 45.1992 13.9107V14.769C45.1992 15.1736 45.5271 15.5015 45.9316 15.5015C46.3361 15.5015 46.6641 15.1736 46.6641 14.769V13.9107C46.6641 13.5061 46.3362 13.1783 45.9316 13.1783Z" fill="black"/>
<path d="M36.998 13.1783C36.5936 13.1783 36.2656 13.5062 36.2656 13.9107V14.769C36.2656 15.1736 36.5936 15.5015 36.998 15.5015C37.4025 15.5015 37.7305 15.1736 37.7305 14.769V13.9107C37.7305 13.5061 37.4025 13.1783 36.998 13.1783Z" fill="black"/>
<path d="M43.1237 14.1913C42.8187 13.9255 42.3561 13.9572 42.0903 14.2622C41.9323 14.4434 41.7043 14.5475 41.4648 14.5475C41.2253 14.5475 40.9973 14.4434 40.8393 14.2622C40.5735 13.9572 40.1109 13.9255 39.8059 14.1913C39.5009 14.4571 39.4692 14.9197 39.735 15.2247C40.1712 15.7252 40.8017 16.0124 41.4647 16.0124C42.1277 16.0124 42.7582 15.7253 43.1944 15.2247C43.4603 14.9197 43.4286 14.4571 43.1237 14.1913Z" fill="black"/>
<path d="M47.6957 29.1103C47.5187 25.7436 45.9899 23.2921 44.7374 21.8288C47.5634 20.1847 49.4504 17.2475 49.6491 13.8926C49.7843 11.6122 49.1203 9.34345 47.7796 7.5041C47.7796 7.5041 47.7796 7.5041 47.7795 7.5041C47.7795 7.504 47.7794 7.504 47.7794 7.5039C47.7794 7.5039 47.7794 7.5039 47.7793 7.50381C47.7793 7.50381 47.7792 7.50381 47.7792 7.50371C45.9291 4.96347 42.9505 3.44687 39.8114 3.44687C38.5471 3.44687 37.3251 3.68144 36.1686 4.14336C35.4639 3.00791 34.2062 2.2498 32.7743 2.2498C31.2564 2.2498 29.9021 3.10293 29.2286 4.40576C27.9406 3.79101 26.5049 3.44687 24.9999 3.44687C22.0786 3.44687 19.4153 4.73799 17.5958 6.80468C15.735 4.6873 13.0305 3.44687 10.1884 3.44687C4.49053 3.44687 0.0162109 8.24394 0.350879 13.8926C0.549219 17.2396 2.43115 20.1815 5.2626 21.8288C4.01006 23.2922 2.48135 25.7436 2.3043 29.1103C0.983594 29.4319 0 30.6242 0 32.0425V34.2777C0 35.942 1.354 37.296 3.01826 37.296H3.17031V47.0178C3.17031 47.4223 3.49824 47.7502 3.90273 47.7502H35.1116C35.5161 47.7502 35.844 47.4223 35.844 47.0178C35.844 46.6133 35.5161 46.2854 35.1116 46.2854H4.63516V37.296H11.5634C11.9679 37.296 12.2958 36.9681 12.2958 36.5636C12.2958 36.1591 11.9679 35.8312 11.5634 35.8312C10.4014 35.8312 3.69648 35.8312 3.01826 35.8312C2.16172 35.8312 1.46484 35.1343 1.46484 34.2777V32.0425C1.46484 31.1859 2.16172 30.489 3.01826 30.489H46.9816C47.8382 30.489 48.5352 31.1858 48.5352 32.0425V34.2777C48.5352 35.1343 47.8383 35.8312 46.9816 35.8312C44.9966 35.8312 15.5644 35.8312 14.4931 35.8312C14.0886 35.8312 13.7606 36.1591 13.7606 36.5636C13.7606 36.9681 14.0886 37.296 14.4931 37.296H45.3648V46.2854H38.0413C37.6368 46.2854 37.3089 46.6133 37.3089 47.0178C37.3089 47.4223 37.6368 47.7502 38.0413 47.7502H46.0973C46.5018 47.7502 46.8297 47.4223 46.8297 47.0178V37.296H46.9816C48.6459 37.296 50 35.942 50 34.2777V32.0425C50 30.6242 49.0164 29.4319 47.6957 29.1103ZM48.1868 13.806C47.923 18.2572 44.1598 21.7534 39.6928 21.6932C37.2201 21.6586 34.8704 20.5136 33.31 18.606C34.3016 17.058 34.8339 15.3053 34.8554 13.3024C34.8554 13.1369 34.8458 12.8678 34.8453 12.8572C35.7478 12.8488 37.2971 12.7807 39.0856 12.4735C42.4644 11.8936 45.1404 10.7507 47.0567 9.07207C47.8868 10.4944 48.2852 12.1465 48.1868 13.806ZM24.3352 10.2384C24.7227 9.92041 25.2833 9.92509 25.6647 10.2384C27.8101 12.002 30.6014 12.7693 33.377 12.8423C33.3854 12.9946 33.3905 13.1362 33.3905 13.3024C33.3905 17.8505 29.7509 21.6264 25.1218 21.6931C25.1208 21.6931 25.1199 21.6931 25.1189 21.6931C25.118 21.6931 25.117 21.6931 25.116 21.6931C20.6831 21.7556 16.8896 18.2812 16.6241 13.8061C16.6048 13.4792 16.6061 13.1742 16.6241 12.8421C19.3842 12.7731 22.1871 12.0053 24.3352 10.2384ZM17.5996 19.7964C18.1346 20.4029 18.7349 20.9385 19.397 21.3992C18.6894 21.9379 17.7247 22.8077 16.893 24.0326C16.3866 23.1011 15.8149 22.3327 15.2877 21.7299C16.1468 21.2104 16.9286 20.56 17.5996 19.7964ZM20.7926 22.2072C22.2333 22.8816 23.7021 23.1788 25.1395 23.1579C26.5562 23.1381 27.9378 22.8223 29.2188 22.2147C31.5105 23.7351 33.1331 26.2012 33.3613 29.0242H16.6387C16.874 26.1206 18.5741 23.6738 20.7926 22.2072ZM30.6121 21.4071C31.2601 20.9565 31.8581 20.4281 32.4071 19.804C33.0767 20.5643 33.8563 21.2121 34.7125 21.7298C34.1849 22.3329 33.6128 23.1019 33.1062 24.0343C32.278 22.8148 31.3184 21.9467 30.6121 21.4071ZM36.6992 5.50791C37.6865 5.11201 38.7308 4.91172 39.8115 4.91172C42.2723 4.91172 44.6173 6.00654 46.2033 7.86884C43.4388 10.3657 38.9441 11.2783 35.2042 11.3824H34.6678C34.5803 10.9409 34.4388 10.4186 34.268 9.94834C35.7742 9.34785 36.7669 7.89375 36.7669 6.24209C36.7669 5.98974 36.7395 5.72461 36.6992 5.50791ZM32.7744 3.71465C34.1748 3.71465 35.302 4.85595 35.302 6.24218C35.302 7.27988 34.6449 8.23281 33.6643 8.60576C32.9843 7.32363 31.889 6.06035 30.5042 5.12822C30.9214 4.27588 31.7942 3.71465 32.7744 3.71465ZM25 4.91172C28.8729 4.91172 32.2686 7.5833 33.1645 11.3682C30.7957 11.2682 28.4261 10.6129 26.5947 9.10644C25.6723 8.34853 24.3315 8.34541 23.4053 9.10644C21.5759 10.6071 19.2087 11.2675 16.8352 11.3683C17.7386 7.55478 21.1579 4.91172 25 4.91172ZM10.1885 4.91172C12.7096 4.91172 15.1041 6.05791 16.6911 8.00127C16.1753 8.80908 15.7393 9.77177 15.4713 10.7817C13.7882 9.70927 11.747 9.74004 9.771 9.77519C7.41113 9.81757 5.27471 9.83984 3.40107 8.36933C4.9791 6.19326 7.47305 4.91172 10.1885 4.91172ZM1.81318 13.806C1.72686 12.3495 2.01201 10.9229 2.64141 9.6333C4.79277 11.2363 7.12158 11.2881 9.79707 11.2397C11.7935 11.2047 13.7494 11.1374 15.1861 12.3953C15.1434 12.8649 15.1319 13.3859 15.162 13.8927C15.2609 15.5613 15.7831 17.1793 16.6953 18.5992C15.1349 20.5109 12.7831 21.6584 10.3071 21.693C5.89531 21.7533 2.08008 18.3096 1.81318 13.806ZM6.63242 22.4908C7.80645 22.9481 9.06133 23.1762 10.3276 23.1577C11.4924 23.1415 12.7527 22.9082 13.9372 22.4192C14.6143 23.1438 15.4227 24.2014 16.0231 25.5849C15.5271 26.6874 15.2511 27.8372 15.1694 29.0241H3.77559C3.9875 25.9184 5.51143 23.7131 6.63242 22.4908ZM34.8307 29.0242C34.7449 27.771 34.4439 26.6251 33.9763 25.5862C34.5768 24.2022 35.3853 23.1444 36.0625 22.4197C37.2477 22.9088 38.5129 23.1416 39.6725 23.1578C40.8851 23.1754 42.1413 22.9686 43.3676 22.4908C44.4886 23.7131 46.0125 25.9184 46.2244 29.0242H34.8307Z" fill="black"/>
</g>
<defs>
<clipPath id="clip0_327_1101">
<rect width="50" height="50" fill="white"/>
</clipPath>
</defs>
</svg>
