<svg width="50" height="50" viewBox="0 0 50 50" fill="none" xmlns="http://www.w3.org/2000/svg">
<g clip-path="url(#clip0_327_1139)">
<path d="M25 50C38.8071 50 50 38.8071 50 25C50 11.1929 38.8071 0 25 0C11.1929 0 0 11.1929 0 25C0 38.8071 11.1929 50 25 50Z" fill="#E9336D"/>
<path d="M49.996 25.3623L39.4732 14.8395H38.042L34.2334 11.0048L30.305 17.3368L28.1753 15.1884H26.6478L24.597 13.1363L22.8882 15.1884H17.7538L15.703 13.1363L10.5273 38.7023L21.593 49.768C22.7074 49.9197 23.8446 50 25.0006 50C38.6866 50 49.802 39.0021 49.996 25.3623Z" fill="#B12E65"/>
<path d="M34.2321 11.0048H32.5234V14.0981H34.2321V11.0048Z" fill="#D65A2F"/>
<path d="M34.2339 11.0048H33.3789V14.0981H34.2339V11.0048Z" fill="#A03914"/>
<path d="M39.4727 19.9055H37.764V16.5482H35.5977V14.8396H39.4727V19.9055Z" fill="#A03914"/>
<path d="M28.1752 15.1884H10.5273V38.7023H28.1752V15.1884Z" fill="#91F5E7"/>
<path d="M28.1755 15.1884H19.3516V38.7023H28.1755V15.1884Z" fill="#00E3DF"/>
<path d="M36.4521 13.3856L36.4516 25.1896V26.0844L36.4129 26.8983L35.8535 38.7022H30.9033L30.3451 26.8983L30.3047 26.0439V13.3856H36.4521Z" fill="#0099FC"/>
<path d="M15.7028 13.1362H13.9941V17.3725H15.7028V13.1362Z" fill="#8F97AF"/>
<path d="M24.5974 13.1362H22.8887V17.3725H24.5974V13.1362Z" fill="#7A869A"/>
<path d="M23.7977 20.8682H14.9043V22.5769H23.7977V20.8682Z" fill="#00B5FF"/>
<path d="M23.7977 24.9036H14.9043V26.6123H23.7977V24.9036Z" fill="#00B5FF"/>
<path d="M23.7977 28.9386H14.9043V30.6473H23.7977V28.9386Z" fill="#00B5FF"/>
<path d="M23.7982 20.8682H19.3516V22.5769H23.7982V20.8682Z" fill="#0099FC"/>
<path d="M23.7982 24.9036H19.3516V26.6123H23.7982V24.9036Z" fill="#0099FC"/>
<path d="M23.7982 28.9386H19.3516V30.6473H23.7982V28.9386Z" fill="#0099FC"/>
<path d="M36.4529 13.3856L36.4523 25.1896V26.0844L36.4137 26.8983L35.8543 38.7022H33.3789V13.3856H36.4529Z" fill="#0065F9"/>
<path d="M36.4516 25.1896V26.0844L36.4129 26.8983H30.3451L30.3047 26.0439V25.1896H36.4516Z" fill="#FFAF3E"/>
<path d="M36.4523 25.1896V26.0844L36.4137 26.8983H33.3789V25.1896H36.4523Z" fill="#FF9500"/>
</g>
<defs>
<clipPath id="clip0_327_1139">
<rect width="50" height="50" fill="white"/>
</clipPath>
</defs>
</svg>
