<svg width="50" height="50" viewBox="0 0 50 50" fill="none" xmlns="http://www.w3.org/2000/svg">
<g clip-path="url(#clip0_328_1556)">
<path d="M24.046 41.6666H4.99922C3.1583 41.6666 1.66602 40.1742 1.66602 38.3334V35H27.2478L24.046 41.6666Z" fill="#D3DCFB"/>
<path d="M45.0025 15V29.0037V38.3332H4.99922C3.1583 38.3332 1.66602 36.8408 1.66602 34.9999V15L25.001 6.6666L45.0025 15Z" fill="#EBF5FC"/>
<path d="M7.55205 21.6667H5.78125C5.3498 21.6667 5 21.3169 5 20.8855V19.1147C5 18.6832 5.3498 18.3334 5.78125 18.3334H7.55205C7.9835 18.3334 8.3333 18.6832 8.3333 19.1147V20.8855C8.3333 21.3169 7.9835 21.6667 7.55205 21.6667Z" fill="#3C58A0"/>
<path d="M14.2181 21.6667H12.4473C12.0158 21.6667 11.666 21.3169 11.666 20.8855V19.1147C11.666 18.6832 12.0158 18.3334 12.4473 18.3334H14.2181C14.6495 18.3334 14.9993 18.6832 14.9993 19.1147V20.8855C14.9993 21.3169 14.6495 21.6667 14.2181 21.6667Z" fill="#3C58A0"/>
<path d="M20.886 21.6667H19.1152C18.6838 21.6667 18.334 21.3169 18.334 20.8855V19.1147C18.334 18.6832 18.6838 18.3334 19.1152 18.3334H20.886C21.3175 18.3334 21.6673 18.6832 21.6673 19.1147V20.8855C21.6673 21.3169 21.3176 21.6667 20.886 21.6667Z" fill="#3C58A0"/>
<path d="M27.5521 21.6667H25.7812C25.3498 21.6667 25 21.3169 25 20.8855V19.1147C25 18.6832 25.3498 18.3334 25.7812 18.3334H27.5521C27.9835 18.3334 28.3333 18.6832 28.3333 19.1147V20.8855C28.3333 21.3169 27.9835 21.6667 27.5521 21.6667Z" fill="#3C58A0"/>
<path d="M34.2181 21.6667H32.4473C32.0158 21.6667 31.666 21.3169 31.666 20.8855V19.1147C31.666 18.6832 32.0158 18.3334 32.4473 18.3334H34.2181C34.6495 18.3334 34.9993 18.6832 34.9993 19.1147V20.8855C34.9993 21.3169 34.6496 21.6667 34.2181 21.6667Z" fill="#3C58A0"/>
<path d="M40.8841 21.6667H39.1133C38.6818 21.6667 38.332 21.3169 38.332 20.8855V19.1147C38.332 18.6832 38.6818 18.3334 39.1133 18.3334H40.8841C41.3155 18.3334 41.6653 18.6832 41.6653 19.1147V20.8855C41.6653 21.3169 41.3155 21.6667 40.8841 21.6667Z" fill="#3C58A0"/>
<path d="M7.55205 28.3333H5.78125C5.3498 28.3333 5 27.9835 5 27.5521V25.7812C5 25.3498 5.3498 25 5.78125 25H7.55205C7.9835 25 8.3333 25.3498 8.3333 25.7812V27.5521C8.3333 27.9836 7.9835 28.3333 7.55205 28.3333Z" fill="#3C58A0"/>
<path d="M14.2181 28.3333H12.4473C12.0158 28.3333 11.666 27.9835 11.666 27.5521V25.7812C11.666 25.3498 12.0158 25 12.4473 25H14.2181C14.6495 25 14.9993 25.3498 14.9993 25.7812V27.5521C14.9993 27.9836 14.6495 28.3333 14.2181 28.3333Z" fill="#3C58A0"/>
<path d="M20.886 28.3333H19.1152C18.6838 28.3333 18.334 27.9835 18.334 27.5521V25.7812C18.334 25.3498 18.6838 25 19.1152 25H20.886C21.3175 25 21.6673 25.3498 21.6673 25.7812V27.5521C21.6673 27.9836 21.3176 28.3333 20.886 28.3333Z" fill="#3C58A0"/>
<path d="M28.3333 28.3333V25.8333C28.3333 25.373 27.9603 25 27.5 25H25.8333C25.373 25 25 25.373 25 25.8333V27.5C25 27.9603 25.3731 28.3333 25.8333 28.3333H28.3333Z" fill="#3C58A0"/>
<path d="M7.55205 35H5.78125C5.3498 35 5 34.6502 5 34.2188V32.448C5 32.0165 5.3498 31.6667 5.78125 31.6667H7.55205C7.9835 31.6667 8.3333 32.0165 8.3333 32.448V34.2188C8.3333 34.6502 7.9835 35 7.55205 35Z" fill="#3C58A0"/>
<path d="M14.2181 35H12.4473C12.0158 35 11.666 34.6502 11.666 34.2188V32.448C11.666 32.0165 12.0158 31.6667 12.4473 31.6667H14.2181C14.6495 31.6667 14.9993 32.0165 14.9993 32.448V34.2188C14.9993 34.6502 14.6495 35 14.2181 35Z" fill="#3C58A0"/>
<path d="M20.886 35H19.1152C18.6838 35 18.334 34.6502 18.334 34.2188V32.448C18.334 32.0165 18.6838 31.6667 19.1152 31.6667H20.886C21.3175 31.6667 21.6673 32.0165 21.6673 32.448V34.2188C21.6673 34.6502 21.3176 35 20.886 35Z" fill="#3C58A0"/>
<path d="M40.8605 18.3333H39.1369C39.0326 18.3333 38.9333 18.3538 38.8418 18.3899C39.1401 18.5076 39.3515 18.7979 39.3515 19.1381V20.8617C39.3515 21.202 39.14 21.4922 38.8418 21.61C38.9333 21.6461 39.0326 21.6666 39.1369 21.6666H40.8605C41.3051 21.6666 41.6654 21.3063 41.6654 20.8618V19.1382C41.6653 18.6937 41.305 18.3333 40.8605 18.3333Z" fill="#2A428C"/>
<path d="M34.1945 18.3333H32.4709C32.3666 18.3333 32.2673 18.3538 32.1758 18.3899C32.4741 18.5076 32.6854 18.7979 32.6854 19.1381V20.8617C32.6854 21.202 32.474 21.4922 32.1758 21.61C32.2673 21.6461 32.3666 21.6666 32.4709 21.6666H34.1945C34.6391 21.6666 34.9993 21.3063 34.9993 20.8618V19.1382C34.9993 18.6937 34.6391 18.3333 34.1945 18.3333Z" fill="#2A428C"/>
<path d="M27.5285 18.3333H25.8049C25.7006 18.3333 25.6013 18.3538 25.5098 18.3899C25.8081 18.5076 26.0195 18.7979 26.0195 19.1381V20.8617C26.0195 21.202 25.8081 21.4922 25.5098 21.61C25.6013 21.6461 25.7006 21.6666 25.8049 21.6666H27.5285C27.973 21.6666 28.3334 21.3063 28.3334 20.8618V19.1382C28.3333 18.6937 27.9729 18.3333 27.5285 18.3333Z" fill="#2A428C"/>
<path d="M20.8625 18.3333H19.1389C19.0346 18.3333 18.9353 18.3538 18.8438 18.3899C19.1421 18.5076 19.3535 18.7979 19.3535 19.1381V20.8617C19.3535 21.202 19.1421 21.4922 18.8438 21.61C18.9353 21.6461 19.0346 21.6666 19.1389 21.6666H20.8625C21.307 21.6666 21.6674 21.3063 21.6674 20.8618V19.1382C21.6673 18.6937 21.307 18.3333 20.8625 18.3333Z" fill="#2A428C"/>
<path d="M14.1965 18.3333H12.4729C12.3686 18.3333 12.2692 18.3538 12.1777 18.3899C12.4761 18.5076 12.6874 18.7979 12.6874 19.1381V20.8617C12.6874 21.202 12.476 21.4922 12.1777 21.61C12.2692 21.6461 12.3686 21.6666 12.4729 21.6666H14.1965C14.641 21.6666 15.0014 21.3063 15.0014 20.8618V19.1382C15.0014 18.6937 14.641 18.3333 14.1965 18.3333Z" fill="#2A428C"/>
<path d="M7.52852 18.3333H5.80488C5.70059 18.3333 5.60127 18.3538 5.50977 18.3899C5.80811 18.5076 6.01953 18.7979 6.01953 19.1381V20.8617C6.01953 21.202 5.80811 21.4922 5.50977 21.61C5.60127 21.6461 5.70059 21.6666 5.80488 21.6666H7.52852C7.97305 21.6666 8.3334 21.3063 8.3334 20.8618V19.1382C8.3333 18.6937 7.97295 18.3333 7.52852 18.3333Z" fill="#2A428C"/>
<path d="M7.52852 25H5.80488C5.70059 25 5.60127 25.0205 5.50977 25.0565C5.80811 25.1743 6.01953 25.4646 6.01953 25.8048V27.5285C6.01953 27.8687 5.80811 28.159 5.50977 28.2768C5.60127 28.3129 5.70059 28.3334 5.80488 28.3334H7.52852C7.97305 28.3334 8.3334 27.973 8.3334 27.5286V25.8049C8.3333 25.3604 7.97295 25 7.52852 25Z" fill="#2A428C"/>
<path d="M7.52852 31.6667H5.80488C5.70059 31.6667 5.60127 31.6872 5.50977 31.7232C5.80811 31.841 6.01953 32.1312 6.01953 32.4715V34.1952C6.01953 34.5354 5.80811 34.8257 5.50977 34.9434C5.60127 34.9796 5.70059 35.0001 5.80488 35.0001H7.52852C7.97305 35.0001 8.3334 34.6397 8.3334 34.1953V32.4716C8.3333 32.0269 7.97295 31.6667 7.52852 31.6667Z" fill="#2A428C"/>
<path d="M14.1965 25H12.4729C12.3686 25 12.2692 25.0205 12.1777 25.0565C12.4761 25.1743 12.6874 25.4646 12.6874 25.8048V27.5285C12.6874 27.8687 12.476 28.159 12.1777 28.2768C12.2692 28.3129 12.3686 28.3334 12.4729 28.3334H14.1965C14.641 28.3334 15.0014 27.973 15.0014 27.5286V25.8049C15.0014 25.3604 14.641 25 14.1965 25Z" fill="#2A428C"/>
<path d="M14.1965 31.6667H12.4729C12.3686 31.6667 12.2692 31.6872 12.1777 31.7232C12.4761 31.841 12.6874 32.1312 12.6874 32.4715V34.1952C12.6874 34.5354 12.476 34.8257 12.1777 34.9434C12.2692 34.9796 12.3686 35.0001 12.4729 35.0001H14.1965C14.641 35.0001 15.0014 34.6397 15.0014 34.1953V32.4716C15.0014 32.0269 14.641 31.6667 14.1965 31.6667Z" fill="#2A428C"/>
<path d="M20.8625 25H19.1389C19.0346 25 18.9353 25.0205 18.8438 25.0565C19.1421 25.1743 19.3535 25.4646 19.3535 25.8048V27.5285C19.3535 27.8687 19.1421 28.159 18.8438 28.2768C18.9353 28.3129 19.0346 28.3334 19.1389 28.3334H20.8625C21.307 28.3334 21.6674 27.973 21.6674 27.5286V25.8049C21.6673 25.3604 21.307 25 20.8625 25Z" fill="#2A428C"/>
<path d="M28.3334 28.3333V25.8048C28.3334 25.3603 27.973 25 27.5285 25H25.8049C25.7006 25 25.6013 25.0205 25.5098 25.0565C25.8081 25.1743 26.0195 25.4646 26.0195 25.8048V27.5285C26.0195 27.8687 25.8081 28.159 25.5098 28.2768C25.6013 28.3129 25.7006 28.3334 25.8049 28.3334H28.3334V28.3333Z" fill="#2A428C"/>
<path d="M20.8625 31.6667H19.1389C19.0346 31.6667 18.9353 31.6872 18.8438 31.7232C19.1421 31.841 19.3535 32.1312 19.3535 32.4715V34.1952C19.3535 34.5354 19.1421 34.8257 18.8438 34.9434C18.9353 34.9796 19.0346 35.0001 19.1389 35.0001H20.8625C21.307 35.0001 21.6674 34.6397 21.6674 34.1953V32.4716C21.6673 32.0269 21.307 31.6667 20.8625 31.6667Z" fill="#2A428C"/>
<path d="M42.6875 14.0352V29.0037V38.3333H45.003V29.0037V15L42.6875 14.0352Z" fill="#D3DCFB"/>
<path d="M45.0025 15V6.66661C45.0025 4.82569 43.5102 3.3334 41.6693 3.3334H4.99922C3.1583 3.3334 1.66602 4.82569 1.66602 6.66661V15H45.0025Z" fill="#FF4155"/>
<path d="M12.1683 7.42118H9.99863C9.58184 7.42118 9.24414 7.08339 9.24414 6.66669C9.24414 6.24999 9.58193 5.9122 9.99863 5.9122H12.1683C12.5851 5.9122 12.9228 6.24999 12.9228 6.66669C12.9228 7.08339 12.585 7.42118 12.1683 7.42118Z" fill="#E80054"/>
<path d="M17.4983 7.42118H15.3287C14.9119 7.42118 14.5742 7.08339 14.5742 6.66669C14.5742 6.24999 14.912 5.9122 15.3287 5.9122H17.4983C17.9151 5.9122 18.2528 6.24999 18.2528 6.66669C18.2528 7.08339 17.9151 7.42118 17.4983 7.42118Z" fill="#E80054"/>
<path d="M31.3363 7.42118H29.1666C28.7498 7.42118 28.4121 7.08339 28.4121 6.66669C28.4121 6.24999 28.7499 5.9122 29.1666 5.9122H31.3363C31.7531 5.9122 32.0908 6.24999 32.0908 6.66669C32.0908 7.08339 31.7531 7.42118 31.3363 7.42118Z" fill="#E80054"/>
<path d="M36.6664 7.42118H34.4967C34.0799 7.42118 33.7422 7.08339 33.7422 6.66669C33.7422 6.24999 34.08 5.9122 34.4967 5.9122H36.6664C37.0832 5.9122 37.4209 6.24999 37.4209 6.66669C37.4209 7.08339 37.0831 7.42118 36.6664 7.42118Z" fill="#E80054"/>
<path d="M15.8326 6.25C15.8326 7.40059 14.8999 8.3333 13.7493 8.3333C12.5987 8.3333 11.666 7.40059 11.666 6.25V2.0833C11.6659 0.932715 12.5986 0 13.7492 0C14.8998 0 15.8325 0.932715 15.8325 2.0833V6.25H15.8326Z" fill="#EBF5FC"/>
<path d="M35.0007 6.25C35.0007 7.40059 34.068 8.3333 32.9174 8.3333C31.7668 8.3333 30.834 7.40059 30.834 6.25V2.0833C30.834 0.932715 31.7667 0 32.9173 0C34.0679 0 35.0006 0.932715 35.0006 2.0833V6.25H35.0007Z" fill="#EBF5FC"/>
<path d="M32.9176 0C32.4898 0 32.0926 0.129297 31.7617 0.350391C32.3208 0.724024 32.6893 1.36045 32.6893 2.0834V6.25C32.6893 6.97285 32.3208 7.60938 31.7617 7.98301C32.0925 8.204 32.4898 8.3334 32.9176 8.3334C34.0682 8.3334 35.0009 7.40068 35.0009 6.2501V2.0833C35.001 0.932715 34.0683 0 32.9176 0Z" fill="#D3DCFB"/>
<path d="M13.7496 0C13.3219 0 12.9246 0.129297 12.5938 0.350391C13.1528 0.724024 13.5213 1.36045 13.5213 2.0834V6.25C13.5213 6.97285 13.1528 7.60938 12.5938 7.98301C12.9245 8.204 13.3219 8.3334 13.7496 8.3334C14.9002 8.3334 15.8329 7.40068 15.8329 6.2501V2.0833C15.833 0.932715 14.9003 0 13.7496 0Z" fill="#D3DCFB"/>
<path d="M41.6702 3.33331H39.3555C41.1964 3.33331 42.6887 4.8256 42.6887 6.66652V15H45.0033V6.66661C45.0034 4.8257 43.511 3.33331 41.6702 3.33331Z" fill="#E80054"/>
<path d="M1.66602 10.9121H45.0026V12.4212H1.66602V10.9121Z" fill="#E80054"/>
<path d="M35.834 50C42.7375 50 48.334 44.4036 48.334 37.5C48.334 30.5964 42.7375 25 35.834 25C28.9304 25 23.334 30.5964 23.334 37.5C23.334 44.4036 28.9304 50 35.834 50Z" fill="#4FABF7"/>
<path d="M35.8347 46.6667C40.8973 46.6667 45.0014 42.5626 45.0014 37.5C45.0014 32.4374 40.8973 28.3333 35.8347 28.3333C30.772 28.3333 26.668 32.4374 26.668 37.5C26.668 42.5626 30.772 46.6667 35.8347 46.6667Z" fill="#EBF5FC"/>
<path d="M35.8346 36.5878C35.4178 36.5878 35.0801 36.25 35.0801 35.8333V31.6666C35.0801 31.2499 35.4179 30.9121 35.8346 30.9121C36.2514 30.9121 36.5891 31.2499 36.5891 31.6666V35.8333C36.5891 36.25 36.2513 36.5878 35.8346 36.5878Z" fill="#3C58A0"/>
<path d="M40.0007 38.2545H37.5006C37.0838 38.2545 36.7461 37.9167 36.7461 37.5C36.7461 37.0833 37.0839 36.7455 37.5006 36.7455H40.0007C40.4175 36.7455 40.7552 37.0833 40.7552 37.5C40.7552 37.9167 40.4174 38.2545 40.0007 38.2545Z" fill="#3C58A0"/>
<path d="M35.8348 25C35.4446 25 35.0589 25.0188 34.6778 25.0538C41.0389 25.6377 46.0208 30.9866 46.0208 37.5C46.0208 44.0134 41.0388 49.3623 34.6777 49.9462C35.0588 49.9812 35.4445 50 35.8347 50C42.7382 50 48.3347 44.4035 48.3347 37.5C48.3347 30.5965 42.7383 25 35.8348 25Z" fill="#1886EA"/>
<path d="M35.8339 28.3333C35.4423 28.3333 35.0564 28.358 34.6777 28.4057C39.1945 28.9741 42.6883 32.829 42.6883 37.5C42.6883 42.171 39.1945 46.0259 34.6777 46.5943C35.0564 46.642 35.4423 46.6667 35.8339 46.6667C40.8965 46.6667 45.0006 42.5626 45.0006 37.5C45.0006 32.4374 40.8965 28.3333 35.8339 28.3333Z" fill="#D3DCFB"/>
<path d="M35.8347 39.1667C36.7552 39.1667 37.5014 38.4205 37.5014 37.5C37.5014 36.5795 36.7552 35.8333 35.8347 35.8333C34.9142 35.8333 34.168 36.5795 34.168 37.5C34.168 38.4205 34.9142 39.1667 35.8347 39.1667Z" fill="#FFDD40"/>
</g>
<defs>
<clipPath id="clip0_328_1556">
<rect width="50" height="50" fill="white"/>
</clipPath>
</defs>
</svg>
