<svg width="80" height="80" viewBox="0 0 80 80" fill="none" xmlns="http://www.w3.org/2000/svg">
<g clip-path="url(#clip0_547_4682)">
<path d="M71.3978 60.3583L70.1515 59.943C69.0978 59.5916 68.387 58.6055 68.387 57.4947V57.307L62.089 57.1092L57.9148 64.5073L71.0821 66.6792L71.3978 60.3583Z" fill="#FBBD80"/>
<path d="M60.6451 52.9033V57.4949C60.6451 58.4192 60.152 59.2558 59.3795 59.7134L60.3012 62.1452C61.5512 61.5438 62.4862 60.47 62.9278 59.1841C63.1597 58.5091 63.7889 58.0633 64.5025 58.0645H64.5161C65.8861 58.0645 67.1908 57.7917 68.387 57.3072V52.9033H60.6451Z" fill="#F4AA73"/>
<path d="M76.4709 62.0494L71.3978 60.3584L65.9476 63.9919C65.0808 64.5698 63.9516 64.5698 63.0847 63.9919L57.6345 60.3584L58.0645 74.8387H72.2581L73.5484 73.8486L74.8387 74.8387H76.1291C78.2669 74.8387 80 73.1056 80 70.9678V66.9458C80 64.7242 78.5784 62.7519 76.4709 62.0494Z" fill="#B8B2B8"/>
<path d="M59.6977 62.3909C59.9081 62.3208 60.108 62.2322 60.3036 62.1378L57.6345 60.3584L52.5614 62.0495C50.4539 62.752 49.0323 64.7244 49.0323 66.9459V70.9678C49.0323 72.6508 50.113 74.0684 51.613 74.6017V66.9456C51.613 65.833 52.3223 64.8495 53.3783 64.498L59.6977 62.3909Z" fill="#4E3D4D"/>
<path d="M67.0967 36.1291H61.9355C61.4936 36.1291 61.062 36.1728 60.6452 36.2575L58.3392 46.4517H72.2581C73.0844 45.6255 73.5485 44.505 73.5485 43.3366V42.5808C73.5485 39.0175 70.6599 36.1291 67.0967 36.1291Z" fill="#D48C64"/>
<path d="M60.6451 36.2574C57.7005 36.8553 55.4839 39.4594 55.4839 42.5806V43.3364C55.4839 44.5049 55.948 45.6253 56.7742 46.4516H60.6451V36.2574Z" fill="#C6805D"/>
<path d="M61.8425 42.9797C61.4519 42.8495 61.0415 42.8164 60.6445 42.8756L57.8131 46.5889C57.8131 50.8647 60.2403 55.2936 64.5161 55.2936C65.1853 55.2936 65.8345 55.3987 66.4539 55.2392C69.7919 54.3791 72.258 51.3484 72.258 47.7419V46.4516L61.8425 42.9797Z" fill="#FFD18D"/>
<path d="M60.6451 47.7419V42.8756C60.2745 42.9311 59.9149 43.0673 59.5949 43.2806L57.3487 44.7781C56.9898 45.0175 56.7742 45.4203 56.7742 45.8517V47.7419C56.7742 52.0176 60.2403 55.4837 64.516 55.4837C65.1856 55.4837 65.8342 55.399 66.4539 55.2392C63.1167 54.3786 60.6451 51.3481 60.6451 47.7419Z" fill="#FBBD80"/>
<path d="M74.8388 74.8388H72.2582V69.6775C72.2582 68.9649 72.8358 68.3872 73.5485 68.3872C74.2611 68.3872 74.8388 68.9649 74.8388 69.6775V74.8388Z" fill="#B0A8AF"/>
<path d="M23.062 60.5906L21.1194 59.943C20.0656 59.5916 19.3548 58.6055 19.3548 57.4947V57.307L12.5756 57.3128L7.63782 66.0855L23.062 66.6963V60.5906Z" fill="#AF6E4D"/>
<path d="M11.6129 52.9033V57.495C11.6129 58.6058 10.9021 59.5919 9.84839 59.9431L8.60229 60.3584L9.95386 62.6283L10.6654 62.3909C12.2179 61.8733 13.3856 60.6695 13.8957 59.1841C14.1275 58.5091 14.7568 58.0633 15.4704 58.0645H15.484C16.854 58.0645 18.1589 57.7917 19.355 57.3072V52.9033H11.6129Z" fill="#845252"/>
<path d="M27.4388 62.0494L22.3657 60.3584L16.9155 63.9919C16.0486 64.5698 14.9194 64.5698 14.0525 63.9919L11.2782 62.1423L4.49879 62.8786C2.39129 63.5811 0.969727 65.5534 0.969727 67.7748V71.7969L2.58066 74.62C2.9841 74.7625 3.41879 74.8386 3.87098 74.8386H5.16129L6.50098 73.7042L7.74191 74.8386H21.9355L30.9677 66.9455C30.9679 64.7242 29.5463 62.7519 27.4388 62.0494Z" fill="#887F88"/>
<path d="M7.74188 74.8388H5.16125V69.6775C5.16125 68.9649 5.73891 68.3872 6.45157 68.3872C7.16422 68.3872 7.74188 68.9649 7.74188 69.6775V74.8388Z" fill="#736572"/>
<path d="M47.9423 54.4564C47.0201 53.737 46.4517 52.6201 46.4517 51.4034V48.8962L34.6345 48.8287L33.5486 57.788L39.4536 66.0684L47.9423 54.4564Z" fill="#E29A6C"/>
<path d="M33.5485 43.8709V51.4034C33.5485 52.6203 32.9797 53.7375 32.0572 54.4569L31.5294 56.0233L33.9218 56.2616C35.2947 55.0611 36.1291 53.3041 36.1291 51.4008C36.1291 50.6002 36.8452 50.0025 37.6357 50.13C38.4061 50.2542 39.1947 50.3225 40 50.3225C42.3043 50.3225 44.4847 49.8028 46.4516 48.8963V43.8709H33.5485Z" fill="#D48C64"/>
<path d="M47.9424 54.4564L40.8971 61.2725C40.3969 61.7563 39.6032 61.7563 39.103 61.2725L33.9217 56.2616L31.6349 55.7675L29.6774 61.9356L36.1289 74.8389H43.8708L50.3224 61.9356L47.9424 54.4564Z" fill="#ECEAEC"/>
<path d="M31.0018 57.7622L31.7162 57.5239C32.5457 57.2474 33.2907 56.813 33.9217 56.2616L32.0571 54.4569L31.0018 57.7622Z" fill="#DBD8DB"/>
<path d="M29.4252 58.0427L20.0078 60.3842L19.0406 70.8706L20.6452 74.6191C21.0488 74.7617 21.4831 74.8388 21.9355 74.8388H30.9677L29.4252 58.0427Z" fill="#615260"/>
<path d="M27.4008 56.2428L21.5938 58.1785C19.4861 58.881 18.0646 60.8533 18.0646 63.0749V70.9677C18.0646 72.6506 19.1452 74.0856 20.6452 74.6189V63.0764C20.6452 61.965 21.3563 60.9785 22.4107 60.6269L28.6896 58.5333L27.4008 56.2428Z" fill="#4E3D4D"/>
<path d="M40 23.2258C44.9883 23.2258 49.0321 19.1819 49.0321 14.1936C49.0321 9.20525 44.9883 5.16141 40 5.16141C35.0116 5.16141 30.9678 9.20525 30.9678 14.1936C30.9678 19.1819 35.0116 23.2258 40 23.2258Z" fill="#845252"/>
<path d="M28.1757 14.7544C24.4357 17.0139 21.9354 21.1181 21.9354 25.8064C21.9354 32.9326 27.7123 38.7097 34.8387 38.7097H49.7871L28.1757 14.7544Z" fill="#70393C"/>
<path d="M38.2995 23.2258C33.3111 23.2258 29.2673 27.2697 29.2673 32.2581V34.8387C29.2673 41.965 32.8737 47.5562 40 47.5562L42.5809 47.4839C48.4705 46.2883 52.9033 41.0811 52.9033 34.8387V23.2258H38.2995Z" fill="#F4AA73"/>
<path d="M32.2582 34.8388V30.9678C32.2582 26.692 35.7243 23.226 40 23.226H36.1291C31.1408 23.226 27.0969 27.2699 27.0969 32.2581V34.8388C27.0969 41.965 32.874 47.742 40.0002 47.742C40.8841 47.742 41.7471 47.6531 42.581 47.4839C36.6913 46.2881 32.2582 41.0811 32.2582 34.8388Z" fill="#E29A6C"/>
<path d="M58.0646 25.8064C58.0646 18.6802 52.2875 12.9031 45.1613 12.9031H34.8386C32.4011 12.9031 30.1203 13.5797 28.1757 14.7542C30.255 19.5428 35.8683 28.2416 49.4394 29.5188C51.4088 29.7041 52.903 31.3847 52.903 33.3628V36.1113C56.0321 33.7569 58.0646 30.0238 58.0646 25.8064Z" fill="#7A4646"/>
<path d="M32.0572 54.4569C31.7169 54.722 31.3273 54.9339 30.9016 55.0758L27.4008 56.2427L25.1033 60.7767C24.7339 61.5056 24.7316 62.3664 25.097 63.0972L30.9678 74.8386H36.1291L32.0572 54.4569Z" fill="#736572"/>
<path d="M58.4063 58.1785L52.5993 56.2427L49.0322 74.8386H58.0644C60.2024 74.8386 61.9353 73.1055 61.9353 70.9677V63.075C61.9355 60.8533 60.5139 58.881 58.4063 58.1785Z" fill="#615260"/>
<path d="M47.9423 54.4564C48.2827 54.7216 48.6727 54.9339 49.0986 55.0758L52.5994 56.2427L54.8969 60.7767C55.2663 61.5056 55.2686 62.3664 54.9031 63.0972L49.0323 74.8386H43.8711L47.9423 54.4564Z" fill="#736572"/>
<path d="M18.0645 36.1291H12.9033C12.4614 36.1291 12.0299 36.1728 11.613 36.2575L9.30688 46.4516H23.2258C24.052 45.6253 24.5161 44.5048 24.5161 43.3364V42.5806C24.5161 39.0175 21.6277 36.1291 18.0645 36.1291Z" fill="#615260"/>
<path d="M11.6129 36.2574C8.66822 36.8553 6.45166 39.4594 6.45166 42.5806V43.3364C6.45166 44.5049 6.91572 45.6253 7.74197 46.4516H11.6129V36.2574Z" fill="#4E3D4D"/>
<path d="M12.8103 42.9797C12.4196 42.8495 12.0093 42.8164 11.6123 42.8756L8.78088 46.5891C8.78088 50.8648 11.2081 55.2937 15.4839 55.2937C16.1531 55.2937 16.8023 55.3989 17.4217 55.2394C20.7596 54.3792 23.2257 51.3486 23.2257 47.742V46.4517L12.8103 42.9797Z" fill="#C6805D"/>
<path d="M11.613 47.7419V42.8756C11.2424 42.9311 10.8828 43.0673 10.5628 43.2806L8.3166 44.7781C7.95769 45.0175 7.74207 45.4203 7.74207 45.8517V47.7419C7.74207 52.0176 11.2082 55.4837 15.4839 55.4837C16.1535 55.4837 16.8021 55.399 17.4218 55.2392C14.0844 54.3786 11.613 51.3481 11.613 47.7419Z" fill="#AF6E4D"/>
<path d="M10.6653 62.3909C10.8758 62.3208 11.0823 62.2367 11.2781 62.1423L8.60219 60.3584L3.52891 62.0495C1.42156 62.752 0 64.7242 0 66.9458V70.9676C0 72.6506 1.08063 74.0867 2.58063 74.62V66.9455C2.58063 65.8328 3.29 64.8494 4.34594 64.4978L10.6653 62.3909Z" fill="#736572"/>
</g>
<defs>
<clipPath id="clip0_547_4682">
<rect width="80" height="80" fill="white"/>
</clipPath>
</defs>
</svg>
