<svg width="80" height="80" viewBox="0 0 80 80" fill="none" xmlns="http://www.w3.org/2000/svg">
<path d="M59.5292 71.7812L54.335 58.4525H48.9287V67.572L51.3815 68.2638L53.0797 71.943H53.74V72.2065C53.9444 72.0592 54.2076 71.9964 54.457 72.0558L58.5048 72.9586C59.2017 73.1247 59.7842 72.4356 59.5292 71.7812Z" fill="black"/>
<path d="M58.7105 73.7379C58.5845 73.7379 58.457 73.7231 58.3302 73.6929L54.2928 72.7922C54.0643 72.9588 53.7053 72.9949 53.4518 72.8652C53.3671 72.8217 53.286 72.765 53.2167 72.6979H53.0796C52.7855 72.6979 52.518 72.5269 52.3942 72.2594L50.842 68.8956L48.7238 68.2986C48.3987 68.2065 48.174 67.9094 48.174 67.5719V58.4526C48.174 58.0355 48.5115 57.6979 48.9287 57.6979H54.3348C54.6458 57.6979 54.9251 57.8888 55.0379 58.1784L60.2325 71.5069C60.4543 72.0751 60.3415 72.7156 59.9399 73.177C59.6252 73.5381 59.1763 73.7379 58.7105 73.7379ZM54.264 71.2784C54.3871 71.2784 54.5109 71.2931 54.6325 71.3219L58.6692 72.2225L59.5293 71.781L58.8262 72.0552L53.8188 59.2073H49.6834V67.0007L51.5864 67.5372C51.7987 67.5977 51.9741 67.7473 52.0669 67.9478L53.5624 71.1885H53.74C53.8749 71.1885 54.0016 71.2239 54.1107 71.2858C54.1616 71.2813 54.2132 71.2784 54.264 71.2784Z" fill="black"/>
<path d="M75.8421 11.1569V57.9493C75.8421 62.0248 72.5515 65.3154 68.4911 65.3154H16.0533C11.9779 65.3154 8.68738 62.0248 8.68738 57.9493V11.1569C8.68738 7.08139 11.9779 3.79083 16.0533 3.79083H68.4911C72.5515 3.79083 75.8421 7.08139 75.8421 11.1569Z" fill="black"/>
<path d="M68.4909 66.0698H16.0536C11.5754 66.0698 7.93225 62.4267 7.93225 57.9492V11.1568C7.93225 6.67932 11.5754 3.03619 16.0536 3.03619H68.4909C72.9603 3.03619 76.596 6.67932 76.596 11.1568V57.9492C76.596 62.4267 72.9603 66.0698 68.4909 66.0698ZM16.0536 4.54563C12.4075 4.54563 9.44168 7.51143 9.44168 11.1568V57.9492C9.44168 61.5946 12.4075 64.5604 16.0536 64.5604H68.4909C72.1274 64.5604 75.0866 61.5946 75.0866 57.9492V11.1568C75.0866 7.51143 72.1274 4.54563 68.4909 4.54563H16.0536Z" fill="black"/>
<path d="M71.3138 11.1569V57.9493C71.3138 62.0248 68.0232 65.3154 63.9628 65.3154H11.525C7.44961 65.3154 4.15906 62.0248 4.15906 57.9493V11.1569C4.15906 7.08139 7.44961 3.79083 11.525 3.79083H63.9628C68.0232 3.79083 71.3138 7.08139 71.3138 11.1569Z" fill="white"/>
<path d="M63.9626 66.0698H11.5252C7.04706 66.0698 3.40393 62.4267 3.40393 57.9492V11.1568C3.40393 6.67932 7.04706 3.03619 11.5252 3.03619H63.9626C68.4319 3.03619 72.0684 6.67932 72.0684 11.1568V57.9492C72.0684 62.4267 68.4319 66.0698 63.9626 66.0698ZM11.5252 4.54563C7.87917 4.54563 4.91336 7.51143 4.91336 11.1568V57.9492C4.91336 61.5946 7.87917 64.5604 11.5252 64.5604H63.9626C67.5998 64.5604 70.559 61.5946 70.559 57.9492V11.1568C70.559 7.51143 67.5998 4.54563 63.9626 4.54563H11.5252Z" fill="black"/>
<path d="M71.3138 11.1569V16.3644H4.15906V11.1569C4.15906 7.08139 7.44961 3.79083 11.525 3.79083H63.9628C68.0232 3.79083 71.3138 7.08139 71.3138 11.1569Z" fill="#283E42"/>
<path d="M71.3137 17.1193H4.15865C3.74149 17.1193 3.40393 16.7818 3.40393 16.3646V11.1568C3.40393 6.67932 7.04706 3.03619 11.5252 3.03619H63.9626C68.4319 3.03619 72.0684 6.67932 72.0684 11.1568V16.3646C72.0684 16.7818 71.7309 17.1193 71.3137 17.1193ZM4.91336 15.6099H70.559V11.1568C70.559 7.51143 67.5998 4.54563 63.9626 4.54563H11.5252C7.87917 4.54563 4.91336 7.51143 4.91336 11.1568V15.6099Z" fill="black"/>
<path d="M11.8234 11.84C12.7963 11.84 13.5849 11.0514 13.5849 10.0785C13.5849 9.10564 12.7963 8.31699 11.8234 8.31699C10.8505 8.31699 10.0619 9.10564 10.0619 10.0785C10.0619 11.0514 10.8505 11.84 11.8234 11.84Z" fill="white"/>
<path d="M17.9245 11.84C18.8973 11.84 19.686 11.0514 19.686 10.0785C19.686 9.10564 18.8973 8.31699 17.9245 8.31699C16.9516 8.31699 16.163 9.10564 16.163 10.0785C16.163 11.0514 16.9516 11.84 17.9245 11.84Z" fill="white"/>
<path d="M24.0242 11.84C24.9971 11.84 25.7857 11.0514 25.7857 10.0785C25.7857 9.10564 24.9971 8.31699 24.0242 8.31699C23.0514 8.31699 22.2627 9.10564 22.2627 10.0785C22.2627 11.0514 23.0514 11.84 24.0242 11.84Z" fill="white"/>
<path d="M42.2321 10.8332H38.5219C38.1048 10.8332 37.7672 10.4957 37.7672 10.0785C37.7672 9.66135 38.1048 9.32379 38.5219 9.32379H42.2321C42.6493 9.32379 42.9868 9.66135 42.9868 10.0785C42.9868 10.4957 42.6493 10.8332 42.2321 10.8332Z" fill="black"/>
<path d="M65.4086 10.8332H46.4464C46.0292 10.8332 45.6917 10.4957 45.6917 10.0785C45.6917 9.66135 46.0292 9.32379 46.4464 9.32379H65.4086C65.8258 9.32379 66.1633 9.66135 66.1633 10.0785C66.1633 10.4957 65.8258 10.8332 65.4086 10.8332Z" fill="black"/>
<path d="M37.2151 55.467L45.0794 75.6477C45.3344 76.302 46.2297 76.4152 46.6305 75.8213L48.9999 72.4178C49.2003 72.1209 49.5803 71.9728 49.9287 72.0558L53.9765 72.9586C54.6734 73.1247 55.2559 72.4357 55.0009 71.7813L47.1366 51.6006L37.2151 55.467Z" fill="#283E42"/>
<path d="M45.9047 76.9638C45.8442 76.9638 45.783 76.9601 45.7219 76.9535C45.1131 76.8857 44.5972 76.4899 44.3761 75.9217L36.512 55.7411C36.3609 55.3527 36.5525 54.9149 36.9409 54.7638L46.8628 50.8974C47.0493 50.8229 47.2571 50.8281 47.4406 50.9091C47.6234 50.9902 47.7679 51.1398 47.8401 51.3263L55.7042 71.5069C55.926 72.0759 55.814 72.7156 55.4116 73.177C55.0114 73.6354 54.3974 73.8322 53.8019 73.6929L49.7645 72.7923C49.7623 72.7959 49.6215 72.8461 49.6193 72.849L47.2497 76.2526C46.949 76.6985 46.4434 76.9638 45.9047 76.9638ZM45.7853 75.3733C45.8118 75.3741 45.9997 75.394 46.0115 75.3903L48.3811 71.9867C48.7518 71.4354 49.4453 71.1656 50.1042 71.3219L54.1409 72.2225L55.0011 71.781L54.2979 72.0552L46.708 52.5778L38.1924 55.8959L45.7823 75.3733H45.7853Z" fill="black"/>
<path d="M38.1033 55.4721L30.0061 75.5605C29.7436 76.2119 28.8471 76.3147 28.4532 75.7162L26.1233 72.2855C25.9263 71.9863 25.5481 71.8339 25.1987 71.9128L21.1407 72.7687C20.4419 72.9267 19.8675 72.2311 20.13 71.5797L28.2272 51.4913L38.1033 55.4721Z" fill="#283E42"/>
<path d="M29.1852 76.8665C28.639 76.8665 28.1275 76.5938 27.8224 76.131L25.4993 72.709C25.4941 72.709 25.3593 72.6515 25.3541 72.6515L21.296 73.5072C20.7145 73.6398 20.0984 73.4349 19.7033 72.9706C19.3068 72.5048 19.2021 71.8636 19.4299 71.2976L27.5269 51.2091C27.6831 50.8229 28.1231 50.6372 28.5093 50.7912L38.3855 54.7719C38.5712 54.8471 38.7194 54.9923 38.7975 55.1765C38.8764 55.3608 38.8778 55.5686 38.8034 55.7544L30.7064 75.8428C30.4787 76.4081 29.9583 76.798 29.3488 76.8584C29.2943 76.8643 29.2397 76.8665 29.1852 76.8665ZM25.3895 71.1361C25.9246 71.1361 26.4471 71.4059 26.753 71.8687L29.0776 75.2922L29.306 75.2782L37.1208 55.89L28.6449 52.4739L20.8302 71.8621C20.8339 71.8621 20.9806 72.0302 20.985 72.0302L25.0431 71.1745C25.1573 71.1487 25.2738 71.1361 25.3895 71.1361Z" fill="black"/>
<path d="M17.501 42.0047C17.4892 44.0568 20.1737 45.6736 20.7643 47.5287C21.3763 49.4513 20.1432 52.3188 21.2964 53.9227C22.4611 55.5427 25.5803 55.286 27.1866 56.4693C28.7771 57.6409 29.4551 60.7012 31.3702 61.3353C33.2184 61.9473 35.5814 59.917 37.6334 59.9288C39.6856 59.9407 42.025 61.9982 43.8801 61.4076C45.8026 60.7956 46.516 57.7433 48.1199 56.5901C49.7398 55.4254 52.8558 55.718 54.0392 54.1116C55.2107 52.5212 54.0107 49.6397 54.6449 47.7245C55.2568 45.8764 57.9599 44.2907 57.9718 42.2387C57.9837 40.1865 55.2991 38.5697 54.7085 36.7146C54.0965 34.7921 55.3296 31.9245 54.1764 30.3206C53.0117 28.7007 49.8925 28.9573 48.2862 27.774C46.6957 26.6024 46.0178 23.5422 44.1026 22.908C42.2544 22.296 39.8914 24.3264 37.8394 24.3145C35.7872 24.3027 33.4479 22.2451 31.5927 22.8357C29.6702 23.4477 28.9568 26.5 27.3529 27.6532C25.733 28.818 22.617 28.5253 21.4337 30.1317C20.2621 31.7221 21.4621 34.6036 20.8279 36.5188C20.216 38.367 17.5129 39.9526 17.501 42.0047Z" fill="#5AE4A7"/>
<path d="M43.1593 62.2697C42.1584 62.2697 41.1435 61.8444 40.1551 61.4302C39.284 61.0654 38.3841 60.688 37.6293 60.6836C37.6249 60.6836 37.6205 60.6836 37.6161 60.6836C36.8643 60.6836 35.9644 61.0484 35.0947 61.4015C33.7843 61.9336 32.4274 62.482 31.1332 62.0515C29.7793 61.6034 29.0083 60.3232 28.2625 59.085C27.7694 58.2662 27.3043 57.4938 26.739 57.0766C26.1619 56.6521 25.2768 56.4339 24.3393 56.2032C22.9455 55.8598 21.5046 55.5052 20.6836 54.3636C19.8714 53.2337 19.993 51.7626 20.1109 50.3402C20.1876 49.413 20.2672 48.4541 20.0453 47.7569C19.8382 47.1075 19.2633 46.4295 18.6546 45.7124C17.7561 44.6532 16.7383 43.4534 16.7464 41.9999C16.7545 40.5473 17.7863 39.3599 18.6966 38.3111C19.3142 37.6006 19.8972 36.9299 20.1117 36.2813C20.3409 35.5878 20.2731 34.6289 20.2067 33.701C20.1058 32.2771 20.0011 30.8045 20.8266 29.6842C21.6602 28.5521 23.1047 28.2138 24.5014 27.8873C25.4418 27.667 26.33 27.4591 26.9122 27.0405C27.4827 26.6307 27.9573 25.8627 28.4592 25.0498C29.2191 23.8204 30.0048 22.549 31.3631 22.1164C32.6647 21.7044 34.0135 22.2667 35.318 22.8129C36.1892 23.1777 37.0891 23.5551 37.8438 23.5595H37.8578C38.6096 23.5595 39.5088 23.1947 40.3785 22.8424C41.6889 22.3117 43.045 21.7619 44.34 22.1916C45.6932 22.6397 46.4641 23.9199 47.21 25.1581C47.7023 25.9762 48.1681 26.7501 48.7334 27.1658C49.3112 27.5918 50.1964 27.8099 51.1347 28.0406C52.5276 28.3841 53.9685 28.7386 54.7888 29.8795C55.6018 31.0101 55.4802 32.4812 55.3622 33.9037C55.2856 34.8309 55.206 35.789 55.4278 36.4862C55.6349 37.1363 56.2098 37.8144 56.8186 38.5315C57.7171 39.5906 58.7349 40.7905 58.7268 42.2432C58.7187 43.6958 57.6861 44.8839 56.7759 45.9327C56.159 46.6425 55.576 47.3139 55.3615 47.9618C55.1316 48.656 55.2001 49.6157 55.2657 50.5436C55.3667 51.9675 55.4721 53.4394 54.6473 54.5589C53.813 55.6917 52.3677 56.03 50.9703 56.3573C50.0306 56.5769 49.1425 56.7847 48.561 57.2026C47.9905 57.6132 47.5158 58.3811 47.0132 59.1933C46.2533 60.4227 45.4676 61.6941 44.1093 62.1267C43.7946 62.2269 43.4777 62.2697 43.1593 62.2697ZM37.6161 59.1742H37.6382C38.6914 59.1801 39.7321 59.6164 40.7381 60.038C41.8385 60.4994 42.8777 60.9349 43.6509 60.688C44.4771 60.4257 45.0851 59.4417 45.7293 58.4003C46.2872 57.4967 46.8643 56.5636 47.6795 55.9777C48.5057 55.3836 49.5839 55.1316 50.6261 54.8869C51.8098 54.6105 52.9271 54.3489 53.432 53.6642C53.9265 52.992 53.8454 51.8547 53.7599 50.6512C53.684 49.5766 53.6044 48.4652 53.9287 47.4871C54.2383 46.5526 54.9488 45.7337 55.6364 44.9429C56.4464 44.0098 57.2122 43.1283 57.2174 42.2343C57.2225 41.341 56.4671 40.4507 55.6681 39.5081C54.9893 38.7091 54.2884 37.8822 53.9892 36.9439C53.6774 35.9622 53.7688 34.8522 53.858 33.7791C53.9575 32.5763 54.0511 31.4398 53.5639 30.761C53.0679 30.0711 51.9535 29.797 50.7735 29.5066C49.7336 29.2501 48.6582 28.9855 47.8387 28.3811C47.0301 27.7864 46.4641 26.8459 45.9165 25.9364C45.2849 24.8876 44.6886 23.8971 43.8653 23.6244C43.0937 23.3693 42.05 23.7931 40.946 24.2412C39.9421 24.6481 38.9044 25.0689 37.8586 25.0689C37.8505 25.0689 37.8423 25.0689 37.835 25.0689C36.7818 25.063 35.7411 24.6267 34.735 24.2051C33.6339 23.7438 32.5954 23.3096 31.8208 23.5551C30.9954 23.8175 30.3873 24.8014 29.7431 25.8435C29.1852 26.7464 28.6081 27.6802 27.7937 28.2662C26.9675 28.8602 25.8885 29.1123 24.8456 29.357C23.6627 29.6333 22.5453 29.895 22.0412 30.579C21.5459 31.2519 21.627 32.3891 21.7125 33.5941C21.7891 34.668 21.868 35.7787 21.5444 36.756C21.2349 37.6913 20.5244 38.5094 19.8367 39.3009C19.026 40.234 18.261 41.1155 18.2558 42.0088C18.2507 42.9028 19.0061 43.7931 19.8058 44.7358C20.4839 45.5347 21.1848 46.3609 21.484 47.2992C21.7958 48.2809 21.7044 49.3909 21.6152 50.4647C21.5157 51.6675 21.4214 52.804 21.9093 53.4821C22.4053 54.1727 23.5204 54.4469 24.7004 54.7373C25.7396 54.9938 26.8149 55.2583 27.6338 55.862C28.4416 56.4568 29.0076 57.3972 29.5552 58.306C30.1876 59.3555 30.7838 60.3461 31.6078 60.6188C32.3765 60.8738 33.4209 60.4514 34.5272 60.0026C35.5318 59.595 36.5695 59.1742 37.6161 59.1742Z" fill="black"/>
<path d="M37.7359 53.517C44.029 53.517 49.1306 48.4154 49.1306 42.1223C49.1306 35.8292 44.029 30.7276 37.7359 30.7276C31.4428 30.7276 26.3412 35.8292 26.3412 42.1223C26.3412 48.4154 31.4428 53.517 37.7359 53.517Z" fill="white"/>
<path d="M33.8879 42.7616C34.0914 42.9675 34.2013 43.2657 34.1439 43.5445L33.6825 46.1096C33.5666 46.8532 34.3261 47.4158 34.9794 47.066L37.2935 45.8699C37.5549 45.7226 37.8712 45.7244 38.1308 45.8748L40.4309 47.0975C41.0987 47.4549 41.8648 46.9012 41.7389 46.1562L41.3072 43.586C41.2715 43.3066 41.3663 43.0095 41.5721 42.8061L43.4618 40.9935C43.9859 40.4756 43.6934 39.5622 42.9683 39.465L40.3844 39.0593C40.0869 39.0203 39.846 38.8329 39.7173 38.5716L38.5773 36.2206C38.2463 35.5489 37.2974 35.5434 36.9772 36.2114L35.7915 38.5489C35.6597 38.8087 35.4168 38.9933 35.1189 39.0288L32.5304 39.4046C31.8042 39.4935 31.5013 40.4034 32.0378 40.9274L33.8879 42.7616Z" fill="#5AE4A7"/>
</svg>
