<svg width="80" height="80" viewBox="0 0 80 80" fill="none" xmlns="http://www.w3.org/2000/svg">
<g clip-path="url(#clip0_547_4575)">
<path d="M56.852 74.613C69.4531 65.6341 76.6723 51.0445 79.6806 35.6531C81.2144 27.8033 76.9606 19.9228 69.5648 16.915C66.8028 15.7902 64.6339 13.4208 63.7644 10.5763C61.8092 4.19016 55.9272 0 49.4353 0H42.5736C11.8473 5.09094 6.05999 71.0316 39.7548 79.9991C45.9783 80.05 51.8809 78.1548 56.852 74.613Z" fill="#FB8798"/>
<path d="M32.3326 34.5895C33.6492 21.2113 37.3969 9.18547 42.5736 0H30.5647C27.342 0 24.2679 1.00688 21.674 2.91391C19.0623 4.83391 17.1826 7.48281 16.2356 10.5763C15.3661 13.4208 13.1972 15.79 10.4351 16.915C3.03935 19.9228 -1.2144 27.8033 0.319354 35.6531C3.32451 51.0284 10.5372 65.6272 23.1479 74.613C28.0286 78.0905 33.7665 79.9495 39.7548 79.9991C33.5978 69.1178 30.5573 52.6297 32.3326 34.5895Z" fill="#FB6276"/>
<path d="M68.7972 46.0614C70.3885 41.9147 71.6446 37.2112 72.2219 33.94C69.163 25.8773 50.5264 22.4447 34.0371 23.4698C21.2907 27.6328 17.1841 47.0312 32.1611 52.7328C47.0219 53.5742 64.8525 51.1017 68.7972 46.0614Z" fill="#05DBB7"/>
<path d="M34.0371 23.4697C21.1639 24.27 9.59933 27.787 7.77808 33.9399C8.35089 37.1861 9.60276 41.8919 11.2028 46.0613C13.1406 50.0114 21.9498 52.1542 32.1612 52.7325C31.3379 42.8919 32.0914 32.7192 34.0371 23.4697Z" fill="#0BCC97"/>
<path d="M52.4156 68.3858C60.7584 62.4414 65.7798 53.9434 68.7973 46.0614C68.7812 46.0614 48.3591 46.0614 31.8408 46.0614C21.2909 49.798 26.0419 67.2286 36.1462 72.0034C41.7145 73.0211 47.6002 71.8172 52.4156 68.3858Z" fill="#FCE299"/>
<path d="M11.2028 46.0614C14.2201 53.9436 19.2417 62.4414 27.5845 68.3858C30.197 70.2475 33.1251 71.4514 36.1462 72.0034C33.507 64.6041 31.9712 55.7172 31.8407 46.0614C20.6281 46.0614 11.214 46.0614 11.2028 46.0614Z" fill="#FDCD64"/>
<path d="M66.6848 23.9972C61.8008 22.0109 58.0092 17.8994 56.4528 12.8116C55.5122 9.73437 52.6531 7.64624 49.4353 7.64624H38.8715C27.4494 10.3436 23.6744 30.95 32.3989 33.94H72.222C72.9234 29.7492 70.6397 25.6036 66.6848 23.9972Z" fill="#ECEAF5"/>
<path d="M30.5646 7.64624C27.3452 7.64624 24.4877 9.73436 23.5471 12.8131C21.9907 17.8992 18.1976 22.0109 13.3151 23.9972C9.36024 25.6037 7.07664 29.7492 7.77805 33.94H32.3988C33.4116 24.2603 35.697 15.3061 38.8715 7.64624H30.5646Z" fill="#DBD8F1"/>
<path d="M56.9684 44.5052C56.9684 44.4777 56.9717 37.7042 56.9717 37.6767C56.9717 30.083 51.971 23.6247 45.054 21.4711C22.4628 21.4711 16.9678 55.455 44.8674 54.2239C46.7149 53.9795 48.5678 53.6072 50.426 53.1116C54.1982 52.0672 56.9684 48.6086 56.9684 44.5052Z" fill="#F38054"/>
<path d="M33.1314 44.5052C33.1314 37.4638 33.1302 37.805 33.133 37.7317L33.1377 37.7288C33.1369 37.7113 33.1346 37.6942 33.1346 37.6766C33.1346 30.0631 38.1482 23.6208 45.0539 21.4709C43.4591 20.9744 41.7624 20.7066 40.0016 20.7066C30.6293 20.7066 23.0316 28.3042 23.0316 37.6766C23.0316 37.6941 23.0339 37.7113 23.0347 37.7288L23.03 37.7317C23.0272 37.805 23.0285 37.4638 23.0285 44.5052C23.0285 48.6086 25.7986 52.0674 29.5708 53.1114C34.6224 54.5852 39.7236 54.9044 44.8675 54.2238C43.1307 53.9835 41.3994 53.6149 39.6738 53.1114C35.9016 52.0672 33.1314 48.6086 33.1314 44.5052Z" fill="#E96339"/>
<path d="M49.3931 59.2947H30.6103C29.0365 59.2947 27.8667 57.8152 28.2556 56.2903C29.1255 52.8803 31.4415 50.048 34.5131 48.4856C37.9505 46.5463 42.0526 46.5463 45.4903 48.4856C48.5619 50.048 50.878 52.8803 51.7478 56.2903C52.1367 57.8153 50.9669 59.2947 49.3931 59.2947Z" fill="#5A6CD9"/>
<path d="M28.8485 32.925C32.8731 32.925 32.8731 42.4281 28.8485 42.4281C25.8236 43.0394 23.0317 40.7259 23.0317 37.6766C23.0317 34.627 25.8236 32.3138 28.8485 32.925Z" fill="#FFB09E"/>
<path d="M52.1231 32.828C54.8011 32.828 56.9717 34.9984 56.9717 37.6766C56.9717 40.7261 54.1798 43.0394 51.155 42.4281C47.4906 42.4288 47.4889 32.9256 51.1534 32.925C51.3098 32.9013 51.6081 32.828 52.1231 32.828Z" fill="#FFCEBF"/>
<path d="M47.8287 28.4261C47.3904 28.0548 46.7396 28.1047 46.3399 28.5172C43.7737 31.1662 39.9193 32.5216 38.6439 30.45C38.5734 30.3356 38.4762 30.247 38.364 30.1859C28.8484 31.5351 28.8484 50.3234 44.2382 49.035C48.8412 47.3167 52.1231 42.8817 52.1231 37.6767C52.1231 34.0658 50.5231 30.708 47.8287 28.4261Z" fill="#FFDFCF"/>
<path d="M36.2846 37.2255C36.2846 34.6537 37.0371 32.2192 38.3641 30.1859C38.1758 30.0833 37.9455 30.058 37.7283 30.1189C35.6633 30.697 34.083 29.9816 33.9494 28.1395C33.9181 27.7098 33.4236 27.4894 33.0703 27.7358C29.8619 29.9725 27.8805 33.6511 27.8805 37.6769C27.8805 44.3666 33.305 49.7983 40.0019 49.7983C41.4922 49.7983 42.9192 49.5277 44.2385 49.0352C39.596 47.2714 36.2846 42.6467 36.2846 37.2255Z" fill="#FFCEBF"/>
<path d="M40.0017 44.9495C38.6331 44.9495 37.3303 44.3566 36.427 43.3228C35.9865 42.8187 36.0382 42.053 36.5423 41.6123C37.0465 41.1722 37.8123 41.2236 38.2526 41.7277C39.1797 42.7886 40.8214 42.7922 41.7481 41.7287C42.1879 41.2241 42.9536 41.1716 43.4584 41.6112C43.9631 42.0511 44.0156 42.8167 43.5759 43.3216C42.6742 44.3562 41.3714 44.9495 40.0017 44.9495Z" fill="#425460"/>
<path d="M33.9411 38.8887C33.2717 38.8887 32.7289 38.3461 32.7289 37.6766V35.7372C32.7289 35.0678 33.2715 34.525 33.9411 34.525C34.6104 34.525 35.1533 35.0676 35.1533 35.7372V37.6766C35.1531 38.3461 34.6104 38.8887 33.9411 38.8887Z" fill="#425460"/>
<path d="M46.0625 38.8887C45.3932 38.8887 44.8503 38.3461 44.8503 37.6766V35.7372C44.8503 35.0678 45.393 34.525 46.0625 34.525C46.7319 34.525 47.2747 35.0676 47.2747 35.7372V37.6766C47.2746 38.3461 46.7319 38.8887 46.0625 38.8887Z" fill="#425460"/>
</g>
<defs>
<clipPath id="clip0_547_4575">
<rect width="80" height="80" fill="white"/>
</clipPath>
</defs>
</svg>
