<svg width="40" height="40" viewBox="0 0 40 40" fill="none" xmlns="http://www.w3.org/2000/svg">
<path d="M39.4596 10.1622C39.4596 9.40543 39.2433 8.70273 38.919 8.05408L27.6758 20.1622C30.0542 22.7027 32.0001 24.8649 33.892 26.973C35.4055 28.6487 36.9731 30.3243 38.7028 32.2703C39.1893 31.5676 39.4596 30.7568 39.4596 29.8919V10.1622Z" fill="white"/>
<path d="M16.9741 22.0541C17.7849 22.919 18.8119 23.3514 20.0011 23.3514C21.1362 23.3514 22.2173 22.8649 23.0281 22.0541L37.4065 6.48654C36.7579 6.05411 35.9471 5.83789 35.1362 5.83789H4.86597C4.00111 5.83789 3.24435 6.10816 2.5957 6.48654L16.9741 22.0541Z" fill="white"/>
<path d="M32.3247 28.4325C30.4869 26.3784 28.5409 24.2703 26.2166 21.7838L24.595 23.5136C23.4058 24.8109 21.7301 25.5136 20.0004 25.5136C18.2706 25.5136 16.595 24.7568 15.4058 23.5136L13.7842 21.7838C11.4598 24.2703 9.56794 26.3784 7.67604 28.4325C6.16253 30.1082 4.59496 31.7838 2.86523 33.7298C3.45983 34.0541 4.10848 34.2163 4.86523 34.2163H35.1355C35.8382 34.2163 36.5409 34.0541 37.1355 33.7298C35.3517 31.7838 33.8382 30.1082 32.3247 28.4325Z" fill="white"/>
<path d="M12.3248 20.1622L1.08156 8.05411C0.757232 8.6487 0.541016 9.40546 0.541016 10.1622V29.8919C0.541016 30.7568 0.811286 31.6217 1.29777 32.2703C3.08156 30.3244 4.59507 28.6487 6.10858 26.973C8.00047 24.8649 9.94642 22.7568 12.3248 20.1622Z" fill="white"/>
</svg>
