<svg width="80" height="56" viewBox="0 0 80 56" fill="none" xmlns="http://www.w3.org/2000/svg">
<path fill-rule="evenodd" clip-rule="evenodd" d="M43.9335 56C62.4465 48.3825 54.5535 35.3597 54.5535 35.3597C48.8011 32.2926 44.8532 25.9694 44.8532 18.6667C44.8532 8.35735 52.7211 0 62.4266 0C72.1321 0 80 8.35735 80 18.6667C80 35.3597 66.4199 56 43.9335 56ZM0 56C18.513 48.3825 10.62 35.3597 10.62 35.3597C4.86764 32.2926 0.919746 25.9694 0.919746 18.6667C0.919746 8.35735 8.78762 0 18.4931 0C28.1987 0 36.0665 8.35735 36.0665 18.6667C36.0665 35.3597 22.4864 56 0 56Z" fill="#FE5A86"/>
</svg>
