<svg width="80" height="53" viewBox="0 0 80 53" fill="none" xmlns="http://www.w3.org/2000/svg">
<path fill-rule="evenodd" clip-rule="evenodd" d="M43.9335 53C62.4465 45.7906 54.5535 33.4655 54.5535 33.4655C48.8011 30.5627 44.8532 24.5781 44.8532 17.6667C44.8532 7.90964 52.7211 0 62.4266 0C72.1321 0 80 7.90964 80 17.6667C80 33.4655 66.4199 53 43.9335 53ZM0 53C18.513 45.7906 10.62 33.4655 10.62 33.4655C4.86764 30.5627 0.919746 24.5781 0.919746 17.6667C0.919746 7.90964 8.78762 0 18.4931 0C28.1987 0 36.0665 7.90964 36.0665 17.6667C36.0665 33.4655 22.4864 53 0 53Z" fill="#7DBE48"/>
</svg>
