<svg xmlns="http://www.w3.org/2000/svg" xmlns:xlink="http://www.w3.org/1999/xlink" viewBox="0 0 940.1 826.87"><defs><style>.cls-1,.cls-13,.cls-23,.cls-31,.cls-33,.cls-8{fill:none;}.cls-2{fill:#f8c471;opacity:0.61;}.cls-3{fill:#ea8953;}.cls-4{clip-path:url(#clip-path);}.cls-5{fill:#caabb0;}.cls-6{fill:#fff;}.cls-7{fill:#cde0df;}.cls-13,.cls-8{stroke:#630b18;}.cls-13,.cls-23,.cls-31,.cls-33,.cls-8{stroke-miterlimit:10;stroke-width:1.8px;}.cls-9{fill:#b6ccca;}.cls-10{fill:#e8dad6;}.cls-11{fill:#f99e3b;}.cls-12{fill:#e25959;}.cls-13,.cls-23,.cls-33{stroke-linecap:round;}.cls-14{fill:#630b18;}.cls-15{fill:#ece6e4;}.cls-16{fill:#abc9c7;}.cls-17{fill:#fffaf8;}.cls-18{fill:#fcd3b6;}.cls-19{fill:#ffedda;}.cls-20{fill:#e0d4d1;}.cls-21{fill:#cc4140;}.cls-22{fill:#4c121b;}.cls-23{stroke:#4c121b;}.cls-24{fill:#fff3e5;}.cls-25{fill:#f7f0ed;}.cls-26{fill:#9fccc9;}.cls-27{fill:#c68671;}.cls-28{fill:#b7715e;}.cls-29{fill:#dbaa94;}.cls-30{fill:#4e121b;}.cls-31{stroke:#4d141b;}.cls-32{fill:#ee8722;}.cls-33{stroke:#64121a;}</style><clipPath id="clip-path" transform="translate(0 -12.13)"><polygon class="cls-1" points="166.97 459 172.97 173 598.97 173 636.97 316 760.97 348 849.97 548 858.97 636 939.97 678 912.52 726.07 129.97 716 111.97 665 228.56 655.58 166.97 459"/></clipPath></defs><title>Asset 3</title><g id="Layer_2" data-name="Layer 2"><g id="Layer_2-2" data-name="Layer 2"><path class="cls-2" d="M161.31,437C126,468.48,96.5,499.38,102.53,531.37c14.9,79,447.13,235.7,678.95,294.28,80,20.2,143.58,12.67,147.78,8.15,55.16-59.29-115.77-250.61-162.11-361C723.16,333,893.66,30.72,828.33,18.88,670.36-9.74,256.68,352.14,161.31,437Z" transform="translate(0 -12.13)"/><path class="cls-3" d="M62.37,410.53C26,440.81-4.45,470.72.54,502.9c12.31,79.45,439.18,250.2,669,316.33,79.25,22.81,143.09,17.36,147.43,13C874,774.77,709.41,577.95,666.71,466.12c-39.39-141.2,140.91-437.72,76-451.7C585.76-19.35,160.47,328.8,62.37,410.53Z" transform="translate(0 -12.13)"/><g class="cls-4"><path class="cls-5" d="M527.58,469H450.13V453.13H224.56A11.11,11.11,0,0,1,213.47,442V230.59a11.11,11.11,0,0,1,11.1-11.1H592v-1h0v1a11.11,11.11,0,0,1,11.09,11.1V442A11.11,11.11,0,0,1,592,453.13H527.58V469" transform="translate(0 -12.13)"/><path class="cls-5" d="M529.53,470.92H448.19V455.07H224.56a13.05,13.05,0,0,1-13-13V230.59a13.05,13.05,0,0,1,13-13H592v1.95H224.56a11.11,11.11,0,0,0-11.1,11.1V442a11.11,11.11,0,0,0,11.1,11.09H450.13V469h77.45V453.13H592A11.11,11.11,0,0,0,603.05,442V230.59A11.11,11.11,0,0,0,592,219.49v-1.95a13.05,13.05,0,0,1,13,13V442a13.05,13.05,0,0,1-13,13H529.53v15.84" transform="translate(0 -12.13)"/><polygon class="cls-6" points="589.46 427.93 207.07 427.93 207.07 201.49 589.46 201.49 589.46 427.93 589.46 427.93"/><path class="cls-7" d="M214.56,216.66a2.93,2.93,0,0,0-2.93,2.93V431a2.93,2.93,0,0,0,2.93,2.93H582a2.93,2.93,0,0,0,2.93-2.93V219.59a2.93,2.93,0,0,0-2.93-2.93ZM582,443.1H214.56A12.08,12.08,0,0,1,202.5,431V219.59a12.08,12.08,0,0,1,12.07-12.07H582A12.08,12.08,0,0,1,594,219.59V431A12.08,12.08,0,0,1,582,443.1Z" transform="translate(0 -12.13)"/><path class="cls-8" d="M214.56,216.66a2.93,2.93,0,0,0-2.93,2.93V431a2.93,2.93,0,0,0,2.93,2.93H582a2.93,2.93,0,0,0,2.93-2.93V219.59a2.93,2.93,0,0,0-2.93-2.93ZM582,443.1H214.56A12.08,12.08,0,0,1,202.5,431V219.59a12.08,12.08,0,0,1,12.07-12.07H582A12.08,12.08,0,0,1,594,219.59V431A12.08,12.08,0,0,1,582,443.1Z" transform="translate(0 -12.13)"/><path class="cls-9" d="M222.37,212.09h0a4.57,4.57,0,0,1-4.57,4.57h-2.63a3.54,3.54,0,0,0-3.54,3.54v6.05a4.57,4.57,0,1,1-9.14,0V215a7.49,7.49,0,0,1,7.5-7.49h7.81a4.57,4.57,0,0,1,4.57,4.57Z" transform="translate(0 -12.13)"/><path class="cls-8" d="M222.37,212.09h0a4.57,4.57,0,0,1-4.57,4.57h-2.63a3.54,3.54,0,0,0-3.54,3.54v6.05a4.57,4.57,0,1,1-9.14,0V215a7.49,7.49,0,0,1,7.5-7.49h7.81a4.57,4.57,0,0,1,4.57,4.57Z" transform="translate(0 -12.13)"/><path class="cls-9" d="M207.07,423.22h0a4.57,4.57,0,0,1,4.57,4.57v2.63a3.54,3.54,0,0,0,3.54,3.54h6.05a4.57,4.57,0,0,1,0,9.14H210a7.49,7.49,0,0,1-7.5-7.49v-7.81a4.57,4.57,0,0,1,4.57-4.57Z" transform="translate(0 -12.13)"/><path class="cls-8" d="M207.07,423.22h0a4.57,4.57,0,0,1,4.57,4.57v2.63a3.54,3.54,0,0,0,3.54,3.54h6.05a4.57,4.57,0,0,1,0,9.14H210a7.49,7.49,0,0,1-7.5-7.49v-7.81a4.57,4.57,0,0,1,4.57-4.57Z" transform="translate(0 -12.13)"/><path class="cls-9" d="M574.15,212.09h0a4.57,4.57,0,0,0,4.57,4.57h2.63a3.54,3.54,0,0,1,3.54,3.54v6.05a4.57,4.57,0,1,0,9.14,0V215a7.49,7.49,0,0,0-7.49-7.49h-7.81a4.57,4.57,0,0,0-4.57,4.57Z" transform="translate(0 -12.13)"/><path class="cls-8" d="M574.15,212.09h0a4.57,4.57,0,0,0,4.57,4.57h2.63a3.54,3.54,0,0,1,3.54,3.54v6.05a4.57,4.57,0,1,0,9.14,0V215a7.49,7.49,0,0,0-7.49-7.49h-7.81a4.57,4.57,0,0,0-4.57,4.57Z" transform="translate(0 -12.13)"/><path class="cls-9" d="M589.46,423.22h0a4.57,4.57,0,0,0-4.57,4.57v2.63a3.54,3.54,0,0,1-3.54,3.54h-6.05a4.57,4.57,0,0,0,0,9.14h11.24a7.49,7.49,0,0,0,7.49-7.49v-7.81a4.57,4.57,0,0,0-4.57-4.57Z" transform="translate(0 -12.13)"/><path class="cls-8" d="M589.46,423.22h0a4.57,4.57,0,0,0-4.57,4.57v2.63a3.54,3.54,0,0,1-3.54,3.54h-6.05a4.57,4.57,0,0,0,0,9.14h11.24a7.49,7.49,0,0,0,7.49-7.49v-7.81a4.57,4.57,0,0,0-4.57-4.57Z" transform="translate(0 -12.13)"/><polygon class="cls-10" points="279.57 408.6 275.91 408.6 275.91 214.58 279.57 214.58 279.57 408.6 279.57 408.6"/><polygon class="cls-10" points="371.57 408.6 367.92 408.6 367.92 214.58 371.57 214.58 371.57 408.6 371.57 408.6"/><polygon class="cls-10" points="222.37 270.56 222.37 266.91 568.06 266.91 568.06 270.56 222.37 270.56 222.37 270.56"/><polygon class="cls-10" points="222.37 301.18 222.37 297.52 568.06 297.52 568.06 301.18 222.37 301.18 222.37 301.18"/><polygon class="cls-10" points="222.37 301.18 222.37 297.52 568.06 297.52 568.06 301.18 222.37 301.18 222.37 301.18"/><polygon class="cls-10" points="222.37 331.79 222.37 328.14 568.06 328.14 568.06 331.79 222.37 331.79 222.37 331.79"/><polygon class="cls-10" points="222.37 331.79 222.37 328.14 568.06 328.14 568.06 331.79 222.37 331.79 222.37 331.79"/><polygon class="cls-10" points="222.37 362.41 222.37 358.75 568.06 358.75 568.06 362.41 222.37 362.41 222.37 362.41"/><polygon class="cls-10" points="222.37 362.41 222.37 358.75 568.06 358.75 568.06 362.41 222.37 362.41 222.37 362.41"/><polygon class="cls-10" points="222.37 393.03 222.37 389.37 568.06 389.37 568.06 393.03 222.37 393.03 222.37 393.03"/><polygon class="cls-10" points="464.16 408.6 460.5 408.6 460.5 214.58 464.16 214.58 464.16 408.6 464.16 408.6"/><polygon class="cls-10" points="519.63 408.6 515.97 408.6 515.97 214.58 519.63 214.58 519.63 408.6 519.63 408.6"/><polygon class="cls-11" points="306.38 234.69 286.27 234.69 286.27 214.58 306.38 214.58 306.38 234.69 306.38 234.69"/><polygon class="cls-12" points="333.49 234.69 313.38 234.69 313.38 214.58 333.49 214.58 333.49 234.69 333.49 234.69"/><polygon class="cls-11" points="359.69 234.69 339.58 234.69 339.58 214.58 359.69 214.58 359.69 234.69 359.69 234.69"/><polygon class="cls-12" points="306.38 260.74 286.27 260.74 286.27 240.63 306.38 240.63 306.38 260.74 306.38 260.74"/><polygon class="cls-12" points="333.49 260.74 313.38 260.74 313.38 240.63 333.49 240.63 333.49 260.74 333.49 260.74"/><polygon class="cls-11" points="359.69 260.74 339.58 260.74 339.58 240.63 359.69 240.63 359.69 260.74 359.69 260.74"/><polygon class="cls-11" points="401.12 234.69 381.01 234.69 381.01 214.58 401.12 214.58 401.12 234.69 401.12 234.69"/><polygon class="cls-11" points="428.54 234.69 408.43 234.69 408.43 214.58 428.54 214.58 428.54 234.69 428.54 234.69"/><polygon class="cls-11" points="401.12 260.74 381.01 260.74 381.01 240.63 401.12 240.63 401.12 260.74 401.12 260.74"/><polygon class="cls-10" points="401.12 293.87 381.01 293.87 381.01 273.76 401.12 273.76 401.12 293.87 401.12 293.87"/><polygon class="cls-10" points="428.54 293.87 408.43 293.87 408.43 273.76 428.54 273.76 428.54 293.87 428.54 293.87"/><polygon class="cls-11" points="306.38 293.87 286.27 293.87 286.27 273.76 306.38 273.76 306.38 293.87 306.38 293.87"/><polygon class="cls-12" points="333.49 293.87 313.38 293.87 313.38 273.76 333.49 273.76 333.49 293.87 333.49 293.87"/><polygon class="cls-6" points="339.58 298.65 319.7 301.65 316.7 281.77 336.58 278.77 339.58 298.65 339.58 298.65"/><polygon class="cls-11" points="306.38 323.24 286.27 323.24 286.27 303.13 306.38 303.13 306.38 323.24 306.38 323.24"/><polygon class="cls-11" points="401.12 355.42 381.01 355.42 381.01 335.31 401.12 335.31 401.12 355.42 401.12 355.42"/><polygon class="cls-12" points="333.49 323.24 313.38 323.24 313.38 303.13 333.49 303.13 333.49 323.24 333.49 323.24"/><polygon class="cls-11" points="306.38 354.26 286.27 354.26 286.27 334.15 306.38 334.15 306.38 354.26 306.38 354.26"/><polygon class="cls-12" points="333.49 354.26 313.38 354.26 313.38 334.15 333.49 334.15 333.49 354.26 333.49 354.26"/><polygon class="cls-6" points="336.08 385.18 315.97 385.18 315.97 365.08 336.08 365.08 336.08 385.18 336.08 385.18"/><polygon class="cls-6" points="363.19 385.18 343.09 385.18 343.09 365.08 363.19 365.08 363.19 385.18 363.19 385.18"/><polygon class="cls-11" points="393.95 242.62 375.82 233.91 384.53 215.79 402.65 224.5 393.95 242.62 393.95 242.62"/><polygon class="cls-13" points="393.95 242.62 375.82 233.91 384.53 215.79 402.65 224.5 393.95 242.62 393.95 242.62"/><polygon class="cls-12" points="488.86 261.09 468.75 261.09 468.75 240.99 488.86 240.99 488.86 261.09 488.86 261.09"/><polygon class="cls-7" points="488.86 294.22 468.75 294.22 468.75 274.12 488.86 274.12 488.86 294.22 488.86 294.22"/><polygon class="cls-12" points="488.86 323.59 468.75 323.59 468.75 303.49 488.86 303.49 488.86 323.59 488.86 323.59"/><polygon class="cls-7" points="453.82 323.59 433.72 323.59 433.72 303.49 453.82 303.49 453.82 323.59 453.82 323.59"/><polygon class="cls-12" points="428.54 323.59 408.43 323.59 408.43 303.49 428.54 303.49 428.54 323.59 428.54 323.59"/><polygon class="cls-7" points="401.12 323.59 381.01 323.59 381.01 303.49 401.12 303.49 401.12 323.59 401.12 323.59"/><polygon class="cls-7" points="488.86 355.42 468.75 355.42 468.75 335.31 488.86 335.31 488.86 355.42 488.86 355.42"/><polygon class="cls-12" points="488.86 386.67 468.75 386.67 468.75 366.56 488.86 366.56 488.86 386.67 488.86 386.67"/><polygon class="cls-12" points="478.8 440.78 458.7 440.78 458.7 420.68 478.8 420.68 478.8 440.78 478.8 440.78"/><polygon class="cls-6" points="498.91 440.78 478.8 440.78 478.8 420.68 498.91 420.68 498.91 440.78 498.91 440.78"/><polygon class="cls-11" points="519.02 440.78 498.91 440.78 498.91 420.68 519.02 420.68 519.02 440.78 519.02 440.78"/><polygon class="cls-7" points="459.73 440.78 439.62 440.78 439.62 420.68 459.73 420.68 459.73 440.78 459.73 440.78"/><polygon class="cls-11" points="512.62 261.09 492.51 261.09 492.51 240.99 512.62 240.99 512.62 261.09 512.62 261.09"/><polygon class="cls-11" points="512.62 294.22 492.51 294.22 492.51 274.12 512.62 274.12 512.62 294.22 512.62 294.22"/><polygon class="cls-11" points="512.62 323.59 492.51 323.59 492.51 303.49 512.62 303.49 512.62 323.59 512.62 323.59"/><polygon class="cls-11" points="512.62 355.42 492.51 355.42 492.51 335.31 512.62 335.31 512.62 355.42 512.62 355.42"/><polygon class="cls-11" points="512.62 386.67 492.51 386.67 492.51 366.56 512.62 366.56 512.62 386.67 512.62 386.67"/><polygon class="cls-10" points="544.3 261.09 524.2 261.09 524.2 240.99 544.3 240.99 544.3 261.09 544.3 261.09"/><polygon class="cls-10" points="544.3 294.22 524.2 294.22 524.2 274.12 544.3 274.12 544.3 294.22 544.3 294.22"/><polygon class="cls-10" points="544.3 323.59 524.2 323.59 524.2 303.49 544.3 303.49 544.3 323.59 544.3 323.59"/><polygon class="cls-10" points="544.3 355.42 524.2 355.42 524.2 335.31 544.3 335.31 544.3 355.42 544.3 355.42"/><polygon class="cls-10" points="544.3 386.67 524.2 386.67 524.2 366.56 544.3 366.56 544.3 386.67 544.3 386.67"/><polygon class="cls-11" points="359.69 293.87 339.58 293.87 339.58 273.76 359.69 273.76 359.69 293.87 359.69 293.87"/><path class="cls-10" d="M269.52,259.77H223.9a1.52,1.52,0,1,1,0-3h45.62a1.52,1.52,0,0,1,0,3Z" transform="translate(0 -12.13)"/><path class="cls-10" d="M269.52,297.46H223.9a1.52,1.52,0,1,1,0-3h45.62a1.52,1.52,0,0,1,0,3Z" transform="translate(0 -12.13)"/><path class="cls-10" d="M269.52,328.36H223.9a1.52,1.52,0,1,1,0-3h45.62a1.52,1.52,0,1,1,0,3Z" transform="translate(0 -12.13)"/><path class="cls-10" d="M269.52,357.86H223.9a1.52,1.52,0,1,1,0-3h45.62a1.52,1.52,0,0,1,0,3Z" transform="translate(0 -12.13)"/><polygon class="cls-12" points="455.21 327.83 435.33 330.83 432.33 310.95 452.21 307.95 455.21 327.83 455.21 327.83"/><path class="cls-10" d="M269.52,390.3H223.9a1.52,1.52,0,1,1,0-3h45.62a1.52,1.52,0,0,1,0,3Z" transform="translate(0 -12.13)"/><path class="cls-10" d="M448.15,353.29H408.93a1.52,1.52,0,0,1,0-3h39.22a1.52,1.52,0,0,1,0,3Z" transform="translate(0 -12.13)"/><path class="cls-10" d="M448.15,362.43H408.93a1.52,1.52,0,0,1,0-3h39.22a1.52,1.52,0,0,1,0,3Z" transform="translate(0 -12.13)"/><path class="cls-10" d="M268.76,268H245.22a1.52,1.52,0,0,1,0-3h23.53a1.52,1.52,0,0,1,0,3Z" transform="translate(0 -12.13)"/><path class="cls-10" d="M443.54,269.57H420a1.52,1.52,0,1,1,0-3h23.53a1.52,1.52,0,1,1,0,3Z" transform="translate(0 -12.13)"/><path class="cls-10" d="M443.54,259.82H420a1.52,1.52,0,0,1,0-3h23.53a1.52,1.52,0,1,1,0,3Z" transform="translate(0 -12.13)"/><path class="cls-10" d="M269.52,251.39H223.9a1.52,1.52,0,1,1,0-3h45.62a1.52,1.52,0,1,1,0,3Z" transform="translate(0 -12.13)"/><path class="cls-10" d="M269.52,242.86H223.9a1.52,1.52,0,1,1,0-3h45.62a1.52,1.52,0,0,1,0,3Z" transform="translate(0 -12.13)"/><path class="cls-14" d="M643.67,692.37h0a9.79,9.79,0,0,1-9.79-9.79v-9.79h19.58v9.79a9.79,9.79,0,0,1-9.79,9.79Z" transform="translate(0 -12.13)"/><path class="cls-14" d="M689.9,692.37h0a9.79,9.79,0,0,1-9.79-9.79v-9.79h19.58v9.79a9.79,9.79,0,0,1-9.79,9.79Z" transform="translate(0 -12.13)"/><path class="cls-14" d="M736.61,692.37h0a9.79,9.79,0,0,1-9.79-9.79v-9.79H746.4v9.79a9.79,9.79,0,0,1-9.79,9.79Z" transform="translate(0 -12.13)"/><polygon class="cls-7" points="702.99 606.99 676.82 606.99 676.82 576.8 702.99 576.8 702.99 606.99 702.99 606.99"/><polygon class="cls-8" points="702.99 606.99 676.82 606.99 676.82 576.8 702.99 576.8 702.99 606.99 702.99 606.99"/><polygon class="cls-7" points="695.48 663.25 684.33 663.25 684.33 606.99 695.48 606.99 695.48 663.25 695.48 663.25"/><polygon class="cls-8" points="695.48 663.25 684.33 663.25 684.33 606.99 695.48 606.99 695.48 663.25 695.48 663.25"/><path class="cls-15" d="M668.76,601.1H737.7A18.15,18.15,0,0,0,755.85,583V458.26a13.52,13.52,0,0,0-13.52-13.52h-78.2a13.52,13.52,0,0,0-13.52,13.52V583a18.15,18.15,0,0,0,18.15,18.15Z" transform="translate(0 -12.13)"/><path class="cls-8" d="M668.76,601.1H737.7A18.15,18.15,0,0,0,755.85,583V458.26a13.52,13.52,0,0,0-13.52-13.52h-78.2a13.52,13.52,0,0,0-13.52,13.52V583a18.15,18.15,0,0,0,18.15,18.15Z" transform="translate(0 -12.13)"/><polygon class="cls-16" points="676.82 599.82 702.99 599.82 702.99 588.97 676.82 588.97 676.82 599.82 676.82 599.82"/><polygon class="cls-16" points="684.33 613.49 695.48 613.49 695.48 607.72 684.33 607.72 684.33 613.49 684.33 613.49"/><path class="cls-8" d="M695.48,670.07H684.33v-51h11.15v51Zm7.51-51H676.82V588.93H703v30.18Z" transform="translate(0 -12.13)"/><path class="cls-16" d="M750.27,680.68H629.53a10.61,10.61,0,0,1,10.61-10.61h99.53a10.61,10.61,0,0,1,10.61,10.61Z" transform="translate(0 -12.13)"/><path class="cls-8" d="M750.27,680.68H629.53a10.61,10.61,0,0,1,10.61-10.61h99.53a10.61,10.61,0,0,1,10.61,10.61Z" transform="translate(0 -12.13)"/><path class="cls-7" d="M699.76,680.68H680v-.75a9.86,9.86,0,0,1,19.72,0v.75Z" transform="translate(0 -12.13)"/><path class="cls-8" d="M699.76,680.68H680v-.75a9.86,9.86,0,0,1,19.72,0v.75Z" transform="translate(0 -12.13)"/><path class="cls-17" d="M723.69,601.1H650.83V458.26a13.52,13.52,0,0,1,13.52-13.52h62.26a13.52,13.52,0,0,1,13.52,13.52V584.66a16.44,16.44,0,0,1-16.44,16.44Z" transform="translate(0 -12.13)"/><path class="cls-13" d="M723.69,601.1H650.83V458.26a13.52,13.52,0,0,1,13.52-13.52h62.26a13.52,13.52,0,0,1,13.52,13.52V584.66a16.44,16.44,0,0,1-16.44,16.44Z" transform="translate(0 -12.13)"/><polygon class="cls-15" points="739.91 564.63 650.61 564.63 650.61 551.43 739.91 551.43 739.91 564.63 739.91 564.63"/><polygon class="cls-8" points="739.91 564.63 650.61 564.63 650.61 551.43 739.91 551.43 739.91 564.63 739.91 564.63"/><path class="cls-7" d="M677.27,576.76H658V525.55h63.1v7.35a43.87,43.87,0,0,1-43.87,43.87Z" transform="translate(0 -12.13)"/><path class="cls-8" d="M677.27,576.76H658V525.55h63.1v7.35a43.87,43.87,0,0,1-43.87,43.87Z" transform="translate(0 -12.13)"/><polygon class="cls-15" points="739.91 522.24 650.61 522.24 650.61 509.03 739.91 509.03 739.91 522.24 739.91 522.24"/><polygon class="cls-8" points="739.91 522.24 650.61 522.24 650.61 509.03 739.91 509.03 739.91 522.24 739.91 522.24"/><polygon class="cls-15" points="739.91 480.8 650.61 480.8 650.61 467.59 739.91 467.59 739.91 480.8 739.91 480.8"/><polygon class="cls-8" points="739.91 480.8 650.61 480.8 650.61 467.59 739.91 467.59 739.91 480.8 739.91 480.8"/><path class="cls-15" d="M620.77,576.76h94.66a11.38,11.38,0,0,1,11.38,11.38,13,13,0,0,1-13,13H620.77a11.38,11.38,0,0,1-11.38-11.38v-1.58a11.38,11.38,0,0,1,11.38-11.38Z" transform="translate(0 -12.13)"/><path class="cls-8" d="M620.77,576.76h94.66a11.38,11.38,0,0,1,11.38,11.38,13,13,0,0,1-13,13H620.77a11.38,11.38,0,0,1-11.38-11.38v-1.58a11.38,11.38,0,0,1,11.38-11.38Z" transform="translate(0 -12.13)"/><path class="cls-18" d="M595,520a8.3,8.3,0,1,1,0-16.59c64,0,65.93-56.43,66-58.83a8.3,8.3,0,0,1,16.59.27,86.53,86.53,0,0,1-10.72,37.43C657.2,499.5,636.88,520,595,520Z" transform="translate(0 -12.13)"/><path class="cls-13" d="M595,520a8.3,8.3,0,1,1,0-16.59c64,0,65.93-56.43,66-58.83a8.3,8.3,0,0,1,16.59.27,86.53,86.53,0,0,1-10.72,37.43C657.2,499.5,636.88,520,595,520ZM725.85,450.3v81.28H658.22V450.3a18.53,18.53,0,0,1,18.53-18.53h30.56a18.53,18.53,0,0,1,18.53,18.53Z" transform="translate(0 -12.13)"/><path class="cls-12" d="M725.85,450.3v79H658.22v-79a18.53,18.53,0,0,1,18.53-18.53h30.56a18.53,18.53,0,0,1,18.53,18.53Z" transform="translate(0 -12.13)"/><path class="cls-13" d="M725.85,450.3v79H658.22v-79a18.53,18.53,0,0,1,18.53-18.53h30.56a18.53,18.53,0,0,1,18.53,18.53Z" transform="translate(0 -12.13)"/><path class="cls-19" d="M725.85,452.57v34.35A33.13,33.13,0,0,1,692.75,520h-36.9a8.3,8.3,0,0,1-8.3-8.3c0-4.58,7.17-8.05,8.3-8.3h36.9a16.52,16.52,0,0,0,16.5-16.5V455.28" transform="translate(0 -12.13)"/><path class="cls-13" d="M725.85,452.57v34.35A33.13,33.13,0,0,1,692.75,520h-36.9a8.3,8.3,0,0,1-8.3-8.3c0-4.58,7.17-8.05,8.3-8.3h36.9a16.52,16.52,0,0,0,16.5-16.5V455.28" transform="translate(0 -12.13)"/><path class="cls-18" d="M725.49,450.3v36.62A33.13,33.13,0,0,1,692.4,520h-9.77a33.14,33.14,0,0,0,33.1-33.1V450.3c0-7,2.88-10.89-2.33-13.85a2.7,2.7,0,0,1-1-4c10.24,0,13.07,7.58,13.07,17.82Z" transform="translate(0 -12.13)"/><path class="cls-13" d="M725.85,452.57v34.35A33.13,33.13,0,0,1,692.75,520h-36.9a8.3,8.3,0,0,1-8.3-8.3c0-4.58,7.17-8.05,8.3-8.3h36.9a16.52,16.52,0,0,0,16.5-16.5V455.28" transform="translate(0 -12.13)"/><path class="cls-19" d="M655.85,503.42,634.47,508a12.27,12.27,0,0,0-9.7,12h31.08" transform="translate(0 -12.13)"/><path class="cls-13" d="M655.85,503.42,634.47,508a12.27,12.27,0,0,0-9.7,12h31.08m2.34-17.6v-22" transform="translate(0 -12.13)"/><path class="cls-16" d="M674.31,520.65h-47.9v-5.28H669a5.28,5.28,0,0,1,5.28,5.28Z" transform="translate(0 -12.13)"/><path class="cls-8" d="M674.31,520.65h-47.9v-5.28H669a5.28,5.28,0,0,1,5.28,5.28Z" transform="translate(0 -12.13)"/><polygon class="cls-15" points="544.29 680.24 440.88 680.24 440.88 516.37 544.29 516.37 544.29 680.24 544.29 680.24"/><polygon class="cls-8" points="544.29 680.24 440.88 680.24 440.88 516.37 544.29 516.37 544.29 680.24 544.29 680.24"/><polygon class="cls-20" points="544.29 568.11 434.38 568.11 434.38 516.37 544.29 516.37 544.29 568.11 544.29 568.11"/><polygon class="cls-13" points="544.29 680.24 440.88 680.24 440.88 516.37 544.29 516.37 544.29 680.24 544.29 680.24"/><path class="cls-15" d="M811.64,692.37H701.5V520.21h94.43a15.7,15.7,0,0,1,15.7,15.7V692.37Z" transform="translate(0 -12.13)"/><path class="cls-8" d="M811.64,692.37H701.5V520.21h94.43a15.7,15.7,0,0,1,15.7,15.7V692.37Z" transform="translate(0 -12.13)"/><path class="cls-13" d="M725.85,454.66V450.3a18.53,18.53,0,0,0-18.53-18.53h-3" transform="translate(0 -12.13)"/><polygon class="cls-21" points="704.31 529.26 658.19 529.26 658.19 512.16 704.31 512.16 704.31 529.26 704.31 529.26"/><polygon class="cls-13" points="704.31 529.26 658.19 529.26 658.19 512.16 704.31 512.16 704.31 529.26 704.31 529.26"/><path class="cls-17" d="M585.08,520.21H439.85a12.16,12.16,0,0,0-12.16,12.16v160h13.19v-155a5,5,0,0,1,5-5h139.2" transform="translate(0 -12.13)"/><path class="cls-13" d="M585.08,520.21H439.85a12.16,12.16,0,0,0-12.16,12.16v160h13.19v-155a5,5,0,0,1,5-5h139.2" transform="translate(0 -12.13)"/><path class="cls-17" d="M509.4,532.36H693.24a8,8,0,0,1,8,8V692.27H713.4V532.36a12.16,12.16,0,0,0-12.16-12.15H509.4" transform="translate(0 -12.13)"/><path class="cls-13" d="M509.4,532.36H693.24a8,8,0,0,1,8,8V692.27H713.4V532.36a12.16,12.16,0,0,0-12.16-12.15H509.4" transform="translate(0 -12.13)"/><path class="cls-16" d="M631,520.21H527l-11.61-60a8.31,8.31,0,0,1,8.16-9.89h87a8.31,8.31,0,0,1,8.16,6.73L631,520.21Z" transform="translate(0 -12.13)"/><path class="cls-8" d="M631,520.21H527l-11.61-60a8.31,8.31,0,0,1,8.16-9.89h87a8.31,8.31,0,0,1,8.16,6.73L631,520.21Z" transform="translate(0 -12.13)"/><path class="cls-7" d="M627.12,520.21H523.18l-11.61-60a8.31,8.31,0,0,1,8.16-9.89h87A8.31,8.31,0,0,1,614.9,457l12.22,63.18Z" transform="translate(0 -12.13)"/><path class="cls-8" d="M627.12,520.21H523.18l-11.61-60a8.31,8.31,0,0,1,8.16-9.89h87A8.31,8.31,0,0,1,614.9,457l12.22,63.18Z" transform="translate(0 -12.13)"/><polygon class="cls-16" points="627.12 508.08 523.18 508.08 520.4 493.72 624.35 493.72 627.12 508.08 627.12 508.08"/><path class="cls-6" d="M575.19,487.26a8.13,8.13,0,1,1-8.13-8.13,8.13,8.13,0,0,1,8.13,8.13Z" transform="translate(0 -12.13)"/><path class="cls-8" d="M627.12,520.21H523.18l-11.61-60a8.31,8.31,0,0,1,8.16-9.89h87A8.31,8.31,0,0,1,614.9,457l12.22,63.18Z" transform="translate(0 -12.13)"/><path class="cls-7" d="M632.73,517.4a2.8,2.8,0,1,1-2.8-2.8,2.81,2.81,0,0,1,2.8,2.8Z" transform="translate(0 -12.13)"/><path class="cls-8" d="M632.73,517.4a2.8,2.8,0,1,1-2.8-2.8,2.81,2.81,0,0,1,2.8,2.8Z" transform="translate(0 -12.13)"/><path class="cls-16" d="M590.21,685.55c-1.29,0-8.94,3.23-10.24,2.84-7.18-2.16-7.55-2.18-5.39-9.36l32.64-108.57a29.13,29.13,0,0,1,28.06-20.86h25.08a13.58,13.58,0,0,1,0,27.15H635.28a2.13,2.13,0,0,0-2.06,1.53L600.58,686.85c-1.77,5.88-4.53-1.3-10.37-1.3Z" transform="translate(0 -12.13)"/><path class="cls-8" d="M590.21,685.55c-1.29,0-8.94,3.23-10.24,2.84-7.18-2.16-7.55-2.18-5.39-9.36l32.64-108.57a29.13,29.13,0,0,1,28.06-20.86h25.08a13.58,13.58,0,0,1,0,27.15H635.28a2.13,2.13,0,0,0-2.06,1.53L600.58,686.85c-1.77,5.88-4.53-1.3-10.37-1.3Z" transform="translate(0 -12.13)"/><line class="cls-13" x1="638.39" y1="671.19" x2="643.67" y2="671.18"/><path class="cls-7" d="M685.09,576.75H660a2.14,2.14,0,0,0-2.06,1.53L625.31,686.85c-1.77,5.88-4.47-1.41-10.3-1.41-1.29,0-4.92,1.71-6.22,1.32-7.18-2.16-11.64-.55-9.48-7.73L632,570.47A29.12,29.12,0,0,1,660,549.6h16.81" transform="translate(0 -12.13)"/><path class="cls-8" d="M685.09,576.75H660a2.14,2.14,0,0,0-2.06,1.53L625.31,686.85c-1.77,5.88-4.47-1.41-10.3-1.41-1.29,0-4.92,1.71-6.22,1.32-7.18-2.16-11.64-.55-9.48-7.73L632,570.47A29.12,29.12,0,0,1,660,549.6h16.81" transform="translate(0 -12.13)"/><path class="cls-19" d="M699,421.17v9.48c0,.29,0,.57,0,.86a10.55,10.55,0,0,1-10.52,9.7h-5a7.57,7.57,0,0,1-6.81-4.06,5.84,5.84,0,0,1-.66-2.59v-9.87l23-3.49Z" transform="translate(0 -12.13)"/><path class="cls-13" d="M699,421.17v9.48c0,.29,0,.57,0,.86a10.55,10.55,0,0,1-10.52,9.7h-5a7.57,7.57,0,0,1-6.81-4.06,5.84,5.84,0,0,1-.66-2.59v-9.87l23-3.49Z" transform="translate(0 -12.13)"/><path class="cls-18" d="M699,422.06v8.59c0,.29,0,.57,0,.86a24.27,24.27,0,0,1-11.57,2.91h-4A20.32,20.32,0,0,1,676,433l-.09,0v-7.38H676l23-3.54Z" transform="translate(0 -12.13)"/><path class="cls-13" d="M699,421.17v9.48c0,.29,0,.57,0,.86a10.55,10.55,0,0,1-10.52,9.7h-5.72a6.71,6.71,0,0,1-6.76-6.55v-10l23-3.49Z" transform="translate(0 -12.13)"/><path class="cls-19" d="M709.44,386.92v17A24.46,24.46,0,0,1,685,428.44h-4A20.48,20.48,0,0,1,660.52,408V383.45a24.46,24.46,0,0,1,48.92,0V389" transform="translate(0 -12.13)"/><path class="cls-13" d="M709.44,386.92v17A24.46,24.46,0,0,1,685,428.44h-4A20.48,20.48,0,0,1,660.52,408V383.45a24.46,24.46,0,0,1,48.92,0V389" transform="translate(0 -12.13)"/><polygon class="cls-18" points="669.77 384.91 660.52 384.91 660.52 377.62 669.77 377.62 669.77 384.91 669.77 384.91"/><path class="cls-18" d="M687.16,397h-6.32a3.35,3.35,0,0,1-3.35-3.35v-3.94h12.8v4.16a3.14,3.14,0,0,1-3.13,3.14Z" transform="translate(0 -12.13)"/><path class="cls-6" d="M685.62,399.28H682.7a2.12,2.12,0,0,1,0-4.24h2.92a2.12,2.12,0,1,1,0,4.24Z" transform="translate(0 -12.13)"/><path class="cls-13" d="M685.62,399.28H682.7a2.12,2.12,0,0,1,0-4.24h2.92a2.12,2.12,0,1,1,0,4.24Z" transform="translate(0 -12.13)"/><path class="cls-18" d="M709.44,386.93v17h0A24.46,24.46,0,0,1,685,428.44h-4.76A24.47,24.47,0,0,0,703.81,404h0v-21a12.55,12.55,0,0,0-12.5-12.55h5.58a12.55,12.55,0,0,1,12.55,12.55v4Z" transform="translate(0 -12.13)"/><path class="cls-13" d="M709.44,386.79v17A24.46,24.46,0,0,1,685,428.3h-4a20.48,20.48,0,0,1-20.48-20.48V383.32a24.46,24.46,0,1,1,48.92,0v5.53m-36,18.62a3.69,3.69,0,0,1-3.69-3.69v-8.3" transform="translate(0 -12.13)"/><path class="cls-14" d="M688.71,390.27H679.2a1.58,1.58,0,1,1,0-3.17h9.51a1.58,1.58,0,1,1,0,3.17Z" transform="translate(0 -12.13)"/><path class="cls-13" d="M688.71,390.27H679.2a1.58,1.58,0,1,1,0-3.17h9.51a1.58,1.58,0,1,1,0,3.17Z" transform="translate(0 -12.13)"/><path class="cls-14" d="M682.22,358.86a21.81,21.81,0,0,0-21.81,21.81h16.07a7.86,7.86,0,0,0,7.24-4.8,4.83,4.83,0,0,1,4.42-3h.38a8.87,8.87,0,0,1,8.85,8.87v8.91a9.91,9.91,0,0,0,9.91,9.91h7.79V380.14a21.28,21.28,0,0,0-21.28-21.28Z" transform="translate(0 -12.13)"/><path class="cls-13" d="M682.22,358.86a21.81,21.81,0,0,0-21.81,21.81h16.07a7.86,7.86,0,0,0,7.24-4.8,4.83,4.83,0,0,1,4.42-3h.38a8.87,8.87,0,0,1,8.85,8.87v8.91a9.91,9.91,0,0,0,9.91,9.91h7.79V380.14a21.28,21.28,0,0,0-21.28-21.28Zm0,0a21.81,21.81,0,0,0-21.81,21.81h16.07a7.86,7.86,0,0,0,7.24-4.8,4.83,4.83,0,0,1,4.42-3h.38a8.87,8.87,0,0,1,8.85,8.87v8.91a9.91,9.91,0,0,0,9.91,9.91h7.79V380.14a21.28,21.28,0,0,0-21.28-21.28Z" transform="translate(0 -12.13)"/><path class="cls-14" d="M668.18,390.27H662.1a1.58,1.58,0,1,1,0-3.17h6.08a1.58,1.58,0,0,1,0,3.17Z" transform="translate(0 -12.13)"/><path class="cls-13" d="M668.18,390.27H662.1a1.58,1.58,0,1,1,0-3.17h6.08a1.58,1.58,0,0,1,0,3.17Z" transform="translate(0 -12.13)"/><path class="cls-22" d="M714.63,380.13v20.39h-7.78a9.85,9.85,0,0,1-2.47-.31V380.13a21.28,21.28,0,0,0-21.28-21.28h10.25a21.28,21.28,0,0,1,21.28,21.28Z" transform="translate(0 -12.13)"/><path class="cls-23" d="M714.63,380.13v20.39h-7.78a9.85,9.85,0,0,1-2.47-.31V380.13a21.28,21.28,0,0,0-21.28-21.28h10.25a21.28,21.28,0,0,1,21.28,21.28Z" transform="translate(0 -12.13)"/><path class="cls-18" d="M703.81,400.52a6.11,6.11,0,1,1,3.09,5.31" transform="translate(0 -12.13)"/><path class="cls-13" d="M703.81,400.52a6.11,6.11,0,1,1,3.09,5.31" transform="translate(0 -12.13)"/><path class="cls-24" d="M709.93,398a2.49,2.49,0,0,1,2.49,2.49" transform="translate(0 -12.13)"/><path class="cls-13" d="M709.93,398a2.49,2.49,0,0,1,2.49,2.49m-34.46,13a5.69,5.69,0,0,1-9,0" transform="translate(0 -12.13)"/><path class="cls-14" d="M684.16,397.46a1.56,1.56,0,1,1-1.56-1.56,1.56,1.56,0,0,1,1.56,1.56Z" transform="translate(0 -12.13)"/><path class="cls-6" d="M666.2,399.28h-2.92a2.12,2.12,0,1,1,0-4.24h2.92a2.12,2.12,0,1,1,0,4.24Z" transform="translate(0 -12.13)"/><path class="cls-13" d="M666.2,399.28h-2.92a2.12,2.12,0,1,1,0-4.24h2.92a2.12,2.12,0,1,1,0,4.24Z" transform="translate(0 -12.13)"/><path class="cls-14" d="M664.85,397.46a1.56,1.56,0,1,1-1.56-1.56,1.56,1.56,0,0,1,1.56,1.56Z" transform="translate(0 -12.13)"/><path class="cls-12" d="M709.16,452.57V471.8h16.68V447.27a15.5,15.5,0,0,0-15.51-15.51h-1.18" transform="translate(0 -12.13)"/><path class="cls-13" d="M709.16,452.57V471.8h16.68V447.27a15.5,15.5,0,0,0-15.51-15.51h-1.18" transform="translate(0 -12.13)"/><path class="cls-14" d="M708.41,408.92h0a27.53,27.53,0,0,1-27.53,27.53h-2.37a18,18,0,0,1-18-18v-9.54" transform="translate(0 -12.13)"/><path class="cls-13" d="M708.41,408.92h0a27.53,27.53,0,0,1-27.53,27.53h-2.37a18,18,0,0,1-18-18v-9.54" transform="translate(0 -12.13)"/><path class="cls-6" d="M674.25,421.08h0a6.79,6.79,0,0,1-6.79-6.79v-.79H681v.79a6.79,6.79,0,0,1-6.79,6.79Z" transform="translate(0 -12.13)"/><line class="cls-21" x1="344.85" y1="680.24" x2="907.59" y2="680.24"/><line class="cls-13" x1="344.85" y1="680.24" x2="907.59" y2="680.24"/><path class="cls-15" d="M602.36,692.48H551.66a5.72,5.72,0,0,1-1.51-11.23L576,674.16h30.06v14.61a3.71,3.71,0,0,1-3.71,3.71Z" transform="translate(0 -12.13)"/><path class="cls-8" d="M602.36,692.48H551.66a5.72,5.72,0,0,1-1.51-11.23L576,674.16h30.06v14.61a3.71,3.71,0,0,1-3.71,3.71Z" transform="translate(0 -12.13)"/><path class="cls-6" d="M604,692.48H549.29a2.68,2.68,0,0,1-2.68-2.68v-1.35h60.12v1.35a2.68,2.68,0,0,1-2.68,2.68Z" transform="translate(0 -12.13)"/><path class="cls-13" d="M604,692.48H549.29a2.68,2.68,0,0,1-2.68-2.68v-1.35h60.12v1.35a2.68,2.68,0,0,1-2.68,2.68Z" transform="translate(0 -12.13)"/><polygon class="cls-12" points="575.18 662.5 580.77 676.32 586.24 676.32 579.92 662.03 575.18 662.5 575.18 662.5"/><polygon class="cls-13" points="575.18 662.5 580.77 676.32 586.24 676.32 579.92 662.03 575.18 662.5 575.18 662.5"/><polygon class="cls-12" points="585.23 662.03 590.89 676.32 596.36 676.32 590.04 662.03 585.23 662.03 585.23 662.03"/><polygon class="cls-13" points="585.23 662.03 590.89 676.32 596.36 676.32 590.04 662.03 585.23 662.03 585.23 662.03"/><path class="cls-6" d="M625.08,692.48H574.38a5.72,5.72,0,0,1-1.51-11.23l25.86-7.09h30.06v14.61a3.71,3.71,0,0,1-3.71,3.71Z" transform="translate(0 -12.13)"/><path class="cls-8" d="M625.08,692.48H574.38a5.72,5.72,0,0,1-1.51-11.23l25.86-7.09h30.06v14.61a3.71,3.71,0,0,1-3.71,3.71Z" transform="translate(0 -12.13)"/><path class="cls-13" d="M625.08,692.48H574.38a5.72,5.72,0,0,1-1.51-11.23l28.05-7.6,27.86.51v14.61a3.71,3.71,0,0,1-3.71,3.71Z" transform="translate(0 -12.13)"/><path class="cls-6" d="M626.11,692.48H571.35a2.68,2.68,0,0,1-2.68-2.68v-1.35h60.12v1.35a2.68,2.68,0,0,1-2.68,2.68Z" transform="translate(0 -12.13)"/><path class="cls-13" d="M626.11,692.48H571.35a2.68,2.68,0,0,1-2.68-2.68v-1.35h60.12v1.35a2.68,2.68,0,0,1-2.68,2.68Z" transform="translate(0 -12.13)"/><path class="cls-21" d="M647.91,493.21h20.63a1.36,1.36,0,0,0,1.36-1.36v-2.14a1.36,1.36,0,0,0-1.36-1.36H647.91a1.36,1.36,0,0,0-1.36,1.36v2.14a1.36,1.36,0,0,0,1.36,1.36Z" transform="translate(0 -12.13)"/><path class="cls-13" d="M647.91,493.21h20.63a1.36,1.36,0,0,0,1.36-1.36v-2.14a1.36,1.36,0,0,0-1.36-1.36H647.91a1.36,1.36,0,0,0-1.36,1.36v2.14a1.36,1.36,0,0,0,1.36,1.36Z" transform="translate(0 -12.13)"/><path class="cls-6" d="M648.25,493.21l1.89,24.62a1.49,1.49,0,0,0,1.49,1.38h13.14a1.49,1.49,0,0,0,1.49-1.37l2-24.63Z" transform="translate(0 -12.13)"/><path class="cls-13" d="M648.25,493.21l1.89,24.62a1.49,1.49,0,0,0,1.49,1.38h13.14a1.49,1.49,0,0,0,1.49-1.37l2-24.63Z" transform="translate(0 -12.13)"/><path class="cls-12" d="M649.7,488.35h17.05v-1.08a2.18,2.18,0,0,0-1.92-2.17l-12.68-1.53a2.18,2.18,0,0,0-2.45,2.17v2.6Z" transform="translate(0 -12.13)"/><path class="cls-13" d="M649.7,488.35h17.05v-1.08a2.18,2.18,0,0,0-1.92-2.17l-12.68-1.53a2.18,2.18,0,0,0-2.45,2.17v2.6Z" transform="translate(0 -12.13)"/><path class="cls-25" d="M648.25,493.21l1.89,24.62a1.49,1.49,0,0,0,1.49,1.38H654l-1.85-26Z" transform="translate(0 -12.13)"/><path class="cls-13" d="M648.25,493.21l1.89,24.62a1.49,1.49,0,0,0,1.49,1.38h13.14a1.49,1.49,0,0,0,1.49-1.37l2-24.63Z" transform="translate(0 -12.13)"/><path class="cls-26" d="M647.77,497.33,649,514.68a.78.78,0,0,0,.78.72h3.86l-1.37-18.9h-3.75a.78.78,0,0,0-.77.83Z" transform="translate(0 -12.13)"/><path class="cls-7" d="M652.3,496.49l1.37,18.9h12.91a.78.78,0,0,0,.78-.72l1.32-17.35a.78.78,0,0,0-.77-.84Z" transform="translate(0 -12.13)"/><path class="cls-8" d="M667.9,496.49H648.55a.78.78,0,0,0-.77.83L649,514.68a.78.78,0,0,0,.77.72h16.77a.78.78,0,0,0,.78-.72l1.32-17.35a.78.78,0,0,0-.78-.84Z" transform="translate(0 -12.13)"/><polygon class="cls-12" points="598.73 662.5 604.32 676.32 609.79 676.32 603.47 662.03 598.73 662.5 598.73 662.5"/><polygon class="cls-13" points="598.73 662.5 604.32 676.32 609.79 676.32 603.47 662.03 598.73 662.5 598.73 662.5"/><polygon class="cls-12" points="608.78 662.03 614.44 676.32 619.91 676.32 613.59 662.03 608.78 662.03 608.78 662.03"/><polygon class="cls-13" points="608.78 662.03 614.44 676.32 619.91 676.32 613.59 662.03 608.78 662.03 608.78 662.03"/><path class="cls-18" d="M342,445.92l-43.68-15.65a67.38,67.38,0,0,1-38.9-36.38l-3.22-7.4L273,378.32l3.54,8.12a48.58,48.58,0,0,0,28.07,26.26l38.26,13.7a9.33,9.33,0,0,1,5.65,11.94c-1.74,4.86-1.68,9.33-6.53,7.59Z" transform="translate(0 -12.13)"/><path class="cls-13" d="M342,445.92l-43.68-15.65a67.38,67.38,0,0,1-38.9-36.38l-3.22-7.4L273,378.32l3.54,8.12a48.58,48.58,0,0,0,28.07,26.26l38.26,13.7a9.33,9.33,0,0,1,5.65,11.94c-1.74,4.86-1.68,9.33-6.53,7.59Z" transform="translate(0 -12.13)"/><polyline class="cls-12" points="261.02 338.76 272.97 366.19 256.16 374.37 244.76 348.21"/><polyline class="cls-13" points="261.02 338.76 272.97 366.19 256.16 374.37 244.76 348.21"/><path class="cls-27" d="M272,489,253.79,680.7c-10-1.91-20.35,2.71-28.92-2.75l20-208.88c.76-8,6.15,3.38,14.13,4.14A14.52,14.52,0,0,1,272,489Z" transform="translate(0 -12.13)"/><path class="cls-8" d="M272,489,253.79,680.7c-10-1.91-20.35,2.71-28.92-2.75l20-208.88c.76-8,6.15,3.38,14.13,4.14A14.52,14.52,0,0,1,272,489Z" transform="translate(0 -12.13)"/><path class="cls-27" d="M334.94,675.25c-8.8,4.7-18.6-1.18-28.65,0L288,489A14.52,14.52,0,0,1,301.1,473.2c8-.77,13.65-12.12,14.41-4.14l19.42,206.19Z" transform="translate(0 -12.13)"/><path class="cls-8" d="M334.94,675.25c-8.8,4.7-18.6-1.18-28.65,0L288,489A14.52,14.52,0,0,1,301.1,473.2c8-.77,13.65-12.12,14.41-4.14l19.42,206.19Z" transform="translate(0 -12.13)"/><polygon class="cls-27" points="311.45 475.53 248.49 475.53 248.49 455.19 311.45 455.19 311.45 475.53 311.45 475.53"/><polyline class="cls-27" points="244.83 456.94 244.83 447.76 315.52 447.76 315.52 456.94"/><path class="cls-19" d="M282.06,342.37h0a24.81,24.81,0,0,1-24.81-24.81V278h40.86a8.76,8.76,0,0,1,8.76,8.76v30.79a24.81,24.81,0,0,1-24.81,24.81Z" transform="translate(0 -12.13)"/><path class="cls-13" d="M282.06,342.37h0a24.81,24.81,0,0,1-24.81-24.81V278h40.86a8.76,8.76,0,0,1,8.76,8.76v30.79a24.81,24.81,0,0,1-24.81,24.81Z" transform="translate(0 -12.13)"/><path class="cls-18" d="M286.85,341.9a24.82,24.82,0,0,1-29.6-24.35V278h9.57v39.55a24.82,24.82,0,0,0,20,24.35Z" transform="translate(0 -12.13)"/><path class="cls-13" d="M282.06,342.37h0a24.81,24.81,0,0,1-24.81-24.81V278h40.86a8.76,8.76,0,0,1,8.76,8.76v30.79a24.81,24.81,0,0,1-24.81,24.81Z" transform="translate(0 -12.13)"/><polygon class="cls-28" points="245.4 451.84 254.76 451.84 234.24 663.13 223.99 663.13 245.4 451.84 245.4 451.84"/><path class="cls-8" d="M272.11,487.66q0,.68-.07,1.38L253.79,680.7c-.72,7.52-29.68,5.23-28.92-2.75l20-208.88m70.69-6.61v6.61l19.42,206.18H305.76L288,489q-.07-.69-.07-1.38" transform="translate(0 -12.13)"/><path class="cls-11" d="M315.56,464H244.87V362.54a16.1,16.1,0,0,1,16.1-16.1h38.48a16.1,16.1,0,0,1,16.1,16.1V464Z" transform="translate(0 -12.13)"/><path class="cls-13" d="M315.56,464H244.87V362.54a16.1,16.1,0,0,1,16.1-16.1h38.48a16.1,16.1,0,0,1,16.1,16.1V464Z" transform="translate(0 -12.13)"/><path class="cls-18" d="M263.5,313.83a6.25,6.25,0,1,0-3.15,5.43" transform="translate(0 -12.13)"/><path class="cls-13" d="M263.5,313.83a6.25,6.25,0,1,0-3.15,5.43" transform="translate(0 -12.13)"/><path class="cls-24" d="M257.25,311.29a2.54,2.54,0,0,0-2.54,2.54" transform="translate(0 -12.13)"/><path class="cls-13" d="M257.25,311.29a2.54,2.54,0,0,0-2.54,2.54" transform="translate(0 -12.13)"/><path class="cls-19" d="M279.88,357.81h0a11.75,11.75,0,0,1-11.75-11.75v-6.59h23.51v6.59a11.75,11.75,0,0,1-11.75,11.75Z" transform="translate(0 -12.13)"/><path class="cls-13" d="M279.88,357.81h0a11.75,11.75,0,0,1-11.75-11.75v-6.59h23.51v6.59a11.75,11.75,0,0,1-11.75,11.75Z" transform="translate(0 -12.13)"/><path class="cls-18" d="M291.63,337.67v7.38a20.52,20.52,0,0,1-9.68,2.44H277.8a20.47,20.47,0,0,1-9.68-2.44v-7.38" transform="translate(0 -12.13)"/><path class="cls-13" d="M291.63,337.67v7.38a20.52,20.52,0,0,1-9.68,2.44H277.8a20.47,20.47,0,0,1-9.68-2.44v-7.38m23.51,0v11.09a9,9,0,0,1-9,9h-5.42a9,9,0,0,1-9-9V337.67" transform="translate(0 -12.13)"/><path class="cls-6" d="M263.43,345.94h32.9v-1.82a1.75,1.75,0,0,0-1.75-1.75H265.44a2,2,0,0,0-2,2v1.57Z" transform="translate(0 -12.13)"/><path class="cls-13" d="M263.43,345.94h32.9v-1.82a1.75,1.75,0,0,0-1.75-1.75H265.44a2,2,0,0,0-2,2v1.57Z" transform="translate(0 -12.13)"/><line class="cls-6" x1="315.52" y1="370.71" x2="315.52" y2="378.66"/><line class="cls-13" x1="315.52" y1="370.71" x2="315.52" y2="378.66"/><path class="cls-11" d="M228.26,692.05h46.49a5.24,5.24,0,0,0,1.39-10.3l-23.71-6.5H224.86v13.4a3.4,3.4,0,0,0,3.4,3.4Z" transform="translate(0 -12.13)"/><path class="cls-13" d="M228.26,692.05h46.49a5.24,5.24,0,0,0,1.39-10.3l-23.71-6.5H224.86v13.4a3.4,3.4,0,0,0,3.4,3.4Z" transform="translate(0 -12.13)"/><path class="cls-12" d="M228.26,692.05h46.49a5.24,5.24,0,0,0,1.39-10.3l-23.71-6.5H224.86v13.4a3.4,3.4,0,0,0,3.4,3.4Z" transform="translate(0 -12.13)"/><path class="cls-13" d="M228.26,692.05h46.49a5.24,5.24,0,0,0,1.39-10.3l-23.71-6.5H224.86v13.4a3.4,3.4,0,0,0,3.4,3.4Z" transform="translate(0 -12.13)"/><path class="cls-6" d="M227.54,692.05h49.77a2.68,2.68,0,0,0,2.68-2.68v-1H224.86v1a2.68,2.68,0,0,0,2.68,2.68Z" transform="translate(0 -12.13)"/><path class="cls-13" d="M227.54,692.05h49.77a2.68,2.68,0,0,0,2.68-2.68v-1H224.86v1a2.68,2.68,0,0,0,2.68,2.68Z" transform="translate(0 -12.13)"/><line class="cls-6" x1="260.66" y1="665.54" x2="259.81" y2="668.37"/><line class="cls-13" x1="260.66" y1="665.54" x2="259.81" y2="668.37"/><line class="cls-6" x1="258.33" y1="664.96" x2="257.48" y2="667.78"/><line class="cls-13" x1="258.33" y1="664.96" x2="257.48" y2="667.78"/><line class="cls-29" x1="287.96" y1="475.53" x2="260.88" y2="475.53"/><line class="cls-13" x1="287.96" y1="475.53" x2="260.88" y2="475.53"/><path class="cls-12" d="M309,692.05h46.49a5.24,5.24,0,0,0,1.39-10.3l-23.71-6.5H305.63v13.4a3.4,3.4,0,0,0,3.4,3.4Z" transform="translate(0 -12.13)"/><path class="cls-13" d="M309,692.05h46.49a5.24,5.24,0,0,0,1.39-10.3l-23.71-6.5H305.63v13.4a3.4,3.4,0,0,0,3.4,3.4Zm0,0h46.49a5.24,5.24,0,0,0,1.39-10.3l-23.71-6.5H305.63v13.4a3.4,3.4,0,0,0,3.4,3.4Z" transform="translate(0 -12.13)"/><path class="cls-6" d="M308.31,692.05h49.77a2.68,2.68,0,0,0,2.68-2.68v-1H305.63v1a2.68,2.68,0,0,0,2.68,2.68Z" transform="translate(0 -12.13)"/><path class="cls-13" d="M308.31,692.05h49.77a2.68,2.68,0,0,0,2.68-2.68v-1H305.63v1a2.68,2.68,0,0,0,2.68,2.68Z" transform="translate(0 -12.13)"/><line class="cls-6" x1="341.43" y1="665.54" x2="340.58" y2="668.37"/><line class="cls-13" x1="341.43" y1="665.54" x2="340.58" y2="668.37"/><line class="cls-6" x1="339.1" y1="664.96" x2="338.25" y2="667.78"/><line class="cls-13" x1="339.1" y1="664.96" x2="338.25" y2="667.78"/><line class="cls-6" x1="256" y1="664.37" x2="255.15" y2="667.2"/><line class="cls-13" x1="256" y1="664.37" x2="255.15" y2="667.2"/><line class="cls-14" x1="134.35" y1="679.92" x2="436.69" y2="679.92"/><path class="cls-13" d="M134.35,692.05H436.69M244.87,391.83v-8.18" transform="translate(0 -12.13)"/><path class="cls-18" d="M353.16,431.64l8.44,16.09a2.77,2.77,0,1,1-4.9,2.57L352,441.4" transform="translate(0 -12.13)"/><path class="cls-13" d="M353.16,431.64l8.44,16.09a2.77,2.77,0,1,1-4.9,2.57L352,441.4" transform="translate(0 -12.13)"/><path class="cls-18" d="M348.08,434.14l8.45,16.09a2.77,2.77,0,0,1-4.9,2.57l-4.75-8.9" transform="translate(0 -12.13)"/><path class="cls-13" d="M348.08,434.14l8.45,16.09a2.77,2.77,0,0,1-4.9,2.57l-4.75-8.9" transform="translate(0 -12.13)"/><path class="cls-18" d="M345.1,440.25l6.5,12.38a2.77,2.77,0,1,1-4.9,2.57l-4.75-8.9" transform="translate(0 -12.13)"/><path class="cls-13" d="M345.1,440.25l6.5,12.38a2.77,2.77,0,1,1-4.9,2.57l-4.75-8.9" transform="translate(0 -12.13)"/><polygon class="cls-12" points="359.73 440.77 338.78 432.99 346.55 412.04 367.5 419.81 359.73 440.77 359.73 440.77"/><polyline class="cls-11" points="298.56 334.31 298.56 348.63 260.01 348.63 260.01 334.31"/><line class="cls-25" x1="260.01" y1="334.31" x2="298.57" y2="334.31"/><line class="cls-13" x1="260.01" y1="334.31" x2="298.57" y2="334.31"/><path class="cls-14" d="M314.76,267.73H274.88a24.44,24.44,0,0,0-24.44,24.44v21A12.88,12.88,0,0,0,263.32,326h19a17.5,17.5,0,0,0,17.5-17.5V286.86a15,15,0,0,0,15-15v-4.16Z" transform="translate(0 -12.13)"/><path class="cls-13" d="M314.76,267.73H274.88a24.44,24.44,0,0,0-24.44,24.44v21A12.88,12.88,0,0,0,263.32,326h19a17.5,17.5,0,0,0,17.5-17.5V286.86a15,15,0,0,0,15-15v-4.16Z" transform="translate(0 -12.13)"/><path class="cls-30" d="M276.23,326H263.49a12.88,12.88,0,0,1-12.88-12.89v-21A24.44,24.44,0,0,1,275,267.73h12.74a24.44,24.44,0,0,0-24.44,24.44v21A12.89,12.89,0,0,0,276.23,326Z" transform="translate(0 -12.13)"/><path class="cls-31" d="M276.23,326H263.49a12.88,12.88,0,0,1-12.88-12.89v-21A24.44,24.44,0,0,1,275,267.73h12.74a24.44,24.44,0,0,0-24.44,24.44v21A12.89,12.89,0,0,0,276.23,326Z" transform="translate(0 -12.13)"/><path class="cls-19" d="M304.13,308.75a6.24,6.24,0,1,0-3.15,5.43" transform="translate(0 -12.13)"/><path class="cls-13" d="M304.13,308.75a6.24,6.24,0,1,0-3.15,5.43" transform="translate(0 -12.13)"/><path class="cls-24" d="M297.88,306.2a2.54,2.54,0,0,0-2.54,2.54" transform="translate(0 -12.13)"/><path class="cls-13" d="M297.88,306.2a2.54,2.54,0,0,0-2.54,2.54" transform="translate(0 -12.13)"/><path class="cls-32" d="M272.63,346.43a16.1,16.1,0,0,0-16.1,16.1V464H245.11V362.54a16.1,16.1,0,0,1,16.1-16.1Z" transform="translate(0 -12.13)"/><path class="cls-18" d="M333.14,422.92l17,6.4a2.77,2.77,0,0,1-2,5.18L338.73,431" transform="translate(0 -12.13)"/><path class="cls-13" d="M333.14,422.92l17,6.4a2.77,2.77,0,0,1-2,5.18L338.73,431m-23.22,33H244.83V362.54a16.1,16.1,0,0,1,16.1-16.1h38.48a16.1,16.1,0,0,1,16.1,16.1V464Z" transform="translate(0 -12.13)"/><path class="cls-19" d="M375.22,265.18a2.77,2.77,0,0,1,5.14-1l6.12,10.69a2.77,2.77,0,1,1-4.8,2.75L375.55,267a2.75,2.75,0,0,1-.34-1.78Z" transform="translate(0 -12.13)"/><path class="cls-13" d="M375.22,265.18a2.77,2.77,0,0,1,5.14-1l6.12,10.69a2.77,2.77,0,1,1-4.8,2.75L375.55,267a2.75,2.75,0,0,1-.34-1.78Z" transform="translate(0 -12.13)"/><path class="cls-19" d="M382.71,269.61h0A9.34,9.34,0,0,1,395,264.7c4.74,2,6.21,6.06,4.17,10.8l-6.38,19.82a93.23,93.23,0,0,1-55.13,58.4l-7.14-17.28a75.8,75.8,0,0,0,45.06-46.81l4.8-14.31" transform="translate(0 -12.13)"/><path class="cls-13" d="M382.71,269.61h0A9.34,9.34,0,0,1,395,264.7c4.74,2,6.21,6.06,4.17,10.8l-6.38,19.82a93.23,93.23,0,0,1-55.13,58.4l-7.14-17.28a75.8,75.8,0,0,0,45.06-46.81l4.8-14.31" transform="translate(0 -12.13)"/><polyline class="cls-11" points="302.39 334.58 330.49 324.31 337.63 341.59 310.84 351.38"/><polyline class="cls-13" points="302.39 334.58 330.49 324.31 337.63 341.59 310.84 351.38"/><path class="cls-19" d="M382.58,269.91l7.19-16.69a2.77,2.77,0,0,1,5.08,2.19l-5.68,13.44" transform="translate(0 -12.13)"/><path class="cls-13" d="M382.58,269.91l7.19-16.69a2.77,2.77,0,0,1,5.08,2.19l-5.68,13.44" transform="translate(0 -12.13)"/><path class="cls-19" d="M389.18,268.85l5.74-13.31a2.77,2.77,0,1,1,5.08,2.19l-5.11,12.65" transform="translate(0 -12.13)"/><path class="cls-13" d="M389.18,268.85l5.74-13.31a2.77,2.77,0,1,1,5.08,2.19l-5.11,12.65" transform="translate(0 -12.13)"/><path class="cls-19" d="M394.7,270.95l4.16-9.52a2.77,2.77,0,0,1,5.13,2.07l-7.31,19.64" transform="translate(0 -12.13)"/><path class="cls-13" d="M394.7,270.95l4.16-9.52a2.77,2.77,0,0,1,5.13,2.07l-7.31,19.64" transform="translate(0 -12.13)"/><line class="cls-17" x1="244.83" y1="442.92" x2="244.83" y2="458.2"/><line class="cls-13" x1="244.83" y1="442.92" x2="244.83" y2="458.2"/><path class="cls-16" d="M658,576.76h0a12.19,12.19,0,0,1,12.19-12.19h9a7.48,7.48,0,1,0,0-15h-21v-8.22h43v28.77s-3.1,4.87-11.34,5.74-31.87.87-31.87.87Z" transform="translate(0 -12.13)"/><path class="cls-33" d="M679.22,549.6h-21v-8.22h43v30.19s-3.1,4.32-11.34,5.19H658.36" transform="translate(0 -12.13)"/></g></g></g></svg>