<svg xmlns="http://www.w3.org/2000/svg" xmlns:xlink="http://www.w3.org/1999/xlink" viewBox="0 0 539.7 339.16"><defs><style>.cls-1,.cls-11,.cls-21,.cls-29,.cls-31,.cls-6{fill:none;}.cls-2{clip-path:url(#clip-path);}.cls-3{fill:#caabb0;}.cls-4{fill:#fff;}.cls-5{fill:#cde0df;}.cls-11,.cls-6{stroke:#630b18;}.cls-11,.cls-21,.cls-29,.cls-31,.cls-6{stroke-miterlimit:10;stroke-width:1.8px;}.cls-7{fill:#b6ccca;}.cls-8{fill:#e8dad6;}.cls-9{fill:#f99e3b;}.cls-10{fill:#e25959;}.cls-11,.cls-21,.cls-31{stroke-linecap:round;}.cls-12{fill:#630b18;}.cls-13{fill:#ece6e4;}.cls-14{fill:#abc9c7;}.cls-15{fill:#fffaf8;}.cls-16{fill:#fcd3b6;}.cls-17{fill:#ffedda;}.cls-18{fill:#e0d4d1;}.cls-19{fill:#cc4140;}.cls-20{fill:#4c121b;}.cls-21{stroke:#4c121b;}.cls-22{fill:#fff3e5;}.cls-23{fill:#f7f0ed;}.cls-24{fill:#9fccc9;}.cls-25{fill:#c68671;}.cls-26{fill:#b7715e;}.cls-27{fill:#dbaa94;}.cls-28{fill:#4e121b;}.cls-29{stroke:#4d141b;}.cls-30{fill:#ee8722;}.cls-31{stroke:#64121a;}</style><clipPath id="clip-path" transform="translate(-43.19 -143.46)"><polygon class="cls-1" points="66.78 319.3 70.95 120.35 367.3 120.35 393.73 219.82 479.99 242.08 541.9 381.21 548.17 442.43 604.51 471.64 585.42 505.09 41.04 498.08 28.52 462.6 109.62 456.05 66.78 319.3"/></clipPath></defs><title>bg-mobile-char</title><g id="Layer_2" data-name="Layer 2"><g id="Layer_2-2" data-name="Layer 2"><g class="cls-2"><path class="cls-3" d="M317.64,326.24H263.76v-11H106.84a7.73,7.73,0,0,1-7.72-7.72V160.41a7.73,7.73,0,0,1,7.72-7.72H362.42V152h0v.68a7.73,7.73,0,0,1,7.72,7.72V307.5a7.73,7.73,0,0,1-7.72,7.72H317.64v11" transform="translate(-43.19 -143.46)"/><path class="cls-3" d="M319,327.59H262.41v-11H106.84a9.08,9.08,0,0,1-9.07-9.07V160.41a9.08,9.08,0,0,1,9.07-9.07H362.42v1.35H106.84a7.73,7.73,0,0,0-7.72,7.72V307.5a7.73,7.73,0,0,0,7.72,7.72H263.76v11h53.88v-11h44.78a7.73,7.73,0,0,0,7.72-7.72V160.41a7.73,7.73,0,0,0-7.72-7.72v-1.35a9.08,9.08,0,0,1,9.07,9.07V307.5a9.08,9.08,0,0,1-9.07,9.07H319v11" transform="translate(-43.19 -143.46)"/><polygon class="cls-4" points="317.49 162.66 51.48 162.66 51.48 5.14 317.49 5.14 317.49 162.66 317.49 162.66"/><path class="cls-5" d="M99.89,150.72a2,2,0,0,0-2,2V299.85a2,2,0,0,0,2,2H355.46a2,2,0,0,0,2-2V152.75a2,2,0,0,0-2-2ZM355.46,308.24H99.89a8.4,8.4,0,0,1-8.4-8.39V152.75a8.4,8.4,0,0,1,8.4-8.39H355.46a8.4,8.4,0,0,1,8.39,8.39V299.85a8.4,8.4,0,0,1-8.39,8.39Z" transform="translate(-43.19 -143.46)"/><path class="cls-6" d="M99.89,150.72a2,2,0,0,0-2,2V299.85a2,2,0,0,0,2,2H355.46a2,2,0,0,0,2-2V152.75a2,2,0,0,0-2-2ZM355.46,308.24H99.89a8.4,8.4,0,0,1-8.4-8.39V152.75a8.4,8.4,0,0,1,8.4-8.39H355.46a8.4,8.4,0,0,1,8.39,8.39V299.85a8.4,8.4,0,0,1-8.39,8.39Z" transform="translate(-43.19 -143.46)"/><path class="cls-7" d="M105.32,147.54h0a3.18,3.18,0,0,1-3.18,3.18h-1.83a2.46,2.46,0,0,0-2.46,2.46v4.21a3.18,3.18,0,1,1-6.36,0v-7.82a5.21,5.21,0,0,1,5.21-5.21h5.44a3.18,3.18,0,0,1,3.18,3.18Z" transform="translate(-43.19 -143.46)"/><path class="cls-6" d="M105.32,147.54h0a3.18,3.18,0,0,1-3.18,3.18h-1.83a2.46,2.46,0,0,0-2.46,2.46v4.21a3.18,3.18,0,1,1-6.36,0v-7.82a5.21,5.21,0,0,1,5.21-5.21h5.44a3.18,3.18,0,0,1,3.18,3.18Z" transform="translate(-43.19 -143.46)"/><path class="cls-7" d="M94.67,294.41h0a3.18,3.18,0,0,1,3.18,3.18v1.83a2.46,2.46,0,0,0,2.46,2.46h4.21a3.18,3.18,0,0,1,0,6.36H96.71A5.21,5.21,0,0,1,91.49,303v-5.44a3.18,3.18,0,0,1,3.18-3.18Z" transform="translate(-43.19 -143.46)"/><path class="cls-6" d="M94.67,294.41h0a3.18,3.18,0,0,1,3.18,3.18v1.83a2.46,2.46,0,0,0,2.46,2.46h4.21a3.18,3.18,0,0,1,0,6.36H96.71A5.21,5.21,0,0,1,91.49,303v-5.44a3.18,3.18,0,0,1,3.18-3.18Z" transform="translate(-43.19 -143.46)"/><path class="cls-7" d="M350,147.54h0a3.18,3.18,0,0,0,3.18,3.18H355a2.46,2.46,0,0,1,2.46,2.46v4.21a3.18,3.18,0,1,0,6.36,0v-7.82a5.21,5.21,0,0,0-5.21-5.21h-5.44a3.18,3.18,0,0,0-3.18,3.18Z" transform="translate(-43.19 -143.46)"/><path class="cls-6" d="M350,147.54h0a3.18,3.18,0,0,0,3.18,3.18H355a2.46,2.46,0,0,1,2.46,2.46v4.21a3.18,3.18,0,1,0,6.36,0v-7.82a5.21,5.21,0,0,0-5.21-5.21h-5.44a3.18,3.18,0,0,0-3.18,3.18Z" transform="translate(-43.19 -143.46)"/><path class="cls-7" d="M360.68,294.41h0a3.18,3.18,0,0,0-3.18,3.18v1.83a2.46,2.46,0,0,1-2.46,2.46h-4.21a3.18,3.18,0,0,0,0,6.36h7.82a5.21,5.21,0,0,0,5.21-5.21v-5.44a3.18,3.18,0,0,0-3.18-3.18Z" transform="translate(-43.19 -143.46)"/><path class="cls-6" d="M360.68,294.41h0a3.18,3.18,0,0,0-3.18,3.18v1.83a2.46,2.46,0,0,1-2.46,2.46h-4.21a3.18,3.18,0,0,0,0,6.36h7.82a5.21,5.21,0,0,0,5.21-5.21v-5.44a3.18,3.18,0,0,0-3.18-3.18Z" transform="translate(-43.19 -143.46)"/><polygon class="cls-8" points="101.92 149.22 99.38 149.22 99.38 14.25 101.92 14.25 101.92 149.22 101.92 149.22"/><polygon class="cls-8" points="165.92 149.22 163.38 149.22 163.38 14.25 165.92 14.25 165.92 149.22 165.92 149.22"/><polygon class="cls-8" points="62.13 53.19 62.13 50.65 302.61 50.65 302.61 53.19 62.13 53.19 62.13 53.19"/><polygon class="cls-8" points="62.13 74.49 62.13 71.95 302.61 71.95 302.61 74.49 62.13 74.49 62.13 74.49"/><polygon class="cls-8" points="62.13 74.49 62.13 71.95 302.61 71.95 302.61 74.49 62.13 74.49 62.13 74.49"/><polygon class="cls-8" points="62.13 95.79 62.13 93.24 302.61 93.24 302.61 95.79 62.13 95.79 62.13 95.79"/><polygon class="cls-8" points="62.13 95.79 62.13 93.24 302.61 93.24 302.61 95.79 62.13 95.79 62.13 95.79"/><polygon class="cls-8" points="62.13 117.08 62.13 114.54 302.61 114.54 302.61 117.08 62.13 117.08 62.13 117.08"/><polygon class="cls-8" points="62.13 117.08 62.13 114.54 302.61 114.54 302.61 117.08 62.13 117.08 62.13 117.08"/><polygon class="cls-8" points="62.13 138.38 62.13 135.84 302.61 135.84 302.61 138.38 62.13 138.38 62.13 138.38"/><polygon class="cls-8" points="230.33 149.22 227.78 149.22 227.78 14.25 230.33 14.25 230.33 149.22 230.33 149.22"/><polygon class="cls-8" points="268.91 149.22 266.37 149.22 266.37 14.25 268.91 14.25 268.91 149.22 268.91 149.22"/><polygon class="cls-9" points="120.57 28.24 106.58 28.24 106.58 14.25 120.57 14.25 120.57 28.24 120.57 28.24"/><polygon class="cls-10" points="139.43 28.24 125.44 28.24 125.44 14.25 139.43 14.25 139.43 28.24 139.43 28.24"/><polygon class="cls-9" points="157.65 28.24 143.67 28.24 143.67 14.25 157.65 14.25 157.65 28.24 157.65 28.24"/><polygon class="cls-10" points="120.57 46.36 106.58 46.36 106.58 32.37 120.57 32.37 120.57 46.36 120.57 46.36"/><polygon class="cls-10" points="139.43 46.36 125.44 46.36 125.44 32.37 139.43 32.37 139.43 46.36 139.43 46.36"/><polygon class="cls-9" points="157.65 46.36 143.67 46.36 143.67 32.37 157.65 32.37 157.65 46.36 157.65 46.36"/><polygon class="cls-9" points="186.47 28.24 172.49 28.24 172.49 14.25 186.47 14.25 186.47 28.24 186.47 28.24"/><polygon class="cls-9" points="205.55 28.24 191.56 28.24 191.56 14.25 205.55 14.25 205.55 28.24 205.55 28.24"/><polygon class="cls-9" points="186.47 46.36 172.49 46.36 172.49 32.37 186.47 32.37 186.47 46.36 186.47 46.36"/><polygon class="cls-8" points="186.47 69.4 172.49 69.4 172.49 55.42 186.47 55.42 186.47 69.4 186.47 69.4"/><polygon class="cls-8" points="205.55 69.4 191.56 69.4 191.56 55.42 205.55 55.42 205.55 69.4 205.55 69.4"/><polygon class="cls-9" points="120.57 69.4 106.58 69.4 106.58 55.42 120.57 55.42 120.57 69.4 120.57 69.4"/><polygon class="cls-10" points="139.43 69.4 125.44 69.4 125.44 55.42 139.43 55.42 139.43 69.4 139.43 69.4"/><polygon class="cls-4" points="143.67 72.73 129.84 74.82 127.75 60.99 141.58 58.9 143.67 72.73 143.67 72.73"/><polygon class="cls-9" points="120.57 89.83 106.58 89.83 106.58 75.85 120.57 75.85 120.57 89.83 120.57 89.83"/><polygon class="cls-9" points="186.47 112.22 172.49 112.22 172.49 98.23 186.47 98.23 186.47 112.22 186.47 112.22"/><polygon class="cls-10" points="139.43 89.83 125.44 89.83 125.44 75.85 139.43 75.85 139.43 89.83 139.43 89.83"/><polygon class="cls-9" points="120.57 111.42 106.58 111.42 106.58 97.43 120.57 97.43 120.57 111.42 120.57 111.42"/><polygon class="cls-10" points="139.43 111.42 125.44 111.42 125.44 97.43 139.43 97.43 139.43 111.42 139.43 111.42"/><polygon class="cls-4" points="141.23 132.93 127.24 132.93 127.24 118.94 141.23 118.94 141.23 132.93 141.23 132.93"/><polygon class="cls-4" points="160.09 132.93 146.1 132.93 146.1 118.94 160.09 118.94 160.09 132.93 160.09 132.93"/><polygon class="cls-9" points="181.48 33.76 168.88 27.7 174.94 15.09 187.54 21.15 181.48 33.76 181.48 33.76"/><polygon class="cls-11" points="181.48 33.76 168.88 27.7 174.94 15.09 187.54 21.15 181.48 33.76 181.48 33.76"/><polygon class="cls-10" points="247.51 46.6 233.52 46.6 233.52 32.62 247.51 32.62 247.51 46.6 247.51 46.6"/><polygon class="cls-5" points="247.51 69.65 233.52 69.65 233.52 55.66 247.51 55.66 247.51 69.65 247.51 69.65"/><polygon class="cls-10" points="247.51 90.08 233.52 90.08 233.52 76.09 247.51 76.09 247.51 90.08 247.51 90.08"/><polygon class="cls-5" points="223.14 90.08 209.15 90.08 209.15 76.09 223.14 76.09 223.14 90.08 223.14 90.08"/><polygon class="cls-10" points="205.55 90.08 191.56 90.08 191.56 76.09 205.55 76.09 205.55 90.08 205.55 90.08"/><polygon class="cls-5" points="186.47 90.08 172.49 90.08 172.49 76.09 186.47 76.09 186.47 90.08 186.47 90.08"/><polygon class="cls-5" points="247.51 112.22 233.52 112.22 233.52 98.23 247.51 98.23 247.51 112.22 247.51 112.22"/><polygon class="cls-10" points="247.51 133.96 233.52 133.96 233.52 119.97 247.51 119.97 247.51 133.96 247.51 133.96"/><polygon class="cls-10" points="240.51 171.6 226.53 171.6 226.53 157.62 240.51 157.62 240.51 171.6 240.51 171.6"/><polygon class="cls-4" points="254.5 171.6 240.51 171.6 240.51 157.62 254.5 157.62 254.5 171.6 254.5 171.6"/><polygon class="cls-9" points="268.49 171.6 254.5 171.6 254.5 157.62 268.49 157.62 268.49 171.6 268.49 171.6"/><polygon class="cls-5" points="227.24 171.6 213.25 171.6 213.25 157.62 227.24 157.62 227.24 171.6 227.24 171.6"/><polygon class="cls-9" points="264.04 46.6 250.05 46.6 250.05 32.62 264.04 32.62 264.04 46.6 264.04 46.6"/><polygon class="cls-9" points="264.04 69.65 250.05 69.65 250.05 55.66 264.04 55.66 264.04 69.65 264.04 69.65"/><polygon class="cls-9" points="264.04 90.08 250.05 90.08 250.05 76.09 264.04 76.09 264.04 90.08 264.04 90.08"/><polygon class="cls-9" points="264.04 112.22 250.05 112.22 250.05 98.23 264.04 98.23 264.04 112.22 264.04 112.22"/><polygon class="cls-9" points="264.04 133.96 250.05 133.96 250.05 119.97 264.04 119.97 264.04 133.96 264.04 133.96"/><polygon class="cls-8" points="286.08 46.6 272.09 46.6 272.09 32.62 286.08 32.62 286.08 46.6 286.08 46.6"/><polygon class="cls-8" points="286.08 69.65 272.09 69.65 272.09 55.66 286.08 55.66 286.08 69.65 286.08 69.65"/><polygon class="cls-8" points="286.08 90.08 272.09 90.08 272.09 76.09 286.08 76.09 286.08 90.08 286.08 90.08"/><polygon class="cls-8" points="286.08 112.22 272.09 112.22 272.09 98.23 286.08 98.23 286.08 112.22 286.08 112.22"/><polygon class="cls-8" points="286.08 133.96 272.09 133.96 272.09 119.97 286.08 119.97 286.08 133.96 286.08 133.96"/><polygon class="cls-9" points="157.65 69.4 143.67 69.4 143.67 55.42 157.65 55.42 157.65 69.4 157.65 69.4"/><path class="cls-8" d="M138.11,180.7H106.38a1.06,1.06,0,1,1,0-2.12h31.73a1.06,1.06,0,0,1,0,2.12Z" transform="translate(-43.19 -143.46)"/><path class="cls-8" d="M138.11,206.93H106.38a1.06,1.06,0,1,1,0-2.12h31.73a1.06,1.06,0,0,1,0,2.12Z" transform="translate(-43.19 -143.46)"/><path class="cls-8" d="M138.11,228.42H106.38a1.06,1.06,0,1,1,0-2.12h31.73a1.06,1.06,0,1,1,0,2.12Z" transform="translate(-43.19 -143.46)"/><path class="cls-8" d="M138.11,248.94H106.38a1.06,1.06,0,1,1,0-2.12h31.73a1.06,1.06,0,0,1,0,2.12Z" transform="translate(-43.19 -143.46)"/><polygon class="cls-10" points="224.1 93.03 210.27 95.12 208.18 81.29 222.01 79.2 224.1 93.03 224.1 93.03"/><path class="cls-8" d="M138.11,271.51H106.38a1.06,1.06,0,1,1,0-2.12h31.73a1.06,1.06,0,0,1,0,2.12Z" transform="translate(-43.19 -143.46)"/><path class="cls-8" d="M262.38,245.76H235.09a1.06,1.06,0,0,1,0-2.12h27.29a1.06,1.06,0,0,1,0,2.12Z" transform="translate(-43.19 -143.46)"/><path class="cls-8" d="M262.38,252.12H235.09a1.06,1.06,0,0,1,0-2.12h27.29a1.06,1.06,0,0,1,0,2.12Z" transform="translate(-43.19 -143.46)"/><path class="cls-8" d="M137.59,186.43H121.21a1.06,1.06,0,0,1,0-2.12h16.37a1.06,1.06,0,0,1,0,2.12Z" transform="translate(-43.19 -143.46)"/><path class="cls-8" d="M259.17,187.52H242.8a1.06,1.06,0,1,1,0-2.12h16.37a1.06,1.06,0,1,1,0,2.12Z" transform="translate(-43.19 -143.46)"/><path class="cls-8" d="M259.17,180.74H242.8a1.06,1.06,0,0,1,0-2.12h16.37a1.06,1.06,0,1,1,0,2.12Z" transform="translate(-43.19 -143.46)"/><path class="cls-8" d="M138.11,174.88H106.38a1.06,1.06,0,1,1,0-2.12h31.73a1.06,1.06,0,1,1,0,2.12Z" transform="translate(-43.19 -143.46)"/><path class="cls-8" d="M138.11,168.94H106.38a1.06,1.06,0,1,1,0-2.12h31.73a1.06,1.06,0,0,1,0,2.12Z" transform="translate(-43.19 -143.46)"/><path class="cls-12" d="M398.39,481.64h0a6.81,6.81,0,0,1-6.81-6.81V468H405.2v6.81a6.81,6.81,0,0,1-6.81,6.81Z" transform="translate(-43.19 -143.46)"/><path class="cls-12" d="M430.55,481.64h0a6.81,6.81,0,0,1-6.81-6.81V468h13.62v6.81a6.81,6.81,0,0,1-6.81,6.81Z" transform="translate(-43.19 -143.46)"/><path class="cls-12" d="M463,481.64h0a6.81,6.81,0,0,1-6.81-6.81V468h13.62v6.81a6.81,6.81,0,0,1-6.81,6.81Z" transform="translate(-43.19 -143.46)"/><polygon class="cls-5" points="396.47 287.22 378.26 287.22 378.26 266.23 396.47 266.23 396.47 287.22 396.47 287.22"/><polygon class="cls-6" points="396.47 287.22 378.26 287.22 378.26 266.23 396.47 266.23 396.47 287.22 396.47 287.22"/><polygon class="cls-5" points="391.24 326.36 383.49 326.36 383.49 287.22 391.24 287.22 391.24 326.36 391.24 326.36"/><polygon class="cls-6" points="391.24 326.36 383.49 326.36 383.49 287.22 391.24 287.22 391.24 326.36 391.24 326.36"/><path class="cls-13" d="M415.84,418.15h48a12.63,12.63,0,0,0,12.63-12.63V318.78a9.4,9.4,0,0,0-9.4-9.4h-54.4a9.4,9.4,0,0,0-9.4,9.4v86.74a12.63,12.63,0,0,0,12.63,12.63Z" transform="translate(-43.19 -143.46)"/><path class="cls-6" d="M415.84,418.15h48a12.63,12.63,0,0,0,12.63-12.63V318.78a9.4,9.4,0,0,0-9.4-9.4h-54.4a9.4,9.4,0,0,0-9.4,9.4v86.74a12.63,12.63,0,0,0,12.63,12.63Z" transform="translate(-43.19 -143.46)"/><polygon class="cls-14" points="378.26 282.24 396.47 282.24 396.47 274.69 378.26 274.69 378.26 282.24 378.26 282.24"/><polygon class="cls-14" points="383.49 291.75 391.24 291.75 391.24 287.73 383.49 287.73 383.49 291.75 383.49 291.75"/><path class="cls-6" d="M434.43,466.13h-7.76V430.68h7.76v35.45Zm5.23-35.45H421.45v-21h18.21v21Z" transform="translate(-43.19 -143.46)"/><path class="cls-14" d="M472.55,473.51h-84a7.38,7.38,0,0,1,7.38-7.38h69.24a7.38,7.38,0,0,1,7.38,7.38Z" transform="translate(-43.19 -143.46)"/><path class="cls-6" d="M472.55,473.51h-84a7.38,7.38,0,0,1,7.38-7.38h69.24a7.38,7.38,0,0,1,7.38,7.38Z" transform="translate(-43.19 -143.46)"/><path class="cls-5" d="M437.41,473.51H423.7V473a6.86,6.86,0,0,1,13.72,0v.52Z" transform="translate(-43.19 -143.46)"/><path class="cls-6" d="M437.41,473.51H423.7V473a6.86,6.86,0,0,1,13.72,0v.52Z" transform="translate(-43.19 -143.46)"/><path class="cls-15" d="M454.06,418.15H403.37V318.78a9.4,9.4,0,0,1,9.4-9.4h43.31a9.4,9.4,0,0,1,9.4,9.4v87.93a11.43,11.43,0,0,1-11.43,11.43Z" transform="translate(-43.19 -143.46)"/><path class="cls-11" d="M454.06,418.15H403.37V318.78a9.4,9.4,0,0,1,9.4-9.4h43.31a9.4,9.4,0,0,1,9.4,9.4v87.93a11.43,11.43,0,0,1-11.43,11.43Z" transform="translate(-43.19 -143.46)"/><polygon class="cls-13" points="422.15 257.76 360.03 257.76 360.03 248.57 422.15 248.57 422.15 257.76 422.15 257.76"/><polygon class="cls-6" points="422.15 257.76 360.03 257.76 360.03 248.57 422.15 248.57 422.15 257.76 422.15 257.76"/><path class="cls-5" d="M421.76,401.22H408.38V365.59h43.9v5.11a30.51,30.51,0,0,1-30.51,30.52Z" transform="translate(-43.19 -143.46)"/><path class="cls-6" d="M421.76,401.22H408.38V365.59h43.9v5.11a30.51,30.51,0,0,1-30.51,30.52Z" transform="translate(-43.19 -143.46)"/><polygon class="cls-13" points="422.15 228.27 360.03 228.27 360.03 219.08 422.15 219.08 422.15 228.27 422.15 228.27"/><polygon class="cls-6" points="422.15 228.27 360.03 228.27 360.03 219.08 422.15 219.08 422.15 228.27 422.15 228.27"/><polygon class="cls-13" points="422.15 199.44 360.03 199.44 360.03 190.25 422.15 190.25 422.15 199.44 422.15 199.44"/><polygon class="cls-6" points="422.15 199.44 360.03 199.44 360.03 190.25 422.15 190.25 422.15 199.44 422.15 199.44"/><path class="cls-13" d="M382.46,401.22h65.85a7.91,7.91,0,0,1,7.91,7.91,9,9,0,0,1-9,9H382.46a7.91,7.91,0,0,1-7.91-7.91v-1.1a7.91,7.91,0,0,1,7.91-7.91Z" transform="translate(-43.19 -143.46)"/><path class="cls-6" d="M382.46,401.22h65.85a7.91,7.91,0,0,1,7.91,7.91,9,9,0,0,1-9,9H382.46a7.91,7.91,0,0,1-7.91-7.91v-1.1a7.91,7.91,0,0,1,7.91-7.91Z" transform="translate(-43.19 -143.46)"/><path class="cls-16" d="M364.54,361.74a5.77,5.77,0,1,1,0-11.54c44.52,0,45.86-39.25,45.9-40.92a5.77,5.77,0,0,1,11.54.19,60.19,60.19,0,0,1-7.45,26c-6.73,12-20.86,26.24-50,26.24Z" transform="translate(-43.19 -143.46)"/><path class="cls-11" d="M364.54,361.74a5.77,5.77,0,1,1,0-11.54c44.52,0,45.86-39.25,45.9-40.92a5.77,5.77,0,0,1,11.54.19,60.19,60.19,0,0,1-7.45,26c-6.73,12-20.86,26.24-50,26.24Zm91-48.49v56.54h-47V313.25a12.89,12.89,0,0,1,12.89-12.89h21.26a12.89,12.89,0,0,1,12.89,12.89Z" transform="translate(-43.19 -143.46)"/><path class="cls-10" d="M455.56,313.25v55h-47v-55a12.89,12.89,0,0,1,12.89-12.89h21.26a12.89,12.89,0,0,1,12.89,12.89Z" transform="translate(-43.19 -143.46)"/><path class="cls-11" d="M455.56,313.25v55h-47v-55a12.89,12.89,0,0,1,12.89-12.89h21.26a12.89,12.89,0,0,1,12.89,12.89Z" transform="translate(-43.19 -143.46)"/><path class="cls-17" d="M455.56,314.83v23.89a23,23,0,0,1-23,23H406.87A5.77,5.77,0,0,1,401.1,356c0-3.19,5-5.6,5.77-5.77h25.67A11.49,11.49,0,0,0,444,338.72v-22" transform="translate(-43.19 -143.46)"/><path class="cls-11" d="M455.56,314.83v23.89a23,23,0,0,1-23,23H406.87A5.77,5.77,0,0,1,401.1,356c0-3.19,5-5.6,5.77-5.77h25.67A11.49,11.49,0,0,0,444,338.72v-22" transform="translate(-43.19 -143.46)"/><path class="cls-16" d="M455.31,313.25v25.47a23,23,0,0,1-23,23h-6.79a23.05,23.05,0,0,0,23-23V313.25c0-4.87,2-7.58-1.62-9.63a1.88,1.88,0,0,1-.68-2.76c7.12,0,9.09,5.27,9.09,12.39Z" transform="translate(-43.19 -143.46)"/><path class="cls-11" d="M455.56,314.83v23.89a23,23,0,0,1-23,23H406.87A5.77,5.77,0,0,1,401.1,356c0-3.19,5-5.6,5.77-5.77h25.67A11.49,11.49,0,0,0,444,338.72v-22" transform="translate(-43.19 -143.46)"/><path class="cls-17" d="M406.87,350.2,392,353.39a8.54,8.54,0,0,0-6.74,8.35h21.62" transform="translate(-43.19 -143.46)"/><path class="cls-11" d="M406.87,350.2,392,353.39a8.54,8.54,0,0,0-6.74,8.35h21.62m1.63-12.24V334.18" transform="translate(-43.19 -143.46)"/><path class="cls-14" d="M419.71,362.19H386.39v-3.67H416a3.67,3.67,0,0,1,3.67,3.67Z" transform="translate(-43.19 -143.46)"/><path class="cls-6" d="M419.71,362.19H386.39v-3.67H416a3.67,3.67,0,0,1,3.67,3.67Z" transform="translate(-43.19 -143.46)"/><polygon class="cls-13" points="286.07 338.18 214.13 338.18 214.13 224.18 286.07 224.18 286.07 338.18 286.07 338.18"/><polygon class="cls-6" points="286.07 338.18 214.13 338.18 214.13 224.18 286.07 224.18 286.07 338.18 286.07 338.18"/><polygon class="cls-18" points="286.07 260.18 209.61 260.18 209.61 224.18 286.07 224.18 286.07 260.18 286.07 260.18"/><polygon class="cls-11" points="286.07 338.18 214.13 338.18 214.13 224.18 286.07 224.18 286.07 338.18 286.07 338.18"/><path class="cls-13" d="M515.24,481.64H438.62V361.88h65.69a10.92,10.92,0,0,1,10.92,10.92V481.64Z" transform="translate(-43.19 -143.46)"/><path class="cls-6" d="M515.24,481.64H438.62V361.88h65.69a10.92,10.92,0,0,1,10.92,10.92V481.64Z" transform="translate(-43.19 -143.46)"/><path class="cls-11" d="M455.56,316.28v-3a12.89,12.89,0,0,0-12.89-12.89h-2.09" transform="translate(-43.19 -143.46)"/><polygon class="cls-19" points="397.38 233.15 365.3 233.15 365.3 221.26 397.38 221.26 397.38 233.15 397.38 233.15"/><polygon class="cls-11" points="397.38 233.15 365.3 233.15 365.3 221.26 397.38 221.26 397.38 233.15 397.38 233.15"/><path class="cls-15" d="M357.64,361.88h-101a8.46,8.46,0,0,0-8.46,8.46V481.64h9.18V373.81a3.47,3.47,0,0,1,3.47-3.47h96.84" transform="translate(-43.19 -143.46)"/><path class="cls-11" d="M357.64,361.88h-101a8.46,8.46,0,0,0-8.46,8.46V481.64h9.18V373.81a3.47,3.47,0,0,1,3.47-3.47h96.84" transform="translate(-43.19 -143.46)"/><path class="cls-15" d="M305,370.33H432.88a5.56,5.56,0,0,1,5.56,5.56V481.57h8.46V370.33a8.46,8.46,0,0,0-8.46-8.45H305" transform="translate(-43.19 -143.46)"/><path class="cls-11" d="M305,370.33H432.88a5.56,5.56,0,0,1,5.56,5.56V481.57h8.46V370.33a8.46,8.46,0,0,0-8.46-8.45H305" transform="translate(-43.19 -143.46)"/><path class="cls-14" d="M389.55,361.88H317.25l-8.08-41.76a5.78,5.78,0,0,1,5.68-6.88h60.53a5.78,5.78,0,0,1,5.68,4.68l8.5,44Z" transform="translate(-43.19 -143.46)"/><path class="cls-6" d="M389.55,361.88H317.25l-8.08-41.76a5.78,5.78,0,0,1,5.68-6.88h60.53a5.78,5.78,0,0,1,5.68,4.68l8.5,44Z" transform="translate(-43.19 -143.46)"/><path class="cls-5" d="M386.88,361.88H314.57l-8.07-41.76a5.78,5.78,0,0,1,5.68-6.88H372.7a5.78,5.78,0,0,1,5.68,4.68l8.5,44Z" transform="translate(-43.19 -143.46)"/><path class="cls-6" d="M386.88,361.88H314.57l-8.07-41.76a5.78,5.78,0,0,1,5.68-6.88H372.7a5.78,5.78,0,0,1,5.68,4.68l8.5,44Z" transform="translate(-43.19 -143.46)"/><polygon class="cls-14" points="343.69 218.42 271.38 218.42 269.45 208.43 341.76 208.43 343.69 218.42 343.69 218.42"/><path class="cls-4" d="M350.75,339a5.66,5.66,0,1,1-5.66-5.66,5.66,5.66,0,0,1,5.66,5.66Z" transform="translate(-43.19 -143.46)"/><path class="cls-6" d="M386.88,361.88H314.57l-8.07-41.76a5.78,5.78,0,0,1,5.68-6.88H372.7a5.78,5.78,0,0,1,5.68,4.68l8.5,44Z" transform="translate(-43.19 -143.46)"/><path class="cls-5" d="M390.78,359.93a2,2,0,1,1-2-2,2,2,0,0,1,2,2Z" transform="translate(-43.19 -143.46)"/><path class="cls-6" d="M390.78,359.93a2,2,0,1,1-2-2,2,2,0,0,1,2,2Z" transform="translate(-43.19 -143.46)"/><path class="cls-14" d="M361.2,476.9c-.9,0-6.22,2.25-7.13,2-5-1.5-5.25-1.51-3.75-6.51L373,396.84a20.26,20.26,0,0,1,19.52-14.51H410a9.44,9.44,0,0,1,0,18.89H392.55a1.48,1.48,0,0,0-1.43,1.06L368.41,477.8c-1.23,4.09-3.15-.9-7.21-.9Z" transform="translate(-43.19 -143.46)"/><path class="cls-6" d="M361.2,476.9c-.9,0-6.22,2.25-7.13,2-5-1.5-5.25-1.51-3.75-6.51L373,396.84a20.26,20.26,0,0,1,19.52-14.51H410a9.44,9.44,0,0,1,0,18.89H392.55a1.48,1.48,0,0,0-1.43,1.06L368.41,477.8c-1.23,4.09-3.15-.9-7.21-.9Z" transform="translate(-43.19 -143.46)"/><line class="cls-11" x1="351.53" y1="331.89" x2="355.2" y2="331.87"/><path class="cls-5" d="M427.2,401.21H409.76a1.49,1.49,0,0,0-1.43,1.06L385.62,477.8c-1.23,4.09-3.11-1-7.17-1-.9,0-3.42,1.19-4.33.92-5-1.5-8.09-.38-6.59-5.38l22.71-75.52a20.26,20.26,0,0,1,19.52-14.51h11.69" transform="translate(-43.19 -143.46)"/><path class="cls-6" d="M427.2,401.21H409.76a1.49,1.49,0,0,0-1.43,1.06L385.62,477.8c-1.23,4.09-3.11-1-7.17-1-.9,0-3.42,1.19-4.33.92-5-1.5-8.09-.38-6.59-5.38l22.71-75.52a20.26,20.26,0,0,1,19.52-14.51h11.69" transform="translate(-43.19 -143.46)"/><path class="cls-17" d="M436.89,293v6.59c0,.2,0,.4,0,.6a7.34,7.34,0,0,1-7.32,6.74h-3.49a5.27,5.27,0,0,1-4.74-2.83,4.06,4.06,0,0,1-.46-1.8v-6.87l16-2.43Z" transform="translate(-43.19 -143.46)"/><path class="cls-11" d="M436.89,293v6.59c0,.2,0,.4,0,.6a7.34,7.34,0,0,1-7.32,6.74h-3.49a5.27,5.27,0,0,1-4.74-2.83,4.06,4.06,0,0,1-.46-1.8v-6.87l16-2.43Z" transform="translate(-43.19 -143.46)"/><path class="cls-16" d="M436.89,293.6v6c0,.2,0,.4,0,.6a16.88,16.88,0,0,1-8,2H426a14.13,14.13,0,0,1-5.18-1l-.06,0v-5.13h.06l16-2.46Z" transform="translate(-43.19 -143.46)"/><path class="cls-11" d="M436.86,293v6.59c0,.2,0,.4,0,.6a7.34,7.34,0,0,1-7.32,6.74h-4a4.67,4.67,0,0,1-4.7-4.56v-6.94l16-2.43Z" transform="translate(-43.19 -143.46)"/><path class="cls-17" d="M444.14,269.16V281a17,17,0,0,1-17,17h-2.77a14.24,14.24,0,0,1-14.24-14.24V266.75a17,17,0,0,1,34,0v3.85" transform="translate(-43.19 -143.46)"/><path class="cls-11" d="M444.14,269.16V281a17,17,0,0,1-17,17h-2.77a14.24,14.24,0,0,1-14.24-14.24V266.75a17,17,0,0,1,34,0v3.85" transform="translate(-43.19 -143.46)"/><polygon class="cls-16" points="373.36 132.74 366.92 132.74 366.92 127.66 373.36 127.66 373.36 132.74 373.36 132.74"/><path class="cls-16" d="M428.64,276.2h-4.4a2.33,2.33,0,0,1-2.33-2.33v-2.74h8.91V274a2.18,2.18,0,0,1-2.18,2.18Z" transform="translate(-43.19 -143.46)"/><path class="cls-4" d="M427.57,277.76h-2a1.47,1.47,0,0,1,0-2.95h2a1.47,1.47,0,1,1,0,2.95Z" transform="translate(-43.19 -143.46)"/><path class="cls-11" d="M427.57,277.76h-2a1.47,1.47,0,0,1,0-2.95h2a1.47,1.47,0,1,1,0,2.95Z" transform="translate(-43.19 -143.46)"/><path class="cls-16" d="M444.14,269.16V281h0a17,17,0,0,1-17,17h-3.31a17,17,0,0,0,16.42-17h0V266.39a8.73,8.73,0,0,0-8.7-8.73h3.88a8.73,8.73,0,0,1,8.73,8.73v2.77Z" transform="translate(-43.19 -143.46)"/><path class="cls-11" d="M444.14,269.06v11.86a17,17,0,0,1-17,17h-2.77a14.24,14.24,0,0,1-14.24-14.24v-17a17,17,0,1,1,34,0v3.85m-25,13a2.57,2.57,0,0,1-2.57-2.57v-5.77" transform="translate(-43.19 -143.46)"/><path class="cls-12" d="M429.72,271.49h-6.62a1.1,1.1,0,1,1,0-2.2h6.62a1.1,1.1,0,1,1,0,2.2Z" transform="translate(-43.19 -143.46)"/><path class="cls-11" d="M429.72,271.49h-6.62a1.1,1.1,0,1,1,0-2.2h6.62a1.1,1.1,0,1,1,0,2.2Z" transform="translate(-43.19 -143.46)"/><path class="cls-12" d="M425.21,249.64A15.17,15.17,0,0,0,410,264.81h11.18a5.47,5.47,0,0,0,5-3.34,3.36,3.36,0,0,1,3.08-2.12h.27a6.17,6.17,0,0,1,6.16,6.17v6.2a6.9,6.9,0,0,0,6.9,6.9h5.42V264.44a14.8,14.8,0,0,0-14.8-14.8Z" transform="translate(-43.19 -143.46)"/><path class="cls-11" d="M425.21,249.64A15.17,15.17,0,0,0,410,264.81h11.18a5.47,5.47,0,0,0,5-3.34,3.36,3.36,0,0,1,3.08-2.12h.27a6.17,6.17,0,0,1,6.16,6.17v6.2a6.9,6.9,0,0,0,6.9,6.9h5.42V264.44a14.8,14.8,0,0,0-14.8-14.8Zm0,0A15.17,15.17,0,0,0,410,264.81h11.18a5.47,5.47,0,0,0,5-3.34,3.36,3.36,0,0,1,3.08-2.12h.27a6.17,6.17,0,0,1,6.16,6.17v6.2a6.9,6.9,0,0,0,6.9,6.9h5.42V264.44a14.8,14.8,0,0,0-14.8-14.8Z" transform="translate(-43.19 -143.46)"/><path class="cls-12" d="M415.44,271.49h-4.23a1.1,1.1,0,1,1,0-2.2h4.23a1.1,1.1,0,0,1,0,2.2Z" transform="translate(-43.19 -143.46)"/><path class="cls-11" d="M415.44,271.49h-4.23a1.1,1.1,0,1,1,0-2.2h4.23a1.1,1.1,0,0,1,0,2.2Z" transform="translate(-43.19 -143.46)"/><path class="cls-20" d="M447.75,264.44v14.18h-5.41a6.85,6.85,0,0,1-1.72-.21v-14a14.8,14.8,0,0,0-14.8-14.8H433a14.8,14.8,0,0,1,14.8,14.8Z" transform="translate(-43.19 -143.46)"/><path class="cls-21" d="M447.75,264.44v14.18h-5.41a6.85,6.85,0,0,1-1.72-.21v-14a14.8,14.8,0,0,0-14.8-14.8H433a14.8,14.8,0,0,1,14.8,14.8Z" transform="translate(-43.19 -143.46)"/><path class="cls-16" d="M440.23,278.62a4.25,4.25,0,1,1,2.15,3.7" transform="translate(-43.19 -143.46)"/><path class="cls-11" d="M440.23,278.62a4.25,4.25,0,1,1,2.15,3.7" transform="translate(-43.19 -143.46)"/><path class="cls-22" d="M444.48,276.89a1.73,1.73,0,0,1,1.73,1.73" transform="translate(-43.19 -143.46)"/><path class="cls-11" d="M444.48,276.89a1.73,1.73,0,0,1,1.73,1.73m-24,9a4,4,0,0,1-6.25,0" transform="translate(-43.19 -143.46)"/><path class="cls-12" d="M426.56,276.49a1.09,1.09,0,1,1-1.09-1.09,1.09,1.09,0,0,1,1.09,1.09Z" transform="translate(-43.19 -143.46)"/><path class="cls-4" d="M414.06,277.76h-2a1.47,1.47,0,1,1,0-2.95h2a1.47,1.47,0,1,1,0,2.95Z" transform="translate(-43.19 -143.46)"/><path class="cls-11" d="M414.06,277.76h-2a1.47,1.47,0,1,1,0-2.95h2a1.47,1.47,0,1,1,0,2.95Z" transform="translate(-43.19 -143.46)"/><path class="cls-12" d="M413.12,276.49A1.09,1.09,0,1,1,412,275.4a1.09,1.09,0,0,1,1.09,1.09Z" transform="translate(-43.19 -143.46)"/><path class="cls-10" d="M444,314.83V328.2h11.61V311.14a10.79,10.79,0,0,0-10.79-10.79H444" transform="translate(-43.19 -143.46)"/><path class="cls-11" d="M444,314.83V328.2h11.61V311.14a10.79,10.79,0,0,0-10.79-10.79H444" transform="translate(-43.19 -143.46)"/><path class="cls-12" d="M443.43,284.46h0a19.15,19.15,0,0,1-19.15,19.15h-1.65a12.52,12.52,0,0,1-12.52-12.52v-6.64" transform="translate(-43.19 -143.46)"/><path class="cls-11" d="M443.43,284.46h0a19.15,19.15,0,0,1-19.15,19.15h-1.65a12.52,12.52,0,0,1-12.52-12.52v-6.64" transform="translate(-43.19 -143.46)"/><path class="cls-4" d="M419.67,292.92h0a4.72,4.72,0,0,1-4.72-4.72v-.55h9.44v.55a4.72,4.72,0,0,1-4.72,4.72Z" transform="translate(-43.19 -143.46)"/><line class="cls-19" x1="147.33" y1="338.18" x2="538.8" y2="338.18"/><line class="cls-11" x1="147.33" y1="338.18" x2="538.8" y2="338.18"/><path class="cls-13" d="M369.65,481.72H334.39a4,4,0,0,1-1.05-7.81l18-4.93h20.91v10.16a2.58,2.58,0,0,1-2.58,2.58Z" transform="translate(-43.19 -143.46)"/><path class="cls-6" d="M369.65,481.72H334.39a4,4,0,0,1-1.05-7.81l18-4.93h20.91v10.16a2.58,2.58,0,0,1-2.58,2.58Z" transform="translate(-43.19 -143.46)"/><path class="cls-4" d="M370.83,481.72H332.74a1.87,1.87,0,0,1-1.87-1.87v-.94h41.82v.94a1.87,1.87,0,0,1-1.87,1.87Z" transform="translate(-43.19 -143.46)"/><path class="cls-11" d="M370.83,481.72H332.74a1.87,1.87,0,0,1-1.87-1.87v-.94h41.82v.94a1.87,1.87,0,0,1-1.87,1.87Z" transform="translate(-43.19 -143.46)"/><polygon class="cls-10" points="307.56 325.84 311.44 335.45 315.25 335.45 310.86 325.51 307.56 325.84 307.56 325.84"/><polygon class="cls-11" points="307.56 325.84 311.44 335.45 315.25 335.45 310.86 325.51 307.56 325.84 307.56 325.84"/><polygon class="cls-10" points="314.55 325.51 318.49 335.45 322.29 335.45 317.89 325.51 314.55 325.51 314.55 325.51"/><polygon class="cls-11" points="314.55 325.51 318.49 335.45 322.29 335.45 317.89 325.51 314.55 325.51 314.55 325.51"/><path class="cls-4" d="M385.46,481.72H350.19a4,4,0,0,1-1.05-7.81l18-4.93H388v10.16a2.58,2.58,0,0,1-2.58,2.58Z" transform="translate(-43.19 -143.46)"/><path class="cls-6" d="M385.46,481.72H350.19a4,4,0,0,1-1.05-7.81l18-4.93H388v10.16a2.58,2.58,0,0,1-2.58,2.58Z" transform="translate(-43.19 -143.46)"/><path class="cls-11" d="M385.46,481.72H350.19a4,4,0,0,1-1.05-7.81l19.51-5.29L388,469v10.16a2.58,2.58,0,0,1-2.58,2.58Z" transform="translate(-43.19 -143.46)"/><path class="cls-4" d="M386.17,481.72H348.08a1.87,1.87,0,0,1-1.87-1.87v-.94H388v.94a1.87,1.87,0,0,1-1.87,1.87Z" transform="translate(-43.19 -143.46)"/><path class="cls-11" d="M386.17,481.72H348.08a1.87,1.87,0,0,1-1.87-1.87v-.94H388v.94a1.87,1.87,0,0,1-1.87,1.87Z" transform="translate(-43.19 -143.46)"/><path class="cls-19" d="M401.34,343.1h14.35a1,1,0,0,0,.95-.95v-1.49a1,1,0,0,0-.95-.95H401.34a1,1,0,0,0-.95.95v1.49a1,1,0,0,0,.95.95Z" transform="translate(-43.19 -143.46)"/><path class="cls-11" d="M401.34,343.1h14.35a1,1,0,0,0,.95-.95v-1.49a1,1,0,0,0-.95-.95H401.34a1,1,0,0,0-.95.95v1.49a1,1,0,0,0,.95.95Z" transform="translate(-43.19 -143.46)"/><path class="cls-4" d="M401.58,343.1l1.31,17.13a1,1,0,0,0,1,1h9.14a1,1,0,0,0,1-1l1.36-17.13Z" transform="translate(-43.19 -143.46)"/><path class="cls-11" d="M401.58,343.1l1.31,17.13a1,1,0,0,0,1,1h9.14a1,1,0,0,0,1-1l1.36-17.13Z" transform="translate(-43.19 -143.46)"/><path class="cls-10" d="M402.58,339.71h11.86V339a1.52,1.52,0,0,0-1.34-1.51l-8.82-1.06a1.52,1.52,0,0,0-1.7,1.51v1.81Z" transform="translate(-43.19 -143.46)"/><path class="cls-11" d="M402.58,339.71h11.86V339a1.52,1.52,0,0,0-1.34-1.51l-8.82-1.06a1.52,1.52,0,0,0-1.7,1.51v1.81Z" transform="translate(-43.19 -143.46)"/><path class="cls-23" d="M401.58,343.1l1.31,17.13a1,1,0,0,0,1,1h1.66L404.3,343.1Z" transform="translate(-43.19 -143.46)"/><path class="cls-11" d="M401.58,343.1l1.31,17.13a1,1,0,0,0,1,1h9.14a1,1,0,0,0,1-1l1.36-17.13Z" transform="translate(-43.19 -143.46)"/><path class="cls-24" d="M401.24,346l.87,12.07a.54.54,0,0,0,.54.5h2.69l-1-13.15h-2.61a.54.54,0,0,0-.54.58Z" transform="translate(-43.19 -143.46)"/><path class="cls-5" d="M404.39,345.38l1,13.15h9a.54.54,0,0,0,.54-.5l.92-12.07a.54.54,0,0,0-.54-.58Z" transform="translate(-43.19 -143.46)"/><path class="cls-6" d="M415.25,345.38H401.78a.54.54,0,0,0-.54.58l.87,12.07a.54.54,0,0,0,.54.5h11.67a.54.54,0,0,0,.54-.5l.92-12.07a.54.54,0,0,0-.54-.58Z" transform="translate(-43.19 -143.46)"/><polygon class="cls-10" points="323.94 325.84 327.83 335.45 331.63 335.45 327.24 325.51 323.94 325.84 323.94 325.84"/><polygon class="cls-11" points="323.94 325.84 327.83 335.45 331.63 335.45 327.24 325.51 323.94 325.84 323.94 325.84"/><polygon class="cls-10" points="330.93 325.51 334.87 335.45 338.67 335.45 334.28 325.51 330.93 325.51 330.93 325.51"/><polygon class="cls-11" points="330.93 325.51 334.87 335.45 338.67 335.45 334.28 325.51 330.93 325.51 330.93 325.51"/><path class="cls-16" d="M188.5,310.2l-30.38-10.88A46.87,46.87,0,0,1,131.06,274l-2.24-5.15,11.7-5.69,2.46,5.65a33.8,33.8,0,0,0,19.53,18.27l26.62,9.53a6.49,6.49,0,0,1,3.93,8.3c-1.21,3.38-1.17,6.49-4.54,5.28Z" transform="translate(-43.19 -143.46)"/><path class="cls-11" d="M188.5,310.2l-30.38-10.88A46.87,46.87,0,0,1,131.06,274l-2.24-5.15,11.7-5.69,2.46,5.65a33.8,33.8,0,0,0,19.53,18.27l26.62,9.53a6.49,6.49,0,0,1,3.93,8.3c-1.21,3.38-1.17,6.49-4.54,5.28Z" transform="translate(-43.19 -143.46)"/><polyline class="cls-10" points="89.02 100.63 97.33 119.71 85.63 125.4 77.71 107.21"/><polyline class="cls-11" points="89.02 100.63 97.33 119.71 85.63 125.4 77.71 107.21"/><path class="cls-25" d="M139.87,340.19l-12.7,133.33c-7-1.33-14.16,1.89-20.12-1.92L120.94,326.3c.53-5.55,4.28,2.35,9.83,2.88a10.1,10.1,0,0,1,9.1,11Z" transform="translate(-43.19 -143.46)"/><path class="cls-6" d="M139.87,340.19l-12.7,133.33c-7-1.33-14.16,1.89-20.12-1.92L120.94,326.3c.53-5.55,4.28,2.35,9.83,2.88a10.1,10.1,0,0,1,9.1,11Z" transform="translate(-43.19 -143.46)"/><path class="cls-25" d="M183.62,469.73c-6.13,3.27-12.94-.82-19.93,0L151,340.19a10.1,10.1,0,0,1,9.1-11c5.55-.53,9.5-8.43,10-2.88l13.51,143.43Z" transform="translate(-43.19 -143.46)"/><path class="cls-6" d="M183.62,469.73c-6.13,3.27-12.94-.82-19.93,0L151,340.19a10.1,10.1,0,0,1,9.1-11c5.55-.53,9.5-8.43,10-2.88l13.51,143.43Z" transform="translate(-43.19 -143.46)"/><polygon class="cls-25" points="124.09 195.78 80.3 195.78 80.3 181.62 124.09 181.62 124.09 195.78 124.09 195.78"/><polyline class="cls-25" points="77.75 182.84 77.75 176.46 126.92 176.46 126.92 182.84"/><path class="cls-17" d="M146.84,238.16h0a17.26,17.26,0,0,1-17.26-17.26V193.39H158a6.09,6.09,0,0,1,6.09,6.09v21.42a17.26,17.26,0,0,1-17.26,17.26Z" transform="translate(-43.19 -143.46)"/><path class="cls-11" d="M146.84,238.16h0a17.26,17.26,0,0,1-17.26-17.26V193.39H158a6.09,6.09,0,0,1,6.09,6.09v21.42a17.26,17.26,0,0,1-17.26,17.26Z" transform="translate(-43.19 -143.46)"/><path class="cls-16" d="M150.17,237.84a17.27,17.27,0,0,1-20.59-16.94V193.39h6.66v27.51a17.26,17.26,0,0,0,13.93,16.94Z" transform="translate(-43.19 -143.46)"/><path class="cls-11" d="M146.84,238.16h0a17.26,17.26,0,0,1-17.26-17.26V193.39H158a6.09,6.09,0,0,1,6.09,6.09v21.42a17.26,17.26,0,0,1-17.26,17.26Z" transform="translate(-43.19 -143.46)"/><polygon class="cls-26" points="78.15 179.29 84.66 179.29 70.39 326.27 63.26 326.27 78.15 179.29 78.15 179.29"/><path class="cls-6" d="M139.92,339.24q0,.48,0,1l-12.7,133.33c-.5,5.23-20.65,3.64-20.12-1.92l13.88-145.3m49.17-4.6v4.6l13.51,143.43h-20.3L151,340.19q0-.48,0-1" transform="translate(-43.19 -143.46)"/><path class="cls-9" d="M170.14,322.75H121V252.2a11.2,11.2,0,0,1,11.2-11.2h26.77a11.2,11.2,0,0,1,11.2,11.2v70.56Z" transform="translate(-43.19 -143.46)"/><path class="cls-11" d="M170.14,322.75H121V252.2a11.2,11.2,0,0,1,11.2-11.2h26.77a11.2,11.2,0,0,1,11.2,11.2v70.56Z" transform="translate(-43.19 -143.46)"/><path class="cls-16" d="M133.93,218.31a4.34,4.34,0,1,0-2.19,3.78" transform="translate(-43.19 -143.46)"/><path class="cls-11" d="M133.93,218.31a4.34,4.34,0,1,0-2.19,3.78" transform="translate(-43.19 -143.46)"/><path class="cls-22" d="M129.58,216.55a1.77,1.77,0,0,0-1.77,1.77" transform="translate(-43.19 -143.46)"/><path class="cls-11" d="M129.58,216.55a1.77,1.77,0,0,0-1.77,1.77" transform="translate(-43.19 -143.46)"/><path class="cls-17" d="M145.32,248.9h0a8.18,8.18,0,0,1-8.18-8.18v-4.59H153.5v4.59a8.18,8.18,0,0,1-8.18,8.18Z" transform="translate(-43.19 -143.46)"/><path class="cls-11" d="M145.32,248.9h0a8.18,8.18,0,0,1-8.18-8.18v-4.59H153.5v4.59a8.18,8.18,0,0,1-8.18,8.18Z" transform="translate(-43.19 -143.46)"/><path class="cls-16" d="M153.5,234.9V240a14.27,14.27,0,0,1-6.74,1.7h-2.88a14.24,14.24,0,0,1-6.73-1.7V234.9" transform="translate(-43.19 -143.46)"/><path class="cls-11" d="M153.5,234.9V240a14.27,14.27,0,0,1-6.74,1.7h-2.88a14.24,14.24,0,0,1-6.73-1.7V234.9m16.35,0v7.71a6.29,6.29,0,0,1-6.29,6.29h-3.77a6.29,6.29,0,0,1-6.29-6.29V234.9" transform="translate(-43.19 -143.46)"/><path class="cls-4" d="M133.88,240.65h22.89v-1.27a1.22,1.22,0,0,0-1.22-1.22H135.28a1.4,1.4,0,0,0-1.4,1.4v1.09Z" transform="translate(-43.19 -143.46)"/><path class="cls-11" d="M133.88,240.65h22.89v-1.27a1.22,1.22,0,0,0-1.22-1.22H135.28a1.4,1.4,0,0,0-1.4,1.4v1.09Z" transform="translate(-43.19 -143.46)"/><line class="cls-4" x1="126.92" y1="122.86" x2="126.92" y2="128.39"/><line class="cls-11" x1="126.92" y1="122.86" x2="126.92" y2="128.39"/><path class="cls-9" d="M109.42,481.42h32.34a3.65,3.65,0,0,0,1-7.16l-16.49-4.52H107v9.32a2.37,2.37,0,0,0,2.37,2.37Z" transform="translate(-43.19 -143.46)"/><path class="cls-11" d="M109.42,481.42h32.34a3.65,3.65,0,0,0,1-7.16l-16.49-4.52H107v9.32a2.37,2.37,0,0,0,2.37,2.37Z" transform="translate(-43.19 -143.46)"/><path class="cls-10" d="M109.42,481.42h32.34a3.65,3.65,0,0,0,1-7.16l-16.49-4.52H107v9.32a2.37,2.37,0,0,0,2.37,2.37Z" transform="translate(-43.19 -143.46)"/><path class="cls-11" d="M109.42,481.42h32.34a3.65,3.65,0,0,0,1-7.16l-16.49-4.52H107v9.32a2.37,2.37,0,0,0,2.37,2.37Z" transform="translate(-43.19 -143.46)"/><path class="cls-4" d="M108.91,481.42h34.62a1.87,1.87,0,0,0,1.87-1.87v-.71H107v.71a1.87,1.87,0,0,0,1.87,1.87Z" transform="translate(-43.19 -143.46)"/><path class="cls-11" d="M108.91,481.42h34.62a1.87,1.87,0,0,0,1.87-1.87v-.71H107v.71a1.87,1.87,0,0,0,1.87,1.87Z" transform="translate(-43.19 -143.46)"/><line class="cls-4" x1="88.76" y1="327.96" x2="88.17" y2="329.92"/><line class="cls-11" x1="88.76" y1="327.96" x2="88.17" y2="329.92"/><line class="cls-4" x1="87.14" y1="327.55" x2="86.55" y2="329.51"/><line class="cls-11" x1="87.14" y1="327.55" x2="86.55" y2="329.51"/><line class="cls-27" x1="107.75" y1="195.78" x2="88.92" y2="195.78"/><line class="cls-11" x1="107.75" y1="195.78" x2="88.92" y2="195.78"/><path class="cls-10" d="M165.6,481.42h32.34a3.65,3.65,0,0,0,1-7.16l-16.49-4.52H163.24v9.32a2.37,2.37,0,0,0,2.37,2.37Z" transform="translate(-43.19 -143.46)"/><path class="cls-11" d="M165.6,481.42h32.34a3.65,3.65,0,0,0,1-7.16l-16.49-4.52H163.24v9.32a2.37,2.37,0,0,0,2.37,2.37Zm0,0h32.34a3.65,3.65,0,0,0,1-7.16l-16.49-4.52H163.24v9.32a2.37,2.37,0,0,0,2.37,2.37Z" transform="translate(-43.19 -143.46)"/><path class="cls-4" d="M165.1,481.42h34.62a1.87,1.87,0,0,0,1.87-1.87v-.71H163.24v.71a1.87,1.87,0,0,0,1.87,1.87Z" transform="translate(-43.19 -143.46)"/><path class="cls-11" d="M165.1,481.42h34.62a1.87,1.87,0,0,0,1.87-1.87v-.71H163.24v.71a1.87,1.87,0,0,0,1.87,1.87Z" transform="translate(-43.19 -143.46)"/><line class="cls-4" x1="144.95" y1="327.96" x2="144.36" y2="329.92"/><line class="cls-11" x1="144.95" y1="327.96" x2="144.36" y2="329.92"/><line class="cls-4" x1="143.33" y1="327.55" x2="142.74" y2="329.51"/><line class="cls-11" x1="143.33" y1="327.55" x2="142.74" y2="329.51"/><line class="cls-4" x1="85.52" y1="327.14" x2="84.93" y2="329.11"/><line class="cls-11" x1="85.52" y1="327.14" x2="84.93" y2="329.11"/><line class="cls-12" x1="0.9" y1="337.96" x2="211.22" y2="337.96"/><path class="cls-11" d="M44.09,481.42H254.41M121,272.57v-5.69" transform="translate(-43.19 -143.46)"/><path class="cls-16" d="M196.3,300.27l5.87,11.19a1.92,1.92,0,1,1-3.41,1.79l-3.3-6.19" transform="translate(-43.19 -143.46)"/><path class="cls-11" d="M196.3,300.27l5.87,11.19a1.92,1.92,0,1,1-3.41,1.79l-3.3-6.19" transform="translate(-43.19 -143.46)"/><path class="cls-16" d="M192.77,302l5.87,11.19a1.93,1.93,0,0,1-3.41,1.79l-3.3-6.19" transform="translate(-43.19 -143.46)"/><path class="cls-11" d="M192.77,302l5.87,11.19a1.93,1.93,0,0,1-3.41,1.79l-3.3-6.19" transform="translate(-43.19 -143.46)"/><path class="cls-16" d="M190.69,306.26l4.52,8.62a1.92,1.92,0,1,1-3.41,1.79l-3.3-6.19" transform="translate(-43.19 -143.46)"/><path class="cls-11" d="M190.69,306.26l4.52,8.62a1.92,1.92,0,1,1-3.41,1.79l-3.3-6.19" transform="translate(-43.19 -143.46)"/><polygon class="cls-10" points="157.68 171.59 143.1 166.19 148.51 151.61 163.09 157.02 157.68 171.59 157.68 171.59"/><polyline class="cls-9" points="115.13 97.53 115.13 107.5 88.31 107.5 88.31 97.53"/><line class="cls-23" x1="88.31" y1="97.53" x2="115.13" y2="97.53"/><line class="cls-11" x1="88.31" y1="97.53" x2="115.13" y2="97.53"/><path class="cls-12" d="M169.59,186.24H141.85a17,17,0,0,0-17,17v14.58a9,9,0,0,0,9,9H147a12.17,12.17,0,0,0,12.17-12.17V199.55a10.42,10.42,0,0,0,10.42-10.42v-2.89Z" transform="translate(-43.19 -143.46)"/><path class="cls-11" d="M169.59,186.24H141.85a17,17,0,0,0-17,17v14.58a9,9,0,0,0,9,9H147a12.17,12.17,0,0,0,12.17-12.17V199.55a10.42,10.42,0,0,0,10.42-10.42v-2.89Z" transform="translate(-43.19 -143.46)"/><path class="cls-28" d="M142.79,226.78h-8.86a9,9,0,0,1-9-9V203.24a17,17,0,0,1,17-17h8.86a17,17,0,0,0-17,17v14.57a9,9,0,0,0,9,9Z" transform="translate(-43.19 -143.46)"/><path class="cls-29" d="M142.79,226.78h-8.86a9,9,0,0,1-9-9V203.24a17,17,0,0,1,17-17h8.86a17,17,0,0,0-17,17v14.57a9,9,0,0,0,9,9Z" transform="translate(-43.19 -143.46)"/><path class="cls-17" d="M162.19,214.78a4.34,4.34,0,1,0-2.19,3.78" transform="translate(-43.19 -143.46)"/><path class="cls-11" d="M162.19,214.78a4.34,4.34,0,1,0-2.19,3.78" transform="translate(-43.19 -143.46)"/><path class="cls-22" d="M157.84,213a1.77,1.77,0,0,0-1.77,1.77" transform="translate(-43.19 -143.46)"/><path class="cls-11" d="M157.84,213a1.77,1.77,0,0,0-1.77,1.77" transform="translate(-43.19 -143.46)"/><path class="cls-30" d="M140.28,241a11.2,11.2,0,0,0-11.2,11.2v70.56h-7.94V252.2a11.2,11.2,0,0,1,11.2-11.2Z" transform="translate(-43.19 -143.46)"/><path class="cls-16" d="M182.37,294.2l11.83,4.45a1.92,1.92,0,0,1-1.36,3.6l-6.58-2.43" transform="translate(-43.19 -143.46)"/><path class="cls-11" d="M182.37,294.2l11.83,4.45a1.92,1.92,0,0,1-1.36,3.6l-6.58-2.43m-16.15,22.92H120.94V252.2a11.2,11.2,0,0,1,11.2-11.2h26.77a11.2,11.2,0,0,1,11.2,11.2v70.56Z" transform="translate(-43.19 -143.46)"/><path class="cls-17" d="M211.65,184.47a1.92,1.92,0,0,1,3.57-.68l4.26,7.43a1.92,1.92,0,1,1-3.34,1.91l-4.26-7.43a1.91,1.91,0,0,1-.23-1.23Z" transform="translate(-43.19 -143.46)"/><path class="cls-11" d="M211.65,184.47a1.92,1.92,0,0,1,3.57-.68l4.26,7.43a1.92,1.92,0,1,1-3.34,1.91l-4.26-7.43a1.91,1.91,0,0,1-.23-1.23Z" transform="translate(-43.19 -143.46)"/><path class="cls-17" d="M216.86,187.55h0a6.49,6.49,0,0,1,8.53-3.42c3.3,1.41,4.32,4.22,2.9,7.51l-4.44,13.79a64.85,64.85,0,0,1-38.35,40.62l-5-12a52.73,52.73,0,0,0,31.34-32.56l3.34-10" transform="translate(-43.19 -143.46)"/><path class="cls-11" d="M216.86,187.55h0a6.49,6.49,0,0,1,8.53-3.42c3.3,1.41,4.32,4.22,2.9,7.51l-4.44,13.79a64.85,64.85,0,0,1-38.35,40.62l-5-12a52.73,52.73,0,0,0,31.34-32.56l3.34-10" transform="translate(-43.19 -143.46)"/><polyline class="cls-9" points="117.79 97.72 137.34 90.58 142.31 102.6 123.67 109.41"/><polyline class="cls-11" points="117.79 97.72 137.34 90.58 142.31 102.6 123.67 109.41"/><path class="cls-17" d="M216.77,187.76l5-11.61a1.92,1.92,0,0,1,3.53,1.52l-4,9.35" transform="translate(-43.19 -143.46)"/><path class="cls-11" d="M216.77,187.76l5-11.61a1.92,1.92,0,0,1,3.53,1.52l-4,9.35" transform="translate(-43.19 -143.46)"/><path class="cls-17" d="M221.35,187l4-9.26a1.92,1.92,0,1,1,3.53,1.52l-3.55,8.8" transform="translate(-43.19 -143.46)"/><path class="cls-11" d="M221.35,187l4-9.26a1.92,1.92,0,1,1,3.53,1.52l-3.55,8.8" transform="translate(-43.19 -143.46)"/><path class="cls-17" d="M225.2,188.48l2.9-6.63a1.92,1.92,0,0,1,3.57,1.44L226.58,197" transform="translate(-43.19 -143.46)"/><path class="cls-11" d="M225.2,188.48l2.9-6.63a1.92,1.92,0,0,1,3.57,1.44L226.58,197" transform="translate(-43.19 -143.46)"/><line class="cls-15" x1="77.75" y1="173.09" x2="77.75" y2="183.72"/><line class="cls-11" x1="77.75" y1="173.09" x2="77.75" y2="183.72"/><path class="cls-14" d="M408.38,401.22h0a8.48,8.48,0,0,1,8.48-8.48h6.26a5.21,5.21,0,1,0,0-10.41h-14.6v-5.72h29.92v20s-2.16,3.39-7.89,4-22.17.6-22.17.6Z" transform="translate(-43.19 -143.46)"/><path class="cls-31" d="M423.12,382.33h-14.6v-5.72h29.92v21s-2.16,3-7.89,3.61H408.61" transform="translate(-43.19 -143.46)"/></g></g></g></svg>