<svg xmlns="http://www.w3.org/2000/svg" viewBox="0 0 1567.97 1379.12"><defs><style>.cls-1{fill:#f8c471;opacity:0.61;}.cls-2{fill:#ea8953;}</style></defs><title>bg-mobile</title><g id="Layer_2" data-name="Layer 2"><g id="Layer_2-2" data-name="Layer 2"><path class="cls-1" d="M269.05,708.7C210.14,761.14,161,812.68,171,866c24.85,131.76,745.76,393.12,1132.4,490.82,133.35,33.7,239.47,21.13,246.48,13.6,92-98.88-193.09-418-270.39-602.07-73.37-233.23,211-737.37,102-757.12C1118.07-36.48,428.12,567.1,269.05,708.7Z"/><path class="cls-2" d="M104,664.49C43.43,715-7.42,764.88.89,818.54c20.53,132.51,732.5,417.3,1115.73,527.61,132.18,38,238.65,29,245.9,21.65C1457.71,1272,1183.21,943.72,1112,757.21c-65.7-235.5,235-730.07,126.76-753.37C977-52.51,267.64,528.17,104,664.49Z"/></g></g></svg>